<?xml version="1.0" encoding="utf-8" standalone="no"?>
<!DOCTYPE svg PUBLIC "-//W3C//DTD SVG 1.1//EN"
  "http://www.w3.org/Graphics/SVG/1.1/DTD/svg11.dtd">
<!-- Created with matplotlib (https://matplotlib.org/) -->
<svg height="248.518125pt" version="1.1" viewBox="0 0 375.2875 248.518125" width="375.2875pt" xmlns="http://www.w3.org/2000/svg" xmlns:xlink="http://www.w3.org/1999/xlink">
 <metadata>
  <rdf:RDF xmlns:cc="http://creativecommons.org/ns#" xmlns:dc="http://purl.org/dc/elements/1.1/" xmlns:rdf="http://www.w3.org/1999/02/22-rdf-syntax-ns#">
   <cc:Work>
    <dc:type rdf:resource="http://purl.org/dc/dcmitype/StillImage"/>
    <dc:date>2020-12-02T16:01:38.909161</dc:date>
    <dc:format>image/svg+xml</dc:format>
    <dc:creator>
     <cc:Agent>
      <dc:title>Matplotlib v3.3.2, https://matplotlib.org/</dc:title>
     </cc:Agent>
    </dc:creator>
   </cc:Work>
  </rdf:RDF>
 </metadata>
 <defs>
  <style type="text/css">*{stroke-linecap:butt;stroke-linejoin:round;}</style>
 </defs>
 <g id="figure_1">
  <g id="patch_1">
   <path d="M 0 248.518125 
L 375.2875 248.518125 
L 375.2875 0 
L 0 0 
z
" style="fill:none;"/>
  </g>
  <g id="axes_1">
   <g id="patch_2">
    <path d="M 33.2875 224.64 
L 368.0875 224.64 
L 368.0875 7.2 
L 33.2875 7.2 
z
" style="fill:#ffffff;"/>
   </g>
   <g id="matplotlib.axis_1">
    <g id="xtick_1">
     <g id="line2d_1">
      <defs>
       <path d="M 0 0 
L 0 3.5 
" id="m8c4853931a" style="stroke:#000000;stroke-width:0.8;"/>
      </defs>
      <g>
       <use style="stroke:#000000;stroke-width:0.8;" x="48.505682" xlink:href="#m8c4853931a" y="224.64"/>
      </g>
     </g>
     <g id="text_1">
      <!-- 0 -->
      <g transform="translate(45.324432 239.238437)scale(0.1 -0.1)">
       <defs>
        <path d="M 31.78125 66.40625 
Q 24.171875 66.40625 20.328125 58.90625 
Q 16.5 51.421875 16.5 36.375 
Q 16.5 21.390625 20.328125 13.890625 
Q 24.171875 6.390625 31.78125 6.390625 
Q 39.453125 6.390625 43.28125 13.890625 
Q 47.125 21.390625 47.125 36.375 
Q 47.125 51.421875 43.28125 58.90625 
Q 39.453125 66.40625 31.78125 66.40625 
z
M 31.78125 74.21875 
Q 44.046875 74.21875 50.515625 64.515625 
Q 56.984375 54.828125 56.984375 36.375 
Q 56.984375 17.96875 50.515625 8.265625 
Q 44.046875 -1.421875 31.78125 -1.421875 
Q 19.53125 -1.421875 13.0625 8.265625 
Q 6.59375 17.96875 6.59375 36.375 
Q 6.59375 54.828125 13.0625 64.515625 
Q 19.53125 74.21875 31.78125 74.21875 
z
" id="DejaVuSans-48"/>
       </defs>
       <use xlink:href="#DejaVuSans-48"/>
      </g>
     </g>
    </g>
    <g id="xtick_2">
     <g id="line2d_2">
      <g>
       <use style="stroke:#000000;stroke-width:0.8;" x="109.993285" xlink:href="#m8c4853931a" y="224.64"/>
      </g>
     </g>
     <g id="text_2">
      <!-- 20 -->
      <g transform="translate(103.630785 239.238437)scale(0.1 -0.1)">
       <defs>
        <path d="M 19.1875 8.296875 
L 53.609375 8.296875 
L 53.609375 0 
L 7.328125 0 
L 7.328125 8.296875 
Q 12.9375 14.109375 22.625 23.890625 
Q 32.328125 33.6875 34.8125 36.53125 
Q 39.546875 41.84375 41.421875 45.53125 
Q 43.3125 49.21875 43.3125 52.78125 
Q 43.3125 58.59375 39.234375 62.25 
Q 35.15625 65.921875 28.609375 65.921875 
Q 23.96875 65.921875 18.8125 64.3125 
Q 13.671875 62.703125 7.8125 59.421875 
L 7.8125 69.390625 
Q 13.765625 71.78125 18.9375 73 
Q 24.125 74.21875 28.421875 74.21875 
Q 39.75 74.21875 46.484375 68.546875 
Q 53.21875 62.890625 53.21875 53.421875 
Q 53.21875 48.921875 51.53125 44.890625 
Q 49.859375 40.875 45.40625 35.40625 
Q 44.1875 33.984375 37.640625 27.21875 
Q 31.109375 20.453125 19.1875 8.296875 
z
" id="DejaVuSans-50"/>
       </defs>
       <use xlink:href="#DejaVuSans-50"/>
       <use x="63.623047" xlink:href="#DejaVuSans-48"/>
      </g>
     </g>
    </g>
    <g id="xtick_3">
     <g id="line2d_3">
      <g>
       <use style="stroke:#000000;stroke-width:0.8;" x="171.480888" xlink:href="#m8c4853931a" y="224.64"/>
      </g>
     </g>
     <g id="text_3">
      <!-- 40 -->
      <g transform="translate(165.118388 239.238437)scale(0.1 -0.1)">
       <defs>
        <path d="M 37.796875 64.3125 
L 12.890625 25.390625 
L 37.796875 25.390625 
z
M 35.203125 72.90625 
L 47.609375 72.90625 
L 47.609375 25.390625 
L 58.015625 25.390625 
L 58.015625 17.1875 
L 47.609375 17.1875 
L 47.609375 0 
L 37.796875 0 
L 37.796875 17.1875 
L 4.890625 17.1875 
L 4.890625 26.703125 
z
" id="DejaVuSans-52"/>
       </defs>
       <use xlink:href="#DejaVuSans-52"/>
       <use x="63.623047" xlink:href="#DejaVuSans-48"/>
      </g>
     </g>
    </g>
    <g id="xtick_4">
     <g id="line2d_4">
      <g>
       <use style="stroke:#000000;stroke-width:0.8;" x="232.968492" xlink:href="#m8c4853931a" y="224.64"/>
      </g>
     </g>
     <g id="text_4">
      <!-- 60 -->
      <g transform="translate(226.605992 239.238437)scale(0.1 -0.1)">
       <defs>
        <path d="M 33.015625 40.375 
Q 26.375 40.375 22.484375 35.828125 
Q 18.609375 31.296875 18.609375 23.390625 
Q 18.609375 15.53125 22.484375 10.953125 
Q 26.375 6.390625 33.015625 6.390625 
Q 39.65625 6.390625 43.53125 10.953125 
Q 47.40625 15.53125 47.40625 23.390625 
Q 47.40625 31.296875 43.53125 35.828125 
Q 39.65625 40.375 33.015625 40.375 
z
M 52.59375 71.296875 
L 52.59375 62.3125 
Q 48.875 64.0625 45.09375 64.984375 
Q 41.3125 65.921875 37.59375 65.921875 
Q 27.828125 65.921875 22.671875 59.328125 
Q 17.53125 52.734375 16.796875 39.40625 
Q 19.671875 43.65625 24.015625 45.921875 
Q 28.375 48.1875 33.59375 48.1875 
Q 44.578125 48.1875 50.953125 41.515625 
Q 57.328125 34.859375 57.328125 23.390625 
Q 57.328125 12.15625 50.6875 5.359375 
Q 44.046875 -1.421875 33.015625 -1.421875 
Q 20.359375 -1.421875 13.671875 8.265625 
Q 6.984375 17.96875 6.984375 36.375 
Q 6.984375 53.65625 15.1875 63.9375 
Q 23.390625 74.21875 37.203125 74.21875 
Q 40.921875 74.21875 44.703125 73.484375 
Q 48.484375 72.75 52.59375 71.296875 
z
" id="DejaVuSans-54"/>
       </defs>
       <use xlink:href="#DejaVuSans-54"/>
       <use x="63.623047" xlink:href="#DejaVuSans-48"/>
      </g>
     </g>
    </g>
    <g id="xtick_5">
     <g id="line2d_5">
      <g>
       <use style="stroke:#000000;stroke-width:0.8;" x="294.456095" xlink:href="#m8c4853931a" y="224.64"/>
      </g>
     </g>
     <g id="text_5">
      <!-- 80 -->
      <g transform="translate(288.093595 239.238437)scale(0.1 -0.1)">
       <defs>
        <path d="M 31.78125 34.625 
Q 24.75 34.625 20.71875 30.859375 
Q 16.703125 27.09375 16.703125 20.515625 
Q 16.703125 13.921875 20.71875 10.15625 
Q 24.75 6.390625 31.78125 6.390625 
Q 38.8125 6.390625 42.859375 10.171875 
Q 46.921875 13.96875 46.921875 20.515625 
Q 46.921875 27.09375 42.890625 30.859375 
Q 38.875 34.625 31.78125 34.625 
z
M 21.921875 38.8125 
Q 15.578125 40.375 12.03125 44.71875 
Q 8.5 49.078125 8.5 55.328125 
Q 8.5 64.0625 14.71875 69.140625 
Q 20.953125 74.21875 31.78125 74.21875 
Q 42.671875 74.21875 48.875 69.140625 
Q 55.078125 64.0625 55.078125 55.328125 
Q 55.078125 49.078125 51.53125 44.71875 
Q 48 40.375 41.703125 38.8125 
Q 48.828125 37.15625 52.796875 32.3125 
Q 56.78125 27.484375 56.78125 20.515625 
Q 56.78125 9.90625 50.3125 4.234375 
Q 43.84375 -1.421875 31.78125 -1.421875 
Q 19.734375 -1.421875 13.25 4.234375 
Q 6.78125 9.90625 6.78125 20.515625 
Q 6.78125 27.484375 10.78125 32.3125 
Q 14.796875 37.15625 21.921875 38.8125 
z
M 18.3125 54.390625 
Q 18.3125 48.734375 21.84375 45.5625 
Q 25.390625 42.390625 31.78125 42.390625 
Q 38.140625 42.390625 41.71875 45.5625 
Q 45.3125 48.734375 45.3125 54.390625 
Q 45.3125 60.0625 41.71875 63.234375 
Q 38.140625 66.40625 31.78125 66.40625 
Q 25.390625 66.40625 21.84375 63.234375 
Q 18.3125 60.0625 18.3125 54.390625 
z
" id="DejaVuSans-56"/>
       </defs>
       <use xlink:href="#DejaVuSans-56"/>
       <use x="63.623047" xlink:href="#DejaVuSans-48"/>
      </g>
     </g>
    </g>
    <g id="xtick_6">
     <g id="line2d_6">
      <g>
       <use style="stroke:#000000;stroke-width:0.8;" x="355.943698" xlink:href="#m8c4853931a" y="224.64"/>
      </g>
     </g>
     <g id="text_6">
      <!-- 100 -->
      <g transform="translate(346.399948 239.238437)scale(0.1 -0.1)">
       <defs>
        <path d="M 12.40625 8.296875 
L 28.515625 8.296875 
L 28.515625 63.921875 
L 10.984375 60.40625 
L 10.984375 69.390625 
L 28.421875 72.90625 
L 38.28125 72.90625 
L 38.28125 8.296875 
L 54.390625 8.296875 
L 54.390625 0 
L 12.40625 0 
z
" id="DejaVuSans-49"/>
       </defs>
       <use xlink:href="#DejaVuSans-49"/>
       <use x="63.623047" xlink:href="#DejaVuSans-48"/>
       <use x="127.246094" xlink:href="#DejaVuSans-48"/>
      </g>
     </g>
    </g>
   </g>
   <g id="matplotlib.axis_2">
    <g id="ytick_1">
     <g id="line2d_7">
      <defs>
       <path d="M 0 0 
L -3.5 0 
" id="mbfda3b1d6f" style="stroke:#000000;stroke-width:0.8;"/>
      </defs>
      <g>
       <use style="stroke:#000000;stroke-width:0.8;" x="33.2875" xlink:href="#mbfda3b1d6f" y="214.756364"/>
      </g>
     </g>
     <g id="text_7">
      <!-- 0 -->
      <g transform="translate(19.925 218.555582)scale(0.1 -0.1)">
       <use xlink:href="#DejaVuSans-48"/>
      </g>
     </g>
    </g>
    <g id="ytick_2">
     <g id="line2d_8">
      <g>
       <use style="stroke:#000000;stroke-width:0.8;" x="33.2875" xlink:href="#mbfda3b1d6f" y="174.822479"/>
      </g>
     </g>
     <g id="text_8">
      <!-- 20 -->
      <g transform="translate(13.5625 178.621698)scale(0.1 -0.1)">
       <use xlink:href="#DejaVuSans-50"/>
       <use x="63.623047" xlink:href="#DejaVuSans-48"/>
      </g>
     </g>
    </g>
    <g id="ytick_3">
     <g id="line2d_9">
      <g>
       <use style="stroke:#000000;stroke-width:0.8;" x="33.2875" xlink:href="#mbfda3b1d6f" y="134.888595"/>
      </g>
     </g>
     <g id="text_9">
      <!-- 40 -->
      <g transform="translate(13.5625 138.687814)scale(0.1 -0.1)">
       <use xlink:href="#DejaVuSans-52"/>
       <use x="63.623047" xlink:href="#DejaVuSans-48"/>
      </g>
     </g>
    </g>
    <g id="ytick_4">
     <g id="line2d_10">
      <g>
       <use style="stroke:#000000;stroke-width:0.8;" x="33.2875" xlink:href="#mbfda3b1d6f" y="94.954711"/>
      </g>
     </g>
     <g id="text_10">
      <!-- 60 -->
      <g transform="translate(13.5625 98.753929)scale(0.1 -0.1)">
       <use xlink:href="#DejaVuSans-54"/>
       <use x="63.623047" xlink:href="#DejaVuSans-48"/>
      </g>
     </g>
    </g>
    <g id="ytick_5">
     <g id="line2d_11">
      <g>
       <use style="stroke:#000000;stroke-width:0.8;" x="33.2875" xlink:href="#mbfda3b1d6f" y="55.020826"/>
      </g>
     </g>
     <g id="text_11">
      <!-- 80 -->
      <g transform="translate(13.5625 58.820045)scale(0.1 -0.1)">
       <use xlink:href="#DejaVuSans-56"/>
       <use x="63.623047" xlink:href="#DejaVuSans-48"/>
      </g>
     </g>
    </g>
    <g id="ytick_6">
     <g id="line2d_12">
      <g>
       <use style="stroke:#000000;stroke-width:0.8;" x="33.2875" xlink:href="#mbfda3b1d6f" y="15.086942"/>
      </g>
     </g>
     <g id="text_12">
      <!-- 100 -->
      <g transform="translate(7.2 18.886161)scale(0.1 -0.1)">
       <use xlink:href="#DejaVuSans-49"/>
       <use x="63.623047" xlink:href="#DejaVuSans-48"/>
       <use x="127.246094" xlink:href="#DejaVuSans-48"/>
      </g>
     </g>
    </g>
   </g>
   <g id="line2d_13">
    <defs>
     <path d="M -3 3 
L 3 -3 
M -3 -3 
L 3 3 
" id="m3149896980" style="stroke:#1f77b4;"/>
    </defs>
    <g clip-path="url(#pc20ca74c00)">
     <use style="fill:#1f77b4;stroke:#1f77b4;" x="48.505682" xlink:href="#m3149896980" y="214.756364"/>
     <use style="fill:#1f77b4;stroke:#1f77b4;" x="51.580062" xlink:href="#m3149896980" y="212.759669"/>
     <use style="fill:#1f77b4;stroke:#1f77b4;" x="54.654442" xlink:href="#m3149896980" y="210.762975"/>
     <use style="fill:#1f77b4;stroke:#1f77b4;" x="57.728822" xlink:href="#m3149896980" y="208.766281"/>
     <use style="fill:#1f77b4;stroke:#1f77b4;" x="60.803202" xlink:href="#m3149896980" y="206.769587"/>
     <use style="fill:#1f77b4;stroke:#1f77b4;" x="63.877583" xlink:href="#m3149896980" y="204.772893"/>
     <use style="fill:#1f77b4;stroke:#1f77b4;" x="66.951963" xlink:href="#m3149896980" y="202.776198"/>
     <use style="fill:#1f77b4;stroke:#1f77b4;" x="70.026343" xlink:href="#m3149896980" y="200.779504"/>
     <use style="fill:#1f77b4;stroke:#1f77b4;" x="73.100723" xlink:href="#m3149896980" y="198.78281"/>
     <use style="fill:#1f77b4;stroke:#1f77b4;" x="76.175103" xlink:href="#m3149896980" y="196.786116"/>
     <use style="fill:#1f77b4;stroke:#1f77b4;" x="79.249483" xlink:href="#m3149896980" y="194.789421"/>
     <use style="fill:#1f77b4;stroke:#1f77b4;" x="82.323864" xlink:href="#m3149896980" y="192.792727"/>
     <use style="fill:#1f77b4;stroke:#1f77b4;" x="85.398244" xlink:href="#m3149896980" y="190.796033"/>
     <use style="fill:#1f77b4;stroke:#1f77b4;" x="88.472624" xlink:href="#m3149896980" y="188.799339"/>
     <use style="fill:#1f77b4;stroke:#1f77b4;" x="91.547004" xlink:href="#m3149896980" y="186.802645"/>
     <use style="fill:#1f77b4;stroke:#1f77b4;" x="94.621384" xlink:href="#m3149896980" y="184.80595"/>
     <use style="fill:#1f77b4;stroke:#1f77b4;" x="97.695764" xlink:href="#m3149896980" y="182.809256"/>
     <use style="fill:#1f77b4;stroke:#1f77b4;" x="100.770145" xlink:href="#m3149896980" y="180.812562"/>
     <use style="fill:#1f77b4;stroke:#1f77b4;" x="103.844525" xlink:href="#m3149896980" y="178.815868"/>
     <use style="fill:#1f77b4;stroke:#1f77b4;" x="106.918905" xlink:href="#m3149896980" y="176.819174"/>
     <use style="fill:#1f77b4;stroke:#1f77b4;" x="109.993285" xlink:href="#m3149896980" y="174.822479"/>
     <use style="fill:#1f77b4;stroke:#1f77b4;" x="113.067665" xlink:href="#m3149896980" y="172.825785"/>
     <use style="fill:#1f77b4;stroke:#1f77b4;" x="116.142045" xlink:href="#m3149896980" y="170.829091"/>
     <use style="fill:#1f77b4;stroke:#1f77b4;" x="119.216426" xlink:href="#m3149896980" y="168.832397"/>
     <use style="fill:#1f77b4;stroke:#1f77b4;" x="122.290806" xlink:href="#m3149896980" y="166.835702"/>
     <use style="fill:#1f77b4;stroke:#1f77b4;" x="125.365186" xlink:href="#m3149896980" y="164.839008"/>
     <use style="fill:#1f77b4;stroke:#1f77b4;" x="128.439566" xlink:href="#m3149896980" y="162.842314"/>
     <use style="fill:#1f77b4;stroke:#1f77b4;" x="131.513946" xlink:href="#m3149896980" y="160.84562"/>
     <use style="fill:#1f77b4;stroke:#1f77b4;" x="134.588326" xlink:href="#m3149896980" y="158.848926"/>
     <use style="fill:#1f77b4;stroke:#1f77b4;" x="137.662707" xlink:href="#m3149896980" y="156.852231"/>
     <use style="fill:#1f77b4;stroke:#1f77b4;" x="140.737087" xlink:href="#m3149896980" y="154.855537"/>
     <use style="fill:#1f77b4;stroke:#1f77b4;" x="143.811467" xlink:href="#m3149896980" y="152.858843"/>
     <use style="fill:#1f77b4;stroke:#1f77b4;" x="146.885847" xlink:href="#m3149896980" y="150.862149"/>
     <use style="fill:#1f77b4;stroke:#1f77b4;" x="149.960227" xlink:href="#m3149896980" y="148.865455"/>
     <use style="fill:#1f77b4;stroke:#1f77b4;" x="153.034607" xlink:href="#m3149896980" y="146.86876"/>
     <use style="fill:#1f77b4;stroke:#1f77b4;" x="156.108988" xlink:href="#m3149896980" y="144.872066"/>
     <use style="fill:#1f77b4;stroke:#1f77b4;" x="159.183368" xlink:href="#m3149896980" y="142.875372"/>
     <use style="fill:#1f77b4;stroke:#1f77b4;" x="162.257748" xlink:href="#m3149896980" y="140.878678"/>
     <use style="fill:#1f77b4;stroke:#1f77b4;" x="165.332128" xlink:href="#m3149896980" y="138.881983"/>
     <use style="fill:#1f77b4;stroke:#1f77b4;" x="168.406508" xlink:href="#m3149896980" y="136.885289"/>
     <use style="fill:#1f77b4;stroke:#1f77b4;" x="171.480888" xlink:href="#m3149896980" y="134.888595"/>
     <use style="fill:#1f77b4;stroke:#1f77b4;" x="174.555269" xlink:href="#m3149896980" y="132.891901"/>
     <use style="fill:#1f77b4;stroke:#1f77b4;" x="177.629649" xlink:href="#m3149896980" y="130.895207"/>
     <use style="fill:#1f77b4;stroke:#1f77b4;" x="180.704029" xlink:href="#m3149896980" y="128.898512"/>
     <use style="fill:#1f77b4;stroke:#1f77b4;" x="183.778409" xlink:href="#m3149896980" y="126.901818"/>
     <use style="fill:#1f77b4;stroke:#1f77b4;" x="186.852789" xlink:href="#m3149896980" y="124.905124"/>
     <use style="fill:#1f77b4;stroke:#1f77b4;" x="189.927169" xlink:href="#m3149896980" y="122.90843"/>
     <use style="fill:#1f77b4;stroke:#1f77b4;" x="193.00155" xlink:href="#m3149896980" y="120.911736"/>
     <use style="fill:#1f77b4;stroke:#1f77b4;" x="196.07593" xlink:href="#m3149896980" y="118.915041"/>
     <use style="fill:#1f77b4;stroke:#1f77b4;" x="199.15031" xlink:href="#m3149896980" y="116.918347"/>
     <use style="fill:#1f77b4;stroke:#1f77b4;" x="202.22469" xlink:href="#m3149896980" y="114.921653"/>
     <use style="fill:#1f77b4;stroke:#1f77b4;" x="205.29907" xlink:href="#m3149896980" y="112.924959"/>
     <use style="fill:#1f77b4;stroke:#1f77b4;" x="208.37345" xlink:href="#m3149896980" y="110.928264"/>
     <use style="fill:#1f77b4;stroke:#1f77b4;" x="211.447831" xlink:href="#m3149896980" y="108.93157"/>
     <use style="fill:#1f77b4;stroke:#1f77b4;" x="214.522211" xlink:href="#m3149896980" y="106.934876"/>
     <use style="fill:#1f77b4;stroke:#1f77b4;" x="217.596591" xlink:href="#m3149896980" y="104.938182"/>
     <use style="fill:#1f77b4;stroke:#1f77b4;" x="220.670971" xlink:href="#m3149896980" y="102.941488"/>
     <use style="fill:#1f77b4;stroke:#1f77b4;" x="223.745351" xlink:href="#m3149896980" y="100.944793"/>
     <use style="fill:#1f77b4;stroke:#1f77b4;" x="226.819731" xlink:href="#m3149896980" y="98.948099"/>
     <use style="fill:#1f77b4;stroke:#1f77b4;" x="229.894112" xlink:href="#m3149896980" y="96.951405"/>
     <use style="fill:#1f77b4;stroke:#1f77b4;" x="232.968492" xlink:href="#m3149896980" y="94.954711"/>
     <use style="fill:#1f77b4;stroke:#1f77b4;" x="236.042872" xlink:href="#m3149896980" y="92.958017"/>
     <use style="fill:#1f77b4;stroke:#1f77b4;" x="239.117252" xlink:href="#m3149896980" y="90.961322"/>
     <use style="fill:#1f77b4;stroke:#1f77b4;" x="242.191632" xlink:href="#m3149896980" y="88.964628"/>
     <use style="fill:#1f77b4;stroke:#1f77b4;" x="245.266012" xlink:href="#m3149896980" y="86.967934"/>
     <use style="fill:#1f77b4;stroke:#1f77b4;" x="248.340393" xlink:href="#m3149896980" y="84.97124"/>
     <use style="fill:#1f77b4;stroke:#1f77b4;" x="251.414773" xlink:href="#m3149896980" y="82.974545"/>
     <use style="fill:#1f77b4;stroke:#1f77b4;" x="254.489153" xlink:href="#m3149896980" y="80.977851"/>
     <use style="fill:#1f77b4;stroke:#1f77b4;" x="257.563533" xlink:href="#m3149896980" y="78.981157"/>
     <use style="fill:#1f77b4;stroke:#1f77b4;" x="260.637913" xlink:href="#m3149896980" y="76.984463"/>
     <use style="fill:#1f77b4;stroke:#1f77b4;" x="263.712293" xlink:href="#m3149896980" y="74.987769"/>
     <use style="fill:#1f77b4;stroke:#1f77b4;" x="266.786674" xlink:href="#m3149896980" y="72.991074"/>
     <use style="fill:#1f77b4;stroke:#1f77b4;" x="269.861054" xlink:href="#m3149896980" y="70.99438"/>
     <use style="fill:#1f77b4;stroke:#1f77b4;" x="272.935434" xlink:href="#m3149896980" y="68.997686"/>
     <use style="fill:#1f77b4;stroke:#1f77b4;" x="276.009814" xlink:href="#m3149896980" y="67.000992"/>
     <use style="fill:#1f77b4;stroke:#1f77b4;" x="279.084194" xlink:href="#m3149896980" y="65.004298"/>
     <use style="fill:#1f77b4;stroke:#1f77b4;" x="282.158574" xlink:href="#m3149896980" y="63.007603"/>
     <use style="fill:#1f77b4;stroke:#1f77b4;" x="285.232955" xlink:href="#m3149896980" y="61.010909"/>
     <use style="fill:#1f77b4;stroke:#1f77b4;" x="288.307335" xlink:href="#m3149896980" y="59.014215"/>
     <use style="fill:#1f77b4;stroke:#1f77b4;" x="291.381715" xlink:href="#m3149896980" y="57.017521"/>
     <use style="fill:#1f77b4;stroke:#1f77b4;" x="294.456095" xlink:href="#m3149896980" y="55.020826"/>
     <use style="fill:#1f77b4;stroke:#1f77b4;" x="297.530475" xlink:href="#m3149896980" y="53.024132"/>
     <use style="fill:#1f77b4;stroke:#1f77b4;" x="300.604855" xlink:href="#m3149896980" y="51.027438"/>
     <use style="fill:#1f77b4;stroke:#1f77b4;" x="303.679236" xlink:href="#m3149896980" y="49.030744"/>
     <use style="fill:#1f77b4;stroke:#1f77b4;" x="306.753616" xlink:href="#m3149896980" y="47.03405"/>
     <use style="fill:#1f77b4;stroke:#1f77b4;" x="309.827996" xlink:href="#m3149896980" y="45.037355"/>
     <use style="fill:#1f77b4;stroke:#1f77b4;" x="312.902376" xlink:href="#m3149896980" y="43.040661"/>
     <use style="fill:#1f77b4;stroke:#1f77b4;" x="315.976756" xlink:href="#m3149896980" y="41.043967"/>
     <use style="fill:#1f77b4;stroke:#1f77b4;" x="319.051136" xlink:href="#m3149896980" y="39.047273"/>
     <use style="fill:#1f77b4;stroke:#1f77b4;" x="322.125517" xlink:href="#m3149896980" y="37.050579"/>
     <use style="fill:#1f77b4;stroke:#1f77b4;" x="325.199897" xlink:href="#m3149896980" y="35.053884"/>
     <use style="fill:#1f77b4;stroke:#1f77b4;" x="328.274277" xlink:href="#m3149896980" y="33.05719"/>
     <use style="fill:#1f77b4;stroke:#1f77b4;" x="331.348657" xlink:href="#m3149896980" y="31.060496"/>
     <use style="fill:#1f77b4;stroke:#1f77b4;" x="334.423037" xlink:href="#m3149896980" y="29.063802"/>
     <use style="fill:#1f77b4;stroke:#1f77b4;" x="337.497417" xlink:href="#m3149896980" y="27.067107"/>
     <use style="fill:#1f77b4;stroke:#1f77b4;" x="340.571798" xlink:href="#m3149896980" y="25.070413"/>
     <use style="fill:#1f77b4;stroke:#1f77b4;" x="343.646178" xlink:href="#m3149896980" y="23.073719"/>
     <use style="fill:#1f77b4;stroke:#1f77b4;" x="346.720558" xlink:href="#m3149896980" y="21.077025"/>
     <use style="fill:#1f77b4;stroke:#1f77b4;" x="349.794938" xlink:href="#m3149896980" y="19.080331"/>
     <use style="fill:#1f77b4;stroke:#1f77b4;" x="352.869318" xlink:href="#m3149896980" y="17.083636"/>
    </g>
   </g>
   <g id="patch_3">
    <path d="M 33.2875 224.64 
L 33.2875 7.2 
" style="fill:none;stroke:#000000;stroke-linecap:square;stroke-linejoin:miter;stroke-width:0.8;"/>
   </g>
   <g id="patch_4">
    <path d="M 368.0875 224.64 
L 368.0875 7.2 
" style="fill:none;stroke:#000000;stroke-linecap:square;stroke-linejoin:miter;stroke-width:0.8;"/>
   </g>
   <g id="patch_5">
    <path d="M 33.2875 224.64 
L 368.0875 224.64 
" style="fill:none;stroke:#000000;stroke-linecap:square;stroke-linejoin:miter;stroke-width:0.8;"/>
   </g>
   <g id="patch_6">
    <path d="M 33.2875 7.2 
L 368.0875 7.2 
" style="fill:none;stroke:#000000;stroke-linecap:square;stroke-linejoin:miter;stroke-width:0.8;"/>
   </g>
  </g>
 </g>
 <defs>
  <clipPath id="pc20ca74c00">
   <rect height="217.44" width="334.8" x="33.2875" y="7.2"/>
  </clipPath>
 </defs>
</svg>
