<?xml version="1.0" encoding="utf-8" standalone="no"?>
<!DOCTYPE svg PUBLIC "-//W3C//DTD SVG 1.1//EN"
  "http://www.w3.org/Graphics/SVG/1.1/DTD/svg11.dtd">
<!-- Created with matplotlib (https://matplotlib.org/) -->
<svg height="277.31625pt" version="1.1" viewBox="0 0 408.05 277.31625" width="408.05pt" xmlns="http://www.w3.org/2000/svg" xmlns:xlink="http://www.w3.org/1999/xlink">
 <metadata>
  <rdf:RDF xmlns:cc="http://creativecommons.org/ns#" xmlns:dc="http://purl.org/dc/elements/1.1/" xmlns:rdf="http://www.w3.org/1999/02/22-rdf-syntax-ns#">
   <cc:Work>
    <dc:type rdf:resource="http://purl.org/dc/dcmitype/StillImage"/>
    <dc:date>2020-12-02T16:30:11.132386</dc:date>
    <dc:format>image/svg+xml</dc:format>
    <dc:creator>
     <cc:Agent>
      <dc:title>Matplotlib v3.3.2, https://matplotlib.org/</dc:title>
     </cc:Agent>
    </dc:creator>
   </cc:Work>
  </rdf:RDF>
 </metadata>
 <defs>
  <style type="text/css">*{stroke-linecap:butt;stroke-linejoin:round;}</style>
 </defs>
 <g id="figure_1">
  <g id="patch_1">
   <path d="M 0 277.31625 
L 408.05 277.31625 
L 408.05 0 
L 0 0 
z
" style="fill:none;"/>
  </g>
  <g id="axes_1">
   <g id="patch_2">
    <path d="M 56.50625 239.76 
L 391.30625 239.76 
L 391.30625 22.32 
L 56.50625 22.32 
z
" style="fill:#ffffff;"/>
   </g>
   <g id="patch_3">
    <path clip-path="url(#p064ebd2d70)" d="M 50.901884 239.76 
L 57.278813 239.76 
L 57.278813 239.442889 
L 50.901884 239.442889 
z
" style="fill:#008000;opacity:0.75;"/>
   </g>
   <g id="patch_4">
    <path clip-path="url(#p064ebd2d70)" d="M 57.278813 239.76 
L 63.655742 239.76 
L 63.655742 239.76 
L 57.278813 239.76 
z
" style="fill:#008000;opacity:0.75;"/>
   </g>
   <g id="patch_5">
    <path clip-path="url(#p064ebd2d70)" d="M 63.655742 239.76 
L 70.032671 239.76 
L 70.032671 239.442889 
L 63.655742 239.442889 
z
" style="fill:#008000;opacity:0.75;"/>
   </g>
   <g id="patch_6">
    <path clip-path="url(#p064ebd2d70)" d="M 70.032671 239.76 
L 76.409599 239.76 
L 76.409599 239.442889 
L 70.032671 239.442889 
z
" style="fill:#008000;opacity:0.75;"/>
   </g>
   <g id="patch_7">
    <path clip-path="url(#p064ebd2d70)" d="M 76.409599 239.76 
L 82.786528 239.76 
L 82.786528 239.76 
L 76.409599 239.76 
z
" style="fill:#008000;opacity:0.75;"/>
   </g>
   <g id="patch_8">
    <path clip-path="url(#p064ebd2d70)" d="M 82.786528 239.76 
L 89.163457 239.76 
L 89.163457 239.125779 
L 82.786528 239.125779 
z
" style="fill:#008000;opacity:0.75;"/>
   </g>
   <g id="patch_9">
    <path clip-path="url(#p064ebd2d70)" d="M 89.163457 239.76 
L 95.540386 239.76 
L 95.540386 238.808668 
L 89.163457 238.808668 
z
" style="fill:#008000;opacity:0.75;"/>
   </g>
   <g id="patch_10">
    <path clip-path="url(#p064ebd2d70)" d="M 95.540386 239.76 
L 101.917315 239.76 
L 101.917315 238.174447 
L 95.540386 238.174447 
z
" style="fill:#008000;opacity:0.75;"/>
   </g>
   <g id="patch_11">
    <path clip-path="url(#p064ebd2d70)" d="M 101.917315 239.76 
L 108.294244 239.76 
L 108.294244 236.906004 
L 101.917315 236.906004 
z
" style="fill:#008000;opacity:0.75;"/>
   </g>
   <g id="patch_12">
    <path clip-path="url(#p064ebd2d70)" d="M 108.294244 239.76 
L 114.671173 239.76 
L 114.671173 235.320451 
L 108.294244 235.320451 
z
" style="fill:#008000;opacity:0.75;"/>
   </g>
   <g id="patch_13">
    <path clip-path="url(#p064ebd2d70)" d="M 114.671173 239.76 
L 121.048102 239.76 
L 121.048102 231.832234 
L 114.671173 231.832234 
z
" style="fill:#008000;opacity:0.75;"/>
   </g>
   <g id="patch_14">
    <path clip-path="url(#p064ebd2d70)" d="M 121.048102 239.76 
L 127.425031 239.76 
L 127.425031 226.441353 
L 121.048102 226.441353 
z
" style="fill:#008000;opacity:0.75;"/>
   </g>
   <g id="patch_15">
    <path clip-path="url(#p064ebd2d70)" d="M 127.425031 239.76 
L 133.801959 239.76 
L 133.801959 222.953136 
L 127.425031 222.953136 
z
" style="fill:#008000;opacity:0.75;"/>
   </g>
   <g id="patch_16">
    <path clip-path="url(#p064ebd2d70)" d="M 133.801959 239.76 
L 140.178888 239.76 
L 140.178888 216.293813 
L 133.801959 216.293813 
z
" style="fill:#008000;opacity:0.75;"/>
   </g>
   <g id="patch_17">
    <path clip-path="url(#p064ebd2d70)" d="M 140.178888 239.76 
L 146.555817 239.76 
L 146.555817 209.000268 
L 140.178888 209.000268 
z
" style="fill:#008000;opacity:0.75;"/>
   </g>
   <g id="patch_18">
    <path clip-path="url(#p064ebd2d70)" d="M 146.555817 239.76 
L 152.932746 239.76 
L 152.932746 196.315842 
L 146.555817 196.315842 
z
" style="fill:#008000;opacity:0.75;"/>
   </g>
   <g id="patch_19">
    <path clip-path="url(#p064ebd2d70)" d="M 152.932746 239.76 
L 159.309675 239.76 
L 159.309675 185.21697 
L 152.932746 185.21697 
z
" style="fill:#008000;opacity:0.75;"/>
   </g>
   <g id="patch_20">
    <path clip-path="url(#p064ebd2d70)" d="M 159.309675 239.76 
L 165.686604 239.76 
L 165.686604 173.483876 
L 159.309675 173.483876 
z
" style="fill:#008000;opacity:0.75;"/>
   </g>
   <g id="patch_21">
    <path clip-path="url(#p064ebd2d70)" d="M 165.686604 239.76 
L 172.063533 239.76 
L 172.063533 157.945455 
L 165.686604 157.945455 
z
" style="fill:#008000;opacity:0.75;"/>
   </g>
   <g id="patch_22">
    <path clip-path="url(#p064ebd2d70)" d="M 172.063533 239.76 
L 178.440462 239.76 
L 178.440462 136.381931 
L 172.063533 136.381931 
z
" style="fill:#008000;opacity:0.75;"/>
   </g>
   <g id="patch_23">
    <path clip-path="url(#p064ebd2d70)" d="M 178.440462 239.76 
L 184.817391 239.76 
L 184.817391 123.380395 
L 178.440462 123.380395 
z
" style="fill:#008000;opacity:0.75;"/>
   </g>
   <g id="patch_24">
    <path clip-path="url(#p064ebd2d70)" d="M 184.817391 239.76 
L 191.194319 239.76 
L 191.194319 106.890642 
L 184.817391 106.890642 
z
" style="fill:#008000;opacity:0.75;"/>
   </g>
   <g id="patch_25">
    <path clip-path="url(#p064ebd2d70)" d="M 191.194319 239.76 
L 197.571248 239.76 
L 197.571248 91.986442 
L 191.194319 91.986442 
z
" style="fill:#008000;opacity:0.75;"/>
   </g>
   <g id="patch_26">
    <path clip-path="url(#p064ebd2d70)" d="M 197.571248 239.76 
L 203.948177 239.76 
L 203.948177 85.96134 
L 197.571248 85.96134 
z
" style="fill:#008000;opacity:0.75;"/>
   </g>
   <g id="patch_27">
    <path clip-path="url(#p064ebd2d70)" d="M 203.948177 239.76 
L 210.325106 239.76 
L 210.325106 57.421382 
L 203.948177 57.421382 
z
" style="fill:#008000;opacity:0.75;"/>
   </g>
   <g id="patch_28">
    <path clip-path="url(#p064ebd2d70)" d="M 210.325106 239.76 
L 216.702035 239.76 
L 216.702035 59.958267 
L 210.325106 59.958267 
z
" style="fill:#008000;opacity:0.75;"/>
   </g>
   <g id="patch_29">
    <path clip-path="url(#p064ebd2d70)" d="M 216.702035 239.76 
L 223.078964 239.76 
L 223.078964 38.394744 
L 216.702035 38.394744 
z
" style="fill:#008000;opacity:0.75;"/>
   </g>
   <g id="patch_30">
    <path clip-path="url(#p064ebd2d70)" d="M 223.078964 239.76 
L 229.455893 239.76 
L 229.455893 54.250276 
L 223.078964 54.250276 
z
" style="fill:#008000;opacity:0.75;"/>
   </g>
   <g id="patch_31">
    <path clip-path="url(#p064ebd2d70)" d="M 229.455893 239.76 
L 235.832822 239.76 
L 235.832822 47.273842 
L 229.455893 47.273842 
z
" style="fill:#008000;opacity:0.75;"/>
   </g>
   <g id="patch_32">
    <path clip-path="url(#p064ebd2d70)" d="M 235.832822 239.76 
L 242.209751 239.76 
L 242.209751 49.176506 
L 235.832822 49.176506 
z
" style="fill:#008000;opacity:0.75;"/>
   </g>
   <g id="patch_33">
    <path clip-path="url(#p064ebd2d70)" d="M 242.209751 239.76 
L 248.586679 239.76 
L 248.586679 78.033574 
L 242.209751 78.033574 
z
" style="fill:#008000;opacity:0.75;"/>
   </g>
   <g id="patch_34">
    <path clip-path="url(#p064ebd2d70)" d="M 248.586679 239.76 
L 254.963608 239.76 
L 254.963608 91.03511 
L 248.586679 91.03511 
z
" style="fill:#008000;opacity:0.75;"/>
   </g>
   <g id="patch_35">
    <path clip-path="url(#p064ebd2d70)" d="M 254.963608 239.76 
L 261.340537 239.76 
L 261.340537 109.110416 
L 254.963608 109.110416 
z
" style="fill:#008000;opacity:0.75;"/>
   </g>
   <g id="patch_36">
    <path clip-path="url(#p064ebd2d70)" d="M 261.340537 239.76 
L 267.717466 239.76 
L 267.717466 118.306625 
L 261.340537 118.306625 
z
" style="fill:#008000;opacity:0.75;"/>
   </g>
   <g id="patch_37">
    <path clip-path="url(#p064ebd2d70)" d="M 267.717466 239.76 
L 274.094395 239.76 
L 274.094395 135.113489 
L 267.717466 135.113489 
z
" style="fill:#008000;opacity:0.75;"/>
   </g>
   <g id="patch_38">
    <path clip-path="url(#p064ebd2d70)" d="M 274.094395 239.76 
L 280.471324 239.76 
L 280.471324 152.871685 
L 274.094395 152.871685 
z
" style="fill:#008000;opacity:0.75;"/>
   </g>
   <g id="patch_39">
    <path clip-path="url(#p064ebd2d70)" d="M 280.471324 239.76 
L 286.848253 239.76 
L 286.848253 168.727217 
L 280.471324 168.727217 
z
" style="fill:#008000;opacity:0.75;"/>
   </g>
   <g id="patch_40">
    <path clip-path="url(#p064ebd2d70)" d="M 286.848253 239.76 
L 293.225182 239.76 
L 293.225182 186.802523 
L 286.848253 186.802523 
z
" style="fill:#008000;opacity:0.75;"/>
   </g>
   <g id="patch_41">
    <path clip-path="url(#p064ebd2d70)" d="M 293.225182 239.76 
L 299.602111 239.76 
L 299.602111 199.169838 
L 293.225182 199.169838 
z
" style="fill:#008000;opacity:0.75;"/>
   </g>
   <g id="patch_42">
    <path clip-path="url(#p064ebd2d70)" d="M 299.602111 239.76 
L 305.979039 239.76 
L 305.979039 205.19494 
L 299.602111 205.19494 
z
" style="fill:#008000;opacity:0.75;"/>
   </g>
   <g id="patch_43">
    <path clip-path="url(#p064ebd2d70)" d="M 305.979039 239.76 
L 312.355968 239.76 
L 312.355968 211.854264 
L 305.979039 211.854264 
z
" style="fill:#008000;opacity:0.75;"/>
   </g>
   <g id="patch_44">
    <path clip-path="url(#p064ebd2d70)" d="M 312.355968 239.76 
L 318.732897 239.76 
L 318.732897 222.001804 
L 312.355968 222.001804 
z
" style="fill:#008000;opacity:0.75;"/>
   </g>
   <g id="patch_45">
    <path clip-path="url(#p064ebd2d70)" d="M 318.732897 239.76 
L 325.109826 239.76 
L 325.109826 226.758464 
L 318.732897 226.758464 
z
" style="fill:#008000;opacity:0.75;"/>
   </g>
   <g id="patch_46">
    <path clip-path="url(#p064ebd2d70)" d="M 325.109826 239.76 
L 331.486755 239.76 
L 331.486755 228.978238 
L 325.109826 228.978238 
z
" style="fill:#008000;opacity:0.75;"/>
   </g>
   <g id="patch_47">
    <path clip-path="url(#p064ebd2d70)" d="M 331.486755 239.76 
L 337.863684 239.76 
L 337.863684 233.734898 
L 331.486755 233.734898 
z
" style="fill:#008000;opacity:0.75;"/>
   </g>
   <g id="patch_48">
    <path clip-path="url(#p064ebd2d70)" d="M 337.863684 239.76 
L 344.240613 239.76 
L 344.240613 237.540226 
L 337.863684 237.540226 
z
" style="fill:#008000;opacity:0.75;"/>
   </g>
   <g id="patch_49">
    <path clip-path="url(#p064ebd2d70)" d="M 344.240613 239.76 
L 350.617542 239.76 
L 350.617542 237.857336 
L 344.240613 237.857336 
z
" style="fill:#008000;opacity:0.75;"/>
   </g>
   <g id="patch_50">
    <path clip-path="url(#p064ebd2d70)" d="M 350.617542 239.76 
L 356.994471 239.76 
L 356.994471 238.808668 
L 350.617542 238.808668 
z
" style="fill:#008000;opacity:0.75;"/>
   </g>
   <g id="patch_51">
    <path clip-path="url(#p064ebd2d70)" d="M 356.994471 239.76 
L 363.3714 239.76 
L 363.3714 238.808668 
L 356.994471 238.808668 
z
" style="fill:#008000;opacity:0.75;"/>
   </g>
   <g id="patch_52">
    <path clip-path="url(#p064ebd2d70)" d="M 363.3714 239.76 
L 369.748328 239.76 
L 369.748328 239.442889 
L 363.3714 239.442889 
z
" style="fill:#008000;opacity:0.75;"/>
   </g>
   <g id="matplotlib.axis_1">
    <g id="xtick_1">
     <g id="line2d_1">
      <path clip-path="url(#p064ebd2d70)" d="M 56.50625 239.76 
L 56.50625 22.32 
" style="fill:none;stroke:#b0b0b0;stroke-linecap:square;stroke-width:0.8;"/>
     </g>
     <g id="line2d_2">
      <defs>
       <path d="M 0 0 
L 0 3.5 
" id="md8db364fa8" style="stroke:#000000;stroke-width:0.8;"/>
      </defs>
      <g>
       <use style="stroke:#000000;stroke-width:0.8;" x="56.50625" xlink:href="#md8db364fa8" y="239.76"/>
      </g>
     </g>
     <g id="text_1">
      <!-- 40 -->
      <g transform="translate(50.14375 254.358437)scale(0.1 -0.1)">
       <defs>
        <path d="M 37.796875 64.3125 
L 12.890625 25.390625 
L 37.796875 25.390625 
z
M 35.203125 72.90625 
L 47.609375 72.90625 
L 47.609375 25.390625 
L 58.015625 25.390625 
L 58.015625 17.1875 
L 47.609375 17.1875 
L 47.609375 0 
L 37.796875 0 
L 37.796875 17.1875 
L 4.890625 17.1875 
L 4.890625 26.703125 
z
" id="DejaVuSans-52"/>
        <path d="M 31.78125 66.40625 
Q 24.171875 66.40625 20.328125 58.90625 
Q 16.5 51.421875 16.5 36.375 
Q 16.5 21.390625 20.328125 13.890625 
Q 24.171875 6.390625 31.78125 6.390625 
Q 39.453125 6.390625 43.28125 13.890625 
Q 47.125 21.390625 47.125 36.375 
Q 47.125 51.421875 43.28125 58.90625 
Q 39.453125 66.40625 31.78125 66.40625 
z
M 31.78125 74.21875 
Q 44.046875 74.21875 50.515625 64.515625 
Q 56.984375 54.828125 56.984375 36.375 
Q 56.984375 17.96875 50.515625 8.265625 
Q 44.046875 -1.421875 31.78125 -1.421875 
Q 19.53125 -1.421875 13.0625 8.265625 
Q 6.59375 17.96875 6.59375 36.375 
Q 6.59375 54.828125 13.0625 64.515625 
Q 19.53125 74.21875 31.78125 74.21875 
z
" id="DejaVuSans-48"/>
       </defs>
       <use xlink:href="#DejaVuSans-52"/>
       <use x="63.623047" xlink:href="#DejaVuSans-48"/>
      </g>
     </g>
    </g>
    <g id="xtick_2">
     <g id="line2d_3">
      <path clip-path="url(#p064ebd2d70)" d="M 112.30625 239.76 
L 112.30625 22.32 
" style="fill:none;stroke:#b0b0b0;stroke-linecap:square;stroke-width:0.8;"/>
     </g>
     <g id="line2d_4">
      <g>
       <use style="stroke:#000000;stroke-width:0.8;" x="112.30625" xlink:href="#md8db364fa8" y="239.76"/>
      </g>
     </g>
     <g id="text_2">
      <!-- 60 -->
      <g transform="translate(105.94375 254.358437)scale(0.1 -0.1)">
       <defs>
        <path d="M 33.015625 40.375 
Q 26.375 40.375 22.484375 35.828125 
Q 18.609375 31.296875 18.609375 23.390625 
Q 18.609375 15.53125 22.484375 10.953125 
Q 26.375 6.390625 33.015625 6.390625 
Q 39.65625 6.390625 43.53125 10.953125 
Q 47.40625 15.53125 47.40625 23.390625 
Q 47.40625 31.296875 43.53125 35.828125 
Q 39.65625 40.375 33.015625 40.375 
z
M 52.59375 71.296875 
L 52.59375 62.3125 
Q 48.875 64.0625 45.09375 64.984375 
Q 41.3125 65.921875 37.59375 65.921875 
Q 27.828125 65.921875 22.671875 59.328125 
Q 17.53125 52.734375 16.796875 39.40625 
Q 19.671875 43.65625 24.015625 45.921875 
Q 28.375 48.1875 33.59375 48.1875 
Q 44.578125 48.1875 50.953125 41.515625 
Q 57.328125 34.859375 57.328125 23.390625 
Q 57.328125 12.15625 50.6875 5.359375 
Q 44.046875 -1.421875 33.015625 -1.421875 
Q 20.359375 -1.421875 13.671875 8.265625 
Q 6.984375 17.96875 6.984375 36.375 
Q 6.984375 53.65625 15.1875 63.9375 
Q 23.390625 74.21875 37.203125 74.21875 
Q 40.921875 74.21875 44.703125 73.484375 
Q 48.484375 72.75 52.59375 71.296875 
z
" id="DejaVuSans-54"/>
       </defs>
       <use xlink:href="#DejaVuSans-54"/>
       <use x="63.623047" xlink:href="#DejaVuSans-48"/>
      </g>
     </g>
    </g>
    <g id="xtick_3">
     <g id="line2d_5">
      <path clip-path="url(#p064ebd2d70)" d="M 168.10625 239.76 
L 168.10625 22.32 
" style="fill:none;stroke:#b0b0b0;stroke-linecap:square;stroke-width:0.8;"/>
     </g>
     <g id="line2d_6">
      <g>
       <use style="stroke:#000000;stroke-width:0.8;" x="168.10625" xlink:href="#md8db364fa8" y="239.76"/>
      </g>
     </g>
     <g id="text_3">
      <!-- 80 -->
      <g transform="translate(161.74375 254.358437)scale(0.1 -0.1)">
       <defs>
        <path d="M 31.78125 34.625 
Q 24.75 34.625 20.71875 30.859375 
Q 16.703125 27.09375 16.703125 20.515625 
Q 16.703125 13.921875 20.71875 10.15625 
Q 24.75 6.390625 31.78125 6.390625 
Q 38.8125 6.390625 42.859375 10.171875 
Q 46.921875 13.96875 46.921875 20.515625 
Q 46.921875 27.09375 42.890625 30.859375 
Q 38.875 34.625 31.78125 34.625 
z
M 21.921875 38.8125 
Q 15.578125 40.375 12.03125 44.71875 
Q 8.5 49.078125 8.5 55.328125 
Q 8.5 64.0625 14.71875 69.140625 
Q 20.953125 74.21875 31.78125 74.21875 
Q 42.671875 74.21875 48.875 69.140625 
Q 55.078125 64.0625 55.078125 55.328125 
Q 55.078125 49.078125 51.53125 44.71875 
Q 48 40.375 41.703125 38.8125 
Q 48.828125 37.15625 52.796875 32.3125 
Q 56.78125 27.484375 56.78125 20.515625 
Q 56.78125 9.90625 50.3125 4.234375 
Q 43.84375 -1.421875 31.78125 -1.421875 
Q 19.734375 -1.421875 13.25 4.234375 
Q 6.78125 9.90625 6.78125 20.515625 
Q 6.78125 27.484375 10.78125 32.3125 
Q 14.796875 37.15625 21.921875 38.8125 
z
M 18.3125 54.390625 
Q 18.3125 48.734375 21.84375 45.5625 
Q 25.390625 42.390625 31.78125 42.390625 
Q 38.140625 42.390625 41.71875 45.5625 
Q 45.3125 48.734375 45.3125 54.390625 
Q 45.3125 60.0625 41.71875 63.234375 
Q 38.140625 66.40625 31.78125 66.40625 
Q 25.390625 66.40625 21.84375 63.234375 
Q 18.3125 60.0625 18.3125 54.390625 
z
" id="DejaVuSans-56"/>
       </defs>
       <use xlink:href="#DejaVuSans-56"/>
       <use x="63.623047" xlink:href="#DejaVuSans-48"/>
      </g>
     </g>
    </g>
    <g id="xtick_4">
     <g id="line2d_7">
      <path clip-path="url(#p064ebd2d70)" d="M 223.90625 239.76 
L 223.90625 22.32 
" style="fill:none;stroke:#b0b0b0;stroke-linecap:square;stroke-width:0.8;"/>
     </g>
     <g id="line2d_8">
      <g>
       <use style="stroke:#000000;stroke-width:0.8;" x="223.90625" xlink:href="#md8db364fa8" y="239.76"/>
      </g>
     </g>
     <g id="text_4">
      <!-- 100 -->
      <g transform="translate(214.3625 254.358437)scale(0.1 -0.1)">
       <defs>
        <path d="M 12.40625 8.296875 
L 28.515625 8.296875 
L 28.515625 63.921875 
L 10.984375 60.40625 
L 10.984375 69.390625 
L 28.421875 72.90625 
L 38.28125 72.90625 
L 38.28125 8.296875 
L 54.390625 8.296875 
L 54.390625 0 
L 12.40625 0 
z
" id="DejaVuSans-49"/>
       </defs>
       <use xlink:href="#DejaVuSans-49"/>
       <use x="63.623047" xlink:href="#DejaVuSans-48"/>
       <use x="127.246094" xlink:href="#DejaVuSans-48"/>
      </g>
     </g>
    </g>
    <g id="xtick_5">
     <g id="line2d_9">
      <path clip-path="url(#p064ebd2d70)" d="M 279.70625 239.76 
L 279.70625 22.32 
" style="fill:none;stroke:#b0b0b0;stroke-linecap:square;stroke-width:0.8;"/>
     </g>
     <g id="line2d_10">
      <g>
       <use style="stroke:#000000;stroke-width:0.8;" x="279.70625" xlink:href="#md8db364fa8" y="239.76"/>
      </g>
     </g>
     <g id="text_5">
      <!-- 120 -->
      <g transform="translate(270.1625 254.358437)scale(0.1 -0.1)">
       <defs>
        <path d="M 19.1875 8.296875 
L 53.609375 8.296875 
L 53.609375 0 
L 7.328125 0 
L 7.328125 8.296875 
Q 12.9375 14.109375 22.625 23.890625 
Q 32.328125 33.6875 34.8125 36.53125 
Q 39.546875 41.84375 41.421875 45.53125 
Q 43.3125 49.21875 43.3125 52.78125 
Q 43.3125 58.59375 39.234375 62.25 
Q 35.15625 65.921875 28.609375 65.921875 
Q 23.96875 65.921875 18.8125 64.3125 
Q 13.671875 62.703125 7.8125 59.421875 
L 7.8125 69.390625 
Q 13.765625 71.78125 18.9375 73 
Q 24.125 74.21875 28.421875 74.21875 
Q 39.75 74.21875 46.484375 68.546875 
Q 53.21875 62.890625 53.21875 53.421875 
Q 53.21875 48.921875 51.53125 44.890625 
Q 49.859375 40.875 45.40625 35.40625 
Q 44.1875 33.984375 37.640625 27.21875 
Q 31.109375 20.453125 19.1875 8.296875 
z
" id="DejaVuSans-50"/>
       </defs>
       <use xlink:href="#DejaVuSans-49"/>
       <use x="63.623047" xlink:href="#DejaVuSans-50"/>
       <use x="127.246094" xlink:href="#DejaVuSans-48"/>
      </g>
     </g>
    </g>
    <g id="xtick_6">
     <g id="line2d_11">
      <path clip-path="url(#p064ebd2d70)" d="M 335.50625 239.76 
L 335.50625 22.32 
" style="fill:none;stroke:#b0b0b0;stroke-linecap:square;stroke-width:0.8;"/>
     </g>
     <g id="line2d_12">
      <g>
       <use style="stroke:#000000;stroke-width:0.8;" x="335.50625" xlink:href="#md8db364fa8" y="239.76"/>
      </g>
     </g>
     <g id="text_6">
      <!-- 140 -->
      <g transform="translate(325.9625 254.358437)scale(0.1 -0.1)">
       <use xlink:href="#DejaVuSans-49"/>
       <use x="63.623047" xlink:href="#DejaVuSans-52"/>
       <use x="127.246094" xlink:href="#DejaVuSans-48"/>
      </g>
     </g>
    </g>
    <g id="xtick_7">
     <g id="line2d_13">
      <path clip-path="url(#p064ebd2d70)" d="M 391.30625 239.76 
L 391.30625 22.32 
" style="fill:none;stroke:#b0b0b0;stroke-linecap:square;stroke-width:0.8;"/>
     </g>
     <g id="line2d_14">
      <g>
       <use style="stroke:#000000;stroke-width:0.8;" x="391.30625" xlink:href="#md8db364fa8" y="239.76"/>
      </g>
     </g>
     <g id="text_7">
      <!-- 160 -->
      <g transform="translate(381.7625 254.358437)scale(0.1 -0.1)">
       <use xlink:href="#DejaVuSans-49"/>
       <use x="63.623047" xlink:href="#DejaVuSans-54"/>
       <use x="127.246094" xlink:href="#DejaVuSans-48"/>
      </g>
     </g>
    </g>
    <g id="text_8">
     <!-- Smarts -->
     <g transform="translate(206.177344 268.036562)scale(0.1 -0.1)">
      <defs>
       <path d="M 53.515625 70.515625 
L 53.515625 60.890625 
Q 47.90625 63.578125 42.921875 64.890625 
Q 37.9375 66.21875 33.296875 66.21875 
Q 25.25 66.21875 20.875 63.09375 
Q 16.5 59.96875 16.5 54.203125 
Q 16.5 49.359375 19.40625 46.890625 
Q 22.3125 44.4375 30.421875 42.921875 
L 36.375 41.703125 
Q 47.40625 39.59375 52.65625 34.296875 
Q 57.90625 29 57.90625 20.125 
Q 57.90625 9.515625 50.796875 4.046875 
Q 43.703125 -1.421875 29.984375 -1.421875 
Q 24.8125 -1.421875 18.96875 -0.25 
Q 13.140625 0.921875 6.890625 3.21875 
L 6.890625 13.375 
Q 12.890625 10.015625 18.65625 8.296875 
Q 24.421875 6.59375 29.984375 6.59375 
Q 38.421875 6.59375 43.015625 9.90625 
Q 47.609375 13.234375 47.609375 19.390625 
Q 47.609375 24.75 44.3125 27.78125 
Q 41.015625 30.8125 33.5 32.328125 
L 27.484375 33.5 
Q 16.453125 35.6875 11.515625 40.375 
Q 6.59375 45.0625 6.59375 53.421875 
Q 6.59375 63.09375 13.40625 68.65625 
Q 20.21875 74.21875 32.171875 74.21875 
Q 37.3125 74.21875 42.625 73.28125 
Q 47.953125 72.359375 53.515625 70.515625 
z
" id="DejaVuSans-83"/>
       <path d="M 52 44.1875 
Q 55.375 50.25 60.0625 53.125 
Q 64.75 56 71.09375 56 
Q 79.640625 56 84.28125 50.015625 
Q 88.921875 44.046875 88.921875 33.015625 
L 88.921875 0 
L 79.890625 0 
L 79.890625 32.71875 
Q 79.890625 40.578125 77.09375 44.375 
Q 74.3125 48.1875 68.609375 48.1875 
Q 61.625 48.1875 57.5625 43.546875 
Q 53.515625 38.921875 53.515625 30.90625 
L 53.515625 0 
L 44.484375 0 
L 44.484375 32.71875 
Q 44.484375 40.625 41.703125 44.40625 
Q 38.921875 48.1875 33.109375 48.1875 
Q 26.21875 48.1875 22.15625 43.53125 
Q 18.109375 38.875 18.109375 30.90625 
L 18.109375 0 
L 9.078125 0 
L 9.078125 54.6875 
L 18.109375 54.6875 
L 18.109375 46.1875 
Q 21.1875 51.21875 25.484375 53.609375 
Q 29.78125 56 35.6875 56 
Q 41.65625 56 45.828125 52.96875 
Q 50 49.953125 52 44.1875 
z
" id="DejaVuSans-109"/>
       <path d="M 34.28125 27.484375 
Q 23.390625 27.484375 19.1875 25 
Q 14.984375 22.515625 14.984375 16.5 
Q 14.984375 11.71875 18.140625 8.90625 
Q 21.296875 6.109375 26.703125 6.109375 
Q 34.1875 6.109375 38.703125 11.40625 
Q 43.21875 16.703125 43.21875 25.484375 
L 43.21875 27.484375 
z
M 52.203125 31.203125 
L 52.203125 0 
L 43.21875 0 
L 43.21875 8.296875 
Q 40.140625 3.328125 35.546875 0.953125 
Q 30.953125 -1.421875 24.3125 -1.421875 
Q 15.921875 -1.421875 10.953125 3.296875 
Q 6 8.015625 6 15.921875 
Q 6 25.140625 12.171875 29.828125 
Q 18.359375 34.515625 30.609375 34.515625 
L 43.21875 34.515625 
L 43.21875 35.40625 
Q 43.21875 41.609375 39.140625 45 
Q 35.0625 48.390625 27.6875 48.390625 
Q 23 48.390625 18.546875 47.265625 
Q 14.109375 46.140625 10.015625 43.890625 
L 10.015625 52.203125 
Q 14.9375 54.109375 19.578125 55.046875 
Q 24.21875 56 28.609375 56 
Q 40.484375 56 46.34375 49.84375 
Q 52.203125 43.703125 52.203125 31.203125 
z
" id="DejaVuSans-97"/>
       <path d="M 41.109375 46.296875 
Q 39.59375 47.171875 37.8125 47.578125 
Q 36.03125 48 33.890625 48 
Q 26.265625 48 22.1875 43.046875 
Q 18.109375 38.09375 18.109375 28.8125 
L 18.109375 0 
L 9.078125 0 
L 9.078125 54.6875 
L 18.109375 54.6875 
L 18.109375 46.1875 
Q 20.953125 51.171875 25.484375 53.578125 
Q 30.03125 56 36.53125 56 
Q 37.453125 56 38.578125 55.875 
Q 39.703125 55.765625 41.0625 55.515625 
z
" id="DejaVuSans-114"/>
       <path d="M 18.3125 70.21875 
L 18.3125 54.6875 
L 36.8125 54.6875 
L 36.8125 47.703125 
L 18.3125 47.703125 
L 18.3125 18.015625 
Q 18.3125 11.328125 20.140625 9.421875 
Q 21.96875 7.515625 27.59375 7.515625 
L 36.8125 7.515625 
L 36.8125 0 
L 27.59375 0 
Q 17.1875 0 13.234375 3.875 
Q 9.28125 7.765625 9.28125 18.015625 
L 9.28125 47.703125 
L 2.6875 47.703125 
L 2.6875 54.6875 
L 9.28125 54.6875 
L 9.28125 70.21875 
z
" id="DejaVuSans-116"/>
       <path d="M 44.28125 53.078125 
L 44.28125 44.578125 
Q 40.484375 46.53125 36.375 47.5 
Q 32.28125 48.484375 27.875 48.484375 
Q 21.1875 48.484375 17.84375 46.4375 
Q 14.5 44.390625 14.5 40.28125 
Q 14.5 37.15625 16.890625 35.375 
Q 19.28125 33.59375 26.515625 31.984375 
L 29.59375 31.296875 
Q 39.15625 29.25 43.1875 25.515625 
Q 47.21875 21.78125 47.21875 15.09375 
Q 47.21875 7.46875 41.1875 3.015625 
Q 35.15625 -1.421875 24.609375 -1.421875 
Q 20.21875 -1.421875 15.453125 -0.5625 
Q 10.6875 0.296875 5.421875 2 
L 5.421875 11.28125 
Q 10.40625 8.6875 15.234375 7.390625 
Q 20.0625 6.109375 24.8125 6.109375 
Q 31.15625 6.109375 34.5625 8.28125 
Q 37.984375 10.453125 37.984375 14.40625 
Q 37.984375 18.0625 35.515625 20.015625 
Q 33.0625 21.96875 24.703125 23.78125 
L 21.578125 24.515625 
Q 13.234375 26.265625 9.515625 29.90625 
Q 5.8125 33.546875 5.8125 39.890625 
Q 5.8125 47.609375 11.28125 51.796875 
Q 16.75 56 26.8125 56 
Q 31.78125 56 36.171875 55.265625 
Q 40.578125 54.546875 44.28125 53.078125 
z
" id="DejaVuSans-115"/>
      </defs>
      <use xlink:href="#DejaVuSans-83"/>
      <use x="63.476562" xlink:href="#DejaVuSans-109"/>
      <use x="160.888672" xlink:href="#DejaVuSans-97"/>
      <use x="222.167969" xlink:href="#DejaVuSans-114"/>
      <use x="263.28125" xlink:href="#DejaVuSans-116"/>
      <use x="302.490234" xlink:href="#DejaVuSans-115"/>
     </g>
    </g>
   </g>
   <g id="matplotlib.axis_2">
    <g id="ytick_1">
     <g id="line2d_15">
      <path clip-path="url(#p064ebd2d70)" d="M 56.50625 239.76 
L 391.30625 239.76 
" style="fill:none;stroke:#b0b0b0;stroke-linecap:square;stroke-width:0.8;"/>
     </g>
     <g id="line2d_16">
      <defs>
       <path d="M 0 0 
L -3.5 0 
" id="md617c8868d" style="stroke:#000000;stroke-width:0.8;"/>
      </defs>
      <g>
       <use style="stroke:#000000;stroke-width:0.8;" x="56.50625" xlink:href="#md617c8868d" y="239.76"/>
      </g>
     </g>
     <g id="text_9">
      <!-- 0.000 -->
      <g transform="translate(20.878125 243.559219)scale(0.1 -0.1)">
       <defs>
        <path d="M 10.6875 12.40625 
L 21 12.40625 
L 21 0 
L 10.6875 0 
z
" id="DejaVuSans-46"/>
       </defs>
       <use xlink:href="#DejaVuSans-48"/>
       <use x="63.623047" xlink:href="#DejaVuSans-46"/>
       <use x="95.410156" xlink:href="#DejaVuSans-48"/>
       <use x="159.033203" xlink:href="#DejaVuSans-48"/>
       <use x="222.65625" xlink:href="#DejaVuSans-48"/>
      </g>
     </g>
    </g>
    <g id="ytick_2">
     <g id="line2d_17">
      <path clip-path="url(#p064ebd2d70)" d="M 56.50625 203.52 
L 391.30625 203.52 
" style="fill:none;stroke:#b0b0b0;stroke-linecap:square;stroke-width:0.8;"/>
     </g>
     <g id="line2d_18">
      <g>
       <use style="stroke:#000000;stroke-width:0.8;" x="56.50625" xlink:href="#md617c8868d" y="203.52"/>
      </g>
     </g>
     <g id="text_10">
      <!-- 0.005 -->
      <g transform="translate(20.878125 207.319219)scale(0.1 -0.1)">
       <defs>
        <path d="M 10.796875 72.90625 
L 49.515625 72.90625 
L 49.515625 64.59375 
L 19.828125 64.59375 
L 19.828125 46.734375 
Q 21.96875 47.46875 24.109375 47.828125 
Q 26.265625 48.1875 28.421875 48.1875 
Q 40.625 48.1875 47.75 41.5 
Q 54.890625 34.8125 54.890625 23.390625 
Q 54.890625 11.625 47.5625 5.09375 
Q 40.234375 -1.421875 26.90625 -1.421875 
Q 22.3125 -1.421875 17.546875 -0.640625 
Q 12.796875 0.140625 7.71875 1.703125 
L 7.71875 11.625 
Q 12.109375 9.234375 16.796875 8.0625 
Q 21.484375 6.890625 26.703125 6.890625 
Q 35.15625 6.890625 40.078125 11.328125 
Q 45.015625 15.765625 45.015625 23.390625 
Q 45.015625 31 40.078125 35.4375 
Q 35.15625 39.890625 26.703125 39.890625 
Q 22.75 39.890625 18.8125 39.015625 
Q 14.890625 38.140625 10.796875 36.28125 
z
" id="DejaVuSans-53"/>
       </defs>
       <use xlink:href="#DejaVuSans-48"/>
       <use x="63.623047" xlink:href="#DejaVuSans-46"/>
       <use x="95.410156" xlink:href="#DejaVuSans-48"/>
       <use x="159.033203" xlink:href="#DejaVuSans-48"/>
       <use x="222.65625" xlink:href="#DejaVuSans-53"/>
      </g>
     </g>
    </g>
    <g id="ytick_3">
     <g id="line2d_19">
      <path clip-path="url(#p064ebd2d70)" d="M 56.50625 167.28 
L 391.30625 167.28 
" style="fill:none;stroke:#b0b0b0;stroke-linecap:square;stroke-width:0.8;"/>
     </g>
     <g id="line2d_20">
      <g>
       <use style="stroke:#000000;stroke-width:0.8;" x="56.50625" xlink:href="#md617c8868d" y="167.28"/>
      </g>
     </g>
     <g id="text_11">
      <!-- 0.010 -->
      <g transform="translate(20.878125 171.079219)scale(0.1 -0.1)">
       <use xlink:href="#DejaVuSans-48"/>
       <use x="63.623047" xlink:href="#DejaVuSans-46"/>
       <use x="95.410156" xlink:href="#DejaVuSans-48"/>
       <use x="159.033203" xlink:href="#DejaVuSans-49"/>
       <use x="222.65625" xlink:href="#DejaVuSans-48"/>
      </g>
     </g>
    </g>
    <g id="ytick_4">
     <g id="line2d_21">
      <path clip-path="url(#p064ebd2d70)" d="M 56.50625 131.04 
L 391.30625 131.04 
" style="fill:none;stroke:#b0b0b0;stroke-linecap:square;stroke-width:0.8;"/>
     </g>
     <g id="line2d_22">
      <g>
       <use style="stroke:#000000;stroke-width:0.8;" x="56.50625" xlink:href="#md617c8868d" y="131.04"/>
      </g>
     </g>
     <g id="text_12">
      <!-- 0.015 -->
      <g transform="translate(20.878125 134.839219)scale(0.1 -0.1)">
       <use xlink:href="#DejaVuSans-48"/>
       <use x="63.623047" xlink:href="#DejaVuSans-46"/>
       <use x="95.410156" xlink:href="#DejaVuSans-48"/>
       <use x="159.033203" xlink:href="#DejaVuSans-49"/>
       <use x="222.65625" xlink:href="#DejaVuSans-53"/>
      </g>
     </g>
    </g>
    <g id="ytick_5">
     <g id="line2d_23">
      <path clip-path="url(#p064ebd2d70)" d="M 56.50625 94.8 
L 391.30625 94.8 
" style="fill:none;stroke:#b0b0b0;stroke-linecap:square;stroke-width:0.8;"/>
     </g>
     <g id="line2d_24">
      <g>
       <use style="stroke:#000000;stroke-width:0.8;" x="56.50625" xlink:href="#md617c8868d" y="94.8"/>
      </g>
     </g>
     <g id="text_13">
      <!-- 0.020 -->
      <g transform="translate(20.878125 98.599219)scale(0.1 -0.1)">
       <use xlink:href="#DejaVuSans-48"/>
       <use x="63.623047" xlink:href="#DejaVuSans-46"/>
       <use x="95.410156" xlink:href="#DejaVuSans-48"/>
       <use x="159.033203" xlink:href="#DejaVuSans-50"/>
       <use x="222.65625" xlink:href="#DejaVuSans-48"/>
      </g>
     </g>
    </g>
    <g id="ytick_6">
     <g id="line2d_25">
      <path clip-path="url(#p064ebd2d70)" d="M 56.50625 58.56 
L 391.30625 58.56 
" style="fill:none;stroke:#b0b0b0;stroke-linecap:square;stroke-width:0.8;"/>
     </g>
     <g id="line2d_26">
      <g>
       <use style="stroke:#000000;stroke-width:0.8;" x="56.50625" xlink:href="#md617c8868d" y="58.56"/>
      </g>
     </g>
     <g id="text_14">
      <!-- 0.025 -->
      <g transform="translate(20.878125 62.359219)scale(0.1 -0.1)">
       <use xlink:href="#DejaVuSans-48"/>
       <use x="63.623047" xlink:href="#DejaVuSans-46"/>
       <use x="95.410156" xlink:href="#DejaVuSans-48"/>
       <use x="159.033203" xlink:href="#DejaVuSans-50"/>
       <use x="222.65625" xlink:href="#DejaVuSans-53"/>
      </g>
     </g>
    </g>
    <g id="ytick_7">
     <g id="line2d_27">
      <path clip-path="url(#p064ebd2d70)" d="M 56.50625 22.32 
L 391.30625 22.32 
" style="fill:none;stroke:#b0b0b0;stroke-linecap:square;stroke-width:0.8;"/>
     </g>
     <g id="line2d_28">
      <g>
       <use style="stroke:#000000;stroke-width:0.8;" x="56.50625" xlink:href="#md617c8868d" y="22.32"/>
      </g>
     </g>
     <g id="text_15">
      <!-- 0.030 -->
      <g transform="translate(20.878125 26.119219)scale(0.1 -0.1)">
       <defs>
        <path d="M 40.578125 39.3125 
Q 47.65625 37.796875 51.625 33 
Q 55.609375 28.21875 55.609375 21.1875 
Q 55.609375 10.40625 48.1875 4.484375 
Q 40.765625 -1.421875 27.09375 -1.421875 
Q 22.515625 -1.421875 17.65625 -0.515625 
Q 12.796875 0.390625 7.625 2.203125 
L 7.625 11.71875 
Q 11.71875 9.328125 16.59375 8.109375 
Q 21.484375 6.890625 26.8125 6.890625 
Q 36.078125 6.890625 40.9375 10.546875 
Q 45.796875 14.203125 45.796875 21.1875 
Q 45.796875 27.640625 41.28125 31.265625 
Q 36.765625 34.90625 28.71875 34.90625 
L 20.21875 34.90625 
L 20.21875 43.015625 
L 29.109375 43.015625 
Q 36.375 43.015625 40.234375 45.921875 
Q 44.09375 48.828125 44.09375 54.296875 
Q 44.09375 59.90625 40.109375 62.90625 
Q 36.140625 65.921875 28.71875 65.921875 
Q 24.65625 65.921875 20.015625 65.03125 
Q 15.375 64.15625 9.8125 62.3125 
L 9.8125 71.09375 
Q 15.4375 72.65625 20.34375 73.4375 
Q 25.25 74.21875 29.59375 74.21875 
Q 40.828125 74.21875 47.359375 69.109375 
Q 53.90625 64.015625 53.90625 55.328125 
Q 53.90625 49.265625 50.4375 45.09375 
Q 46.96875 40.921875 40.578125 39.3125 
z
" id="DejaVuSans-51"/>
       </defs>
       <use xlink:href="#DejaVuSans-48"/>
       <use x="63.623047" xlink:href="#DejaVuSans-46"/>
       <use x="95.410156" xlink:href="#DejaVuSans-48"/>
       <use x="159.033203" xlink:href="#DejaVuSans-51"/>
       <use x="222.65625" xlink:href="#DejaVuSans-48"/>
      </g>
     </g>
    </g>
    <g id="text_16">
     <!-- Probability -->
     <g transform="translate(14.798437 157.468906)rotate(-90)scale(0.1 -0.1)">
      <defs>
       <path d="M 19.671875 64.796875 
L 19.671875 37.40625 
L 32.078125 37.40625 
Q 38.96875 37.40625 42.71875 40.96875 
Q 46.484375 44.53125 46.484375 51.125 
Q 46.484375 57.671875 42.71875 61.234375 
Q 38.96875 64.796875 32.078125 64.796875 
z
M 9.8125 72.90625 
L 32.078125 72.90625 
Q 44.34375 72.90625 50.609375 67.359375 
Q 56.890625 61.8125 56.890625 51.125 
Q 56.890625 40.328125 50.609375 34.8125 
Q 44.34375 29.296875 32.078125 29.296875 
L 19.671875 29.296875 
L 19.671875 0 
L 9.8125 0 
z
" id="DejaVuSans-80"/>
       <path d="M 30.609375 48.390625 
Q 23.390625 48.390625 19.1875 42.75 
Q 14.984375 37.109375 14.984375 27.296875 
Q 14.984375 17.484375 19.15625 11.84375 
Q 23.34375 6.203125 30.609375 6.203125 
Q 37.796875 6.203125 41.984375 11.859375 
Q 46.1875 17.53125 46.1875 27.296875 
Q 46.1875 37.015625 41.984375 42.703125 
Q 37.796875 48.390625 30.609375 48.390625 
z
M 30.609375 56 
Q 42.328125 56 49.015625 48.375 
Q 55.71875 40.765625 55.71875 27.296875 
Q 55.71875 13.875 49.015625 6.21875 
Q 42.328125 -1.421875 30.609375 -1.421875 
Q 18.84375 -1.421875 12.171875 6.21875 
Q 5.515625 13.875 5.515625 27.296875 
Q 5.515625 40.765625 12.171875 48.375 
Q 18.84375 56 30.609375 56 
z
" id="DejaVuSans-111"/>
       <path d="M 48.6875 27.296875 
Q 48.6875 37.203125 44.609375 42.84375 
Q 40.53125 48.484375 33.40625 48.484375 
Q 26.265625 48.484375 22.1875 42.84375 
Q 18.109375 37.203125 18.109375 27.296875 
Q 18.109375 17.390625 22.1875 11.75 
Q 26.265625 6.109375 33.40625 6.109375 
Q 40.53125 6.109375 44.609375 11.75 
Q 48.6875 17.390625 48.6875 27.296875 
z
M 18.109375 46.390625 
Q 20.953125 51.265625 25.265625 53.625 
Q 29.59375 56 35.59375 56 
Q 45.5625 56 51.78125 48.09375 
Q 58.015625 40.1875 58.015625 27.296875 
Q 58.015625 14.40625 51.78125 6.484375 
Q 45.5625 -1.421875 35.59375 -1.421875 
Q 29.59375 -1.421875 25.265625 0.953125 
Q 20.953125 3.328125 18.109375 8.203125 
L 18.109375 0 
L 9.078125 0 
L 9.078125 75.984375 
L 18.109375 75.984375 
z
" id="DejaVuSans-98"/>
       <path d="M 9.421875 54.6875 
L 18.40625 54.6875 
L 18.40625 0 
L 9.421875 0 
z
M 9.421875 75.984375 
L 18.40625 75.984375 
L 18.40625 64.59375 
L 9.421875 64.59375 
z
" id="DejaVuSans-105"/>
       <path d="M 9.421875 75.984375 
L 18.40625 75.984375 
L 18.40625 0 
L 9.421875 0 
z
" id="DejaVuSans-108"/>
       <path d="M 32.171875 -5.078125 
Q 28.375 -14.84375 24.75 -17.8125 
Q 21.140625 -20.796875 15.09375 -20.796875 
L 7.90625 -20.796875 
L 7.90625 -13.28125 
L 13.1875 -13.28125 
Q 16.890625 -13.28125 18.9375 -11.515625 
Q 21 -9.765625 23.484375 -3.21875 
L 25.09375 0.875 
L 2.984375 54.6875 
L 12.5 54.6875 
L 29.59375 11.921875 
L 46.6875 54.6875 
L 56.203125 54.6875 
z
" id="DejaVuSans-121"/>
      </defs>
      <use xlink:href="#DejaVuSans-80"/>
      <use x="58.552734" xlink:href="#DejaVuSans-114"/>
      <use x="97.416016" xlink:href="#DejaVuSans-111"/>
      <use x="158.597656" xlink:href="#DejaVuSans-98"/>
      <use x="222.074219" xlink:href="#DejaVuSans-97"/>
      <use x="283.353516" xlink:href="#DejaVuSans-98"/>
      <use x="346.830078" xlink:href="#DejaVuSans-105"/>
      <use x="374.613281" xlink:href="#DejaVuSans-108"/>
      <use x="402.396484" xlink:href="#DejaVuSans-105"/>
      <use x="430.179688" xlink:href="#DejaVuSans-116"/>
      <use x="469.388672" xlink:href="#DejaVuSans-121"/>
     </g>
    </g>
   </g>
   <g id="line2d_29">
    <path clip-path="url(#p064ebd2d70)" d="M 50.901884 239.72249 
L 57.278813 239.690389 
L 63.655742 239.633783 
L 70.032671 239.536399 
L 76.409599 239.372968 
L 82.786528 239.10546 
L 89.163457 238.678461 
L 95.540386 238.013918 
L 101.917315 237.00575 
L 108.294244 235.515187 
L 114.671173 233.368098 
L 121.048102 230.355883 
L 127.425031 226.241692 
L 133.801959 220.773584 
L 140.178888 213.705662 
L 146.555817 204.827194 
L 152.932746 193.998181 
L 159.309675 181.188079 
L 165.686604 166.512631 
L 172.063533 150.262486 
L 178.440462 132.916946 
L 184.817391 115.13706 
L 191.194319 97.734584 
L 197.571248 81.616798 
L 203.948177 67.711313 
L 210.325106 56.879005 
L 216.702035 49.82624 
L 223.078964 47.028751 
L 229.455893 48.678569 
L 235.832822 54.662219 
L 242.209751 64.573628 
L 248.586679 77.759706 
L 254.963608 93.391485 
L 261.340537 110.550065 
L 267.717466 128.315016 
L 274.094395 145.843581 
L 280.471324 162.431622 
L 286.848253 177.551081 
L 293.225182 190.862935 
L 299.602111 202.208326 
L 305.979039 211.583166 
L 312.355968 219.1028 
L 318.732897 224.963224 
L 325.109826 229.404308 
L 331.486755 232.678789 
L 337.863684 235.029007 
L 344.240613 236.671743 
L 350.617542 237.790341 
L 356.994471 238.532603 
L 363.3714 239.0127 
L 369.748328 239.315449 
" style="fill:none;stroke:#ff0000;stroke-dasharray:3.7,1.6;stroke-dashoffset:0;"/>
   </g>
   <g id="patch_53">
    <path d="M 56.50625 239.76 
L 56.50625 22.32 
" style="fill:none;stroke:#000000;stroke-linecap:square;stroke-linejoin:miter;stroke-width:0.8;"/>
   </g>
   <g id="patch_54">
    <path d="M 391.30625 239.76 
L 391.30625 22.32 
" style="fill:none;stroke:#000000;stroke-linecap:square;stroke-linejoin:miter;stroke-width:0.8;"/>
   </g>
   <g id="patch_55">
    <path d="M 56.50625 239.76 
L 391.30625 239.76 
" style="fill:none;stroke:#000000;stroke-linecap:square;stroke-linejoin:miter;stroke-width:0.8;"/>
   </g>
   <g id="patch_56">
    <path d="M 56.50625 22.32 
L 391.30625 22.32 
" style="fill:none;stroke:#000000;stroke-linecap:square;stroke-linejoin:miter;stroke-width:0.8;"/>
   </g>
   <g id="text_17">
    <!-- $\mathrm{Histogram\ of\ IQ:}\ \mu=100,\ \sigma=15$ -->
    <g transform="translate(123.82625 16.32)scale(0.12 -0.12)">
     <defs>
      <path d="M 9.8125 72.90625 
L 19.671875 72.90625 
L 19.671875 43.015625 
L 55.515625 43.015625 
L 55.515625 72.90625 
L 65.375 72.90625 
L 65.375 0 
L 55.515625 0 
L 55.515625 34.71875 
L 19.671875 34.71875 
L 19.671875 0 
L 9.8125 0 
z
" id="DejaVuSans-72"/>
      <path d="M 45.40625 27.984375 
Q 45.40625 37.75 41.375 43.109375 
Q 37.359375 48.484375 30.078125 48.484375 
Q 22.859375 48.484375 18.828125 43.109375 
Q 14.796875 37.75 14.796875 27.984375 
Q 14.796875 18.265625 18.828125 12.890625 
Q 22.859375 7.515625 30.078125 7.515625 
Q 37.359375 7.515625 41.375 12.890625 
Q 45.40625 18.265625 45.40625 27.984375 
z
M 54.390625 6.78125 
Q 54.390625 -7.171875 48.1875 -13.984375 
Q 42 -20.796875 29.203125 -20.796875 
Q 24.46875 -20.796875 20.265625 -20.09375 
Q 16.0625 -19.390625 12.109375 -17.921875 
L 12.109375 -9.1875 
Q 16.0625 -11.328125 19.921875 -12.34375 
Q 23.78125 -13.375 27.78125 -13.375 
Q 36.625 -13.375 41.015625 -8.765625 
Q 45.40625 -4.15625 45.40625 5.171875 
L 45.40625 9.625 
Q 42.625 4.78125 38.28125 2.390625 
Q 33.9375 0 27.875 0 
Q 17.828125 0 11.671875 7.65625 
Q 5.515625 15.328125 5.515625 27.984375 
Q 5.515625 40.671875 11.671875 48.328125 
Q 17.828125 56 27.875 56 
Q 33.9375 56 38.28125 53.609375 
Q 42.625 51.21875 45.40625 46.390625 
L 45.40625 54.6875 
L 54.390625 54.6875 
z
" id="DejaVuSans-103"/>
      <path d="M 37.109375 75.984375 
L 37.109375 68.5 
L 28.515625 68.5 
Q 23.6875 68.5 21.796875 66.546875 
Q 19.921875 64.59375 19.921875 59.515625 
L 19.921875 54.6875 
L 34.71875 54.6875 
L 34.71875 47.703125 
L 19.921875 47.703125 
L 19.921875 0 
L 10.890625 0 
L 10.890625 47.703125 
L 2.296875 47.703125 
L 2.296875 54.6875 
L 10.890625 54.6875 
L 10.890625 58.5 
Q 10.890625 67.625 15.140625 71.796875 
Q 19.390625 75.984375 28.609375 75.984375 
z
" id="DejaVuSans-102"/>
      <path d="M 9.8125 72.90625 
L 19.671875 72.90625 
L 19.671875 0 
L 9.8125 0 
z
" id="DejaVuSans-73"/>
      <path d="M 39.40625 66.21875 
Q 28.65625 66.21875 22.328125 58.203125 
Q 16.015625 50.203125 16.015625 36.375 
Q 16.015625 22.609375 22.328125 14.59375 
Q 28.65625 6.59375 39.40625 6.59375 
Q 50.140625 6.59375 56.421875 14.59375 
Q 62.703125 22.609375 62.703125 36.375 
Q 62.703125 50.203125 56.421875 58.203125 
Q 50.140625 66.21875 39.40625 66.21875 
z
M 53.21875 1.3125 
L 66.21875 -12.890625 
L 54.296875 -12.890625 
L 43.5 -1.21875 
Q 41.890625 -1.3125 41.03125 -1.359375 
Q 40.1875 -1.421875 39.40625 -1.421875 
Q 24.03125 -1.421875 14.8125 8.859375 
Q 5.609375 19.140625 5.609375 36.375 
Q 5.609375 53.65625 14.8125 63.9375 
Q 24.03125 74.21875 39.40625 74.21875 
Q 54.734375 74.21875 63.90625 63.9375 
Q 73.09375 53.65625 73.09375 36.375 
Q 73.09375 23.6875 67.984375 14.640625 
Q 62.890625 5.609375 53.21875 1.3125 
z
" id="DejaVuSans-81"/>
      <path d="M 11.71875 12.40625 
L 22.015625 12.40625 
L 22.015625 0 
L 11.71875 0 
z
M 11.71875 51.703125 
L 22.015625 51.703125 
L 22.015625 39.3125 
L 11.71875 39.3125 
z
" id="DejaVuSans-58"/>
      <path d="M -1.3125 -20.796875 
L 13.375 54.6875 
L 22.40625 54.6875 
L 15.765625 20.65625 
Q 15.578125 19.625 15.421875 18.359375 
Q 15.28125 17.09375 15.28125 15.828125 
Q 15.28125 11.28125 18.140625 8.828125 
Q 21 6.390625 26.3125 6.390625 
Q 33.546875 6.390625 37.984375 10.484375 
Q 42.4375 14.59375 44 22.796875 
L 50.203125 54.6875 
L 59.1875 54.6875 
L 51.03125 12.640625 
Q 50.828125 11.71875 50.75 11.03125 
Q 50.6875 10.359375 50.6875 9.8125 
Q 50.6875 8.296875 51.296875 7.59375 
Q 51.90625 6.890625 53.21875 6.890625 
Q 53.71875 6.890625 54.5625 7.125 
Q 55.421875 7.375 56.984375 8.015625 
L 55.609375 0.78125 
Q 53.46875 -0.296875 51.515625 -0.859375 
Q 49.5625 -1.421875 47.703125 -1.421875 
Q 44.484375 -1.421875 42.65625 0.625 
Q 40.828125 2.6875 40.828125 6.296875 
Q 38.09375 2.390625 34.296875 0.484375 
Q 30.515625 -1.421875 25.390625 -1.421875 
Q 20.84375 -1.421875 17.453125 0.671875 
Q 14.0625 2.78125 12.984375 6.203125 
L 7.71875 -20.796875 
z
" id="DejaVuSans-Oblique-956"/>
      <path d="M 10.59375 45.40625 
L 73.1875 45.40625 
L 73.1875 37.203125 
L 10.59375 37.203125 
z
M 10.59375 25.484375 
L 73.1875 25.484375 
L 73.1875 17.1875 
L 10.59375 17.1875 
z
" id="DejaVuSans-61"/>
      <path d="M 11.71875 12.40625 
L 22.015625 12.40625 
L 22.015625 4 
L 14.015625 -11.625 
L 7.71875 -11.625 
L 11.71875 4 
z
" id="DejaVuSans-44"/>
      <path d="M 34.671875 47.5625 
Q 27.25 47.5625 22.21875 42.1875 
Q 16.890625 36.578125 15.140625 27.296875 
Q 13.1875 17.484375 16.3125 11.8125 
Q 19.390625 6.203125 26.65625 6.203125 
Q 33.84375 6.203125 39.109375 11.859375 
Q 44.4375 17.53125 46.34375 27.296875 
Q 48.046875 36.234375 45.015625 42.1875 
Q 42.1875 47.5625 34.671875 47.5625 
z
M 36.078125 54.734375 
L 65.921875 54.6875 
L 64.15625 45.703125 
L 54.109375 45.703125 
Q 57.90625 38.09375 55.859375 27.296875 
Q 53.21875 13.875 45.0625 6.25 
Q 36.859375 -1.421875 25.140625 -1.421875 
Q 13.375 -1.421875 8.203125 6.25 
Q 3.03125 13.875 5.671875 27.296875 
Q 8.25 40.765625 16.40625 48.390625 
Q 23.1875 54.734375 36.078125 54.734375 
z
" id="DejaVuSans-Oblique-963"/>
     </defs>
     <use transform="translate(0 0.015625)" xlink:href="#DejaVuSans-72"/>
     <use transform="translate(75.195312 0.015625)" xlink:href="#DejaVuSans-105"/>
     <use transform="translate(102.978516 0.015625)" xlink:href="#DejaVuSans-115"/>
     <use transform="translate(155.078125 0.015625)" xlink:href="#DejaVuSans-116"/>
     <use transform="translate(194.287109 0.015625)" xlink:href="#DejaVuSans-111"/>
     <use transform="translate(255.46875 0.015625)" xlink:href="#DejaVuSans-103"/>
     <use transform="translate(318.945312 0.015625)" xlink:href="#DejaVuSans-114"/>
     <use transform="translate(360.058594 0.015625)" xlink:href="#DejaVuSans-97"/>
     <use transform="translate(421.337891 0.015625)" xlink:href="#DejaVuSans-109"/>
     <use transform="translate(551.220378 0.015625)" xlink:href="#DejaVuSans-111"/>
     <use transform="translate(612.402019 0.015625)" xlink:href="#DejaVuSans-102"/>
     <use transform="translate(680.077476 0.015625)" xlink:href="#DejaVuSans-73"/>
     <use transform="translate(709.569663 0.015625)" xlink:href="#DejaVuSans-81"/>
     <use transform="translate(807.763022 0.015625)" xlink:href="#DejaVuSans-58"/>
     <use transform="translate(893.407229 0.015625)" xlink:href="#DejaVuSans-Oblique-956"/>
     <use transform="translate(976.512698 0.015625)" xlink:href="#DejaVuSans-61"/>
     <use transform="translate(1079.784182 0.015625)" xlink:href="#DejaVuSans-49"/>
     <use transform="translate(1143.407229 0.015625)" xlink:href="#DejaVuSans-48"/>
     <use transform="translate(1207.030276 0.015625)" xlink:href="#DejaVuSans-48"/>
     <use transform="translate(1270.653323 0.015625)" xlink:href="#DejaVuSans-44"/>
     <use transform="translate(1354.393232 0.015625)" xlink:href="#DejaVuSans-Oblique-963"/>
     <use transform="translate(1437.254561 0.015625)" xlink:href="#DejaVuSans-61"/>
     <use transform="translate(1540.526045 0.015625)" xlink:href="#DejaVuSans-49"/>
     <use transform="translate(1604.149092 0.015625)" xlink:href="#DejaVuSans-53"/>
    </g>
   </g>
  </g>
 </g>
 <defs>
  <clipPath id="p064ebd2d70">
   <rect height="217.44" width="334.8" x="56.50625" y="22.32"/>
  </clipPath>
 </defs>
</svg>
