<?xml version="1.0" encoding="utf-8" standalone="no"?>
<!DOCTYPE svg PUBLIC "-//W3C//DTD SVG 1.1//EN"
  "http://www.w3.org/Graphics/SVG/1.1/DTD/svg11.dtd">
<svg xmlns:xlink="http://www.w3.org/1999/xlink" width="375.2875pt" height="248.518125pt" viewBox="0 0 375.2875 248.518125" xmlns="http://www.w3.org/2000/svg" version="1.1">
 <metadata>
  <rdf:RDF xmlns:dc="http://purl.org/dc/elements/1.1/" xmlns:cc="http://creativecommons.org/ns#" xmlns:rdf="http://www.w3.org/1999/02/22-rdf-syntax-ns#">
   <cc:Work>
    <dc:type rdf:resource="http://purl.org/dc/dcmitype/StillImage"/>
    <dc:date>2022-01-05T10:37:03.959869</dc:date>
    <dc:format>image/svg+xml</dc:format>
    <dc:creator>
     <cc:Agent>
      <dc:title>Matplotlib v3.5.1, https://matplotlib.org/</dc:title>
     </cc:Agent>
    </dc:creator>
   </cc:Work>
  </rdf:RDF>
 </metadata>
 <defs>
  <style type="text/css">*{stroke-linejoin: round; stroke-linecap: butt}</style>
 </defs>
 <g id="figure_1">
  <g id="patch_1">
   <path d="M 0 248.518125 
L 375.2875 248.518125 
L 375.2875 0 
L 0 0 
L 0 248.518125 
z
" style="fill: none"/>
  </g>
  <g id="axes_1">
   <g id="patch_2">
    <path d="M 33.2875 224.64 
L 368.0875 224.64 
L 368.0875 7.2 
L 33.2875 7.2 
z
" style="fill: #ffffff"/>
   </g>
   <g id="matplotlib.axis_1">
    <g id="xtick_1">
     <g id="line2d_1">
      <defs>
       <path id="m0fe06d9cec" d="M 0 0 
L 0 3.5 
" style="stroke: #000000; stroke-width: 0.8"/>
      </defs>
      <g>
       <use xlink:href="#m0fe06d9cec" x="48.505682" y="224.64" style="stroke: #000000; stroke-width: 0.8"/>
      </g>
     </g>
     <g id="text_1">
      <!-- 0 -->
      <g transform="translate(45.324432 239.238437)scale(0.1 -0.1)">
       <defs>
        <path id="DejaVuSans-30" d="M 2034 4250 
Q 1547 4250 1301 3770 
Q 1056 3291 1056 2328 
Q 1056 1369 1301 889 
Q 1547 409 2034 409 
Q 2525 409 2770 889 
Q 3016 1369 3016 2328 
Q 3016 3291 2770 3770 
Q 2525 4250 2034 4250 
z
M 2034 4750 
Q 2819 4750 3233 4129 
Q 3647 3509 3647 2328 
Q 3647 1150 3233 529 
Q 2819 -91 2034 -91 
Q 1250 -91 836 529 
Q 422 1150 422 2328 
Q 422 3509 836 4129 
Q 1250 4750 2034 4750 
z
" transform="scale(0.015625)"/>
       </defs>
       <use xlink:href="#DejaVuSans-30"/>
      </g>
     </g>
    </g>
    <g id="xtick_2">
     <g id="line2d_2">
      <g>
       <use xlink:href="#m0fe06d9cec" x="109.993285" y="224.64" style="stroke: #000000; stroke-width: 0.8"/>
      </g>
     </g>
     <g id="text_2">
      <!-- 20 -->
      <g transform="translate(103.630785 239.238437)scale(0.1 -0.1)">
       <defs>
        <path id="DejaVuSans-32" d="M 1228 531 
L 3431 531 
L 3431 0 
L 469 0 
L 469 531 
Q 828 903 1448 1529 
Q 2069 2156 2228 2338 
Q 2531 2678 2651 2914 
Q 2772 3150 2772 3378 
Q 2772 3750 2511 3984 
Q 2250 4219 1831 4219 
Q 1534 4219 1204 4116 
Q 875 4013 500 3803 
L 500 4441 
Q 881 4594 1212 4672 
Q 1544 4750 1819 4750 
Q 2544 4750 2975 4387 
Q 3406 4025 3406 3419 
Q 3406 3131 3298 2873 
Q 3191 2616 2906 2266 
Q 2828 2175 2409 1742 
Q 1991 1309 1228 531 
z
" transform="scale(0.015625)"/>
       </defs>
       <use xlink:href="#DejaVuSans-32"/>
       <use xlink:href="#DejaVuSans-30" x="63.623047"/>
      </g>
     </g>
    </g>
    <g id="xtick_3">
     <g id="line2d_3">
      <g>
       <use xlink:href="#m0fe06d9cec" x="171.480888" y="224.64" style="stroke: #000000; stroke-width: 0.8"/>
      </g>
     </g>
     <g id="text_3">
      <!-- 40 -->
      <g transform="translate(165.118388 239.238437)scale(0.1 -0.1)">
       <defs>
        <path id="DejaVuSans-34" d="M 2419 4116 
L 825 1625 
L 2419 1625 
L 2419 4116 
z
M 2253 4666 
L 3047 4666 
L 3047 1625 
L 3713 1625 
L 3713 1100 
L 3047 1100 
L 3047 0 
L 2419 0 
L 2419 1100 
L 313 1100 
L 313 1709 
L 2253 4666 
z
" transform="scale(0.015625)"/>
       </defs>
       <use xlink:href="#DejaVuSans-34"/>
       <use xlink:href="#DejaVuSans-30" x="63.623047"/>
      </g>
     </g>
    </g>
    <g id="xtick_4">
     <g id="line2d_4">
      <g>
       <use xlink:href="#m0fe06d9cec" x="232.968492" y="224.64" style="stroke: #000000; stroke-width: 0.8"/>
      </g>
     </g>
     <g id="text_4">
      <!-- 60 -->
      <g transform="translate(226.605992 239.238437)scale(0.1 -0.1)">
       <defs>
        <path id="DejaVuSans-36" d="M 2113 2584 
Q 1688 2584 1439 2293 
Q 1191 2003 1191 1497 
Q 1191 994 1439 701 
Q 1688 409 2113 409 
Q 2538 409 2786 701 
Q 3034 994 3034 1497 
Q 3034 2003 2786 2293 
Q 2538 2584 2113 2584 
z
M 3366 4563 
L 3366 3988 
Q 3128 4100 2886 4159 
Q 2644 4219 2406 4219 
Q 1781 4219 1451 3797 
Q 1122 3375 1075 2522 
Q 1259 2794 1537 2939 
Q 1816 3084 2150 3084 
Q 2853 3084 3261 2657 
Q 3669 2231 3669 1497 
Q 3669 778 3244 343 
Q 2819 -91 2113 -91 
Q 1303 -91 875 529 
Q 447 1150 447 2328 
Q 447 3434 972 4092 
Q 1497 4750 2381 4750 
Q 2619 4750 2861 4703 
Q 3103 4656 3366 4563 
z
" transform="scale(0.015625)"/>
       </defs>
       <use xlink:href="#DejaVuSans-36"/>
       <use xlink:href="#DejaVuSans-30" x="63.623047"/>
      </g>
     </g>
    </g>
    <g id="xtick_5">
     <g id="line2d_5">
      <g>
       <use xlink:href="#m0fe06d9cec" x="294.456095" y="224.64" style="stroke: #000000; stroke-width: 0.8"/>
      </g>
     </g>
     <g id="text_5">
      <!-- 80 -->
      <g transform="translate(288.093595 239.238437)scale(0.1 -0.1)">
       <defs>
        <path id="DejaVuSans-38" d="M 2034 2216 
Q 1584 2216 1326 1975 
Q 1069 1734 1069 1313 
Q 1069 891 1326 650 
Q 1584 409 2034 409 
Q 2484 409 2743 651 
Q 3003 894 3003 1313 
Q 3003 1734 2745 1975 
Q 2488 2216 2034 2216 
z
M 1403 2484 
Q 997 2584 770 2862 
Q 544 3141 544 3541 
Q 544 4100 942 4425 
Q 1341 4750 2034 4750 
Q 2731 4750 3128 4425 
Q 3525 4100 3525 3541 
Q 3525 3141 3298 2862 
Q 3072 2584 2669 2484 
Q 3125 2378 3379 2068 
Q 3634 1759 3634 1313 
Q 3634 634 3220 271 
Q 2806 -91 2034 -91 
Q 1263 -91 848 271 
Q 434 634 434 1313 
Q 434 1759 690 2068 
Q 947 2378 1403 2484 
z
M 1172 3481 
Q 1172 3119 1398 2916 
Q 1625 2713 2034 2713 
Q 2441 2713 2670 2916 
Q 2900 3119 2900 3481 
Q 2900 3844 2670 4047 
Q 2441 4250 2034 4250 
Q 1625 4250 1398 4047 
Q 1172 3844 1172 3481 
z
" transform="scale(0.015625)"/>
       </defs>
       <use xlink:href="#DejaVuSans-38"/>
       <use xlink:href="#DejaVuSans-30" x="63.623047"/>
      </g>
     </g>
    </g>
    <g id="xtick_6">
     <g id="line2d_6">
      <g>
       <use xlink:href="#m0fe06d9cec" x="355.943698" y="224.64" style="stroke: #000000; stroke-width: 0.8"/>
      </g>
     </g>
     <g id="text_6">
      <!-- 100 -->
      <g transform="translate(346.399948 239.238437)scale(0.1 -0.1)">
       <defs>
        <path id="DejaVuSans-31" d="M 794 531 
L 1825 531 
L 1825 4091 
L 703 3866 
L 703 4441 
L 1819 4666 
L 2450 4666 
L 2450 531 
L 3481 531 
L 3481 0 
L 794 0 
L 794 531 
z
" transform="scale(0.015625)"/>
       </defs>
       <use xlink:href="#DejaVuSans-31"/>
       <use xlink:href="#DejaVuSans-30" x="63.623047"/>
       <use xlink:href="#DejaVuSans-30" x="127.246094"/>
      </g>
     </g>
    </g>
   </g>
   <g id="matplotlib.axis_2">
    <g id="ytick_1">
     <g id="line2d_7">
      <defs>
       <path id="m311b173ff8" d="M 0 0 
L -3.5 0 
" style="stroke: #000000; stroke-width: 0.8"/>
      </defs>
      <g>
       <use xlink:href="#m311b173ff8" x="33.2875" y="214.756364" style="stroke: #000000; stroke-width: 0.8"/>
      </g>
     </g>
     <g id="text_7">
      <!-- 0 -->
      <g transform="translate(19.925 218.555582)scale(0.1 -0.1)">
       <use xlink:href="#DejaVuSans-30"/>
      </g>
     </g>
    </g>
    <g id="ytick_2">
     <g id="line2d_8">
      <g>
       <use xlink:href="#m311b173ff8" x="33.2875" y="174.822479" style="stroke: #000000; stroke-width: 0.8"/>
      </g>
     </g>
     <g id="text_8">
      <!-- 20 -->
      <g transform="translate(13.5625 178.621698)scale(0.1 -0.1)">
       <use xlink:href="#DejaVuSans-32"/>
       <use xlink:href="#DejaVuSans-30" x="63.623047"/>
      </g>
     </g>
    </g>
    <g id="ytick_3">
     <g id="line2d_9">
      <g>
       <use xlink:href="#m311b173ff8" x="33.2875" y="134.888595" style="stroke: #000000; stroke-width: 0.8"/>
      </g>
     </g>
     <g id="text_9">
      <!-- 40 -->
      <g transform="translate(13.5625 138.687814)scale(0.1 -0.1)">
       <use xlink:href="#DejaVuSans-34"/>
       <use xlink:href="#DejaVuSans-30" x="63.623047"/>
      </g>
     </g>
    </g>
    <g id="ytick_4">
     <g id="line2d_10">
      <g>
       <use xlink:href="#m311b173ff8" x="33.2875" y="94.954711" style="stroke: #000000; stroke-width: 0.8"/>
      </g>
     </g>
     <g id="text_10">
      <!-- 60 -->
      <g transform="translate(13.5625 98.753929)scale(0.1 -0.1)">
       <use xlink:href="#DejaVuSans-36"/>
       <use xlink:href="#DejaVuSans-30" x="63.623047"/>
      </g>
     </g>
    </g>
    <g id="ytick_5">
     <g id="line2d_11">
      <g>
       <use xlink:href="#m311b173ff8" x="33.2875" y="55.020826" style="stroke: #000000; stroke-width: 0.8"/>
      </g>
     </g>
     <g id="text_11">
      <!-- 80 -->
      <g transform="translate(13.5625 58.820045)scale(0.1 -0.1)">
       <use xlink:href="#DejaVuSans-38"/>
       <use xlink:href="#DejaVuSans-30" x="63.623047"/>
      </g>
     </g>
    </g>
    <g id="ytick_6">
     <g id="line2d_12">
      <g>
       <use xlink:href="#m311b173ff8" x="33.2875" y="15.086942" style="stroke: #000000; stroke-width: 0.8"/>
      </g>
     </g>
     <g id="text_12">
      <!-- 100 -->
      <g transform="translate(7.2 18.886161)scale(0.1 -0.1)">
       <use xlink:href="#DejaVuSans-31"/>
       <use xlink:href="#DejaVuSans-30" x="63.623047"/>
       <use xlink:href="#DejaVuSans-30" x="127.246094"/>
      </g>
     </g>
    </g>
   </g>
   <g id="line2d_13">
    <defs>
     <path id="m5d03d855d0" d="M -3 3 
L 3 -3 
M -3 -3 
L 3 3 
" style="stroke: #1f77b4"/>
    </defs>
    <g clip-path="url(#p367e64f388)">
     <use xlink:href="#m5d03d855d0" x="48.505682" y="214.756364" style="fill: #1f77b4; stroke: #1f77b4"/>
     <use xlink:href="#m5d03d855d0" x="51.580062" y="212.759669" style="fill: #1f77b4; stroke: #1f77b4"/>
     <use xlink:href="#m5d03d855d0" x="54.654442" y="210.762975" style="fill: #1f77b4; stroke: #1f77b4"/>
     <use xlink:href="#m5d03d855d0" x="57.728822" y="208.766281" style="fill: #1f77b4; stroke: #1f77b4"/>
     <use xlink:href="#m5d03d855d0" x="60.803202" y="206.769587" style="fill: #1f77b4; stroke: #1f77b4"/>
     <use xlink:href="#m5d03d855d0" x="63.877583" y="204.772893" style="fill: #1f77b4; stroke: #1f77b4"/>
     <use xlink:href="#m5d03d855d0" x="66.951963" y="202.776198" style="fill: #1f77b4; stroke: #1f77b4"/>
     <use xlink:href="#m5d03d855d0" x="70.026343" y="200.779504" style="fill: #1f77b4; stroke: #1f77b4"/>
     <use xlink:href="#m5d03d855d0" x="73.100723" y="198.78281" style="fill: #1f77b4; stroke: #1f77b4"/>
     <use xlink:href="#m5d03d855d0" x="76.175103" y="196.786116" style="fill: #1f77b4; stroke: #1f77b4"/>
     <use xlink:href="#m5d03d855d0" x="79.249483" y="194.789421" style="fill: #1f77b4; stroke: #1f77b4"/>
     <use xlink:href="#m5d03d855d0" x="82.323864" y="192.792727" style="fill: #1f77b4; stroke: #1f77b4"/>
     <use xlink:href="#m5d03d855d0" x="85.398244" y="190.796033" style="fill: #1f77b4; stroke: #1f77b4"/>
     <use xlink:href="#m5d03d855d0" x="88.472624" y="188.799339" style="fill: #1f77b4; stroke: #1f77b4"/>
     <use xlink:href="#m5d03d855d0" x="91.547004" y="186.802645" style="fill: #1f77b4; stroke: #1f77b4"/>
     <use xlink:href="#m5d03d855d0" x="94.621384" y="184.80595" style="fill: #1f77b4; stroke: #1f77b4"/>
     <use xlink:href="#m5d03d855d0" x="97.695764" y="182.809256" style="fill: #1f77b4; stroke: #1f77b4"/>
     <use xlink:href="#m5d03d855d0" x="100.770145" y="180.812562" style="fill: #1f77b4; stroke: #1f77b4"/>
     <use xlink:href="#m5d03d855d0" x="103.844525" y="178.815868" style="fill: #1f77b4; stroke: #1f77b4"/>
     <use xlink:href="#m5d03d855d0" x="106.918905" y="176.819174" style="fill: #1f77b4; stroke: #1f77b4"/>
     <use xlink:href="#m5d03d855d0" x="109.993285" y="174.822479" style="fill: #1f77b4; stroke: #1f77b4"/>
     <use xlink:href="#m5d03d855d0" x="113.067665" y="172.825785" style="fill: #1f77b4; stroke: #1f77b4"/>
     <use xlink:href="#m5d03d855d0" x="116.142045" y="170.829091" style="fill: #1f77b4; stroke: #1f77b4"/>
     <use xlink:href="#m5d03d855d0" x="119.216426" y="168.832397" style="fill: #1f77b4; stroke: #1f77b4"/>
     <use xlink:href="#m5d03d855d0" x="122.290806" y="166.835702" style="fill: #1f77b4; stroke: #1f77b4"/>
     <use xlink:href="#m5d03d855d0" x="125.365186" y="164.839008" style="fill: #1f77b4; stroke: #1f77b4"/>
     <use xlink:href="#m5d03d855d0" x="128.439566" y="162.842314" style="fill: #1f77b4; stroke: #1f77b4"/>
     <use xlink:href="#m5d03d855d0" x="131.513946" y="160.84562" style="fill: #1f77b4; stroke: #1f77b4"/>
     <use xlink:href="#m5d03d855d0" x="134.588326" y="158.848926" style="fill: #1f77b4; stroke: #1f77b4"/>
     <use xlink:href="#m5d03d855d0" x="137.662707" y="156.852231" style="fill: #1f77b4; stroke: #1f77b4"/>
     <use xlink:href="#m5d03d855d0" x="140.737087" y="154.855537" style="fill: #1f77b4; stroke: #1f77b4"/>
     <use xlink:href="#m5d03d855d0" x="143.811467" y="152.858843" style="fill: #1f77b4; stroke: #1f77b4"/>
     <use xlink:href="#m5d03d855d0" x="146.885847" y="150.862149" style="fill: #1f77b4; stroke: #1f77b4"/>
     <use xlink:href="#m5d03d855d0" x="149.960227" y="148.865455" style="fill: #1f77b4; stroke: #1f77b4"/>
     <use xlink:href="#m5d03d855d0" x="153.034607" y="146.86876" style="fill: #1f77b4; stroke: #1f77b4"/>
     <use xlink:href="#m5d03d855d0" x="156.108988" y="144.872066" style="fill: #1f77b4; stroke: #1f77b4"/>
     <use xlink:href="#m5d03d855d0" x="159.183368" y="142.875372" style="fill: #1f77b4; stroke: #1f77b4"/>
     <use xlink:href="#m5d03d855d0" x="162.257748" y="140.878678" style="fill: #1f77b4; stroke: #1f77b4"/>
     <use xlink:href="#m5d03d855d0" x="165.332128" y="138.881983" style="fill: #1f77b4; stroke: #1f77b4"/>
     <use xlink:href="#m5d03d855d0" x="168.406508" y="136.885289" style="fill: #1f77b4; stroke: #1f77b4"/>
     <use xlink:href="#m5d03d855d0" x="171.480888" y="134.888595" style="fill: #1f77b4; stroke: #1f77b4"/>
     <use xlink:href="#m5d03d855d0" x="174.555269" y="132.891901" style="fill: #1f77b4; stroke: #1f77b4"/>
     <use xlink:href="#m5d03d855d0" x="177.629649" y="130.895207" style="fill: #1f77b4; stroke: #1f77b4"/>
     <use xlink:href="#m5d03d855d0" x="180.704029" y="128.898512" style="fill: #1f77b4; stroke: #1f77b4"/>
     <use xlink:href="#m5d03d855d0" x="183.778409" y="126.901818" style="fill: #1f77b4; stroke: #1f77b4"/>
     <use xlink:href="#m5d03d855d0" x="186.852789" y="124.905124" style="fill: #1f77b4; stroke: #1f77b4"/>
     <use xlink:href="#m5d03d855d0" x="189.927169" y="122.90843" style="fill: #1f77b4; stroke: #1f77b4"/>
     <use xlink:href="#m5d03d855d0" x="193.00155" y="120.911736" style="fill: #1f77b4; stroke: #1f77b4"/>
     <use xlink:href="#m5d03d855d0" x="196.07593" y="118.915041" style="fill: #1f77b4; stroke: #1f77b4"/>
     <use xlink:href="#m5d03d855d0" x="199.15031" y="116.918347" style="fill: #1f77b4; stroke: #1f77b4"/>
     <use xlink:href="#m5d03d855d0" x="202.22469" y="114.921653" style="fill: #1f77b4; stroke: #1f77b4"/>
     <use xlink:href="#m5d03d855d0" x="205.29907" y="112.924959" style="fill: #1f77b4; stroke: #1f77b4"/>
     <use xlink:href="#m5d03d855d0" x="208.37345" y="110.928264" style="fill: #1f77b4; stroke: #1f77b4"/>
     <use xlink:href="#m5d03d855d0" x="211.447831" y="108.93157" style="fill: #1f77b4; stroke: #1f77b4"/>
     <use xlink:href="#m5d03d855d0" x="214.522211" y="106.934876" style="fill: #1f77b4; stroke: #1f77b4"/>
     <use xlink:href="#m5d03d855d0" x="217.596591" y="104.938182" style="fill: #1f77b4; stroke: #1f77b4"/>
     <use xlink:href="#m5d03d855d0" x="220.670971" y="102.941488" style="fill: #1f77b4; stroke: #1f77b4"/>
     <use xlink:href="#m5d03d855d0" x="223.745351" y="100.944793" style="fill: #1f77b4; stroke: #1f77b4"/>
     <use xlink:href="#m5d03d855d0" x="226.819731" y="98.948099" style="fill: #1f77b4; stroke: #1f77b4"/>
     <use xlink:href="#m5d03d855d0" x="229.894112" y="96.951405" style="fill: #1f77b4; stroke: #1f77b4"/>
     <use xlink:href="#m5d03d855d0" x="232.968492" y="94.954711" style="fill: #1f77b4; stroke: #1f77b4"/>
     <use xlink:href="#m5d03d855d0" x="236.042872" y="92.958017" style="fill: #1f77b4; stroke: #1f77b4"/>
     <use xlink:href="#m5d03d855d0" x="239.117252" y="90.961322" style="fill: #1f77b4; stroke: #1f77b4"/>
     <use xlink:href="#m5d03d855d0" x="242.191632" y="88.964628" style="fill: #1f77b4; stroke: #1f77b4"/>
     <use xlink:href="#m5d03d855d0" x="245.266012" y="86.967934" style="fill: #1f77b4; stroke: #1f77b4"/>
     <use xlink:href="#m5d03d855d0" x="248.340393" y="84.97124" style="fill: #1f77b4; stroke: #1f77b4"/>
     <use xlink:href="#m5d03d855d0" x="251.414773" y="82.974545" style="fill: #1f77b4; stroke: #1f77b4"/>
     <use xlink:href="#m5d03d855d0" x="254.489153" y="80.977851" style="fill: #1f77b4; stroke: #1f77b4"/>
     <use xlink:href="#m5d03d855d0" x="257.563533" y="78.981157" style="fill: #1f77b4; stroke: #1f77b4"/>
     <use xlink:href="#m5d03d855d0" x="260.637913" y="76.984463" style="fill: #1f77b4; stroke: #1f77b4"/>
     <use xlink:href="#m5d03d855d0" x="263.712293" y="74.987769" style="fill: #1f77b4; stroke: #1f77b4"/>
     <use xlink:href="#m5d03d855d0" x="266.786674" y="72.991074" style="fill: #1f77b4; stroke: #1f77b4"/>
     <use xlink:href="#m5d03d855d0" x="269.861054" y="70.99438" style="fill: #1f77b4; stroke: #1f77b4"/>
     <use xlink:href="#m5d03d855d0" x="272.935434" y="68.997686" style="fill: #1f77b4; stroke: #1f77b4"/>
     <use xlink:href="#m5d03d855d0" x="276.009814" y="67.000992" style="fill: #1f77b4; stroke: #1f77b4"/>
     <use xlink:href="#m5d03d855d0" x="279.084194" y="65.004298" style="fill: #1f77b4; stroke: #1f77b4"/>
     <use xlink:href="#m5d03d855d0" x="282.158574" y="63.007603" style="fill: #1f77b4; stroke: #1f77b4"/>
     <use xlink:href="#m5d03d855d0" x="285.232955" y="61.010909" style="fill: #1f77b4; stroke: #1f77b4"/>
     <use xlink:href="#m5d03d855d0" x="288.307335" y="59.014215" style="fill: #1f77b4; stroke: #1f77b4"/>
     <use xlink:href="#m5d03d855d0" x="291.381715" y="57.017521" style="fill: #1f77b4; stroke: #1f77b4"/>
     <use xlink:href="#m5d03d855d0" x="294.456095" y="55.020826" style="fill: #1f77b4; stroke: #1f77b4"/>
     <use xlink:href="#m5d03d855d0" x="297.530475" y="53.024132" style="fill: #1f77b4; stroke: #1f77b4"/>
     <use xlink:href="#m5d03d855d0" x="300.604855" y="51.027438" style="fill: #1f77b4; stroke: #1f77b4"/>
     <use xlink:href="#m5d03d855d0" x="303.679236" y="49.030744" style="fill: #1f77b4; stroke: #1f77b4"/>
     <use xlink:href="#m5d03d855d0" x="306.753616" y="47.03405" style="fill: #1f77b4; stroke: #1f77b4"/>
     <use xlink:href="#m5d03d855d0" x="309.827996" y="45.037355" style="fill: #1f77b4; stroke: #1f77b4"/>
     <use xlink:href="#m5d03d855d0" x="312.902376" y="43.040661" style="fill: #1f77b4; stroke: #1f77b4"/>
     <use xlink:href="#m5d03d855d0" x="315.976756" y="41.043967" style="fill: #1f77b4; stroke: #1f77b4"/>
     <use xlink:href="#m5d03d855d0" x="319.051136" y="39.047273" style="fill: #1f77b4; stroke: #1f77b4"/>
     <use xlink:href="#m5d03d855d0" x="322.125517" y="37.050579" style="fill: #1f77b4; stroke: #1f77b4"/>
     <use xlink:href="#m5d03d855d0" x="325.199897" y="35.053884" style="fill: #1f77b4; stroke: #1f77b4"/>
     <use xlink:href="#m5d03d855d0" x="328.274277" y="33.05719" style="fill: #1f77b4; stroke: #1f77b4"/>
     <use xlink:href="#m5d03d855d0" x="331.348657" y="31.060496" style="fill: #1f77b4; stroke: #1f77b4"/>
     <use xlink:href="#m5d03d855d0" x="334.423037" y="29.063802" style="fill: #1f77b4; stroke: #1f77b4"/>
     <use xlink:href="#m5d03d855d0" x="337.497417" y="27.067107" style="fill: #1f77b4; stroke: #1f77b4"/>
     <use xlink:href="#m5d03d855d0" x="340.571798" y="25.070413" style="fill: #1f77b4; stroke: #1f77b4"/>
     <use xlink:href="#m5d03d855d0" x="343.646178" y="23.073719" style="fill: #1f77b4; stroke: #1f77b4"/>
     <use xlink:href="#m5d03d855d0" x="346.720558" y="21.077025" style="fill: #1f77b4; stroke: #1f77b4"/>
     <use xlink:href="#m5d03d855d0" x="349.794938" y="19.080331" style="fill: #1f77b4; stroke: #1f77b4"/>
     <use xlink:href="#m5d03d855d0" x="352.869318" y="17.083636" style="fill: #1f77b4; stroke: #1f77b4"/>
    </g>
   </g>
   <g id="patch_3">
    <path d="M 33.2875 224.64 
L 33.2875 7.2 
" style="fill: none; stroke: #000000; stroke-width: 0.8; stroke-linejoin: miter; stroke-linecap: square"/>
   </g>
   <g id="patch_4">
    <path d="M 368.0875 224.64 
L 368.0875 7.2 
" style="fill: none; stroke: #000000; stroke-width: 0.8; stroke-linejoin: miter; stroke-linecap: square"/>
   </g>
   <g id="patch_5">
    <path d="M 33.2875 224.64 
L 368.0875 224.64 
" style="fill: none; stroke: #000000; stroke-width: 0.8; stroke-linejoin: miter; stroke-linecap: square"/>
   </g>
   <g id="patch_6">
    <path d="M 33.2875 7.2 
L 368.0875 7.2 
" style="fill: none; stroke: #000000; stroke-width: 0.8; stroke-linejoin: miter; stroke-linecap: square"/>
   </g>
  </g>
 </g>
 <defs>
  <clipPath id="p367e64f388">
   <rect x="33.2875" y="7.2" width="334.8" height="217.44"/>
  </clipPath>
 </defs>
</svg>
