<?xml version="1.0" encoding="utf-8" standalone="no"?>
<!DOCTYPE svg PUBLIC "-//W3C//DTD SVG 1.1//EN"
  "http://www.w3.org/Graphics/SVG/1.1/DTD/svg11.dtd">
<svg xmlns:xlink="http://www.w3.org/1999/xlink" width="400.523438pt" height="262.19625pt" viewBox="0 0 400.523438 262.19625" xmlns="http://www.w3.org/2000/svg" version="1.1">
 <metadata>
  <rdf:RDF xmlns:dc="http://purl.org/dc/elements/1.1/" xmlns:cc="http://creativecommons.org/ns#" xmlns:rdf="http://www.w3.org/1999/02/22-rdf-syntax-ns#">
   <cc:Work>
    <dc:type rdf:resource="http://purl.org/dc/dcmitype/StillImage"/>
    <dc:date>2022-01-05T07:58:08.356192</dc:date>
    <dc:format>image/svg+xml</dc:format>
    <dc:creator>
     <cc:Agent>
      <dc:title>Matplotlib v3.5.1, https://matplotlib.org/</dc:title>
     </cc:Agent>
    </dc:creator>
   </cc:Work>
  </rdf:RDF>
 </metadata>
 <defs>
  <style type="text/css">*{stroke-linejoin: round; stroke-linecap: butt}</style>
 </defs>
 <g id="figure_1">
  <g id="patch_1">
   <path d="M 0 262.19625 
L 400.523438 262.19625 
L 400.523438 0 
L 0 0 
L 0 262.19625 
z
" style="fill: none"/>
  </g>
  <g id="axes_1">
   <g id="patch_2">
    <path d="M 58.523438 224.64 
L 393.323438 224.64 
L 393.323438 7.2 
L 58.523438 7.2 
z
" style="fill: #ffffff"/>
   </g>
   <g id="matplotlib.axis_1">
    <g id="xtick_1">
     <g id="line2d_1">
      <path d="M 73.741619 224.64 
L 73.741619 7.2 
" clip-path="url(#p69c60386b6)" style="fill: none; stroke: #b0b0b0; stroke-width: 0.8; stroke-linecap: square"/>
     </g>
     <g id="line2d_2">
      <defs>
       <path id="m14722147d1" d="M 0 0 
L 0 3.5 
" style="stroke: #000000; stroke-width: 0.8"/>
      </defs>
      <g>
       <use xlink:href="#m14722147d1" x="73.741619" y="224.64" style="stroke: #000000; stroke-width: 0.8"/>
      </g>
     </g>
     <g id="text_1">
      <!-- 0 -->
      <g transform="translate(70.560369 239.238437)scale(0.1 -0.1)">
       <defs>
        <path id="DejaVuSans-30" d="M 2034 4250 
Q 1547 4250 1301 3770 
Q 1056 3291 1056 2328 
Q 1056 1369 1301 889 
Q 1547 409 2034 409 
Q 2525 409 2770 889 
Q 3016 1369 3016 2328 
Q 3016 3291 2770 3770 
Q 2525 4250 2034 4250 
z
M 2034 4750 
Q 2819 4750 3233 4129 
Q 3647 3509 3647 2328 
Q 3647 1150 3233 529 
Q 2819 -91 2034 -91 
Q 1250 -91 836 529 
Q 422 1150 422 2328 
Q 422 3509 836 4129 
Q 1250 4750 2034 4750 
z
" transform="scale(0.015625)"/>
       </defs>
       <use xlink:href="#DejaVuSans-30"/>
      </g>
     </g>
    </g>
    <g id="xtick_2">
     <g id="line2d_3">
      <path d="M 134.614347 224.64 
L 134.614347 7.2 
" clip-path="url(#p69c60386b6)" style="fill: none; stroke: #b0b0b0; stroke-width: 0.8; stroke-linecap: square"/>
     </g>
     <g id="line2d_4">
      <g>
       <use xlink:href="#m14722147d1" x="134.614347" y="224.64" style="stroke: #000000; stroke-width: 0.8"/>
      </g>
     </g>
     <g id="text_2">
      <!-- 2 -->
      <g transform="translate(131.433097 239.238437)scale(0.1 -0.1)">
       <defs>
        <path id="DejaVuSans-32" d="M 1228 531 
L 3431 531 
L 3431 0 
L 469 0 
L 469 531 
Q 828 903 1448 1529 
Q 2069 2156 2228 2338 
Q 2531 2678 2651 2914 
Q 2772 3150 2772 3378 
Q 2772 3750 2511 3984 
Q 2250 4219 1831 4219 
Q 1534 4219 1204 4116 
Q 875 4013 500 3803 
L 500 4441 
Q 881 4594 1212 4672 
Q 1544 4750 1819 4750 
Q 2544 4750 2975 4387 
Q 3406 4025 3406 3419 
Q 3406 3131 3298 2873 
Q 3191 2616 2906 2266 
Q 2828 2175 2409 1742 
Q 1991 1309 1228 531 
z
" transform="scale(0.015625)"/>
       </defs>
       <use xlink:href="#DejaVuSans-32"/>
      </g>
     </g>
    </g>
    <g id="xtick_3">
     <g id="line2d_5">
      <path d="M 195.487074 224.64 
L 195.487074 7.2 
" clip-path="url(#p69c60386b6)" style="fill: none; stroke: #b0b0b0; stroke-width: 0.8; stroke-linecap: square"/>
     </g>
     <g id="line2d_6">
      <g>
       <use xlink:href="#m14722147d1" x="195.487074" y="224.64" style="stroke: #000000; stroke-width: 0.8"/>
      </g>
     </g>
     <g id="text_3">
      <!-- 4 -->
      <g transform="translate(192.305824 239.238437)scale(0.1 -0.1)">
       <defs>
        <path id="DejaVuSans-34" d="M 2419 4116 
L 825 1625 
L 2419 1625 
L 2419 4116 
z
M 2253 4666 
L 3047 4666 
L 3047 1625 
L 3713 1625 
L 3713 1100 
L 3047 1100 
L 3047 0 
L 2419 0 
L 2419 1100 
L 313 1100 
L 313 1709 
L 2253 4666 
z
" transform="scale(0.015625)"/>
       </defs>
       <use xlink:href="#DejaVuSans-34"/>
      </g>
     </g>
    </g>
    <g id="xtick_4">
     <g id="line2d_7">
      <path d="M 256.359801 224.64 
L 256.359801 7.2 
" clip-path="url(#p69c60386b6)" style="fill: none; stroke: #b0b0b0; stroke-width: 0.8; stroke-linecap: square"/>
     </g>
     <g id="line2d_8">
      <g>
       <use xlink:href="#m14722147d1" x="256.359801" y="224.64" style="stroke: #000000; stroke-width: 0.8"/>
      </g>
     </g>
     <g id="text_4">
      <!-- 6 -->
      <g transform="translate(253.178551 239.238437)scale(0.1 -0.1)">
       <defs>
        <path id="DejaVuSans-36" d="M 2113 2584 
Q 1688 2584 1439 2293 
Q 1191 2003 1191 1497 
Q 1191 994 1439 701 
Q 1688 409 2113 409 
Q 2538 409 2786 701 
Q 3034 994 3034 1497 
Q 3034 2003 2786 2293 
Q 2538 2584 2113 2584 
z
M 3366 4563 
L 3366 3988 
Q 3128 4100 2886 4159 
Q 2644 4219 2406 4219 
Q 1781 4219 1451 3797 
Q 1122 3375 1075 2522 
Q 1259 2794 1537 2939 
Q 1816 3084 2150 3084 
Q 2853 3084 3261 2657 
Q 3669 2231 3669 1497 
Q 3669 778 3244 343 
Q 2819 -91 2113 -91 
Q 1303 -91 875 529 
Q 447 1150 447 2328 
Q 447 3434 972 4092 
Q 1497 4750 2381 4750 
Q 2619 4750 2861 4703 
Q 3103 4656 3366 4563 
z
" transform="scale(0.015625)"/>
       </defs>
       <use xlink:href="#DejaVuSans-36"/>
      </g>
     </g>
    </g>
    <g id="xtick_5">
     <g id="line2d_9">
      <path d="M 317.232528 224.64 
L 317.232528 7.2 
" clip-path="url(#p69c60386b6)" style="fill: none; stroke: #b0b0b0; stroke-width: 0.8; stroke-linecap: square"/>
     </g>
     <g id="line2d_10">
      <g>
       <use xlink:href="#m14722147d1" x="317.232528" y="224.64" style="stroke: #000000; stroke-width: 0.8"/>
      </g>
     </g>
     <g id="text_5">
      <!-- 8 -->
      <g transform="translate(314.051278 239.238437)scale(0.1 -0.1)">
       <defs>
        <path id="DejaVuSans-38" d="M 2034 2216 
Q 1584 2216 1326 1975 
Q 1069 1734 1069 1313 
Q 1069 891 1326 650 
Q 1584 409 2034 409 
Q 2484 409 2743 651 
Q 3003 894 3003 1313 
Q 3003 1734 2745 1975 
Q 2488 2216 2034 2216 
z
M 1403 2484 
Q 997 2584 770 2862 
Q 544 3141 544 3541 
Q 544 4100 942 4425 
Q 1341 4750 2034 4750 
Q 2731 4750 3128 4425 
Q 3525 4100 3525 3541 
Q 3525 3141 3298 2862 
Q 3072 2584 2669 2484 
Q 3125 2378 3379 2068 
Q 3634 1759 3634 1313 
Q 3634 634 3220 271 
Q 2806 -91 2034 -91 
Q 1263 -91 848 271 
Q 434 634 434 1313 
Q 434 1759 690 2068 
Q 947 2378 1403 2484 
z
M 1172 3481 
Q 1172 3119 1398 2916 
Q 1625 2713 2034 2713 
Q 2441 2713 2670 2916 
Q 2900 3119 2900 3481 
Q 2900 3844 2670 4047 
Q 2441 4250 2034 4250 
Q 1625 4250 1398 4047 
Q 1172 3844 1172 3481 
z
" transform="scale(0.015625)"/>
       </defs>
       <use xlink:href="#DejaVuSans-38"/>
      </g>
     </g>
    </g>
    <g id="xtick_6">
     <g id="line2d_11">
      <path d="M 378.105256 224.64 
L 378.105256 7.2 
" clip-path="url(#p69c60386b6)" style="fill: none; stroke: #b0b0b0; stroke-width: 0.8; stroke-linecap: square"/>
     </g>
     <g id="line2d_12">
      <g>
       <use xlink:href="#m14722147d1" x="378.105256" y="224.64" style="stroke: #000000; stroke-width: 0.8"/>
      </g>
     </g>
     <g id="text_6">
      <!-- 10 -->
      <g transform="translate(371.742756 239.238437)scale(0.1 -0.1)">
       <defs>
        <path id="DejaVuSans-31" d="M 794 531 
L 1825 531 
L 1825 4091 
L 703 3866 
L 703 4441 
L 1819 4666 
L 2450 4666 
L 2450 531 
L 3481 531 
L 3481 0 
L 794 0 
L 794 531 
z
" transform="scale(0.015625)"/>
       </defs>
       <use xlink:href="#DejaVuSans-31"/>
       <use xlink:href="#DejaVuSans-30" x="63.623047"/>
      </g>
     </g>
    </g>
    <g id="text_7">
     <!-- x -->
     <g transform="translate(222.964063 252.916562)scale(0.1 -0.1)">
      <defs>
       <path id="DejaVuSans-78" d="M 3513 3500 
L 2247 1797 
L 3578 0 
L 2900 0 
L 1881 1375 
L 863 0 
L 184 0 
L 1544 1831 
L 300 3500 
L 978 3500 
L 1906 2253 
L 2834 3500 
L 3513 3500 
z
" transform="scale(0.015625)"/>
      </defs>
      <use xlink:href="#DejaVuSans-78"/>
     </g>
    </g>
   </g>
   <g id="matplotlib.axis_2">
    <g id="ytick_1">
     <g id="line2d_13">
      <path d="M 58.523438 214.81722 
L 393.323438 214.81722 
" clip-path="url(#p69c60386b6)" style="fill: none; stroke: #b0b0b0; stroke-width: 0.8; stroke-linecap: square"/>
     </g>
     <g id="line2d_14">
      <defs>
       <path id="mdbaf8e5eb1" d="M 0 0 
L -3.5 0 
" style="stroke: #000000; stroke-width: 0.8"/>
      </defs>
      <g>
       <use xlink:href="#mdbaf8e5eb1" x="58.523438" y="214.81722" style="stroke: #000000; stroke-width: 0.8"/>
      </g>
     </g>
     <g id="text_8">
      <!-- −1.00 -->
      <g transform="translate(20.878125 218.616439)scale(0.1 -0.1)">
       <defs>
        <path id="DejaVuSans-2212" d="M 678 2272 
L 4684 2272 
L 4684 1741 
L 678 1741 
L 678 2272 
z
" transform="scale(0.015625)"/>
        <path id="DejaVuSans-2e" d="M 684 794 
L 1344 794 
L 1344 0 
L 684 0 
L 684 794 
z
" transform="scale(0.015625)"/>
       </defs>
       <use xlink:href="#DejaVuSans-2212"/>
       <use xlink:href="#DejaVuSans-31" x="83.789062"/>
       <use xlink:href="#DejaVuSans-2e" x="147.412109"/>
       <use xlink:href="#DejaVuSans-30" x="179.199219"/>
       <use xlink:href="#DejaVuSans-30" x="242.822266"/>
      </g>
     </g>
    </g>
    <g id="ytick_2">
     <g id="line2d_15">
      <path d="M 58.523438 190.096719 
L 393.323438 190.096719 
" clip-path="url(#p69c60386b6)" style="fill: none; stroke: #b0b0b0; stroke-width: 0.8; stroke-linecap: square"/>
     </g>
     <g id="line2d_16">
      <g>
       <use xlink:href="#mdbaf8e5eb1" x="58.523438" y="190.096719" style="stroke: #000000; stroke-width: 0.8"/>
      </g>
     </g>
     <g id="text_9">
      <!-- −0.75 -->
      <g transform="translate(20.878125 193.895938)scale(0.1 -0.1)">
       <defs>
        <path id="DejaVuSans-37" d="M 525 4666 
L 3525 4666 
L 3525 4397 
L 1831 0 
L 1172 0 
L 2766 4134 
L 525 4134 
L 525 4666 
z
" transform="scale(0.015625)"/>
        <path id="DejaVuSans-35" d="M 691 4666 
L 3169 4666 
L 3169 4134 
L 1269 4134 
L 1269 2991 
Q 1406 3038 1543 3061 
Q 1681 3084 1819 3084 
Q 2600 3084 3056 2656 
Q 3513 2228 3513 1497 
Q 3513 744 3044 326 
Q 2575 -91 1722 -91 
Q 1428 -91 1123 -41 
Q 819 9 494 109 
L 494 744 
Q 775 591 1075 516 
Q 1375 441 1709 441 
Q 2250 441 2565 725 
Q 2881 1009 2881 1497 
Q 2881 1984 2565 2268 
Q 2250 2553 1709 2553 
Q 1456 2553 1204 2497 
Q 953 2441 691 2322 
L 691 4666 
z
" transform="scale(0.015625)"/>
       </defs>
       <use xlink:href="#DejaVuSans-2212"/>
       <use xlink:href="#DejaVuSans-30" x="83.789062"/>
       <use xlink:href="#DejaVuSans-2e" x="147.412109"/>
       <use xlink:href="#DejaVuSans-37" x="179.199219"/>
       <use xlink:href="#DejaVuSans-35" x="242.822266"/>
      </g>
     </g>
    </g>
    <g id="ytick_3">
     <g id="line2d_17">
      <path d="M 58.523438 165.376218 
L 393.323438 165.376218 
" clip-path="url(#p69c60386b6)" style="fill: none; stroke: #b0b0b0; stroke-width: 0.8; stroke-linecap: square"/>
     </g>
     <g id="line2d_18">
      <g>
       <use xlink:href="#mdbaf8e5eb1" x="58.523438" y="165.376218" style="stroke: #000000; stroke-width: 0.8"/>
      </g>
     </g>
     <g id="text_10">
      <!-- −0.50 -->
      <g transform="translate(20.878125 169.175437)scale(0.1 -0.1)">
       <use xlink:href="#DejaVuSans-2212"/>
       <use xlink:href="#DejaVuSans-30" x="83.789062"/>
       <use xlink:href="#DejaVuSans-2e" x="147.412109"/>
       <use xlink:href="#DejaVuSans-35" x="179.199219"/>
       <use xlink:href="#DejaVuSans-30" x="242.822266"/>
      </g>
     </g>
    </g>
    <g id="ytick_4">
     <g id="line2d_19">
      <path d="M 58.523438 140.655718 
L 393.323438 140.655718 
" clip-path="url(#p69c60386b6)" style="fill: none; stroke: #b0b0b0; stroke-width: 0.8; stroke-linecap: square"/>
     </g>
     <g id="line2d_20">
      <g>
       <use xlink:href="#mdbaf8e5eb1" x="58.523438" y="140.655718" style="stroke: #000000; stroke-width: 0.8"/>
      </g>
     </g>
     <g id="text_11">
      <!-- −0.25 -->
      <g transform="translate(20.878125 144.454937)scale(0.1 -0.1)">
       <use xlink:href="#DejaVuSans-2212"/>
       <use xlink:href="#DejaVuSans-30" x="83.789062"/>
       <use xlink:href="#DejaVuSans-2e" x="147.412109"/>
       <use xlink:href="#DejaVuSans-32" x="179.199219"/>
       <use xlink:href="#DejaVuSans-35" x="242.822266"/>
      </g>
     </g>
    </g>
    <g id="ytick_5">
     <g id="line2d_21">
      <path d="M 58.523438 115.935217 
L 393.323438 115.935217 
" clip-path="url(#p69c60386b6)" style="fill: none; stroke: #b0b0b0; stroke-width: 0.8; stroke-linecap: square"/>
     </g>
     <g id="line2d_22">
      <g>
       <use xlink:href="#mdbaf8e5eb1" x="58.523438" y="115.935217" style="stroke: #000000; stroke-width: 0.8"/>
      </g>
     </g>
     <g id="text_12">
      <!-- 0.00 -->
      <g transform="translate(29.257813 119.734436)scale(0.1 -0.1)">
       <use xlink:href="#DejaVuSans-30"/>
       <use xlink:href="#DejaVuSans-2e" x="63.623047"/>
       <use xlink:href="#DejaVuSans-30" x="95.410156"/>
       <use xlink:href="#DejaVuSans-30" x="159.033203"/>
      </g>
     </g>
    </g>
    <g id="ytick_6">
     <g id="line2d_23">
      <path d="M 58.523438 91.214716 
L 393.323438 91.214716 
" clip-path="url(#p69c60386b6)" style="fill: none; stroke: #b0b0b0; stroke-width: 0.8; stroke-linecap: square"/>
     </g>
     <g id="line2d_24">
      <g>
       <use xlink:href="#mdbaf8e5eb1" x="58.523438" y="91.214716" style="stroke: #000000; stroke-width: 0.8"/>
      </g>
     </g>
     <g id="text_13">
      <!-- 0.25 -->
      <g transform="translate(29.257813 95.013935)scale(0.1 -0.1)">
       <use xlink:href="#DejaVuSans-30"/>
       <use xlink:href="#DejaVuSans-2e" x="63.623047"/>
       <use xlink:href="#DejaVuSans-32" x="95.410156"/>
       <use xlink:href="#DejaVuSans-35" x="159.033203"/>
      </g>
     </g>
    </g>
    <g id="ytick_7">
     <g id="line2d_25">
      <path d="M 58.523438 66.494216 
L 393.323438 66.494216 
" clip-path="url(#p69c60386b6)" style="fill: none; stroke: #b0b0b0; stroke-width: 0.8; stroke-linecap: square"/>
     </g>
     <g id="line2d_26">
      <g>
       <use xlink:href="#mdbaf8e5eb1" x="58.523438" y="66.494216" style="stroke: #000000; stroke-width: 0.8"/>
      </g>
     </g>
     <g id="text_14">
      <!-- 0.50 -->
      <g transform="translate(29.257813 70.293435)scale(0.1 -0.1)">
       <use xlink:href="#DejaVuSans-30"/>
       <use xlink:href="#DejaVuSans-2e" x="63.623047"/>
       <use xlink:href="#DejaVuSans-35" x="95.410156"/>
       <use xlink:href="#DejaVuSans-30" x="159.033203"/>
      </g>
     </g>
    </g>
    <g id="ytick_8">
     <g id="line2d_27">
      <path d="M 58.523438 41.773715 
L 393.323438 41.773715 
" clip-path="url(#p69c60386b6)" style="fill: none; stroke: #b0b0b0; stroke-width: 0.8; stroke-linecap: square"/>
     </g>
     <g id="line2d_28">
      <g>
       <use xlink:href="#mdbaf8e5eb1" x="58.523438" y="41.773715" style="stroke: #000000; stroke-width: 0.8"/>
      </g>
     </g>
     <g id="text_15">
      <!-- 0.75 -->
      <g transform="translate(29.257813 45.572934)scale(0.1 -0.1)">
       <use xlink:href="#DejaVuSans-30"/>
       <use xlink:href="#DejaVuSans-2e" x="63.623047"/>
       <use xlink:href="#DejaVuSans-37" x="95.410156"/>
       <use xlink:href="#DejaVuSans-35" x="159.033203"/>
      </g>
     </g>
    </g>
    <g id="ytick_9">
     <g id="line2d_29">
      <path d="M 58.523438 17.053214 
L 393.323438 17.053214 
" clip-path="url(#p69c60386b6)" style="fill: none; stroke: #b0b0b0; stroke-width: 0.8; stroke-linecap: square"/>
     </g>
     <g id="line2d_30">
      <g>
       <use xlink:href="#mdbaf8e5eb1" x="58.523438" y="17.053214" style="stroke: #000000; stroke-width: 0.8"/>
      </g>
     </g>
     <g id="text_16">
      <!-- 1.00 -->
      <g transform="translate(29.257813 20.852433)scale(0.1 -0.1)">
       <use xlink:href="#DejaVuSans-31"/>
       <use xlink:href="#DejaVuSans-2e" x="63.623047"/>
       <use xlink:href="#DejaVuSans-30" x="95.410156"/>
       <use xlink:href="#DejaVuSans-30" x="159.033203"/>
      </g>
     </g>
    </g>
    <g id="text_17">
     <!-- y=f(x) -->
     <g transform="translate(14.798438 131.690312)rotate(-90)scale(0.1 -0.1)">
      <defs>
       <path id="DejaVuSans-79" d="M 2059 -325 
Q 1816 -950 1584 -1140 
Q 1353 -1331 966 -1331 
L 506 -1331 
L 506 -850 
L 844 -850 
Q 1081 -850 1212 -737 
Q 1344 -625 1503 -206 
L 1606 56 
L 191 3500 
L 800 3500 
L 1894 763 
L 2988 3500 
L 3597 3500 
L 2059 -325 
z
" transform="scale(0.015625)"/>
       <path id="DejaVuSans-3d" d="M 678 2906 
L 4684 2906 
L 4684 2381 
L 678 2381 
L 678 2906 
z
M 678 1631 
L 4684 1631 
L 4684 1100 
L 678 1100 
L 678 1631 
z
" transform="scale(0.015625)"/>
       <path id="DejaVuSans-66" d="M 2375 4863 
L 2375 4384 
L 1825 4384 
Q 1516 4384 1395 4259 
Q 1275 4134 1275 3809 
L 1275 3500 
L 2222 3500 
L 2222 3053 
L 1275 3053 
L 1275 0 
L 697 0 
L 697 3053 
L 147 3053 
L 147 3500 
L 697 3500 
L 697 3744 
Q 697 4328 969 4595 
Q 1241 4863 1831 4863 
L 2375 4863 
z
" transform="scale(0.015625)"/>
       <path id="DejaVuSans-28" d="M 1984 4856 
Q 1566 4138 1362 3434 
Q 1159 2731 1159 2009 
Q 1159 1288 1364 580 
Q 1569 -128 1984 -844 
L 1484 -844 
Q 1016 -109 783 600 
Q 550 1309 550 2009 
Q 550 2706 781 3412 
Q 1013 4119 1484 4856 
L 1984 4856 
z
" transform="scale(0.015625)"/>
       <path id="DejaVuSans-29" d="M 513 4856 
L 1013 4856 
Q 1481 4119 1714 3412 
Q 1947 2706 1947 2009 
Q 1947 1309 1714 600 
Q 1481 -109 1013 -844 
L 513 -844 
Q 928 -128 1133 580 
Q 1338 1288 1338 2009 
Q 1338 2731 1133 3434 
Q 928 4138 513 4856 
z
" transform="scale(0.015625)"/>
      </defs>
      <use xlink:href="#DejaVuSans-79"/>
      <use xlink:href="#DejaVuSans-3d" x="59.179688"/>
      <use xlink:href="#DejaVuSans-66" x="142.96875"/>
      <use xlink:href="#DejaVuSans-28" x="178.173828"/>
      <use xlink:href="#DejaVuSans-78" x="217.1875"/>
      <use xlink:href="#DejaVuSans-29" x="276.367188"/>
     </g>
    </g>
   </g>
   <g id="line2d_31">
    <path d="M 73.741619 115.935217 
L 76.815999 105.964112 
L 79.89038 96.094656 
L 82.96476 86.427462 
L 86.03914 77.061082 
L 89.11352 68.090998 
L 92.1879 59.608656 
L 95.26228 51.700527 
L 98.336661 44.447231 
L 101.411041 37.92271 
L 104.485421 32.193477 
L 107.559801 27.317937 
L 110.634181 23.345796 
L 113.708561 20.317544 
L 116.782942 18.264055 
L 119.857322 17.206261 
L 122.931702 17.154947 
L 126.006082 18.110635 
L 129.080462 20.063583 
L 132.154842 22.993882 
L 135.229223 26.871659 
L 138.303603 31.657382 
L 141.377983 37.302265 
L 144.452363 43.748761 
L 147.526743 50.931153 
L 150.601123 58.77622 
L 153.675504 67.203987 
L 156.749884 76.128537 
L 159.824264 85.458892 
L 162.898644 95.099934 
L 165.973024 104.953378 
L 169.047404 114.918775 
L 172.121785 124.894534 
L 175.196165 134.778959 
L 178.270545 144.471283 
L 181.344925 153.872701 
L 184.419305 162.887369 
L 187.493685 171.423391 
L 190.568066 179.393745 
L 193.642446 186.717179 
L 196.716826 193.319037 
L 199.791206 199.132015 
L 202.865586 204.096854 
L 205.939966 208.162941 
L 209.014347 211.288825 
L 212.088727 213.442639 
L 215.163107 214.602426 
L 218.237487 214.756364 
L 221.311867 213.902882 
L 224.386247 212.050682 
L 227.460628 209.218645 
L 230.535008 205.435643 
L 233.609388 200.740241 
L 236.683768 195.180304 
L 239.758148 188.812515 
L 242.832528 181.701787 
L 245.906909 173.920611 
L 248.981289 165.54831 
L 252.055669 156.670235 
L 255.130049 147.376892 
L 258.204429 137.763021 
L 261.278809 127.92663 
L 264.35319 117.967993 
L 267.42757 107.988634 
L 270.50195 98.090285 
L 273.57633 88.373854 
L 276.65071 78.938394 
L 279.72509 69.880093 
L 282.799471 61.291295 
L 285.873851 53.259557 
L 288.948231 45.866758 
L 292.022611 39.188262 
L 295.096991 33.292154 
L 298.171371 28.238539 
L 301.245752 24.078936 
L 304.320132 20.85575 
L 307.394512 18.601839 
L 310.468892 17.340181 
L 313.543272 17.083636 
L 316.617652 17.834821 
L 319.692033 19.586078 
L 322.766413 22.319553 
L 325.840793 26.007381 
L 328.915173 30.611966 
L 331.989553 36.086368 
L 335.063933 42.374778 
L 338.138314 49.413091 
L 341.212694 57.129555 
L 344.287074 65.445505 
L 347.361454 74.276166 
L 350.435834 83.531515 
L 353.510214 93.117199 
L 356.584595 102.935498 
L 359.658975 112.886321 
L 362.733355 122.868226 
L 365.807735 132.779453 
L 368.882115 142.518964 
L 371.956495 151.98747 
L 375.030876 161.088446 
L 378.105256 169.729114 
" clip-path="url(#p69c60386b6)" style="fill: none; stroke: #ffa500; stroke-width: 2; stroke-linecap: square"/>
    <defs>
     <path id="mbc792d54db" d="M -3 3 
L 3 -3 
M -3 -3 
L 3 3 
" style="stroke: #ffa500"/>
    </defs>
    <g clip-path="url(#p69c60386b6)">
     <use xlink:href="#mbc792d54db" x="73.741619" y="115.935217" style="fill: #ffa500; stroke: #ffa500"/>
     <use xlink:href="#mbc792d54db" x="76.815999" y="105.964112" style="fill: #ffa500; stroke: #ffa500"/>
     <use xlink:href="#mbc792d54db" x="79.89038" y="96.094656" style="fill: #ffa500; stroke: #ffa500"/>
     <use xlink:href="#mbc792d54db" x="82.96476" y="86.427462" style="fill: #ffa500; stroke: #ffa500"/>
     <use xlink:href="#mbc792d54db" x="86.03914" y="77.061082" style="fill: #ffa500; stroke: #ffa500"/>
     <use xlink:href="#mbc792d54db" x="89.11352" y="68.090998" style="fill: #ffa500; stroke: #ffa500"/>
     <use xlink:href="#mbc792d54db" x="92.1879" y="59.608656" style="fill: #ffa500; stroke: #ffa500"/>
     <use xlink:href="#mbc792d54db" x="95.26228" y="51.700527" style="fill: #ffa500; stroke: #ffa500"/>
     <use xlink:href="#mbc792d54db" x="98.336661" y="44.447231" style="fill: #ffa500; stroke: #ffa500"/>
     <use xlink:href="#mbc792d54db" x="101.411041" y="37.92271" style="fill: #ffa500; stroke: #ffa500"/>
     <use xlink:href="#mbc792d54db" x="104.485421" y="32.193477" style="fill: #ffa500; stroke: #ffa500"/>
     <use xlink:href="#mbc792d54db" x="107.559801" y="27.317937" style="fill: #ffa500; stroke: #ffa500"/>
     <use xlink:href="#mbc792d54db" x="110.634181" y="23.345796" style="fill: #ffa500; stroke: #ffa500"/>
     <use xlink:href="#mbc792d54db" x="113.708561" y="20.317544" style="fill: #ffa500; stroke: #ffa500"/>
     <use xlink:href="#mbc792d54db" x="116.782942" y="18.264055" style="fill: #ffa500; stroke: #ffa500"/>
     <use xlink:href="#mbc792d54db" x="119.857322" y="17.206261" style="fill: #ffa500; stroke: #ffa500"/>
     <use xlink:href="#mbc792d54db" x="122.931702" y="17.154947" style="fill: #ffa500; stroke: #ffa500"/>
     <use xlink:href="#mbc792d54db" x="126.006082" y="18.110635" style="fill: #ffa500; stroke: #ffa500"/>
     <use xlink:href="#mbc792d54db" x="129.080462" y="20.063583" style="fill: #ffa500; stroke: #ffa500"/>
     <use xlink:href="#mbc792d54db" x="132.154842" y="22.993882" style="fill: #ffa500; stroke: #ffa500"/>
     <use xlink:href="#mbc792d54db" x="135.229223" y="26.871659" style="fill: #ffa500; stroke: #ffa500"/>
     <use xlink:href="#mbc792d54db" x="138.303603" y="31.657382" style="fill: #ffa500; stroke: #ffa500"/>
     <use xlink:href="#mbc792d54db" x="141.377983" y="37.302265" style="fill: #ffa500; stroke: #ffa500"/>
     <use xlink:href="#mbc792d54db" x="144.452363" y="43.748761" style="fill: #ffa500; stroke: #ffa500"/>
     <use xlink:href="#mbc792d54db" x="147.526743" y="50.931153" style="fill: #ffa500; stroke: #ffa500"/>
     <use xlink:href="#mbc792d54db" x="150.601123" y="58.77622" style="fill: #ffa500; stroke: #ffa500"/>
     <use xlink:href="#mbc792d54db" x="153.675504" y="67.203987" style="fill: #ffa500; stroke: #ffa500"/>
     <use xlink:href="#mbc792d54db" x="156.749884" y="76.128537" style="fill: #ffa500; stroke: #ffa500"/>
     <use xlink:href="#mbc792d54db" x="159.824264" y="85.458892" style="fill: #ffa500; stroke: #ffa500"/>
     <use xlink:href="#mbc792d54db" x="162.898644" y="95.099934" style="fill: #ffa500; stroke: #ffa500"/>
     <use xlink:href="#mbc792d54db" x="165.973024" y="104.953378" style="fill: #ffa500; stroke: #ffa500"/>
     <use xlink:href="#mbc792d54db" x="169.047404" y="114.918775" style="fill: #ffa500; stroke: #ffa500"/>
     <use xlink:href="#mbc792d54db" x="172.121785" y="124.894534" style="fill: #ffa500; stroke: #ffa500"/>
     <use xlink:href="#mbc792d54db" x="175.196165" y="134.778959" style="fill: #ffa500; stroke: #ffa500"/>
     <use xlink:href="#mbc792d54db" x="178.270545" y="144.471283" style="fill: #ffa500; stroke: #ffa500"/>
     <use xlink:href="#mbc792d54db" x="181.344925" y="153.872701" style="fill: #ffa500; stroke: #ffa500"/>
     <use xlink:href="#mbc792d54db" x="184.419305" y="162.887369" style="fill: #ffa500; stroke: #ffa500"/>
     <use xlink:href="#mbc792d54db" x="187.493685" y="171.423391" style="fill: #ffa500; stroke: #ffa500"/>
     <use xlink:href="#mbc792d54db" x="190.568066" y="179.393745" style="fill: #ffa500; stroke: #ffa500"/>
     <use xlink:href="#mbc792d54db" x="193.642446" y="186.717179" style="fill: #ffa500; stroke: #ffa500"/>
     <use xlink:href="#mbc792d54db" x="196.716826" y="193.319037" style="fill: #ffa500; stroke: #ffa500"/>
     <use xlink:href="#mbc792d54db" x="199.791206" y="199.132015" style="fill: #ffa500; stroke: #ffa500"/>
     <use xlink:href="#mbc792d54db" x="202.865586" y="204.096854" style="fill: #ffa500; stroke: #ffa500"/>
     <use xlink:href="#mbc792d54db" x="205.939966" y="208.162941" style="fill: #ffa500; stroke: #ffa500"/>
     <use xlink:href="#mbc792d54db" x="209.014347" y="211.288825" style="fill: #ffa500; stroke: #ffa500"/>
     <use xlink:href="#mbc792d54db" x="212.088727" y="213.442639" style="fill: #ffa500; stroke: #ffa500"/>
     <use xlink:href="#mbc792d54db" x="215.163107" y="214.602426" style="fill: #ffa500; stroke: #ffa500"/>
     <use xlink:href="#mbc792d54db" x="218.237487" y="214.756364" style="fill: #ffa500; stroke: #ffa500"/>
     <use xlink:href="#mbc792d54db" x="221.311867" y="213.902882" style="fill: #ffa500; stroke: #ffa500"/>
     <use xlink:href="#mbc792d54db" x="224.386247" y="212.050682" style="fill: #ffa500; stroke: #ffa500"/>
     <use xlink:href="#mbc792d54db" x="227.460628" y="209.218645" style="fill: #ffa500; stroke: #ffa500"/>
     <use xlink:href="#mbc792d54db" x="230.535008" y="205.435643" style="fill: #ffa500; stroke: #ffa500"/>
     <use xlink:href="#mbc792d54db" x="233.609388" y="200.740241" style="fill: #ffa500; stroke: #ffa500"/>
     <use xlink:href="#mbc792d54db" x="236.683768" y="195.180304" style="fill: #ffa500; stroke: #ffa500"/>
     <use xlink:href="#mbc792d54db" x="239.758148" y="188.812515" style="fill: #ffa500; stroke: #ffa500"/>
     <use xlink:href="#mbc792d54db" x="242.832528" y="181.701787" style="fill: #ffa500; stroke: #ffa500"/>
     <use xlink:href="#mbc792d54db" x="245.906909" y="173.920611" style="fill: #ffa500; stroke: #ffa500"/>
     <use xlink:href="#mbc792d54db" x="248.981289" y="165.54831" style="fill: #ffa500; stroke: #ffa500"/>
     <use xlink:href="#mbc792d54db" x="252.055669" y="156.670235" style="fill: #ffa500; stroke: #ffa500"/>
     <use xlink:href="#mbc792d54db" x="255.130049" y="147.376892" style="fill: #ffa500; stroke: #ffa500"/>
     <use xlink:href="#mbc792d54db" x="258.204429" y="137.763021" style="fill: #ffa500; stroke: #ffa500"/>
     <use xlink:href="#mbc792d54db" x="261.278809" y="127.92663" style="fill: #ffa500; stroke: #ffa500"/>
     <use xlink:href="#mbc792d54db" x="264.35319" y="117.967993" style="fill: #ffa500; stroke: #ffa500"/>
     <use xlink:href="#mbc792d54db" x="267.42757" y="107.988634" style="fill: #ffa500; stroke: #ffa500"/>
     <use xlink:href="#mbc792d54db" x="270.50195" y="98.090285" style="fill: #ffa500; stroke: #ffa500"/>
     <use xlink:href="#mbc792d54db" x="273.57633" y="88.373854" style="fill: #ffa500; stroke: #ffa500"/>
     <use xlink:href="#mbc792d54db" x="276.65071" y="78.938394" style="fill: #ffa500; stroke: #ffa500"/>
     <use xlink:href="#mbc792d54db" x="279.72509" y="69.880093" style="fill: #ffa500; stroke: #ffa500"/>
     <use xlink:href="#mbc792d54db" x="282.799471" y="61.291295" style="fill: #ffa500; stroke: #ffa500"/>
     <use xlink:href="#mbc792d54db" x="285.873851" y="53.259557" style="fill: #ffa500; stroke: #ffa500"/>
     <use xlink:href="#mbc792d54db" x="288.948231" y="45.866758" style="fill: #ffa500; stroke: #ffa500"/>
     <use xlink:href="#mbc792d54db" x="292.022611" y="39.188262" style="fill: #ffa500; stroke: #ffa500"/>
     <use xlink:href="#mbc792d54db" x="295.096991" y="33.292154" style="fill: #ffa500; stroke: #ffa500"/>
     <use xlink:href="#mbc792d54db" x="298.171371" y="28.238539" style="fill: #ffa500; stroke: #ffa500"/>
     <use xlink:href="#mbc792d54db" x="301.245752" y="24.078936" style="fill: #ffa500; stroke: #ffa500"/>
     <use xlink:href="#mbc792d54db" x="304.320132" y="20.85575" style="fill: #ffa500; stroke: #ffa500"/>
     <use xlink:href="#mbc792d54db" x="307.394512" y="18.601839" style="fill: #ffa500; stroke: #ffa500"/>
     <use xlink:href="#mbc792d54db" x="310.468892" y="17.340181" style="fill: #ffa500; stroke: #ffa500"/>
     <use xlink:href="#mbc792d54db" x="313.543272" y="17.083636" style="fill: #ffa500; stroke: #ffa500"/>
     <use xlink:href="#mbc792d54db" x="316.617652" y="17.834821" style="fill: #ffa500; stroke: #ffa500"/>
     <use xlink:href="#mbc792d54db" x="319.692033" y="19.586078" style="fill: #ffa500; stroke: #ffa500"/>
     <use xlink:href="#mbc792d54db" x="322.766413" y="22.319553" style="fill: #ffa500; stroke: #ffa500"/>
     <use xlink:href="#mbc792d54db" x="325.840793" y="26.007381" style="fill: #ffa500; stroke: #ffa500"/>
     <use xlink:href="#mbc792d54db" x="328.915173" y="30.611966" style="fill: #ffa500; stroke: #ffa500"/>
     <use xlink:href="#mbc792d54db" x="331.989553" y="36.086368" style="fill: #ffa500; stroke: #ffa500"/>
     <use xlink:href="#mbc792d54db" x="335.063933" y="42.374778" style="fill: #ffa500; stroke: #ffa500"/>
     <use xlink:href="#mbc792d54db" x="338.138314" y="49.413091" style="fill: #ffa500; stroke: #ffa500"/>
     <use xlink:href="#mbc792d54db" x="341.212694" y="57.129555" style="fill: #ffa500; stroke: #ffa500"/>
     <use xlink:href="#mbc792d54db" x="344.287074" y="65.445505" style="fill: #ffa500; stroke: #ffa500"/>
     <use xlink:href="#mbc792d54db" x="347.361454" y="74.276166" style="fill: #ffa500; stroke: #ffa500"/>
     <use xlink:href="#mbc792d54db" x="350.435834" y="83.531515" style="fill: #ffa500; stroke: #ffa500"/>
     <use xlink:href="#mbc792d54db" x="353.510214" y="93.117199" style="fill: #ffa500; stroke: #ffa500"/>
     <use xlink:href="#mbc792d54db" x="356.584595" y="102.935498" style="fill: #ffa500; stroke: #ffa500"/>
     <use xlink:href="#mbc792d54db" x="359.658975" y="112.886321" style="fill: #ffa500; stroke: #ffa500"/>
     <use xlink:href="#mbc792d54db" x="362.733355" y="122.868226" style="fill: #ffa500; stroke: #ffa500"/>
     <use xlink:href="#mbc792d54db" x="365.807735" y="132.779453" style="fill: #ffa500; stroke: #ffa500"/>
     <use xlink:href="#mbc792d54db" x="368.882115" y="142.518964" style="fill: #ffa500; stroke: #ffa500"/>
     <use xlink:href="#mbc792d54db" x="371.956495" y="151.98747" style="fill: #ffa500; stroke: #ffa500"/>
     <use xlink:href="#mbc792d54db" x="375.030876" y="161.088446" style="fill: #ffa500; stroke: #ffa500"/>
     <use xlink:href="#mbc792d54db" x="378.105256" y="169.729114" style="fill: #ffa500; stroke: #ffa500"/>
    </g>
   </g>
   <g id="patch_3">
    <path d="M 58.523438 224.64 
L 58.523438 7.2 
" style="fill: none; stroke: #000000; stroke-width: 0.8; stroke-linejoin: miter; stroke-linecap: square"/>
   </g>
   <g id="patch_4">
    <path d="M 393.323438 224.64 
L 393.323438 7.2 
" style="fill: none; stroke: #000000; stroke-width: 0.8; stroke-linejoin: miter; stroke-linecap: square"/>
   </g>
   <g id="patch_5">
    <path d="M 58.523438 224.64 
L 393.323438 224.64 
" style="fill: none; stroke: #000000; stroke-width: 0.8; stroke-linejoin: miter; stroke-linecap: square"/>
   </g>
   <g id="patch_6">
    <path d="M 58.523438 7.2 
L 393.323438 7.2 
" style="fill: none; stroke: #000000; stroke-width: 0.8; stroke-linejoin: miter; stroke-linecap: square"/>
   </g>
  </g>
 </g>
 <defs>
  <clipPath id="p69c60386b6">
   <rect x="58.523438" y="7.2" width="334.8" height="217.44"/>
  </clipPath>
 </defs>
</svg>
