<?xml version="1.0" encoding="utf-8" standalone="no"?>
<!DOCTYPE svg PUBLIC "-//W3C//DTD SVG 1.1//EN"
  "http://www.w3.org/Graphics/SVG/1.1/DTD/svg11.dtd">
<svg xmlns:xlink="http://www.w3.org/1999/xlink" width="375.2875pt" height="262.19625pt" viewBox="0 0 375.2875 262.19625" xmlns="http://www.w3.org/2000/svg" version="1.1">
 <metadata>
  <rdf:RDF xmlns:dc="http://purl.org/dc/elements/1.1/" xmlns:cc="http://creativecommons.org/ns#" xmlns:rdf="http://www.w3.org/1999/02/22-rdf-syntax-ns#">
   <cc:Work>
    <dc:type rdf:resource="http://purl.org/dc/dcmitype/StillImage"/>
    <dc:date>2022-01-05T15:20:51.026487</dc:date>
    <dc:format>image/svg+xml</dc:format>
    <dc:creator>
     <cc:Agent>
      <dc:title>Matplotlib v3.5.1, https://matplotlib.org/</dc:title>
     </cc:Agent>
    </dc:creator>
   </cc:Work>
  </rdf:RDF>
 </metadata>
 <defs>
  <style type="text/css">*{stroke-linejoin: round; stroke-linecap: butt}</style>
 </defs>
 <g id="figure_1">
  <g id="patch_1">
   <path d="M 0 262.19625 
L 375.2875 262.19625 
L 375.2875 0 
L 0 0 
L 0 262.19625 
z
" style="fill: none"/>
  </g>
  <g id="axes_1">
   <g id="patch_2">
    <path d="M 33.2875 224.64 
L 368.0875 224.64 
L 368.0875 7.2 
L 33.2875 7.2 
z
" style="fill: #ffffff"/>
   </g>
   <g id="matplotlib.axis_1">
    <g id="xtick_1">
     <g id="line2d_1">
      <defs>
       <path id="m377d816311" d="M 0 0 
L 0 3.5 
" style="stroke: #000000; stroke-width: 0.8"/>
      </defs>
      <g>
       <use xlink:href="#m377d816311" x="48.505682" y="224.64" style="stroke: #000000; stroke-width: 0.8"/>
      </g>
     </g>
     <g id="text_1">
      <!-- 0 -->
      <g transform="translate(45.324432 239.238437)scale(0.1 -0.1)">
       <defs>
        <path id="DejaVuSans-30" d="M 2034 4250 
Q 1547 4250 1301 3770 
Q 1056 3291 1056 2328 
Q 1056 1369 1301 889 
Q 1547 409 2034 409 
Q 2525 409 2770 889 
Q 3016 1369 3016 2328 
Q 3016 3291 2770 3770 
Q 2525 4250 2034 4250 
z
M 2034 4750 
Q 2819 4750 3233 4129 
Q 3647 3509 3647 2328 
Q 3647 1150 3233 529 
Q 2819 -91 2034 -91 
Q 1250 -91 836 529 
Q 422 1150 422 2328 
Q 422 3509 836 4129 
Q 1250 4750 2034 4750 
z
" transform="scale(0.015625)"/>
       </defs>
       <use xlink:href="#DejaVuSans-30"/>
      </g>
     </g>
    </g>
    <g id="xtick_2">
     <g id="line2d_2">
      <g>
       <use xlink:href="#m377d816311" x="99.232955" y="224.64" style="stroke: #000000; stroke-width: 0.8"/>
      </g>
     </g>
     <g id="text_2">
      <!-- 5 -->
      <g transform="translate(96.051705 239.238437)scale(0.1 -0.1)">
       <defs>
        <path id="DejaVuSans-35" d="M 691 4666 
L 3169 4666 
L 3169 4134 
L 1269 4134 
L 1269 2991 
Q 1406 3038 1543 3061 
Q 1681 3084 1819 3084 
Q 2600 3084 3056 2656 
Q 3513 2228 3513 1497 
Q 3513 744 3044 326 
Q 2575 -91 1722 -91 
Q 1428 -91 1123 -41 
Q 819 9 494 109 
L 494 744 
Q 775 591 1075 516 
Q 1375 441 1709 441 
Q 2250 441 2565 725 
Q 2881 1009 2881 1497 
Q 2881 1984 2565 2268 
Q 2250 2553 1709 2553 
Q 1456 2553 1204 2497 
Q 953 2441 691 2322 
L 691 4666 
z
" transform="scale(0.015625)"/>
       </defs>
       <use xlink:href="#DejaVuSans-35"/>
      </g>
     </g>
    </g>
    <g id="xtick_3">
     <g id="line2d_3">
      <g>
       <use xlink:href="#m377d816311" x="149.960227" y="224.64" style="stroke: #000000; stroke-width: 0.8"/>
      </g>
     </g>
     <g id="text_3">
      <!-- 10 -->
      <g transform="translate(143.597727 239.238437)scale(0.1 -0.1)">
       <defs>
        <path id="DejaVuSans-31" d="M 794 531 
L 1825 531 
L 1825 4091 
L 703 3866 
L 703 4441 
L 1819 4666 
L 2450 4666 
L 2450 531 
L 3481 531 
L 3481 0 
L 794 0 
L 794 531 
z
" transform="scale(0.015625)"/>
       </defs>
       <use xlink:href="#DejaVuSans-31"/>
       <use xlink:href="#DejaVuSans-30" x="63.623047"/>
      </g>
     </g>
    </g>
    <g id="xtick_4">
     <g id="line2d_4">
      <g>
       <use xlink:href="#m377d816311" x="200.6875" y="224.64" style="stroke: #000000; stroke-width: 0.8"/>
      </g>
     </g>
     <g id="text_4">
      <!-- 15 -->
      <g transform="translate(194.325 239.238437)scale(0.1 -0.1)">
       <use xlink:href="#DejaVuSans-31"/>
       <use xlink:href="#DejaVuSans-35" x="63.623047"/>
      </g>
     </g>
    </g>
    <g id="xtick_5">
     <g id="line2d_5">
      <g>
       <use xlink:href="#m377d816311" x="251.414773" y="224.64" style="stroke: #000000; stroke-width: 0.8"/>
      </g>
     </g>
     <g id="text_5">
      <!-- 20 -->
      <g transform="translate(245.052273 239.238437)scale(0.1 -0.1)">
       <defs>
        <path id="DejaVuSans-32" d="M 1228 531 
L 3431 531 
L 3431 0 
L 469 0 
L 469 531 
Q 828 903 1448 1529 
Q 2069 2156 2228 2338 
Q 2531 2678 2651 2914 
Q 2772 3150 2772 3378 
Q 2772 3750 2511 3984 
Q 2250 4219 1831 4219 
Q 1534 4219 1204 4116 
Q 875 4013 500 3803 
L 500 4441 
Q 881 4594 1212 4672 
Q 1544 4750 1819 4750 
Q 2544 4750 2975 4387 
Q 3406 4025 3406 3419 
Q 3406 3131 3298 2873 
Q 3191 2616 2906 2266 
Q 2828 2175 2409 1742 
Q 1991 1309 1228 531 
z
" transform="scale(0.015625)"/>
       </defs>
       <use xlink:href="#DejaVuSans-32"/>
       <use xlink:href="#DejaVuSans-30" x="63.623047"/>
      </g>
     </g>
    </g>
    <g id="xtick_6">
     <g id="line2d_6">
      <g>
       <use xlink:href="#m377d816311" x="302.142045" y="224.64" style="stroke: #000000; stroke-width: 0.8"/>
      </g>
     </g>
     <g id="text_6">
      <!-- 25 -->
      <g transform="translate(295.779545 239.238437)scale(0.1 -0.1)">
       <use xlink:href="#DejaVuSans-32"/>
       <use xlink:href="#DejaVuSans-35" x="63.623047"/>
      </g>
     </g>
    </g>
    <g id="xtick_7">
     <g id="line2d_7">
      <g>
       <use xlink:href="#m377d816311" x="352.869318" y="224.64" style="stroke: #000000; stroke-width: 0.8"/>
      </g>
     </g>
     <g id="text_7">
      <!-- 30 -->
      <g transform="translate(346.506818 239.238437)scale(0.1 -0.1)">
       <defs>
        <path id="DejaVuSans-33" d="M 2597 2516 
Q 3050 2419 3304 2112 
Q 3559 1806 3559 1356 
Q 3559 666 3084 287 
Q 2609 -91 1734 -91 
Q 1441 -91 1130 -33 
Q 819 25 488 141 
L 488 750 
Q 750 597 1062 519 
Q 1375 441 1716 441 
Q 2309 441 2620 675 
Q 2931 909 2931 1356 
Q 2931 1769 2642 2001 
Q 2353 2234 1838 2234 
L 1294 2234 
L 1294 2753 
L 1863 2753 
Q 2328 2753 2575 2939 
Q 2822 3125 2822 3475 
Q 2822 3834 2567 4026 
Q 2313 4219 1838 4219 
Q 1578 4219 1281 4162 
Q 984 4106 628 3988 
L 628 4550 
Q 988 4650 1302 4700 
Q 1616 4750 1894 4750 
Q 2613 4750 3031 4423 
Q 3450 4097 3450 3541 
Q 3450 3153 3228 2886 
Q 3006 2619 2597 2516 
z
" transform="scale(0.015625)"/>
       </defs>
       <use xlink:href="#DejaVuSans-33"/>
       <use xlink:href="#DejaVuSans-30" x="63.623047"/>
      </g>
     </g>
    </g>
    <g id="text_8">
     <!-- t -->
     <g transform="translate(198.727344 252.916562)scale(0.1 -0.1)">
      <defs>
       <path id="DejaVuSans-74" d="M 1172 4494 
L 1172 3500 
L 2356 3500 
L 2356 3053 
L 1172 3053 
L 1172 1153 
Q 1172 725 1289 603 
Q 1406 481 1766 481 
L 2356 481 
L 2356 0 
L 1766 0 
Q 1100 0 847 248 
Q 594 497 594 1153 
L 594 3053 
L 172 3053 
L 172 3500 
L 594 3500 
L 594 4494 
L 1172 4494 
z
" transform="scale(0.015625)"/>
      </defs>
      <use xlink:href="#DejaVuSans-74"/>
     </g>
    </g>
   </g>
   <g id="matplotlib.axis_2">
    <g id="ytick_1">
     <g id="line2d_8">
      <defs>
       <path id="mb3ac433236" d="M 0 0 
L -3.5 0 
" style="stroke: #000000; stroke-width: 0.8"/>
      </defs>
      <g>
       <use xlink:href="#mb3ac433236" x="33.2875" y="200.068567" style="stroke: #000000; stroke-width: 0.8"/>
      </g>
     </g>
     <g id="text_9">
      <!-- 50 -->
      <g transform="translate(13.5625 203.867785)scale(0.1 -0.1)">
       <use xlink:href="#DejaVuSans-35"/>
       <use xlink:href="#DejaVuSans-30" x="63.623047"/>
      </g>
     </g>
    </g>
    <g id="ytick_2">
     <g id="line2d_9">
      <g>
       <use xlink:href="#mb3ac433236" x="33.2875" y="162.960697" style="stroke: #000000; stroke-width: 0.8"/>
      </g>
     </g>
     <g id="text_10">
      <!-- 100 -->
      <g transform="translate(7.2 166.759916)scale(0.1 -0.1)">
       <use xlink:href="#DejaVuSans-31"/>
       <use xlink:href="#DejaVuSans-30" x="63.623047"/>
       <use xlink:href="#DejaVuSans-30" x="127.246094"/>
      </g>
     </g>
    </g>
    <g id="ytick_3">
     <g id="line2d_10">
      <g>
       <use xlink:href="#mb3ac433236" x="33.2875" y="125.852828" style="stroke: #000000; stroke-width: 0.8"/>
      </g>
     </g>
     <g id="text_11">
      <!-- 150 -->
      <g transform="translate(7.2 129.652047)scale(0.1 -0.1)">
       <use xlink:href="#DejaVuSans-31"/>
       <use xlink:href="#DejaVuSans-35" x="63.623047"/>
       <use xlink:href="#DejaVuSans-30" x="127.246094"/>
      </g>
     </g>
    </g>
    <g id="ytick_4">
     <g id="line2d_11">
      <g>
       <use xlink:href="#mb3ac433236" x="33.2875" y="88.744959" style="stroke: #000000; stroke-width: 0.8"/>
      </g>
     </g>
     <g id="text_12">
      <!-- 200 -->
      <g transform="translate(7.2 92.544178)scale(0.1 -0.1)">
       <use xlink:href="#DejaVuSans-32"/>
       <use xlink:href="#DejaVuSans-30" x="63.623047"/>
       <use xlink:href="#DejaVuSans-30" x="127.246094"/>
      </g>
     </g>
    </g>
    <g id="ytick_5">
     <g id="line2d_12">
      <g>
       <use xlink:href="#mb3ac433236" x="33.2875" y="51.63709" style="stroke: #000000; stroke-width: 0.8"/>
      </g>
     </g>
     <g id="text_13">
      <!-- 250 -->
      <g transform="translate(7.2 55.436309)scale(0.1 -0.1)">
       <use xlink:href="#DejaVuSans-32"/>
       <use xlink:href="#DejaVuSans-35" x="63.623047"/>
       <use xlink:href="#DejaVuSans-30" x="127.246094"/>
      </g>
     </g>
    </g>
    <g id="ytick_6">
     <g id="line2d_13">
      <g>
       <use xlink:href="#mb3ac433236" x="33.2875" y="14.529221" style="stroke: #000000; stroke-width: 0.8"/>
      </g>
     </g>
     <g id="text_14">
      <!-- 300 -->
      <g transform="translate(7.2 18.32844)scale(0.1 -0.1)">
       <use xlink:href="#DejaVuSans-33"/>
       <use xlink:href="#DejaVuSans-30" x="63.623047"/>
       <use xlink:href="#DejaVuSans-30" x="127.246094"/>
      </g>
     </g>
    </g>
   </g>
   <g id="line2d_14">
    <path d="M 48.505682 185.225419 
L 50.035147 182.304173 
L 51.564613 179.01264 
L 53.094078 175.331244 
L 54.623544 171.238634 
L 56.153009 166.712865 
L 57.682475 161.7314 
L 59.21194 156.271105 
L 60.741406 150.308256 
L 62.270871 143.825358 
L 63.800337 136.84156 
L 65.329802 129.302204 
L 68.388733 112.435365 
L 71.447664 93.351682 
L 79.094992 42.142376 
L 80.624458 33.237945 
L 82.153923 25.891813 
L 83.683389 20.74952 
L 85.212854 18.496929 
L 86.74232 19.828938 
L 88.271785 25.23746 
L 89.801251 34.840125 
L 91.330716 48.25632 
L 92.860182 64.600135 
L 97.448578 117.868738 
L 98.978044 133.938581 
L 100.507509 148.055468 
L 102.036975 159.634827 
L 103.56644 168.781513 
L 105.095906 176.118811 
L 106.625371 181.943186 
L 108.154837 186.508288 
L 109.684302 190.024956 
L 111.213768 192.661407 
L 112.743233 194.565244 
L 114.272699 195.858142 
L 115.802164 196.630867 
L 117.33163 196.953456 
L 118.861095 196.875215 
L 120.390561 196.42472 
L 121.920026 195.614228 
L 123.449492 194.46822 
L 124.978957 192.992765 
L 126.508423 191.186971 
L 128.037888 189.046911 
L 129.567354 186.565629 
L 131.096819 183.733136 
L 132.626285 180.536411 
L 134.15575 176.963346 
L 135.685216 172.993152 
L 137.214681 168.591985 
L 138.744147 163.729708 
L 140.273612 158.380186 
L 141.803078 152.52128 
L 143.332543 146.13485 
L 144.862009 139.206753 
L 146.391474 131.726846 
L 149.450405 115.091018 
L 152.509336 96.243746 
L 155.568267 75.592241 
L 160.156664 44.047143 
L 161.68613 34.666557 
L 163.215595 26.638116 
L 164.745061 20.560908 
L 166.274526 17.119438 
L 167.803992 17.083636 
L 169.333457 21.132569 
L 170.862923 29.500776 
L 172.392388 41.972315 
L 173.921854 57.786335 
L 180.039716 128.872648 
L 181.569181 143.304424 
L 183.098647 155.486034 
L 184.628112 165.3708 
L 186.157578 173.128832 
L 187.687043 179.147029 
L 189.216509 184.019931 
L 190.745974 187.934475 
L 192.27544 190.912389 
L 193.804905 193.124311 
L 195.334371 194.699016 
L 196.863836 195.723414 
L 198.393302 196.24515 
L 199.922767 196.329158 
L 201.452233 196.02224 
L 202.981698 195.350891 
L 204.511164 194.334438 
L 206.040629 192.985045 
L 207.570095 191.307708 
L 209.09956 189.301868 
L 210.629026 186.964228 
L 212.158491 184.279343 
L 213.687957 181.229776 
L 215.217422 177.797233 
L 216.746888 173.962568 
L 218.276353 169.705778 
L 219.805819 165.006007 
L 221.335284 159.841544 
L 222.86475 154.189826 
L 224.394215 148.027431 
L 225.923681 141.350024 
L 227.453146 134.154189 
L 228.982612 126.382665 
L 232.041543 109.050219 
L 235.100474 89.588354 
L 242.747802 38.468003 
L 244.277267 30.019215 
L 245.806733 23.386404 
L 247.336198 19.221786 
L 248.865664 18.19953 
L 250.395129 21.012697 
L 251.924595 28.066146 
L 253.45406 39.159803 
L 254.983526 53.713774 
L 258.042457 89.077139 
L 261.101388 123.816611 
L 262.630853 138.766173 
L 264.160319 151.593735 
L 265.689784 162.214781 
L 267.21925 170.781668 
L 268.748715 177.613608 
L 270.278181 183.018337 
L 271.807646 187.249094 
L 273.337112 190.504852 
L 274.866577 192.930316 
L 276.396043 194.647762 
L 277.925508 195.78241 
L 279.454974 196.415153 
L 280.984439 196.609134 
L 282.513905 196.40999 
L 284.04337 195.845844 
L 285.572836 194.92969 
L 287.102301 193.680356 
L 288.631767 192.101636 
L 290.161232 190.190712 
L 291.690698 187.942036 
L 293.220163 185.347327 
L 294.749629 182.395578 
L 296.279094 179.073048 
L 297.80856 175.36718 
L 299.338025 171.274281 
L 300.867491 166.751412 
L 302.396956 161.756803 
L 303.926422 156.257059 
L 305.455887 150.227156 
L 306.985353 143.65044 
L 308.514818 136.518635 
L 311.573749 120.598497 
L 314.63268 102.567954 
L 317.691611 82.662176 
L 323.809474 39.556131 
L 325.338939 30.954768 
L 326.868405 24.359461 
L 328.39787 20.224813 
L 329.927336 18.940549 
L 331.456801 20.831515 
L 332.986267 26.157682 
L 334.515732 35.114138 
L 336.045198 47.831098 
L 337.574663 64.152914 
L 342.16306 118.006263 
L 343.692525 133.67125 
L 345.221991 147.201339 
L 346.751456 158.529122 
L 348.280922 167.800618 
L 349.810387 175.26687 
L 351.339853 181.187906 
L 352.869318 185.819294 
L 352.869318 185.819294 
" clip-path="url(#pe078febcc1)" style="fill: none; stroke: #1f77b4; stroke-width: 1.5; stroke-linecap: square"/>
   </g>
   <g id="line2d_15">
    <path d="M 48.505682 200.068567 
L 50.035147 202.744664 
L 51.564613 205.085611 
L 53.094078 207.118637 
L 54.623544 208.867466 
L 56.153009 210.351561 
L 57.682475 211.586126 
L 59.21194 212.582102 
L 60.741406 213.346172 
L 62.270871 213.877109 
L 63.800337 214.149833 
L 65.329802 214.176424 
L 66.859268 213.960022 
L 68.388733 213.483179 
L 69.918199 212.70786 
L 71.447664 211.575444 
L 72.97713 210.006721 
L 74.506595 207.901897 
L 76.036061 205.140589 
L 77.565526 201.581828 
L 79.094992 197.068816 
L 80.624458 191.372587 
L 82.153923 184.220218 
L 83.683389 175.397448 
L 85.212854 164.751742 
L 86.74232 152.198647 
L 88.271785 137.936736 
L 92.860182 92.294346 
L 94.389647 79.973384 
L 95.919113 71.044708 
L 97.448578 65.67148 
L 98.978044 63.885889 
L 100.507509 65.634963 
L 102.036975 70.779911 
L 103.56644 78.470716 
L 105.095906 87.572909 
L 112.743233 136.8219 
L 115.802164 153.673579 
L 117.33163 161.117406 
L 118.861095 167.897969 
L 120.390561 174.043596 
L 121.920026 179.60375 
L 123.449492 184.60188 
L 124.978957 189.077398 
L 126.508423 193.072125 
L 128.037888 196.624706 
L 129.567354 199.770611 
L 131.096819 202.54213 
L 132.626285 204.968377 
L 134.15575 207.073662 
L 135.685216 208.882991 
L 137.214681 210.42344 
L 138.744147 211.715971 
L 140.273612 212.775301 
L 141.803078 213.609902 
L 143.332543 214.222 
L 144.862009 214.607576 
L 146.391474 214.756364 
L 147.92094 214.651853 
L 149.450405 214.271286 
L 150.979871 213.585661 
L 152.509336 212.563609 
L 154.038802 211.148233 
L 155.568267 209.226274 
L 157.097733 206.666982 
L 158.627198 203.324353 
L 160.156664 199.03713 
L 161.68613 193.6288 
L 163.215595 186.907597 
L 164.745061 178.666501 
L 166.274526 168.683236 
L 167.803992 156.720273 
L 169.333457 142.77042 
L 175.451319 82.358733 
L 176.980785 71.851301 
L 178.51025 65.159617 
L 180.039716 62.578461 
L 181.569181 63.803913 
L 183.098647 68.235357 
L 184.628112 75.225551 
L 186.157578 84.057931 
L 193.804905 133.259363 
L 196.863836 150.369599 
L 198.393302 158.004904 
L 199.922767 165.008358 
L 201.452233 171.38355 
L 202.981698 177.156938 
L 204.511164 182.359031 
L 206.040629 187.024394 
L 207.570095 191.191649 
L 209.09956 194.900558 
L 210.629026 198.182849 
L 212.158491 201.078857 
L 213.687957 203.62538 
L 215.217422 205.853965 
L 216.746888 207.790906 
L 218.276353 209.457245 
L 219.805819 210.868775 
L 221.335284 212.036032 
L 222.86475 212.964304 
L 224.394215 213.653626 
L 225.923681 214.092905 
L 227.453146 214.276769 
L 228.982612 214.218715 
L 230.512077 213.913301 
L 232.041543 213.334872 
L 233.571008 212.437562 
L 235.100474 211.155289 
L 236.629939 209.401762 
L 238.159405 207.070474 
L 239.68887 204.034707 
L 241.218336 200.150449 
L 242.747802 195.254501 
L 244.277267 189.050678 
L 245.806733 181.278966 
L 247.336198 171.757204 
L 248.865664 160.381076 
L 250.395129 147.100108 
L 253.45406 116.53668 
L 254.983526 101.220921 
L 256.512991 87.315981 
L 258.042457 75.96306 
L 259.571922 68.257749 
L 261.101388 64.499548 
L 262.630853 64.463637 
L 264.160319 67.7494 
L 265.689784 73.782817 
L 267.21925 81.818827 
L 270.278181 100.977287 
L 274.866577 130.534313 
L 277.925508 148.123542 
L 279.454974 155.987069 
L 280.984439 163.197669 
L 282.513905 169.759615 
L 284.04337 175.699832 
L 285.572836 181.064214 
L 287.102301 185.881524 
L 288.631767 190.191247 
L 290.161232 194.034871 
L 291.690698 197.450375 
L 293.220163 200.472226 
L 294.749629 203.131382 
L 296.279094 205.455291 
L 297.80856 207.466099 
L 299.338025 209.178224 
L 300.867491 210.621367 
L 302.396956 211.820624 
L 303.926422 212.793061 
L 305.455887 213.547709 
L 306.985353 214.085569 
L 308.514818 214.399608 
L 310.044284 214.474761 
L 311.573749 214.287931 
L 313.103215 213.80799 
L 314.63268 212.995776 
L 316.162146 211.804095 
L 317.691611 210.177722 
L 319.221077 208.24308 
L 320.750542 205.88523 
L 322.280008 202.615688 
L 323.809474 198.055346 
L 325.338939 191.936685 
L 326.868405 184.103767 
L 328.39787 174.512239 
L 329.927336 163.229335 
L 331.456801 150.433873 
L 334.515732 121.578461 
L 337.574663 91.746604 
L 339.104129 79.237749 
L 340.633594 70.060603 
L 342.16306 64.814267 
L 343.692525 63.547015 
L 345.221991 65.8663 
L 346.751456 71.121399 
L 348.280922 78.552854 
L 349.810387 87.435384 
L 352.869318 107.217568 
L 352.869318 107.217568 
" clip-path="url(#pe078febcc1)" style="fill: none; stroke: #008000; stroke-width: 1.5; stroke-linecap: square"/>
    <defs>
     <path id="m834154f3f3" d="M 0 3 
C 0.795609 3 1.55874 2.683901 2.12132 2.12132 
C 2.683901 1.55874 3 0.795609 3 0 
C 3 -0.795609 2.683901 -1.55874 2.12132 -2.12132 
C 1.55874 -2.683901 0.795609 -3 0 -3 
C -0.795609 -3 -1.55874 -2.683901 -2.12132 -2.12132 
C -2.683901 -1.55874 -3 -0.795609 -3 0 
C -3 0.795609 -2.683901 1.55874 -2.12132 2.12132 
C -1.55874 2.683901 -0.795609 3 0 3 
z
" style="stroke: #008000"/>
    </defs>
    <g clip-path="url(#pe078febcc1)">
     <use xlink:href="#m834154f3f3" x="48.505682" y="200.068567" style="fill: #008000; stroke: #008000"/>
     <use xlink:href="#m834154f3f3" x="50.035147" y="202.744664" style="fill: #008000; stroke: #008000"/>
     <use xlink:href="#m834154f3f3" x="51.564613" y="205.085611" style="fill: #008000; stroke: #008000"/>
     <use xlink:href="#m834154f3f3" x="53.094078" y="207.118637" style="fill: #008000; stroke: #008000"/>
     <use xlink:href="#m834154f3f3" x="54.623544" y="208.867466" style="fill: #008000; stroke: #008000"/>
     <use xlink:href="#m834154f3f3" x="56.153009" y="210.351561" style="fill: #008000; stroke: #008000"/>
     <use xlink:href="#m834154f3f3" x="57.682475" y="211.586126" style="fill: #008000; stroke: #008000"/>
     <use xlink:href="#m834154f3f3" x="59.21194" y="212.582102" style="fill: #008000; stroke: #008000"/>
     <use xlink:href="#m834154f3f3" x="60.741406" y="213.346172" style="fill: #008000; stroke: #008000"/>
     <use xlink:href="#m834154f3f3" x="62.270871" y="213.877109" style="fill: #008000; stroke: #008000"/>
     <use xlink:href="#m834154f3f3" x="63.800337" y="214.149833" style="fill: #008000; stroke: #008000"/>
     <use xlink:href="#m834154f3f3" x="65.329802" y="214.176424" style="fill: #008000; stroke: #008000"/>
     <use xlink:href="#m834154f3f3" x="66.859268" y="213.960022" style="fill: #008000; stroke: #008000"/>
     <use xlink:href="#m834154f3f3" x="68.388733" y="213.483179" style="fill: #008000; stroke: #008000"/>
     <use xlink:href="#m834154f3f3" x="69.918199" y="212.70786" style="fill: #008000; stroke: #008000"/>
     <use xlink:href="#m834154f3f3" x="71.447664" y="211.575444" style="fill: #008000; stroke: #008000"/>
     <use xlink:href="#m834154f3f3" x="72.97713" y="210.006721" style="fill: #008000; stroke: #008000"/>
     <use xlink:href="#m834154f3f3" x="74.506595" y="207.901897" style="fill: #008000; stroke: #008000"/>
     <use xlink:href="#m834154f3f3" x="76.036061" y="205.140589" style="fill: #008000; stroke: #008000"/>
     <use xlink:href="#m834154f3f3" x="77.565526" y="201.581828" style="fill: #008000; stroke: #008000"/>
     <use xlink:href="#m834154f3f3" x="79.094992" y="197.068816" style="fill: #008000; stroke: #008000"/>
     <use xlink:href="#m834154f3f3" x="80.624458" y="191.372587" style="fill: #008000; stroke: #008000"/>
     <use xlink:href="#m834154f3f3" x="82.153923" y="184.220218" style="fill: #008000; stroke: #008000"/>
     <use xlink:href="#m834154f3f3" x="83.683389" y="175.397448" style="fill: #008000; stroke: #008000"/>
     <use xlink:href="#m834154f3f3" x="85.212854" y="164.751742" style="fill: #008000; stroke: #008000"/>
     <use xlink:href="#m834154f3f3" x="86.74232" y="152.198647" style="fill: #008000; stroke: #008000"/>
     <use xlink:href="#m834154f3f3" x="88.271785" y="137.936736" style="fill: #008000; stroke: #008000"/>
     <use xlink:href="#m834154f3f3" x="89.801251" y="122.567549" style="fill: #008000; stroke: #008000"/>
     <use xlink:href="#m834154f3f3" x="91.330716" y="106.969842" style="fill: #008000; stroke: #008000"/>
     <use xlink:href="#m834154f3f3" x="92.860182" y="92.294346" style="fill: #008000; stroke: #008000"/>
     <use xlink:href="#m834154f3f3" x="94.389647" y="79.973384" style="fill: #008000; stroke: #008000"/>
     <use xlink:href="#m834154f3f3" x="95.919113" y="71.044708" style="fill: #008000; stroke: #008000"/>
     <use xlink:href="#m834154f3f3" x="97.448578" y="65.67148" style="fill: #008000; stroke: #008000"/>
     <use xlink:href="#m834154f3f3" x="98.978044" y="63.885889" style="fill: #008000; stroke: #008000"/>
     <use xlink:href="#m834154f3f3" x="100.507509" y="65.634963" style="fill: #008000; stroke: #008000"/>
     <use xlink:href="#m834154f3f3" x="102.036975" y="70.779911" style="fill: #008000; stroke: #008000"/>
     <use xlink:href="#m834154f3f3" x="103.56644" y="78.470716" style="fill: #008000; stroke: #008000"/>
     <use xlink:href="#m834154f3f3" x="105.095906" y="87.572909" style="fill: #008000; stroke: #008000"/>
     <use xlink:href="#m834154f3f3" x="106.625371" y="97.453873" style="fill: #008000; stroke: #008000"/>
     <use xlink:href="#m834154f3f3" x="108.154837" y="107.617917" style="fill: #008000; stroke: #008000"/>
     <use xlink:href="#m834154f3f3" x="109.684302" y="117.706278" style="fill: #008000; stroke: #008000"/>
     <use xlink:href="#m834154f3f3" x="111.213768" y="127.496471" style="fill: #008000; stroke: #008000"/>
     <use xlink:href="#m834154f3f3" x="112.743233" y="136.8219" style="fill: #008000; stroke: #008000"/>
     <use xlink:href="#m834154f3f3" x="114.272699" y="145.565976" style="fill: #008000; stroke: #008000"/>
     <use xlink:href="#m834154f3f3" x="115.802164" y="153.673579" style="fill: #008000; stroke: #008000"/>
     <use xlink:href="#m834154f3f3" x="117.33163" y="161.117406" style="fill: #008000; stroke: #008000"/>
     <use xlink:href="#m834154f3f3" x="118.861095" y="167.897969" style="fill: #008000; stroke: #008000"/>
     <use xlink:href="#m834154f3f3" x="120.390561" y="174.043596" style="fill: #008000; stroke: #008000"/>
     <use xlink:href="#m834154f3f3" x="121.920026" y="179.60375" style="fill: #008000; stroke: #008000"/>
     <use xlink:href="#m834154f3f3" x="123.449492" y="184.60188" style="fill: #008000; stroke: #008000"/>
     <use xlink:href="#m834154f3f3" x="124.978957" y="189.077398" style="fill: #008000; stroke: #008000"/>
     <use xlink:href="#m834154f3f3" x="126.508423" y="193.072125" style="fill: #008000; stroke: #008000"/>
     <use xlink:href="#m834154f3f3" x="128.037888" y="196.624706" style="fill: #008000; stroke: #008000"/>
     <use xlink:href="#m834154f3f3" x="129.567354" y="199.770611" style="fill: #008000; stroke: #008000"/>
     <use xlink:href="#m834154f3f3" x="131.096819" y="202.54213" style="fill: #008000; stroke: #008000"/>
     <use xlink:href="#m834154f3f3" x="132.626285" y="204.968377" style="fill: #008000; stroke: #008000"/>
     <use xlink:href="#m834154f3f3" x="134.15575" y="207.073662" style="fill: #008000; stroke: #008000"/>
     <use xlink:href="#m834154f3f3" x="135.685216" y="208.882991" style="fill: #008000; stroke: #008000"/>
     <use xlink:href="#m834154f3f3" x="137.214681" y="210.42344" style="fill: #008000; stroke: #008000"/>
     <use xlink:href="#m834154f3f3" x="138.744147" y="211.715971" style="fill: #008000; stroke: #008000"/>
     <use xlink:href="#m834154f3f3" x="140.273612" y="212.775301" style="fill: #008000; stroke: #008000"/>
     <use xlink:href="#m834154f3f3" x="141.803078" y="213.609902" style="fill: #008000; stroke: #008000"/>
     <use xlink:href="#m834154f3f3" x="143.332543" y="214.222" style="fill: #008000; stroke: #008000"/>
     <use xlink:href="#m834154f3f3" x="144.862009" y="214.607576" style="fill: #008000; stroke: #008000"/>
     <use xlink:href="#m834154f3f3" x="146.391474" y="214.756364" style="fill: #008000; stroke: #008000"/>
     <use xlink:href="#m834154f3f3" x="147.92094" y="214.651853" style="fill: #008000; stroke: #008000"/>
     <use xlink:href="#m834154f3f3" x="149.450405" y="214.271286" style="fill: #008000; stroke: #008000"/>
     <use xlink:href="#m834154f3f3" x="150.979871" y="213.585661" style="fill: #008000; stroke: #008000"/>
     <use xlink:href="#m834154f3f3" x="152.509336" y="212.563609" style="fill: #008000; stroke: #008000"/>
     <use xlink:href="#m834154f3f3" x="154.038802" y="211.148233" style="fill: #008000; stroke: #008000"/>
     <use xlink:href="#m834154f3f3" x="155.568267" y="209.226274" style="fill: #008000; stroke: #008000"/>
     <use xlink:href="#m834154f3f3" x="157.097733" y="206.666982" style="fill: #008000; stroke: #008000"/>
     <use xlink:href="#m834154f3f3" x="158.627198" y="203.324353" style="fill: #008000; stroke: #008000"/>
     <use xlink:href="#m834154f3f3" x="160.156664" y="199.03713" style="fill: #008000; stroke: #008000"/>
     <use xlink:href="#m834154f3f3" x="161.68613" y="193.6288" style="fill: #008000; stroke: #008000"/>
     <use xlink:href="#m834154f3f3" x="163.215595" y="186.907597" style="fill: #008000; stroke: #008000"/>
     <use xlink:href="#m834154f3f3" x="164.745061" y="178.666501" style="fill: #008000; stroke: #008000"/>
     <use xlink:href="#m834154f3f3" x="166.274526" y="168.683236" style="fill: #008000; stroke: #008000"/>
     <use xlink:href="#m834154f3f3" x="167.803992" y="156.720273" style="fill: #008000; stroke: #008000"/>
     <use xlink:href="#m834154f3f3" x="169.333457" y="142.77042" style="fill: #008000; stroke: #008000"/>
     <use xlink:href="#m834154f3f3" x="170.862923" y="127.389642" style="fill: #008000; stroke: #008000"/>
     <use xlink:href="#m834154f3f3" x="172.392388" y="111.391801" style="fill: #008000; stroke: #008000"/>
     <use xlink:href="#m834154f3f3" x="173.921854" y="95.928404" style="fill: #008000; stroke: #008000"/>
     <use xlink:href="#m834154f3f3" x="175.451319" y="82.358733" style="fill: #008000; stroke: #008000"/>
     <use xlink:href="#m834154f3f3" x="176.980785" y="71.851301" style="fill: #008000; stroke: #008000"/>
     <use xlink:href="#m834154f3f3" x="178.51025" y="65.159617" style="fill: #008000; stroke: #008000"/>
     <use xlink:href="#m834154f3f3" x="180.039716" y="62.578461" style="fill: #008000; stroke: #008000"/>
     <use xlink:href="#m834154f3f3" x="181.569181" y="63.803913" style="fill: #008000; stroke: #008000"/>
     <use xlink:href="#m834154f3f3" x="183.098647" y="68.235357" style="fill: #008000; stroke: #008000"/>
     <use xlink:href="#m834154f3f3" x="184.628112" y="75.225551" style="fill: #008000; stroke: #008000"/>
     <use xlink:href="#m834154f3f3" x="186.157578" y="84.057931" style="fill: #008000; stroke: #008000"/>
     <use xlink:href="#m834154f3f3" x="187.687043" y="93.946607" style="fill: #008000; stroke: #008000"/>
     <use xlink:href="#m834154f3f3" x="189.216509" y="104.045496" style="fill: #008000; stroke: #008000"/>
     <use xlink:href="#m834154f3f3" x="190.745974" y="114.045275" style="fill: #008000; stroke: #008000"/>
     <use xlink:href="#m834154f3f3" x="192.27544" y="123.854" style="fill: #008000; stroke: #008000"/>
     <use xlink:href="#m834154f3f3" x="193.804905" y="133.259363" style="fill: #008000; stroke: #008000"/>
     <use xlink:href="#m834154f3f3" x="195.334371" y="142.120822" style="fill: #008000; stroke: #008000"/>
     <use xlink:href="#m834154f3f3" x="196.863836" y="150.369599" style="fill: #008000; stroke: #008000"/>
     <use xlink:href="#m834154f3f3" x="198.393302" y="158.004904" style="fill: #008000; stroke: #008000"/>
     <use xlink:href="#m834154f3f3" x="199.922767" y="165.008358" style="fill: #008000; stroke: #008000"/>
     <use xlink:href="#m834154f3f3" x="201.452233" y="171.38355" style="fill: #008000; stroke: #008000"/>
     <use xlink:href="#m834154f3f3" x="202.981698" y="177.156938" style="fill: #008000; stroke: #008000"/>
     <use xlink:href="#m834154f3f3" x="204.511164" y="182.359031" style="fill: #008000; stroke: #008000"/>
     <use xlink:href="#m834154f3f3" x="206.040629" y="187.024394" style="fill: #008000; stroke: #008000"/>
     <use xlink:href="#m834154f3f3" x="207.570095" y="191.191649" style="fill: #008000; stroke: #008000"/>
     <use xlink:href="#m834154f3f3" x="209.09956" y="194.900558" style="fill: #008000; stroke: #008000"/>
     <use xlink:href="#m834154f3f3" x="210.629026" y="198.182849" style="fill: #008000; stroke: #008000"/>
     <use xlink:href="#m834154f3f3" x="212.158491" y="201.078857" style="fill: #008000; stroke: #008000"/>
     <use xlink:href="#m834154f3f3" x="213.687957" y="203.62538" style="fill: #008000; stroke: #008000"/>
     <use xlink:href="#m834154f3f3" x="215.217422" y="205.853965" style="fill: #008000; stroke: #008000"/>
     <use xlink:href="#m834154f3f3" x="216.746888" y="207.790906" style="fill: #008000; stroke: #008000"/>
     <use xlink:href="#m834154f3f3" x="218.276353" y="209.457245" style="fill: #008000; stroke: #008000"/>
     <use xlink:href="#m834154f3f3" x="219.805819" y="210.868775" style="fill: #008000; stroke: #008000"/>
     <use xlink:href="#m834154f3f3" x="221.335284" y="212.036032" style="fill: #008000; stroke: #008000"/>
     <use xlink:href="#m834154f3f3" x="222.86475" y="212.964304" style="fill: #008000; stroke: #008000"/>
     <use xlink:href="#m834154f3f3" x="224.394215" y="213.653626" style="fill: #008000; stroke: #008000"/>
     <use xlink:href="#m834154f3f3" x="225.923681" y="214.092905" style="fill: #008000; stroke: #008000"/>
     <use xlink:href="#m834154f3f3" x="227.453146" y="214.276769" style="fill: #008000; stroke: #008000"/>
     <use xlink:href="#m834154f3f3" x="228.982612" y="214.218715" style="fill: #008000; stroke: #008000"/>
     <use xlink:href="#m834154f3f3" x="230.512077" y="213.913301" style="fill: #008000; stroke: #008000"/>
     <use xlink:href="#m834154f3f3" x="232.041543" y="213.334872" style="fill: #008000; stroke: #008000"/>
     <use xlink:href="#m834154f3f3" x="233.571008" y="212.437562" style="fill: #008000; stroke: #008000"/>
     <use xlink:href="#m834154f3f3" x="235.100474" y="211.155289" style="fill: #008000; stroke: #008000"/>
     <use xlink:href="#m834154f3f3" x="236.629939" y="209.401762" style="fill: #008000; stroke: #008000"/>
     <use xlink:href="#m834154f3f3" x="238.159405" y="207.070474" style="fill: #008000; stroke: #008000"/>
     <use xlink:href="#m834154f3f3" x="239.68887" y="204.034707" style="fill: #008000; stroke: #008000"/>
     <use xlink:href="#m834154f3f3" x="241.218336" y="200.150449" style="fill: #008000; stroke: #008000"/>
     <use xlink:href="#m834154f3f3" x="242.747802" y="195.254501" style="fill: #008000; stroke: #008000"/>
     <use xlink:href="#m834154f3f3" x="244.277267" y="189.050678" style="fill: #008000; stroke: #008000"/>
     <use xlink:href="#m834154f3f3" x="245.806733" y="181.278966" style="fill: #008000; stroke: #008000"/>
     <use xlink:href="#m834154f3f3" x="247.336198" y="171.757204" style="fill: #008000; stroke: #008000"/>
     <use xlink:href="#m834154f3f3" x="248.865664" y="160.381076" style="fill: #008000; stroke: #008000"/>
     <use xlink:href="#m834154f3f3" x="250.395129" y="147.100108" style="fill: #008000; stroke: #008000"/>
     <use xlink:href="#m834154f3f3" x="251.924595" y="132.174909" style="fill: #008000; stroke: #008000"/>
     <use xlink:href="#m834154f3f3" x="253.45406" y="116.53668" style="fill: #008000; stroke: #008000"/>
     <use xlink:href="#m834154f3f3" x="254.983526" y="101.220921" style="fill: #008000; stroke: #008000"/>
     <use xlink:href="#m834154f3f3" x="256.512991" y="87.315981" style="fill: #008000; stroke: #008000"/>
     <use xlink:href="#m834154f3f3" x="258.042457" y="75.96306" style="fill: #008000; stroke: #008000"/>
     <use xlink:href="#m834154f3f3" x="259.571922" y="68.257749" style="fill: #008000; stroke: #008000"/>
     <use xlink:href="#m834154f3f3" x="261.101388" y="64.499548" style="fill: #008000; stroke: #008000"/>
     <use xlink:href="#m834154f3f3" x="262.630853" y="64.463637" style="fill: #008000; stroke: #008000"/>
     <use xlink:href="#m834154f3f3" x="264.160319" y="67.7494" style="fill: #008000; stroke: #008000"/>
     <use xlink:href="#m834154f3f3" x="265.689784" y="73.782817" style="fill: #008000; stroke: #008000"/>
     <use xlink:href="#m834154f3f3" x="267.21925" y="81.818827" style="fill: #008000; stroke: #008000"/>
     <use xlink:href="#m834154f3f3" x="268.748715" y="91.081734" style="fill: #008000; stroke: #008000"/>
     <use xlink:href="#m834154f3f3" x="270.278181" y="100.977287" style="fill: #008000; stroke: #008000"/>
     <use xlink:href="#m834154f3f3" x="271.807646" y="111.048013" style="fill: #008000; stroke: #008000"/>
     <use xlink:href="#m834154f3f3" x="273.337112" y="120.966284" style="fill: #008000; stroke: #008000"/>
     <use xlink:href="#m834154f3f3" x="274.866577" y="130.534313" style="fill: #008000; stroke: #008000"/>
     <use xlink:href="#m834154f3f3" x="276.396043" y="139.625468" style="fill: #008000; stroke: #008000"/>
     <use xlink:href="#m834154f3f3" x="277.925508" y="148.123542" style="fill: #008000; stroke: #008000"/>
     <use xlink:href="#m834154f3f3" x="279.454974" y="155.987069" style="fill: #008000; stroke: #008000"/>
     <use xlink:href="#m834154f3f3" x="280.984439" y="163.197669" style="fill: #008000; stroke: #008000"/>
     <use xlink:href="#m834154f3f3" x="282.513905" y="169.759615" style="fill: #008000; stroke: #008000"/>
     <use xlink:href="#m834154f3f3" x="284.04337" y="175.699832" style="fill: #008000; stroke: #008000"/>
     <use xlink:href="#m834154f3f3" x="285.572836" y="181.064214" style="fill: #008000; stroke: #008000"/>
     <use xlink:href="#m834154f3f3" x="287.102301" y="185.881524" style="fill: #008000; stroke: #008000"/>
     <use xlink:href="#m834154f3f3" x="288.631767" y="190.191247" style="fill: #008000; stroke: #008000"/>
     <use xlink:href="#m834154f3f3" x="290.161232" y="194.034871" style="fill: #008000; stroke: #008000"/>
     <use xlink:href="#m834154f3f3" x="291.690698" y="197.450375" style="fill: #008000; stroke: #008000"/>
     <use xlink:href="#m834154f3f3" x="293.220163" y="200.472226" style="fill: #008000; stroke: #008000"/>
     <use xlink:href="#m834154f3f3" x="294.749629" y="203.131382" style="fill: #008000; stroke: #008000"/>
     <use xlink:href="#m834154f3f3" x="296.279094" y="205.455291" style="fill: #008000; stroke: #008000"/>
     <use xlink:href="#m834154f3f3" x="297.80856" y="207.466099" style="fill: #008000; stroke: #008000"/>
     <use xlink:href="#m834154f3f3" x="299.338025" y="209.178224" style="fill: #008000; stroke: #008000"/>
     <use xlink:href="#m834154f3f3" x="300.867491" y="210.621367" style="fill: #008000; stroke: #008000"/>
     <use xlink:href="#m834154f3f3" x="302.396956" y="211.820624" style="fill: #008000; stroke: #008000"/>
     <use xlink:href="#m834154f3f3" x="303.926422" y="212.793061" style="fill: #008000; stroke: #008000"/>
     <use xlink:href="#m834154f3f3" x="305.455887" y="213.547709" style="fill: #008000; stroke: #008000"/>
     <use xlink:href="#m834154f3f3" x="306.985353" y="214.085569" style="fill: #008000; stroke: #008000"/>
     <use xlink:href="#m834154f3f3" x="308.514818" y="214.399608" style="fill: #008000; stroke: #008000"/>
     <use xlink:href="#m834154f3f3" x="310.044284" y="214.474761" style="fill: #008000; stroke: #008000"/>
     <use xlink:href="#m834154f3f3" x="311.573749" y="214.287931" style="fill: #008000; stroke: #008000"/>
     <use xlink:href="#m834154f3f3" x="313.103215" y="213.80799" style="fill: #008000; stroke: #008000"/>
     <use xlink:href="#m834154f3f3" x="314.63268" y="212.995776" style="fill: #008000; stroke: #008000"/>
     <use xlink:href="#m834154f3f3" x="316.162146" y="211.804095" style="fill: #008000; stroke: #008000"/>
     <use xlink:href="#m834154f3f3" x="317.691611" y="210.177722" style="fill: #008000; stroke: #008000"/>
     <use xlink:href="#m834154f3f3" x="319.221077" y="208.24308" style="fill: #008000; stroke: #008000"/>
     <use xlink:href="#m834154f3f3" x="320.750542" y="205.88523" style="fill: #008000; stroke: #008000"/>
     <use xlink:href="#m834154f3f3" x="322.280008" y="202.615688" style="fill: #008000; stroke: #008000"/>
     <use xlink:href="#m834154f3f3" x="323.809474" y="198.055346" style="fill: #008000; stroke: #008000"/>
     <use xlink:href="#m834154f3f3" x="325.338939" y="191.936685" style="fill: #008000; stroke: #008000"/>
     <use xlink:href="#m834154f3f3" x="326.868405" y="184.103767" style="fill: #008000; stroke: #008000"/>
     <use xlink:href="#m834154f3f3" x="328.39787" y="174.512239" style="fill: #008000; stroke: #008000"/>
     <use xlink:href="#m834154f3f3" x="329.927336" y="163.229335" style="fill: #008000; stroke: #008000"/>
     <use xlink:href="#m834154f3f3" x="331.456801" y="150.433873" style="fill: #008000; stroke: #008000"/>
     <use xlink:href="#m834154f3f3" x="332.986267" y="136.416252" style="fill: #008000; stroke: #008000"/>
     <use xlink:href="#m834154f3f3" x="334.515732" y="121.578461" style="fill: #008000; stroke: #008000"/>
     <use xlink:href="#m834154f3f3" x="336.045198" y="106.43407" style="fill: #008000; stroke: #008000"/>
     <use xlink:href="#m834154f3f3" x="337.574663" y="91.746604" style="fill: #008000; stroke: #008000"/>
     <use xlink:href="#m834154f3f3" x="339.104129" y="79.237749" style="fill: #008000; stroke: #008000"/>
     <use xlink:href="#m834154f3f3" x="340.633594" y="70.060603" style="fill: #008000; stroke: #008000"/>
     <use xlink:href="#m834154f3f3" x="342.16306" y="64.814267" style="fill: #008000; stroke: #008000"/>
     <use xlink:href="#m834154f3f3" x="343.692525" y="63.547015" style="fill: #008000; stroke: #008000"/>
     <use xlink:href="#m834154f3f3" x="345.221991" y="65.8663" style="fill: #008000; stroke: #008000"/>
     <use xlink:href="#m834154f3f3" x="346.751456" y="71.121399" style="fill: #008000; stroke: #008000"/>
     <use xlink:href="#m834154f3f3" x="348.280922" y="78.552854" style="fill: #008000; stroke: #008000"/>
     <use xlink:href="#m834154f3f3" x="349.810387" y="87.435384" style="fill: #008000; stroke: #008000"/>
     <use xlink:href="#m834154f3f3" x="351.339853" y="97.154435" style="fill: #008000; stroke: #008000"/>
     <use xlink:href="#m834154f3f3" x="352.869318" y="107.217568" style="fill: #008000; stroke: #008000"/>
    </g>
   </g>
   <g id="patch_3">
    <path d="M 33.2875 224.64 
L 33.2875 7.2 
" style="fill: none; stroke: #000000; stroke-width: 0.8; stroke-linejoin: miter; stroke-linecap: square"/>
   </g>
   <g id="patch_4">
    <path d="M 368.0875 224.64 
L 368.0875 7.2 
" style="fill: none; stroke: #000000; stroke-width: 0.8; stroke-linejoin: miter; stroke-linecap: square"/>
   </g>
   <g id="patch_5">
    <path d="M 33.2875 224.64 
L 368.0875 224.64 
" style="fill: none; stroke: #000000; stroke-width: 0.8; stroke-linejoin: miter; stroke-linecap: square"/>
   </g>
   <g id="patch_6">
    <path d="M 33.2875 7.2 
L 368.0875 7.2 
" style="fill: none; stroke: #000000; stroke-width: 0.8; stroke-linejoin: miter; stroke-linecap: square"/>
   </g>
   <g id="legend_1">
    <g id="patch_7">
     <path d="M 167.265625 44.55625 
L 234.109375 44.55625 
Q 236.109375 44.55625 236.109375 42.55625 
L 236.109375 14.2 
Q 236.109375 12.2 234.109375 12.2 
L 167.265625 12.2 
Q 165.265625 12.2 165.265625 14.2 
L 165.265625 42.55625 
Q 165.265625 44.55625 167.265625 44.55625 
z
" style="fill: #ffffff; opacity: 0.8; stroke: #cccccc; stroke-linejoin: miter"/>
    </g>
    <g id="line2d_16">
     <path d="M 169.265625 20.298437 
L 179.265625 20.298437 
L 189.265625 20.298437 
" style="fill: none; stroke: #1f77b4; stroke-width: 1.5; stroke-linecap: square"/>
    </g>
    <g id="text_15">
     <!-- rabbits -->
     <g transform="translate(197.265625 23.798437)scale(0.1 -0.1)">
      <defs>
       <path id="DejaVuSans-72" d="M 2631 2963 
Q 2534 3019 2420 3045 
Q 2306 3072 2169 3072 
Q 1681 3072 1420 2755 
Q 1159 2438 1159 1844 
L 1159 0 
L 581 0 
L 581 3500 
L 1159 3500 
L 1159 2956 
Q 1341 3275 1631 3429 
Q 1922 3584 2338 3584 
Q 2397 3584 2469 3576 
Q 2541 3569 2628 3553 
L 2631 2963 
z
" transform="scale(0.015625)"/>
       <path id="DejaVuSans-61" d="M 2194 1759 
Q 1497 1759 1228 1600 
Q 959 1441 959 1056 
Q 959 750 1161 570 
Q 1363 391 1709 391 
Q 2188 391 2477 730 
Q 2766 1069 2766 1631 
L 2766 1759 
L 2194 1759 
z
M 3341 1997 
L 3341 0 
L 2766 0 
L 2766 531 
Q 2569 213 2275 61 
Q 1981 -91 1556 -91 
Q 1019 -91 701 211 
Q 384 513 384 1019 
Q 384 1609 779 1909 
Q 1175 2209 1959 2209 
L 2766 2209 
L 2766 2266 
Q 2766 2663 2505 2880 
Q 2244 3097 1772 3097 
Q 1472 3097 1187 3025 
Q 903 2953 641 2809 
L 641 3341 
Q 956 3463 1253 3523 
Q 1550 3584 1831 3584 
Q 2591 3584 2966 3190 
Q 3341 2797 3341 1997 
z
" transform="scale(0.015625)"/>
       <path id="DejaVuSans-62" d="M 3116 1747 
Q 3116 2381 2855 2742 
Q 2594 3103 2138 3103 
Q 1681 3103 1420 2742 
Q 1159 2381 1159 1747 
Q 1159 1113 1420 752 
Q 1681 391 2138 391 
Q 2594 391 2855 752 
Q 3116 1113 3116 1747 
z
M 1159 2969 
Q 1341 3281 1617 3432 
Q 1894 3584 2278 3584 
Q 2916 3584 3314 3078 
Q 3713 2572 3713 1747 
Q 3713 922 3314 415 
Q 2916 -91 2278 -91 
Q 1894 -91 1617 61 
Q 1341 213 1159 525 
L 1159 0 
L 581 0 
L 581 4863 
L 1159 4863 
L 1159 2969 
z
" transform="scale(0.015625)"/>
       <path id="DejaVuSans-69" d="M 603 3500 
L 1178 3500 
L 1178 0 
L 603 0 
L 603 3500 
z
M 603 4863 
L 1178 4863 
L 1178 4134 
L 603 4134 
L 603 4863 
z
" transform="scale(0.015625)"/>
       <path id="DejaVuSans-73" d="M 2834 3397 
L 2834 2853 
Q 2591 2978 2328 3040 
Q 2066 3103 1784 3103 
Q 1356 3103 1142 2972 
Q 928 2841 928 2578 
Q 928 2378 1081 2264 
Q 1234 2150 1697 2047 
L 1894 2003 
Q 2506 1872 2764 1633 
Q 3022 1394 3022 966 
Q 3022 478 2636 193 
Q 2250 -91 1575 -91 
Q 1294 -91 989 -36 
Q 684 19 347 128 
L 347 722 
Q 666 556 975 473 
Q 1284 391 1588 391 
Q 1994 391 2212 530 
Q 2431 669 2431 922 
Q 2431 1156 2273 1281 
Q 2116 1406 1581 1522 
L 1381 1569 
Q 847 1681 609 1914 
Q 372 2147 372 2553 
Q 372 3047 722 3315 
Q 1072 3584 1716 3584 
Q 2034 3584 2315 3537 
Q 2597 3491 2834 3397 
z
" transform="scale(0.015625)"/>
      </defs>
      <use xlink:href="#DejaVuSans-72"/>
      <use xlink:href="#DejaVuSans-61" x="41.113281"/>
      <use xlink:href="#DejaVuSans-62" x="102.392578"/>
      <use xlink:href="#DejaVuSans-62" x="165.869141"/>
      <use xlink:href="#DejaVuSans-69" x="229.345703"/>
      <use xlink:href="#DejaVuSans-74" x="257.128906"/>
      <use xlink:href="#DejaVuSans-73" x="296.337891"/>
     </g>
    </g>
    <g id="line2d_17">
     <path d="M 169.265625 34.976562 
L 179.265625 34.976562 
L 189.265625 34.976562 
" style="fill: none; stroke: #008000; stroke-width: 1.5; stroke-linecap: square"/>
     <g>
      <use xlink:href="#m834154f3f3" x="179.265625" y="34.976562" style="fill: #008000; stroke: #008000"/>
     </g>
    </g>
    <g id="text_16">
     <!-- foxes -->
     <g transform="translate(197.265625 38.476562)scale(0.1 -0.1)">
      <defs>
       <path id="DejaVuSans-66" d="M 2375 4863 
L 2375 4384 
L 1825 4384 
Q 1516 4384 1395 4259 
Q 1275 4134 1275 3809 
L 1275 3500 
L 2222 3500 
L 2222 3053 
L 1275 3053 
L 1275 0 
L 697 0 
L 697 3053 
L 147 3053 
L 147 3500 
L 697 3500 
L 697 3744 
Q 697 4328 969 4595 
Q 1241 4863 1831 4863 
L 2375 4863 
z
" transform="scale(0.015625)"/>
       <path id="DejaVuSans-6f" d="M 1959 3097 
Q 1497 3097 1228 2736 
Q 959 2375 959 1747 
Q 959 1119 1226 758 
Q 1494 397 1959 397 
Q 2419 397 2687 759 
Q 2956 1122 2956 1747 
Q 2956 2369 2687 2733 
Q 2419 3097 1959 3097 
z
M 1959 3584 
Q 2709 3584 3137 3096 
Q 3566 2609 3566 1747 
Q 3566 888 3137 398 
Q 2709 -91 1959 -91 
Q 1206 -91 779 398 
Q 353 888 353 1747 
Q 353 2609 779 3096 
Q 1206 3584 1959 3584 
z
" transform="scale(0.015625)"/>
       <path id="DejaVuSans-78" d="M 3513 3500 
L 2247 1797 
L 3578 0 
L 2900 0 
L 1881 1375 
L 863 0 
L 184 0 
L 1544 1831 
L 300 3500 
L 978 3500 
L 1906 2253 
L 2834 3500 
L 3513 3500 
z
" transform="scale(0.015625)"/>
       <path id="DejaVuSans-65" d="M 3597 1894 
L 3597 1613 
L 953 1613 
Q 991 1019 1311 708 
Q 1631 397 2203 397 
Q 2534 397 2845 478 
Q 3156 559 3463 722 
L 3463 178 
Q 3153 47 2828 -22 
Q 2503 -91 2169 -91 
Q 1331 -91 842 396 
Q 353 884 353 1716 
Q 353 2575 817 3079 
Q 1281 3584 2069 3584 
Q 2775 3584 3186 3129 
Q 3597 2675 3597 1894 
z
M 3022 2063 
Q 3016 2534 2758 2815 
Q 2500 3097 2075 3097 
Q 1594 3097 1305 2825 
Q 1016 2553 972 2059 
L 3022 2063 
z
" transform="scale(0.015625)"/>
      </defs>
      <use xlink:href="#DejaVuSans-66"/>
      <use xlink:href="#DejaVuSans-6f" x="35.205078"/>
      <use xlink:href="#DejaVuSans-78" x="93.261719"/>
      <use xlink:href="#DejaVuSans-65" x="149.316406"/>
      <use xlink:href="#DejaVuSans-73" x="210.839844"/>
     </g>
    </g>
   </g>
  </g>
 </g>
 <defs>
  <clipPath id="pe078febcc1">
   <rect x="33.2875" y="7.2" width="334.8" height="217.44"/>
  </clipPath>
 </defs>
</svg>
