<?xml version="1.0" encoding="utf-8" standalone="no"?>
<!DOCTYPE svg PUBLIC "-//W3C//DTD SVG 1.1//EN"
  "http://www.w3.org/Graphics/SVG/1.1/DTD/svg11.dtd">
<svg xmlns:xlink="http://www.w3.org/1999/xlink" width="372.103125pt" height="262.19625pt" viewBox="0 0 372.103125 262.19625" xmlns="http://www.w3.org/2000/svg" version="1.1">
 <metadata>
  <rdf:RDF xmlns:dc="http://purl.org/dc/elements/1.1/" xmlns:cc="http://creativecommons.org/ns#" xmlns:rdf="http://www.w3.org/1999/02/22-rdf-syntax-ns#">
   <cc:Work>
    <dc:type rdf:resource="http://purl.org/dc/dcmitype/StillImage"/>
    <dc:date>2022-01-21T12:42:19.353469</dc:date>
    <dc:format>image/svg+xml</dc:format>
    <dc:creator>
     <cc:Agent>
      <dc:title>Matplotlib v3.5.1, https://matplotlib.org/</dc:title>
     </cc:Agent>
    </dc:creator>
   </cc:Work>
  </rdf:RDF>
 </metadata>
 <defs>
  <style type="text/css">*{stroke-linejoin: round; stroke-linecap: butt}</style>
 </defs>
 <g id="figure_1">
  <g id="patch_1">
   <path d="M 0 262.19625 
L 372.103125 262.19625 
L 372.103125 0 
L 0 0 
L 0 262.19625 
z
" style="fill: none"/>
  </g>
  <g id="axes_1">
   <g id="patch_2">
    <path d="M 30.103125 224.64 
L 364.903125 224.64 
L 364.903125 7.2 
L 30.103125 7.2 
z
" style="fill: #ffffff"/>
   </g>
   <g id="matplotlib.axis_1">
    <g id="xtick_1">
     <g id="line2d_1">
      <defs>
       <path id="mea53dd61d5" d="M 0 0 
L 0 3.5 
" style="stroke: #000000; stroke-width: 0.8"/>
      </defs>
      <g>
       <use xlink:href="#mea53dd61d5" x="45.321307" y="224.64" style="stroke: #000000; stroke-width: 0.8"/>
      </g>
     </g>
     <g id="text_1">
      <!-- 0.0 -->
      <g transform="translate(37.369744 239.238437)scale(0.1 -0.1)">
       <defs>
        <path id="DejaVuSans-30" d="M 2034 4250 
Q 1547 4250 1301 3770 
Q 1056 3291 1056 2328 
Q 1056 1369 1301 889 
Q 1547 409 2034 409 
Q 2525 409 2770 889 
Q 3016 1369 3016 2328 
Q 3016 3291 2770 3770 
Q 2525 4250 2034 4250 
z
M 2034 4750 
Q 2819 4750 3233 4129 
Q 3647 3509 3647 2328 
Q 3647 1150 3233 529 
Q 2819 -91 2034 -91 
Q 1250 -91 836 529 
Q 422 1150 422 2328 
Q 422 3509 836 4129 
Q 1250 4750 2034 4750 
z
" transform="scale(0.015625)"/>
        <path id="DejaVuSans-2e" d="M 684 794 
L 1344 794 
L 1344 0 
L 684 0 
L 684 794 
z
" transform="scale(0.015625)"/>
       </defs>
       <use xlink:href="#DejaVuSans-30"/>
       <use xlink:href="#DejaVuSans-2e" x="63.623047"/>
       <use xlink:href="#DejaVuSans-30" x="95.410156"/>
      </g>
     </g>
    </g>
    <g id="xtick_2">
     <g id="line2d_2">
      <g>
       <use xlink:href="#mea53dd61d5" x="83.366761" y="224.64" style="stroke: #000000; stroke-width: 0.8"/>
      </g>
     </g>
     <g id="text_2">
      <!-- 0.5 -->
      <g transform="translate(75.415199 239.238437)scale(0.1 -0.1)">
       <defs>
        <path id="DejaVuSans-35" d="M 691 4666 
L 3169 4666 
L 3169 4134 
L 1269 4134 
L 1269 2991 
Q 1406 3038 1543 3061 
Q 1681 3084 1819 3084 
Q 2600 3084 3056 2656 
Q 3513 2228 3513 1497 
Q 3513 744 3044 326 
Q 2575 -91 1722 -91 
Q 1428 -91 1123 -41 
Q 819 9 494 109 
L 494 744 
Q 775 591 1075 516 
Q 1375 441 1709 441 
Q 2250 441 2565 725 
Q 2881 1009 2881 1497 
Q 2881 1984 2565 2268 
Q 2250 2553 1709 2553 
Q 1456 2553 1204 2497 
Q 953 2441 691 2322 
L 691 4666 
z
" transform="scale(0.015625)"/>
       </defs>
       <use xlink:href="#DejaVuSans-30"/>
       <use xlink:href="#DejaVuSans-2e" x="63.623047"/>
       <use xlink:href="#DejaVuSans-35" x="95.410156"/>
      </g>
     </g>
    </g>
    <g id="xtick_3">
     <g id="line2d_3">
      <g>
       <use xlink:href="#mea53dd61d5" x="121.412216" y="224.64" style="stroke: #000000; stroke-width: 0.8"/>
      </g>
     </g>
     <g id="text_3">
      <!-- 1.0 -->
      <g transform="translate(113.460653 239.238437)scale(0.1 -0.1)">
       <defs>
        <path id="DejaVuSans-31" d="M 794 531 
L 1825 531 
L 1825 4091 
L 703 3866 
L 703 4441 
L 1819 4666 
L 2450 4666 
L 2450 531 
L 3481 531 
L 3481 0 
L 794 0 
L 794 531 
z
" transform="scale(0.015625)"/>
       </defs>
       <use xlink:href="#DejaVuSans-31"/>
       <use xlink:href="#DejaVuSans-2e" x="63.623047"/>
       <use xlink:href="#DejaVuSans-30" x="95.410156"/>
      </g>
     </g>
    </g>
    <g id="xtick_4">
     <g id="line2d_4">
      <g>
       <use xlink:href="#mea53dd61d5" x="159.45767" y="224.64" style="stroke: #000000; stroke-width: 0.8"/>
      </g>
     </g>
     <g id="text_4">
      <!-- 1.5 -->
      <g transform="translate(151.506108 239.238437)scale(0.1 -0.1)">
       <use xlink:href="#DejaVuSans-31"/>
       <use xlink:href="#DejaVuSans-2e" x="63.623047"/>
       <use xlink:href="#DejaVuSans-35" x="95.410156"/>
      </g>
     </g>
    </g>
    <g id="xtick_5">
     <g id="line2d_5">
      <g>
       <use xlink:href="#mea53dd61d5" x="197.503125" y="224.64" style="stroke: #000000; stroke-width: 0.8"/>
      </g>
     </g>
     <g id="text_5">
      <!-- 2.0 -->
      <g transform="translate(189.551563 239.238437)scale(0.1 -0.1)">
       <defs>
        <path id="DejaVuSans-32" d="M 1228 531 
L 3431 531 
L 3431 0 
L 469 0 
L 469 531 
Q 828 903 1448 1529 
Q 2069 2156 2228 2338 
Q 2531 2678 2651 2914 
Q 2772 3150 2772 3378 
Q 2772 3750 2511 3984 
Q 2250 4219 1831 4219 
Q 1534 4219 1204 4116 
Q 875 4013 500 3803 
L 500 4441 
Q 881 4594 1212 4672 
Q 1544 4750 1819 4750 
Q 2544 4750 2975 4387 
Q 3406 4025 3406 3419 
Q 3406 3131 3298 2873 
Q 3191 2616 2906 2266 
Q 2828 2175 2409 1742 
Q 1991 1309 1228 531 
z
" transform="scale(0.015625)"/>
       </defs>
       <use xlink:href="#DejaVuSans-32"/>
       <use xlink:href="#DejaVuSans-2e" x="63.623047"/>
       <use xlink:href="#DejaVuSans-30" x="95.410156"/>
      </g>
     </g>
    </g>
    <g id="xtick_6">
     <g id="line2d_6">
      <g>
       <use xlink:href="#mea53dd61d5" x="235.54858" y="224.64" style="stroke: #000000; stroke-width: 0.8"/>
      </g>
     </g>
     <g id="text_6">
      <!-- 2.5 -->
      <g transform="translate(227.597017 239.238437)scale(0.1 -0.1)">
       <use xlink:href="#DejaVuSans-32"/>
       <use xlink:href="#DejaVuSans-2e" x="63.623047"/>
       <use xlink:href="#DejaVuSans-35" x="95.410156"/>
      </g>
     </g>
    </g>
    <g id="xtick_7">
     <g id="line2d_7">
      <g>
       <use xlink:href="#mea53dd61d5" x="273.594034" y="224.64" style="stroke: #000000; stroke-width: 0.8"/>
      </g>
     </g>
     <g id="text_7">
      <!-- 3.0 -->
      <g transform="translate(265.642472 239.238437)scale(0.1 -0.1)">
       <defs>
        <path id="DejaVuSans-33" d="M 2597 2516 
Q 3050 2419 3304 2112 
Q 3559 1806 3559 1356 
Q 3559 666 3084 287 
Q 2609 -91 1734 -91 
Q 1441 -91 1130 -33 
Q 819 25 488 141 
L 488 750 
Q 750 597 1062 519 
Q 1375 441 1716 441 
Q 2309 441 2620 675 
Q 2931 909 2931 1356 
Q 2931 1769 2642 2001 
Q 2353 2234 1838 2234 
L 1294 2234 
L 1294 2753 
L 1863 2753 
Q 2328 2753 2575 2939 
Q 2822 3125 2822 3475 
Q 2822 3834 2567 4026 
Q 2313 4219 1838 4219 
Q 1578 4219 1281 4162 
Q 984 4106 628 3988 
L 628 4550 
Q 988 4650 1302 4700 
Q 1616 4750 1894 4750 
Q 2613 4750 3031 4423 
Q 3450 4097 3450 3541 
Q 3450 3153 3228 2886 
Q 3006 2619 2597 2516 
z
" transform="scale(0.015625)"/>
       </defs>
       <use xlink:href="#DejaVuSans-33"/>
       <use xlink:href="#DejaVuSans-2e" x="63.623047"/>
       <use xlink:href="#DejaVuSans-30" x="95.410156"/>
      </g>
     </g>
    </g>
    <g id="xtick_8">
     <g id="line2d_8">
      <g>
       <use xlink:href="#mea53dd61d5" x="311.639489" y="224.64" style="stroke: #000000; stroke-width: 0.8"/>
      </g>
     </g>
     <g id="text_8">
      <!-- 3.5 -->
      <g transform="translate(303.687926 239.238437)scale(0.1 -0.1)">
       <use xlink:href="#DejaVuSans-33"/>
       <use xlink:href="#DejaVuSans-2e" x="63.623047"/>
       <use xlink:href="#DejaVuSans-35" x="95.410156"/>
      </g>
     </g>
    </g>
    <g id="xtick_9">
     <g id="line2d_9">
      <g>
       <use xlink:href="#mea53dd61d5" x="349.684943" y="224.64" style="stroke: #000000; stroke-width: 0.8"/>
      </g>
     </g>
     <g id="text_9">
      <!-- 4.0 -->
      <g transform="translate(341.733381 239.238437)scale(0.1 -0.1)">
       <defs>
        <path id="DejaVuSans-34" d="M 2419 4116 
L 825 1625 
L 2419 1625 
L 2419 4116 
z
M 2253 4666 
L 3047 4666 
L 3047 1625 
L 3713 1625 
L 3713 1100 
L 3047 1100 
L 3047 0 
L 2419 0 
L 2419 1100 
L 313 1100 
L 313 1709 
L 2253 4666 
z
" transform="scale(0.015625)"/>
       </defs>
       <use xlink:href="#DejaVuSans-34"/>
       <use xlink:href="#DejaVuSans-2e" x="63.623047"/>
       <use xlink:href="#DejaVuSans-30" x="95.410156"/>
      </g>
     </g>
    </g>
    <g id="text_10">
     <!-- x -->
     <g transform="translate(194.54375 252.916562)scale(0.1 -0.1)">
      <defs>
       <path id="DejaVuSans-78" d="M 3513 3500 
L 2247 1797 
L 3578 0 
L 2900 0 
L 1881 1375 
L 863 0 
L 184 0 
L 1544 1831 
L 300 3500 
L 978 3500 
L 1906 2253 
L 2834 3500 
L 3513 3500 
z
" transform="scale(0.015625)"/>
      </defs>
      <use xlink:href="#DejaVuSans-78"/>
     </g>
    </g>
   </g>
   <g id="matplotlib.axis_2">
    <g id="ytick_1">
     <g id="line2d_10">
      <defs>
       <path id="ma02b34fee3" d="M 0 0 
L -3.5 0 
" style="stroke: #000000; stroke-width: 0.8"/>
      </defs>
      <g>
       <use xlink:href="#ma02b34fee3" x="30.103125" y="195.677605" style="stroke: #000000; stroke-width: 0.8"/>
      </g>
     </g>
     <g id="text_11">
      <!-- 0.5 -->
      <g transform="translate(7.2 199.476824)scale(0.1 -0.1)">
       <use xlink:href="#DejaVuSans-30"/>
       <use xlink:href="#DejaVuSans-2e" x="63.623047"/>
       <use xlink:href="#DejaVuSans-35" x="95.410156"/>
      </g>
     </g>
    </g>
    <g id="ytick_2">
     <g id="line2d_11">
      <g>
       <use xlink:href="#ma02b34fee3" x="30.103125" y="161.402305" style="stroke: #000000; stroke-width: 0.8"/>
      </g>
     </g>
     <g id="text_12">
      <!-- 1.0 -->
      <g transform="translate(7.2 165.201524)scale(0.1 -0.1)">
       <use xlink:href="#DejaVuSans-31"/>
       <use xlink:href="#DejaVuSans-2e" x="63.623047"/>
       <use xlink:href="#DejaVuSans-30" x="95.410156"/>
      </g>
     </g>
    </g>
    <g id="ytick_3">
     <g id="line2d_12">
      <g>
       <use xlink:href="#ma02b34fee3" x="30.103125" y="127.127004" style="stroke: #000000; stroke-width: 0.8"/>
      </g>
     </g>
     <g id="text_13">
      <!-- 1.5 -->
      <g transform="translate(7.2 130.926223)scale(0.1 -0.1)">
       <use xlink:href="#DejaVuSans-31"/>
       <use xlink:href="#DejaVuSans-2e" x="63.623047"/>
       <use xlink:href="#DejaVuSans-35" x="95.410156"/>
      </g>
     </g>
    </g>
    <g id="ytick_4">
     <g id="line2d_13">
      <g>
       <use xlink:href="#ma02b34fee3" x="30.103125" y="92.851704" style="stroke: #000000; stroke-width: 0.8"/>
      </g>
     </g>
     <g id="text_14">
      <!-- 2.0 -->
      <g transform="translate(7.2 96.650923)scale(0.1 -0.1)">
       <use xlink:href="#DejaVuSans-32"/>
       <use xlink:href="#DejaVuSans-2e" x="63.623047"/>
       <use xlink:href="#DejaVuSans-30" x="95.410156"/>
      </g>
     </g>
    </g>
    <g id="ytick_5">
     <g id="line2d_14">
      <g>
       <use xlink:href="#ma02b34fee3" x="30.103125" y="58.576404" style="stroke: #000000; stroke-width: 0.8"/>
      </g>
     </g>
     <g id="text_15">
      <!-- 2.5 -->
      <g transform="translate(7.2 62.375623)scale(0.1 -0.1)">
       <use xlink:href="#DejaVuSans-32"/>
       <use xlink:href="#DejaVuSans-2e" x="63.623047"/>
       <use xlink:href="#DejaVuSans-35" x="95.410156"/>
      </g>
     </g>
    </g>
    <g id="ytick_6">
     <g id="line2d_15">
      <g>
       <use xlink:href="#ma02b34fee3" x="30.103125" y="24.301104" style="stroke: #000000; stroke-width: 0.8"/>
      </g>
     </g>
     <g id="text_16">
      <!-- 3.0 -->
      <g transform="translate(7.2 28.100322)scale(0.1 -0.1)">
       <use xlink:href="#DejaVuSans-33"/>
       <use xlink:href="#DejaVuSans-2e" x="63.623047"/>
       <use xlink:href="#DejaVuSans-30" x="95.410156"/>
      </g>
     </g>
    </g>
   </g>
   <g id="line2d_16">
    <defs>
     <path id="mc5f9beae2d" d="M 0 3 
C 0.795609 3 1.55874 2.683901 2.12132 2.12132 
C 2.683901 1.55874 3 0.795609 3 0 
C 3 -0.795609 2.683901 -1.55874 2.12132 -2.12132 
C 1.55874 -2.683901 0.795609 -3 0 -3 
C -0.795609 -3 -1.55874 -2.683901 -2.12132 -2.12132 
C -2.683901 -1.55874 -3 -0.795609 -3 0 
C -3 0.795609 -2.683901 1.55874 -2.12132 2.12132 
C -1.55874 2.683901 -0.795609 3 0 3 
z
" style="stroke: #1f77b4"/>
    </defs>
    <g clip-path="url(#pc3eca48275)">
     <use xlink:href="#mc5f9beae2d" x="45.321307" y="18.332278" style="fill: #1f77b4; stroke: #1f77b4"/>
     <use xlink:href="#mc5f9beae2d" x="51.53281" y="28.250869" style="fill: #1f77b4; stroke: #1f77b4"/>
     <use xlink:href="#mc5f9beae2d" x="57.744312" y="64.482437" style="fill: #1f77b4; stroke: #1f77b4"/>
     <use xlink:href="#mc5f9beae2d" x="63.955815" y="59.595882" style="fill: #1f77b4; stroke: #1f77b4"/>
     <use xlink:href="#mc5f9beae2d" x="70.167318" y="72.17506" style="fill: #1f77b4; stroke: #1f77b4"/>
     <use xlink:href="#mc5f9beae2d" x="76.378821" y="89.807007" style="fill: #1f77b4; stroke: #1f77b4"/>
     <use xlink:href="#mc5f9beae2d" x="82.590324" y="114.738414" style="fill: #1f77b4; stroke: #1f77b4"/>
     <use xlink:href="#mc5f9beae2d" x="88.801826" y="129.176902" style="fill: #1f77b4; stroke: #1f77b4"/>
     <use xlink:href="#mc5f9beae2d" x="95.013329" y="111.142606" style="fill: #1f77b4; stroke: #1f77b4"/>
     <use xlink:href="#mc5f9beae2d" x="101.224832" y="135.244095" style="fill: #1f77b4; stroke: #1f77b4"/>
     <use xlink:href="#mc5f9beae2d" x="107.436335" y="171.153023" style="fill: #1f77b4; stroke: #1f77b4"/>
     <use xlink:href="#mc5f9beae2d" x="113.647837" y="140.317988" style="fill: #1f77b4; stroke: #1f77b4"/>
     <use xlink:href="#mc5f9beae2d" x="119.85934" y="161.709166" style="fill: #1f77b4; stroke: #1f77b4"/>
     <use xlink:href="#mc5f9beae2d" x="126.070843" y="127.240876" style="fill: #1f77b4; stroke: #1f77b4"/>
     <use xlink:href="#mc5f9beae2d" x="132.282346" y="145.400842" style="fill: #1f77b4; stroke: #1f77b4"/>
     <use xlink:href="#mc5f9beae2d" x="138.493849" y="184.450876" style="fill: #1f77b4; stroke: #1f77b4"/>
     <use xlink:href="#mc5f9beae2d" x="144.705351" y="168.800346" style="fill: #1f77b4; stroke: #1f77b4"/>
     <use xlink:href="#mc5f9beae2d" x="150.916854" y="166.496296" style="fill: #1f77b4; stroke: #1f77b4"/>
     <use xlink:href="#mc5f9beae2d" x="157.128357" y="167.538097" style="fill: #1f77b4; stroke: #1f77b4"/>
     <use xlink:href="#mc5f9beae2d" x="163.33986" y="194.227757" style="fill: #1f77b4; stroke: #1f77b4"/>
     <use xlink:href="#mc5f9beae2d" x="169.551362" y="157.656212" style="fill: #1f77b4; stroke: #1f77b4"/>
     <use xlink:href="#mc5f9beae2d" x="175.762865" y="181.453923" style="fill: #1f77b4; stroke: #1f77b4"/>
     <use xlink:href="#mc5f9beae2d" x="181.974368" y="174.96882" style="fill: #1f77b4; stroke: #1f77b4"/>
     <use xlink:href="#mc5f9beae2d" x="188.185871" y="161.506663" style="fill: #1f77b4; stroke: #1f77b4"/>
     <use xlink:href="#mc5f9beae2d" x="194.397374" y="190.19177" style="fill: #1f77b4; stroke: #1f77b4"/>
     <use xlink:href="#mc5f9beae2d" x="200.608876" y="182.72021" style="fill: #1f77b4; stroke: #1f77b4"/>
     <use xlink:href="#mc5f9beae2d" x="206.820379" y="167.741036" style="fill: #1f77b4; stroke: #1f77b4"/>
     <use xlink:href="#mc5f9beae2d" x="213.031882" y="179.624697" style="fill: #1f77b4; stroke: #1f77b4"/>
     <use xlink:href="#mc5f9beae2d" x="219.243385" y="189.469528" style="fill: #1f77b4; stroke: #1f77b4"/>
     <use xlink:href="#mc5f9beae2d" x="225.454888" y="192.080259" style="fill: #1f77b4; stroke: #1f77b4"/>
     <use xlink:href="#mc5f9beae2d" x="231.66639" y="192.815615" style="fill: #1f77b4; stroke: #1f77b4"/>
     <use xlink:href="#mc5f9beae2d" x="237.877893" y="203.561454" style="fill: #1f77b4; stroke: #1f77b4"/>
     <use xlink:href="#mc5f9beae2d" x="244.089396" y="181.7546" style="fill: #1f77b4; stroke: #1f77b4"/>
     <use xlink:href="#mc5f9beae2d" x="250.300899" y="181.638431" style="fill: #1f77b4; stroke: #1f77b4"/>
     <use xlink:href="#mc5f9beae2d" x="256.512401" y="200.196433" style="fill: #1f77b4; stroke: #1f77b4"/>
     <use xlink:href="#mc5f9beae2d" x="262.723904" y="178.904577" style="fill: #1f77b4; stroke: #1f77b4"/>
     <use xlink:href="#mc5f9beae2d" x="268.935407" y="209.126904" style="fill: #1f77b4; stroke: #1f77b4"/>
     <use xlink:href="#mc5f9beae2d" x="275.14691" y="187.772323" style="fill: #1f77b4; stroke: #1f77b4"/>
     <use xlink:href="#mc5f9beae2d" x="281.358413" y="199.272198" style="fill: #1f77b4; stroke: #1f77b4"/>
     <use xlink:href="#mc5f9beae2d" x="287.569915" y="207.976378" style="fill: #1f77b4; stroke: #1f77b4"/>
     <use xlink:href="#mc5f9beae2d" x="293.781418" y="197.549359" style="fill: #1f77b4; stroke: #1f77b4"/>
     <use xlink:href="#mc5f9beae2d" x="299.992921" y="202.936337" style="fill: #1f77b4; stroke: #1f77b4"/>
     <use xlink:href="#mc5f9beae2d" x="306.204424" y="181.540453" style="fill: #1f77b4; stroke: #1f77b4"/>
     <use xlink:href="#mc5f9beae2d" x="312.415926" y="199.264444" style="fill: #1f77b4; stroke: #1f77b4"/>
     <use xlink:href="#mc5f9beae2d" x="318.627429" y="200.960924" style="fill: #1f77b4; stroke: #1f77b4"/>
     <use xlink:href="#mc5f9beae2d" x="324.838932" y="186.455579" style="fill: #1f77b4; stroke: #1f77b4"/>
     <use xlink:href="#mc5f9beae2d" x="331.050435" y="211.764318" style="fill: #1f77b4; stroke: #1f77b4"/>
     <use xlink:href="#mc5f9beae2d" x="337.261938" y="214.756364" style="fill: #1f77b4; stroke: #1f77b4"/>
     <use xlink:href="#mc5f9beae2d" x="343.47344" y="178.81554" style="fill: #1f77b4; stroke: #1f77b4"/>
     <use xlink:href="#mc5f9beae2d" x="349.684943" y="191.632683" style="fill: #1f77b4; stroke: #1f77b4"/>
    </g>
   </g>
   <g id="line2d_17">
    <path d="M 45.321307 17.083636 
L 51.53281 36.169408 
L 57.744312 53.221979 
L 63.955815 68.457946 
L 70.167318 82.070831 
L 76.378821 94.23354 
L 82.590324 105.10056 
L 88.801826 114.80992 
L 95.013329 123.484946 
L 101.224832 131.235824 
L 107.436335 138.161005 
L 113.647837 144.348448 
L 119.85934 149.876745 
L 126.070843 154.816114 
L 132.282346 159.229295 
L 138.493849 163.17234 
L 144.705351 166.695335 
L 150.916854 169.843026 
L 157.128357 172.655395 
L 163.33986 175.168163 
L 169.551362 177.413247 
L 175.762865 179.419163 
L 181.974368 181.211389 
L 188.185871 182.812691 
L 194.397374 184.243406 
L 200.608876 185.521707 
L 206.820379 186.663832 
L 213.031882 187.684286 
L 219.243385 188.596032 
L 225.454888 189.41065 
L 231.66639 190.138487 
L 237.877893 190.788788 
L 244.089396 191.369812 
L 250.300899 191.88894 
L 256.512401 192.352766 
L 262.723904 192.76718 
L 268.935407 193.137447 
L 275.14691 193.46827 
L 281.358413 193.76385 
L 287.569915 194.027942 
L 293.781418 194.2639 
L 299.992921 194.474722 
L 306.204424 194.663085 
L 312.415926 194.831382 
L 318.627429 194.981751 
L 324.838932 195.1161 
L 331.050435 195.236138 
L 337.261938 195.343387 
L 343.47344 195.439212 
L 349.684943 195.524828 
" clip-path="url(#pc3eca48275)" style="fill: none; stroke: #ff7f0e; stroke-width: 1.5; stroke-linecap: square"/>
   </g>
   <g id="patch_3">
    <path d="M 30.103125 224.64 
L 30.103125 7.2 
" style="fill: none; stroke: #000000; stroke-width: 0.8; stroke-linejoin: miter; stroke-linecap: square"/>
   </g>
   <g id="patch_4">
    <path d="M 364.903125 224.64 
L 364.903125 7.2 
" style="fill: none; stroke: #000000; stroke-width: 0.8; stroke-linejoin: miter; stroke-linecap: square"/>
   </g>
   <g id="patch_5">
    <path d="M 30.103125 224.64 
L 364.903125 224.64 
" style="fill: none; stroke: #000000; stroke-width: 0.8; stroke-linejoin: miter; stroke-linecap: square"/>
   </g>
   <g id="patch_6">
    <path d="M 30.103125 7.2 
L 364.903125 7.2 
" style="fill: none; stroke: #000000; stroke-width: 0.8; stroke-linejoin: miter; stroke-linecap: square"/>
   </g>
   <g id="legend_1">
    <g id="patch_7">
     <path d="M 292.003125 44.578125 
L 357.903125 44.578125 
Q 359.903125 44.578125 359.903125 42.578125 
L 359.903125 14.2 
Q 359.903125 12.2 357.903125 12.2 
L 292.003125 12.2 
Q 290.003125 12.2 290.003125 14.2 
L 290.003125 42.578125 
Q 290.003125 44.578125 292.003125 44.578125 
z
" style="fill: #ffffff; opacity: 0.8; stroke: #cccccc; stroke-linejoin: miter"/>
    </g>
    <g id="line2d_18">
     <g>
      <use xlink:href="#mc5f9beae2d" x="304.003125" y="20.3" style="fill: #1f77b4; stroke: #1f77b4"/>
     </g>
    </g>
    <g id="text_17">
     <!-- data $y_i$ -->
     <g transform="translate(322.003125 23.8)scale(0.1 -0.1)">
      <defs>
       <path id="DejaVuSans-64" d="M 2906 2969 
L 2906 4863 
L 3481 4863 
L 3481 0 
L 2906 0 
L 2906 525 
Q 2725 213 2448 61 
Q 2172 -91 1784 -91 
Q 1150 -91 751 415 
Q 353 922 353 1747 
Q 353 2572 751 3078 
Q 1150 3584 1784 3584 
Q 2172 3584 2448 3432 
Q 2725 3281 2906 2969 
z
M 947 1747 
Q 947 1113 1208 752 
Q 1469 391 1925 391 
Q 2381 391 2643 752 
Q 2906 1113 2906 1747 
Q 2906 2381 2643 2742 
Q 2381 3103 1925 3103 
Q 1469 3103 1208 2742 
Q 947 2381 947 1747 
z
" transform="scale(0.015625)"/>
       <path id="DejaVuSans-61" d="M 2194 1759 
Q 1497 1759 1228 1600 
Q 959 1441 959 1056 
Q 959 750 1161 570 
Q 1363 391 1709 391 
Q 2188 391 2477 730 
Q 2766 1069 2766 1631 
L 2766 1759 
L 2194 1759 
z
M 3341 1997 
L 3341 0 
L 2766 0 
L 2766 531 
Q 2569 213 2275 61 
Q 1981 -91 1556 -91 
Q 1019 -91 701 211 
Q 384 513 384 1019 
Q 384 1609 779 1909 
Q 1175 2209 1959 2209 
L 2766 2209 
L 2766 2266 
Q 2766 2663 2505 2880 
Q 2244 3097 1772 3097 
Q 1472 3097 1187 3025 
Q 903 2953 641 2809 
L 641 3341 
Q 956 3463 1253 3523 
Q 1550 3584 1831 3584 
Q 2591 3584 2966 3190 
Q 3341 2797 3341 1997 
z
" transform="scale(0.015625)"/>
       <path id="DejaVuSans-74" d="M 1172 4494 
L 1172 3500 
L 2356 3500 
L 2356 3053 
L 1172 3053 
L 1172 1153 
Q 1172 725 1289 603 
Q 1406 481 1766 481 
L 2356 481 
L 2356 0 
L 1766 0 
Q 1100 0 847 248 
Q 594 497 594 1153 
L 594 3053 
L 172 3053 
L 172 3500 
L 594 3500 
L 594 4494 
L 1172 4494 
z
" transform="scale(0.015625)"/>
       <path id="DejaVuSans-20" transform="scale(0.015625)"/>
       <path id="DejaVuSans-Oblique-79" d="M 1588 -325 
Q 1188 -997 936 -1164 
Q 684 -1331 294 -1331 
L -159 -1331 
L -63 -850 
L 269 -850 
Q 509 -850 678 -719 
Q 847 -588 1056 -206 
L 1234 128 
L 459 3500 
L 1069 3500 
L 1650 819 
L 3256 3500 
L 3859 3500 
L 1588 -325 
z
" transform="scale(0.015625)"/>
       <path id="DejaVuSans-Oblique-69" d="M 1172 4863 
L 1747 4863 
L 1606 4134 
L 1031 4134 
L 1172 4863 
z
M 909 3500 
L 1484 3500 
L 800 0 
L 225 0 
L 909 3500 
z
" transform="scale(0.015625)"/>
      </defs>
      <use xlink:href="#DejaVuSans-64" transform="translate(0 0.015625)"/>
      <use xlink:href="#DejaVuSans-61" transform="translate(63.476562 0.015625)"/>
      <use xlink:href="#DejaVuSans-74" transform="translate(124.755859 0.015625)"/>
      <use xlink:href="#DejaVuSans-61" transform="translate(163.964844 0.015625)"/>
      <use xlink:href="#DejaVuSans-20" transform="translate(225.244141 0.015625)"/>
      <use xlink:href="#DejaVuSans-Oblique-79" transform="translate(257.03125 0.015625)"/>
      <use xlink:href="#DejaVuSans-Oblique-69" transform="translate(316.210938 -16.390625)scale(0.7)"/>
     </g>
    </g>
    <g id="line2d_19">
     <path d="M 294.003125 34.998437 
L 304.003125 34.998437 
L 314.003125 34.998437 
" style="fill: none; stroke: #ff7f0e; stroke-width: 1.5; stroke-linecap: square"/>
    </g>
    <g id="text_18">
     <!-- fit $f(x_i)$ -->
     <g transform="translate(322.003125 38.498437)scale(0.1 -0.1)">
      <defs>
       <path id="DejaVuSans-66" d="M 2375 4863 
L 2375 4384 
L 1825 4384 
Q 1516 4384 1395 4259 
Q 1275 4134 1275 3809 
L 1275 3500 
L 2222 3500 
L 2222 3053 
L 1275 3053 
L 1275 0 
L 697 0 
L 697 3053 
L 147 3053 
L 147 3500 
L 697 3500 
L 697 3744 
Q 697 4328 969 4595 
Q 1241 4863 1831 4863 
L 2375 4863 
z
" transform="scale(0.015625)"/>
       <path id="DejaVuSans-69" d="M 603 3500 
L 1178 3500 
L 1178 0 
L 603 0 
L 603 3500 
z
M 603 4863 
L 1178 4863 
L 1178 4134 
L 603 4134 
L 603 4863 
z
" transform="scale(0.015625)"/>
       <path id="DejaVuSans-Oblique-66" d="M 3059 4863 
L 2969 4384 
L 2419 4384 
Q 2106 4384 1964 4261 
Q 1822 4138 1753 3809 
L 1691 3500 
L 2638 3500 
L 2553 3053 
L 1606 3053 
L 1013 0 
L 434 0 
L 1031 3053 
L 481 3053 
L 563 3500 
L 1113 3500 
L 1159 3744 
Q 1278 4363 1576 4613 
Q 1875 4863 2516 4863 
L 3059 4863 
z
" transform="scale(0.015625)"/>
       <path id="DejaVuSans-28" d="M 1984 4856 
Q 1566 4138 1362 3434 
Q 1159 2731 1159 2009 
Q 1159 1288 1364 580 
Q 1569 -128 1984 -844 
L 1484 -844 
Q 1016 -109 783 600 
Q 550 1309 550 2009 
Q 550 2706 781 3412 
Q 1013 4119 1484 4856 
L 1984 4856 
z
" transform="scale(0.015625)"/>
       <path id="DejaVuSans-Oblique-78" d="M 3841 3500 
L 2234 1784 
L 3219 0 
L 2559 0 
L 1819 1388 
L 531 0 
L -166 0 
L 1556 1844 
L 641 3500 
L 1300 3500 
L 1972 2234 
L 3144 3500 
L 3841 3500 
z
" transform="scale(0.015625)"/>
       <path id="DejaVuSans-29" d="M 513 4856 
L 1013 4856 
Q 1481 4119 1714 3412 
Q 1947 2706 1947 2009 
Q 1947 1309 1714 600 
Q 1481 -109 1013 -844 
L 513 -844 
Q 928 -128 1133 580 
Q 1338 1288 1338 2009 
Q 1338 2731 1133 3434 
Q 928 4138 513 4856 
z
" transform="scale(0.015625)"/>
      </defs>
      <use xlink:href="#DejaVuSans-66" transform="translate(0 0.015625)"/>
      <use xlink:href="#DejaVuSans-69" transform="translate(35.205078 0.015625)"/>
      <use xlink:href="#DejaVuSans-74" transform="translate(62.988281 0.015625)"/>
      <use xlink:href="#DejaVuSans-20" transform="translate(102.197266 0.015625)"/>
      <use xlink:href="#DejaVuSans-Oblique-66" transform="translate(133.984375 0.015625)"/>
      <use xlink:href="#DejaVuSans-28" transform="translate(169.189453 0.015625)"/>
      <use xlink:href="#DejaVuSans-Oblique-78" transform="translate(208.203125 0.015625)"/>
      <use xlink:href="#DejaVuSans-Oblique-69" transform="translate(267.382812 -16.390625)scale(0.7)"/>
      <use xlink:href="#DejaVuSans-29" transform="translate(289.56543 0.015625)"/>
     </g>
    </g>
   </g>
  </g>
 </g>
 <defs>
  <clipPath id="pc3eca48275">
   <rect x="30.103125" y="7.2" width="334.8" height="217.44"/>
  </clipPath>
 </defs>
</svg>
