<?xml version="1.0" encoding="utf-8" standalone="no"?>
<!DOCTYPE svg PUBLIC "-//W3C//DTD SVG 1.1//EN"
  "http://www.w3.org/Graphics/SVG/1.1/DTD/svg11.dtd">
<svg xmlns:xlink="http://www.w3.org/1999/xlink" width="388.965625pt" height="263.586589pt" viewBox="0 0 388.965625 263.586589" xmlns="http://www.w3.org/2000/svg" version="1.1">
 <metadata>
  <rdf:RDF xmlns:dc="http://purl.org/dc/elements/1.1/" xmlns:cc="http://creativecommons.org/ns#" xmlns:rdf="http://www.w3.org/1999/02/22-rdf-syntax-ns#">
   <cc:Work>
    <dc:type rdf:resource="http://purl.org/dc/dcmitype/StillImage"/>
    <dc:date>2022-01-03T14:30:05.335904</dc:date>
    <dc:format>image/svg+xml</dc:format>
    <dc:creator>
     <cc:Agent>
      <dc:title>Matplotlib v3.5.1, https://matplotlib.org/</dc:title>
     </cc:Agent>
    </dc:creator>
   </cc:Work>
  </rdf:RDF>
 </metadata>
 <defs>
  <style type="text/css">*{stroke-linejoin: round; stroke-linecap: butt}</style>
 </defs>
 <g id="figure_1">
  <g id="patch_1">
   <path d="M 0 263.586589 
L 388.965625 263.586589 
L 388.965625 -0 
L 0 -0 
L 0 263.586589 
z
" style="fill: none"/>
  </g>
  <g id="axes_1">
   <g id="patch_2">
    <path d="M 46.965625 107.426703 
L 381.765625 107.426703 
L 381.765625 8.590339 
L 46.965625 8.590339 
z
" style="fill: #ffffff"/>
   </g>
   <g id="matplotlib.axis_1">
    <g id="xtick_1">
     <g id="line2d_1">
      <defs>
       <path id="m947356479f" d="M 0 0 
L 0 3.5 
" style="stroke: #000000; stroke-width: 0.8"/>
      </defs>
      <g>
       <use xlink:href="#m947356479f" x="62.183807" y="107.426703" style="stroke: #000000; stroke-width: 0.8"/>
      </g>
     </g>
     <g id="text_1">
      <!-- 0.0 -->
      <g transform="translate(54.232244 122.02514)scale(0.1 -0.1)">
       <defs>
        <path id="DejaVuSans-30" d="M 2034 4250 
Q 1547 4250 1301 3770 
Q 1056 3291 1056 2328 
Q 1056 1369 1301 889 
Q 1547 409 2034 409 
Q 2525 409 2770 889 
Q 3016 1369 3016 2328 
Q 3016 3291 2770 3770 
Q 2525 4250 2034 4250 
z
M 2034 4750 
Q 2819 4750 3233 4129 
Q 3647 3509 3647 2328 
Q 3647 1150 3233 529 
Q 2819 -91 2034 -91 
Q 1250 -91 836 529 
Q 422 1150 422 2328 
Q 422 3509 836 4129 
Q 1250 4750 2034 4750 
z
" transform="scale(0.015625)"/>
        <path id="DejaVuSans-2e" d="M 684 794 
L 1344 794 
L 1344 0 
L 684 0 
L 684 794 
z
" transform="scale(0.015625)"/>
       </defs>
       <use xlink:href="#DejaVuSans-30"/>
       <use xlink:href="#DejaVuSans-2e" x="63.623047"/>
       <use xlink:href="#DejaVuSans-30" x="95.410156"/>
      </g>
     </g>
    </g>
    <g id="xtick_2">
     <g id="line2d_2">
      <g>
       <use xlink:href="#m947356479f" x="123.301003" y="107.426703" style="stroke: #000000; stroke-width: 0.8"/>
      </g>
     </g>
     <g id="text_2">
      <!-- 0.1 -->
      <g transform="translate(115.34944 122.02514)scale(0.1 -0.1)">
       <defs>
        <path id="DejaVuSans-31" d="M 794 531 
L 1825 531 
L 1825 4091 
L 703 3866 
L 703 4441 
L 1819 4666 
L 2450 4666 
L 2450 531 
L 3481 531 
L 3481 0 
L 794 0 
L 794 531 
z
" transform="scale(0.015625)"/>
       </defs>
       <use xlink:href="#DejaVuSans-30"/>
       <use xlink:href="#DejaVuSans-2e" x="63.623047"/>
       <use xlink:href="#DejaVuSans-31" x="95.410156"/>
      </g>
     </g>
    </g>
    <g id="xtick_3">
     <g id="line2d_3">
      <g>
       <use xlink:href="#m947356479f" x="184.418199" y="107.426703" style="stroke: #000000; stroke-width: 0.8"/>
      </g>
     </g>
     <g id="text_3">
      <!-- 0.2 -->
      <g transform="translate(176.466636 122.02514)scale(0.1 -0.1)">
       <defs>
        <path id="DejaVuSans-32" d="M 1228 531 
L 3431 531 
L 3431 0 
L 469 0 
L 469 531 
Q 828 903 1448 1529 
Q 2069 2156 2228 2338 
Q 2531 2678 2651 2914 
Q 2772 3150 2772 3378 
Q 2772 3750 2511 3984 
Q 2250 4219 1831 4219 
Q 1534 4219 1204 4116 
Q 875 4013 500 3803 
L 500 4441 
Q 881 4594 1212 4672 
Q 1544 4750 1819 4750 
Q 2544 4750 2975 4387 
Q 3406 4025 3406 3419 
Q 3406 3131 3298 2873 
Q 3191 2616 2906 2266 
Q 2828 2175 2409 1742 
Q 1991 1309 1228 531 
z
" transform="scale(0.015625)"/>
       </defs>
       <use xlink:href="#DejaVuSans-30"/>
       <use xlink:href="#DejaVuSans-2e" x="63.623047"/>
       <use xlink:href="#DejaVuSans-32" x="95.410156"/>
      </g>
     </g>
    </g>
    <g id="xtick_4">
     <g id="line2d_4">
      <g>
       <use xlink:href="#m947356479f" x="245.535395" y="107.426703" style="stroke: #000000; stroke-width: 0.8"/>
      </g>
     </g>
     <g id="text_4">
      <!-- 0.3 -->
      <g transform="translate(237.583832 122.02514)scale(0.1 -0.1)">
       <defs>
        <path id="DejaVuSans-33" d="M 2597 2516 
Q 3050 2419 3304 2112 
Q 3559 1806 3559 1356 
Q 3559 666 3084 287 
Q 2609 -91 1734 -91 
Q 1441 -91 1130 -33 
Q 819 25 488 141 
L 488 750 
Q 750 597 1062 519 
Q 1375 441 1716 441 
Q 2309 441 2620 675 
Q 2931 909 2931 1356 
Q 2931 1769 2642 2001 
Q 2353 2234 1838 2234 
L 1294 2234 
L 1294 2753 
L 1863 2753 
Q 2328 2753 2575 2939 
Q 2822 3125 2822 3475 
Q 2822 3834 2567 4026 
Q 2313 4219 1838 4219 
Q 1578 4219 1281 4162 
Q 984 4106 628 3988 
L 628 4550 
Q 988 4650 1302 4700 
Q 1616 4750 1894 4750 
Q 2613 4750 3031 4423 
Q 3450 4097 3450 3541 
Q 3450 3153 3228 2886 
Q 3006 2619 2597 2516 
z
" transform="scale(0.015625)"/>
       </defs>
       <use xlink:href="#DejaVuSans-30"/>
       <use xlink:href="#DejaVuSans-2e" x="63.623047"/>
       <use xlink:href="#DejaVuSans-33" x="95.410156"/>
      </g>
     </g>
    </g>
    <g id="xtick_5">
     <g id="line2d_5">
      <g>
       <use xlink:href="#m947356479f" x="306.652591" y="107.426703" style="stroke: #000000; stroke-width: 0.8"/>
      </g>
     </g>
     <g id="text_5">
      <!-- 0.4 -->
      <g transform="translate(298.701029 122.02514)scale(0.1 -0.1)">
       <defs>
        <path id="DejaVuSans-34" d="M 2419 4116 
L 825 1625 
L 2419 1625 
L 2419 4116 
z
M 2253 4666 
L 3047 4666 
L 3047 1625 
L 3713 1625 
L 3713 1100 
L 3047 1100 
L 3047 0 
L 2419 0 
L 2419 1100 
L 313 1100 
L 313 1709 
L 2253 4666 
z
" transform="scale(0.015625)"/>
       </defs>
       <use xlink:href="#DejaVuSans-30"/>
       <use xlink:href="#DejaVuSans-2e" x="63.623047"/>
       <use xlink:href="#DejaVuSans-34" x="95.410156"/>
      </g>
     </g>
    </g>
    <g id="xtick_6">
     <g id="line2d_6">
      <g>
       <use xlink:href="#m947356479f" x="367.769787" y="107.426703" style="stroke: #000000; stroke-width: 0.8"/>
      </g>
     </g>
     <g id="text_6">
      <!-- 0.5 -->
      <g transform="translate(359.818225 122.02514)scale(0.1 -0.1)">
       <defs>
        <path id="DejaVuSans-35" d="M 691 4666 
L 3169 4666 
L 3169 4134 
L 1269 4134 
L 1269 2991 
Q 1406 3038 1543 3061 
Q 1681 3084 1819 3084 
Q 2600 3084 3056 2656 
Q 3513 2228 3513 1497 
Q 3513 744 3044 326 
Q 2575 -91 1722 -91 
Q 1428 -91 1123 -41 
Q 819 9 494 109 
L 494 744 
Q 775 591 1075 516 
Q 1375 441 1709 441 
Q 2250 441 2565 725 
Q 2881 1009 2881 1497 
Q 2881 1984 2565 2268 
Q 2250 2553 1709 2553 
Q 1456 2553 1204 2497 
Q 953 2441 691 2322 
L 691 4666 
z
" transform="scale(0.015625)"/>
       </defs>
       <use xlink:href="#DejaVuSans-30"/>
       <use xlink:href="#DejaVuSans-2e" x="63.623047"/>
       <use xlink:href="#DejaVuSans-35" x="95.410156"/>
      </g>
     </g>
    </g>
    <g id="text_7">
     <!-- time [s] -->
     <g transform="translate(194.974219 135.703265)scale(0.1 -0.1)">
      <defs>
       <path id="DejaVuSans-74" d="M 1172 4494 
L 1172 3500 
L 2356 3500 
L 2356 3053 
L 1172 3053 
L 1172 1153 
Q 1172 725 1289 603 
Q 1406 481 1766 481 
L 2356 481 
L 2356 0 
L 1766 0 
Q 1100 0 847 248 
Q 594 497 594 1153 
L 594 3053 
L 172 3053 
L 172 3500 
L 594 3500 
L 594 4494 
L 1172 4494 
z
" transform="scale(0.015625)"/>
       <path id="DejaVuSans-69" d="M 603 3500 
L 1178 3500 
L 1178 0 
L 603 0 
L 603 3500 
z
M 603 4863 
L 1178 4863 
L 1178 4134 
L 603 4134 
L 603 4863 
z
" transform="scale(0.015625)"/>
       <path id="DejaVuSans-6d" d="M 3328 2828 
Q 3544 3216 3844 3400 
Q 4144 3584 4550 3584 
Q 5097 3584 5394 3201 
Q 5691 2819 5691 2113 
L 5691 0 
L 5113 0 
L 5113 2094 
Q 5113 2597 4934 2840 
Q 4756 3084 4391 3084 
Q 3944 3084 3684 2787 
Q 3425 2491 3425 1978 
L 3425 0 
L 2847 0 
L 2847 2094 
Q 2847 2600 2669 2842 
Q 2491 3084 2119 3084 
Q 1678 3084 1418 2786 
Q 1159 2488 1159 1978 
L 1159 0 
L 581 0 
L 581 3500 
L 1159 3500 
L 1159 2956 
Q 1356 3278 1631 3431 
Q 1906 3584 2284 3584 
Q 2666 3584 2933 3390 
Q 3200 3197 3328 2828 
z
" transform="scale(0.015625)"/>
       <path id="DejaVuSans-65" d="M 3597 1894 
L 3597 1613 
L 953 1613 
Q 991 1019 1311 708 
Q 1631 397 2203 397 
Q 2534 397 2845 478 
Q 3156 559 3463 722 
L 3463 178 
Q 3153 47 2828 -22 
Q 2503 -91 2169 -91 
Q 1331 -91 842 396 
Q 353 884 353 1716 
Q 353 2575 817 3079 
Q 1281 3584 2069 3584 
Q 2775 3584 3186 3129 
Q 3597 2675 3597 1894 
z
M 3022 2063 
Q 3016 2534 2758 2815 
Q 2500 3097 2075 3097 
Q 1594 3097 1305 2825 
Q 1016 2553 972 2059 
L 3022 2063 
z
" transform="scale(0.015625)"/>
       <path id="DejaVuSans-20" transform="scale(0.015625)"/>
       <path id="DejaVuSans-5b" d="M 550 4863 
L 1875 4863 
L 1875 4416 
L 1125 4416 
L 1125 -397 
L 1875 -397 
L 1875 -844 
L 550 -844 
L 550 4863 
z
" transform="scale(0.015625)"/>
       <path id="DejaVuSans-73" d="M 2834 3397 
L 2834 2853 
Q 2591 2978 2328 3040 
Q 2066 3103 1784 3103 
Q 1356 3103 1142 2972 
Q 928 2841 928 2578 
Q 928 2378 1081 2264 
Q 1234 2150 1697 2047 
L 1894 2003 
Q 2506 1872 2764 1633 
Q 3022 1394 3022 966 
Q 3022 478 2636 193 
Q 2250 -91 1575 -91 
Q 1294 -91 989 -36 
Q 684 19 347 128 
L 347 722 
Q 666 556 975 473 
Q 1284 391 1588 391 
Q 1994 391 2212 530 
Q 2431 669 2431 922 
Q 2431 1156 2273 1281 
Q 2116 1406 1581 1522 
L 1381 1569 
Q 847 1681 609 1914 
Q 372 2147 372 2553 
Q 372 3047 722 3315 
Q 1072 3584 1716 3584 
Q 2034 3584 2315 3537 
Q 2597 3491 2834 3397 
z
" transform="scale(0.015625)"/>
       <path id="DejaVuSans-5d" d="M 1947 4863 
L 1947 -844 
L 622 -844 
L 622 -397 
L 1369 -397 
L 1369 4416 
L 622 4416 
L 622 4863 
L 1947 4863 
z
" transform="scale(0.015625)"/>
      </defs>
      <use xlink:href="#DejaVuSans-74"/>
      <use xlink:href="#DejaVuSans-69" x="39.208984"/>
      <use xlink:href="#DejaVuSans-6d" x="66.992188"/>
      <use xlink:href="#DejaVuSans-65" x="164.404297"/>
      <use xlink:href="#DejaVuSans-20" x="225.927734"/>
      <use xlink:href="#DejaVuSans-5b" x="257.714844"/>
      <use xlink:href="#DejaVuSans-73" x="296.728516"/>
      <use xlink:href="#DejaVuSans-5d" x="348.828125"/>
     </g>
    </g>
   </g>
   <g id="matplotlib.axis_2">
    <g id="ytick_1">
     <g id="line2d_7">
      <defs>
       <path id="m3f0f2b1c8f" d="M 0 0 
L -3.5 0 
" style="stroke: #000000; stroke-width: 0.8"/>
      </defs>
      <g>
       <use xlink:href="#m3f0f2b1c8f" x="46.965625" y="105.017824" style="stroke: #000000; stroke-width: 0.8"/>
      </g>
     </g>
     <g id="text_8">
      <!-- −2 -->
      <g transform="translate(25.223438 108.817042)scale(0.1 -0.1)">
       <defs>
        <path id="DejaVuSans-2212" d="M 678 2272 
L 4684 2272 
L 4684 1741 
L 678 1741 
L 678 2272 
z
" transform="scale(0.015625)"/>
       </defs>
       <use xlink:href="#DejaVuSans-2212"/>
       <use xlink:href="#DejaVuSans-32" x="83.789062"/>
      </g>
     </g>
    </g>
    <g id="ytick_2">
     <g id="line2d_8">
      <g>
       <use xlink:href="#m3f0f2b1c8f" x="46.965625" y="58.008521" style="stroke: #000000; stroke-width: 0.8"/>
      </g>
     </g>
     <g id="text_9">
      <!-- 0 -->
      <g transform="translate(33.603125 61.80774)scale(0.1 -0.1)">
       <use xlink:href="#DejaVuSans-30"/>
      </g>
     </g>
    </g>
    <g id="ytick_3">
     <g id="line2d_9">
      <g>
       <use xlink:href="#m3f0f2b1c8f" x="46.965625" y="10.999219" style="stroke: #000000; stroke-width: 0.8"/>
      </g>
     </g>
     <g id="text_10">
      <!-- 2 -->
      <g transform="translate(33.603125 14.798438)scale(0.1 -0.1)">
       <use xlink:href="#DejaVuSans-32"/>
      </g>
     </g>
    </g>
    <g id="text_11">
     <!-- signal -->
     <g transform="translate(19.14375 72.798365)rotate(-90)scale(0.1 -0.1)">
      <defs>
       <path id="DejaVuSans-67" d="M 2906 1791 
Q 2906 2416 2648 2759 
Q 2391 3103 1925 3103 
Q 1463 3103 1205 2759 
Q 947 2416 947 1791 
Q 947 1169 1205 825 
Q 1463 481 1925 481 
Q 2391 481 2648 825 
Q 2906 1169 2906 1791 
z
M 3481 434 
Q 3481 -459 3084 -895 
Q 2688 -1331 1869 -1331 
Q 1566 -1331 1297 -1286 
Q 1028 -1241 775 -1147 
L 775 -588 
Q 1028 -725 1275 -790 
Q 1522 -856 1778 -856 
Q 2344 -856 2625 -561 
Q 2906 -266 2906 331 
L 2906 616 
Q 2728 306 2450 153 
Q 2172 0 1784 0 
Q 1141 0 747 490 
Q 353 981 353 1791 
Q 353 2603 747 3093 
Q 1141 3584 1784 3584 
Q 2172 3584 2450 3431 
Q 2728 3278 2906 2969 
L 2906 3500 
L 3481 3500 
L 3481 434 
z
" transform="scale(0.015625)"/>
       <path id="DejaVuSans-6e" d="M 3513 2113 
L 3513 0 
L 2938 0 
L 2938 2094 
Q 2938 2591 2744 2837 
Q 2550 3084 2163 3084 
Q 1697 3084 1428 2787 
Q 1159 2491 1159 1978 
L 1159 0 
L 581 0 
L 581 3500 
L 1159 3500 
L 1159 2956 
Q 1366 3272 1645 3428 
Q 1925 3584 2291 3584 
Q 2894 3584 3203 3211 
Q 3513 2838 3513 2113 
z
" transform="scale(0.015625)"/>
       <path id="DejaVuSans-61" d="M 2194 1759 
Q 1497 1759 1228 1600 
Q 959 1441 959 1056 
Q 959 750 1161 570 
Q 1363 391 1709 391 
Q 2188 391 2477 730 
Q 2766 1069 2766 1631 
L 2766 1759 
L 2194 1759 
z
M 3341 1997 
L 3341 0 
L 2766 0 
L 2766 531 
Q 2569 213 2275 61 
Q 1981 -91 1556 -91 
Q 1019 -91 701 211 
Q 384 513 384 1019 
Q 384 1609 779 1909 
Q 1175 2209 1959 2209 
L 2766 2209 
L 2766 2266 
Q 2766 2663 2505 2880 
Q 2244 3097 1772 3097 
Q 1472 3097 1187 3025 
Q 903 2953 641 2809 
L 641 3341 
Q 956 3463 1253 3523 
Q 1550 3584 1831 3584 
Q 2591 3584 2966 3190 
Q 3341 2797 3341 1997 
z
" transform="scale(0.015625)"/>
       <path id="DejaVuSans-6c" d="M 603 4863 
L 1178 4863 
L 1178 0 
L 603 0 
L 603 4863 
z
" transform="scale(0.015625)"/>
      </defs>
      <use xlink:href="#DejaVuSans-73"/>
      <use xlink:href="#DejaVuSans-69" x="52.099609"/>
      <use xlink:href="#DejaVuSans-67" x="79.882812"/>
      <use xlink:href="#DejaVuSans-6e" x="143.359375"/>
      <use xlink:href="#DejaVuSans-61" x="206.738281"/>
      <use xlink:href="#DejaVuSans-6c" x="268.017578"/>
     </g>
    </g>
   </g>
   <g id="line2d_10">
    <path d="M 62.183807 41.388223 
L 63.406151 20.792497 
L 64.628495 22.442696 
L 65.850839 42.211858 
L 67.073183 65.764336 
L 68.295526 78.951319 
L 69.51787 76.951589 
L 70.740214 65.956606 
L 71.962558 56.86972 
L 73.184902 56.280304 
L 74.407246 61.685459 
L 75.62959 64.424275 
L 76.851934 57.769344 
L 78.074278 43.616186 
L 79.296622 32.227993 
L 80.518966 34.793251 
L 81.74131 54.193109 
L 82.963653 81.101072 
L 84.185997 98.935091 
L 85.408341 94.762792 
L 86.630685 68.67941 
L 87.853029 34.858011 
L 89.075373 13.082901 
L 90.297717 16.214029 
L 91.520061 41.980851 
L 92.742405 74.628819 
L 93.964749 95.224545 
L 95.187093 93.574347 
L 96.409437 73.805184 
L 97.631781 50.252706 
L 98.854124 37.065724 
L 100.076468 39.065453 
L 101.298812 50.060436 
L 102.521156 59.147323 
L 103.7435 59.736739 
L 104.965844 54.331584 
L 106.188188 51.592767 
L 107.410532 58.247699 
L 108.632876 72.400856 
L 109.85522 83.789049 
L 111.077564 81.223791 
L 112.299908 61.823933 
L 113.522252 34.915971 
L 114.744595 17.081952 
L 115.966939 21.254251 
L 117.189283 47.337633 
L 118.411627 81.159031 
L 119.633971 102.934141 
L 120.856315 99.803013 
L 122.078659 74.036192 
L 123.301003 41.388223 
L 124.523347 20.792497 
L 125.745691 22.442696 
L 126.968035 42.211858 
L 128.190379 65.764336 
L 129.412722 78.951319 
L 130.635066 76.951589 
L 131.85741 65.956606 
L 133.079754 56.86972 
L 134.302098 56.280304 
L 135.524442 61.685459 
L 136.746786 64.424275 
L 137.96913 57.769344 
L 139.191474 43.616186 
L 140.413818 32.227993 
L 141.636162 34.793251 
L 142.858506 54.193109 
L 144.08085 81.101072 
L 145.303193 98.935091 
L 146.525537 94.762792 
L 147.747881 68.67941 
L 148.970225 34.858011 
L 150.192569 13.082901 
L 151.414913 16.214029 
L 152.637257 41.980851 
L 153.859601 74.628819 
L 155.081945 95.224545 
L 156.304289 93.574347 
L 157.526633 73.805184 
L 158.748977 50.252706 
L 159.971321 37.065724 
L 161.193664 39.065453 
L 162.416008 50.060436 
L 163.638352 59.147323 
L 164.860696 59.736739 
L 166.08304 54.331584 
L 167.305384 51.592767 
L 168.527728 58.247699 
L 169.750072 72.400856 
L 170.972416 83.789049 
L 172.19476 81.223791 
L 173.417104 61.823933 
L 174.639448 34.915971 
L 175.861791 17.081952 
L 177.084135 21.254251 
L 178.306479 47.337633 
L 179.528823 81.159031 
L 180.751167 102.934141 
L 181.973511 99.803013 
L 183.195855 74.036192 
L 184.418199 41.388223 
L 185.640543 20.792497 
L 186.862887 22.442696 
L 188.085231 42.211858 
L 189.307575 65.764336 
L 190.529919 78.951319 
L 191.752262 76.951589 
L 192.974606 65.956606 
L 194.19695 56.86972 
L 195.419294 56.280304 
L 196.641638 61.685459 
L 197.863982 64.424275 
L 199.086326 57.769344 
L 200.30867 43.616186 
L 201.531014 32.227993 
L 202.753358 34.793251 
L 203.975702 54.193109 
L 205.198046 81.101072 
L 206.42039 98.935091 
L 207.642733 94.762792 
L 208.865077 68.67941 
L 210.087421 34.858011 
L 211.309765 13.082901 
L 212.532109 16.214029 
L 213.754453 41.980851 
L 214.976797 74.628819 
L 216.199141 95.224545 
L 217.421485 93.574347 
L 218.643829 73.805184 
L 219.866173 50.252706 
L 221.088517 37.065724 
L 222.31086 39.065453 
L 223.533204 50.060436 
L 224.755548 59.147323 
L 225.977892 59.736739 
L 227.200236 54.331584 
L 228.42258 51.592767 
L 229.644924 58.247699 
L 230.867268 72.400856 
L 232.089612 83.789049 
L 233.311956 81.223791 
L 234.5343 61.823933 
L 235.756644 34.915971 
L 236.978988 17.081952 
L 238.201331 21.254251 
L 239.423675 47.337633 
L 240.646019 81.159031 
L 241.868363 102.934141 
L 243.090707 99.803013 
L 244.313051 74.036192 
L 245.535395 41.388223 
L 246.757739 20.792497 
L 247.980083 22.442696 
L 249.202427 42.211858 
L 250.424771 65.764336 
L 251.647115 78.951319 
L 252.869459 76.951589 
L 254.091802 65.956606 
L 255.314146 56.86972 
L 256.53649 56.280304 
L 257.758834 61.685459 
L 258.981178 64.424275 
L 260.203522 57.769344 
L 261.425866 43.616186 
L 262.64821 32.227993 
L 263.870554 34.793251 
L 265.092898 54.193109 
L 266.315242 81.101072 
L 267.537586 98.935091 
L 268.759929 94.762792 
L 269.982273 68.67941 
L 271.204617 34.858011 
L 272.426961 13.082901 
L 273.649305 16.214029 
L 274.871649 41.980851 
L 276.093993 74.628819 
L 277.316337 95.224545 
L 278.538681 93.574347 
L 279.761025 73.805184 
L 280.983369 50.252706 
L 282.205713 37.065724 
L 283.428057 39.065453 
L 284.6504 50.060436 
L 285.872744 59.147323 
L 287.095088 59.736739 
L 288.317432 54.331584 
L 289.539776 51.592767 
L 290.76212 58.247699 
L 291.984464 72.400856 
L 293.206808 83.789049 
L 294.429152 81.223791 
L 295.651496 61.823933 
L 296.87384 34.915971 
L 298.096184 17.081952 
L 299.318528 21.254251 
L 300.540871 47.337633 
L 301.763215 81.159031 
L 302.985559 102.934141 
L 304.207903 99.803013 
L 305.430247 74.036192 
L 306.652591 41.388223 
L 307.874935 20.792497 
L 309.097279 22.442696 
L 310.319623 42.211858 
L 311.541967 65.764336 
L 312.764311 78.951319 
L 313.986655 76.951589 
L 315.208998 65.956606 
L 316.431342 56.86972 
L 317.653686 56.280304 
L 318.87603 61.685459 
L 320.098374 64.424275 
L 321.320718 57.769344 
L 322.543062 43.616186 
L 323.765406 32.227993 
L 324.98775 34.793251 
L 326.210094 54.193109 
L 327.432438 81.101072 
L 328.654782 98.935091 
L 329.877126 94.762792 
L 331.099469 68.67941 
L 332.321813 34.858011 
L 333.544157 13.082901 
L 334.766501 16.214029 
L 335.988845 41.980851 
L 337.211189 74.628819 
L 338.433533 95.224545 
L 339.655877 93.574347 
L 340.878221 73.805184 
L 342.100565 50.252706 
L 343.322909 37.065724 
L 344.545253 39.065453 
L 345.767597 50.060436 
L 346.98994 59.147323 
L 348.212284 59.736739 
L 349.434628 54.331584 
L 350.656972 51.592767 
L 351.879316 58.247699 
L 353.10166 72.400856 
L 354.324004 83.789049 
L 355.546348 81.223791 
L 356.768692 61.823933 
L 357.991036 34.915971 
L 359.21338 17.081952 
L 360.435724 21.254251 
L 361.658067 47.337633 
L 362.880411 81.159031 
L 364.102755 102.934141 
L 365.325099 99.803013 
L 366.547443 74.036192 
L 366.547443 74.036192 
" clip-path="url(#p5d0b1a929a)" style="fill: none; stroke: #1f77b4; stroke-width: 1.5; stroke-linecap: square"/>
   </g>
   <g id="patch_3">
    <path d="M 46.965625 107.426703 
L 46.965625 8.590339 
" style="fill: none; stroke: #000000; stroke-width: 0.8; stroke-linejoin: miter; stroke-linecap: square"/>
   </g>
   <g id="patch_4">
    <path d="M 381.765625 107.426703 
L 381.765625 8.590339 
" style="fill: none; stroke: #000000; stroke-width: 0.8; stroke-linejoin: miter; stroke-linecap: square"/>
   </g>
   <g id="patch_5">
    <path d="M 46.965625 107.426703 
L 381.765625 107.426703 
" style="fill: none; stroke: #000000; stroke-width: 0.8; stroke-linejoin: miter; stroke-linecap: square"/>
   </g>
   <g id="patch_6">
    <path d="M 46.965625 8.590339 
L 381.765625 8.590339 
" style="fill: none; stroke: #000000; stroke-width: 0.8; stroke-linejoin: miter; stroke-linecap: square"/>
   </g>
  </g>
  <g id="axes_2">
   <g id="patch_7">
    <path d="M 46.965625 226.030339 
L 381.765625 226.030339 
L 381.765625 127.193976 
L 46.965625 127.193976 
z
" style="fill: #ffffff"/>
   </g>
   <g id="matplotlib.axis_3">
    <g id="xtick_7">
     <g id="line2d_11">
      <g>
       <use xlink:href="#m947356479f" x="62.183807" y="226.030339" style="stroke: #000000; stroke-width: 0.8"/>
      </g>
     </g>
     <g id="text_12">
      <!-- 0 -->
      <g transform="translate(59.002557 240.628777)scale(0.1 -0.1)">
       <use xlink:href="#DejaVuSans-30"/>
      </g>
     </g>
    </g>
    <g id="xtick_8">
     <g id="line2d_12">
      <g>
       <use xlink:href="#m947356479f" x="123.547443" y="226.030339" style="stroke: #000000; stroke-width: 0.8"/>
      </g>
     </g>
     <g id="text_13">
      <!-- 50 -->
      <g transform="translate(117.184943 240.628777)scale(0.1 -0.1)">
       <use xlink:href="#DejaVuSans-35"/>
       <use xlink:href="#DejaVuSans-30" x="63.623047"/>
      </g>
     </g>
    </g>
    <g id="xtick_9">
     <g id="line2d_13">
      <g>
       <use xlink:href="#m947356479f" x="184.91108" y="226.030339" style="stroke: #000000; stroke-width: 0.8"/>
      </g>
     </g>
     <g id="text_14">
      <!-- 100 -->
      <g transform="translate(175.36733 240.628777)scale(0.1 -0.1)">
       <use xlink:href="#DejaVuSans-31"/>
       <use xlink:href="#DejaVuSans-30" x="63.623047"/>
       <use xlink:href="#DejaVuSans-30" x="127.246094"/>
      </g>
     </g>
    </g>
    <g id="xtick_10">
     <g id="line2d_14">
      <g>
       <use xlink:href="#m947356479f" x="246.274716" y="226.030339" style="stroke: #000000; stroke-width: 0.8"/>
      </g>
     </g>
     <g id="text_15">
      <!-- 150 -->
      <g transform="translate(236.730966 240.628777)scale(0.1 -0.1)">
       <use xlink:href="#DejaVuSans-31"/>
       <use xlink:href="#DejaVuSans-35" x="63.623047"/>
       <use xlink:href="#DejaVuSans-30" x="127.246094"/>
      </g>
     </g>
    </g>
    <g id="xtick_11">
     <g id="line2d_15">
      <g>
       <use xlink:href="#m947356479f" x="307.638352" y="226.030339" style="stroke: #000000; stroke-width: 0.8"/>
      </g>
     </g>
     <g id="text_16">
      <!-- 200 -->
      <g transform="translate(298.094602 240.628777)scale(0.1 -0.1)">
       <use xlink:href="#DejaVuSans-32"/>
       <use xlink:href="#DejaVuSans-30" x="63.623047"/>
       <use xlink:href="#DejaVuSans-30" x="127.246094"/>
      </g>
     </g>
    </g>
    <g id="xtick_12">
     <g id="line2d_16">
      <g>
       <use xlink:href="#m947356479f" x="369.001989" y="226.030339" style="stroke: #000000; stroke-width: 0.8"/>
      </g>
     </g>
     <g id="text_17">
      <!-- 250 -->
      <g transform="translate(359.458239 240.628777)scale(0.1 -0.1)">
       <use xlink:href="#DejaVuSans-32"/>
       <use xlink:href="#DejaVuSans-35" x="63.623047"/>
       <use xlink:href="#DejaVuSans-30" x="127.246094"/>
      </g>
     </g>
    </g>
    <g id="text_18">
     <!-- frequency [Hz] -->
     <g transform="translate(177.414063 254.306902)scale(0.1 -0.1)">
      <defs>
       <path id="DejaVuSans-66" d="M 2375 4863 
L 2375 4384 
L 1825 4384 
Q 1516 4384 1395 4259 
Q 1275 4134 1275 3809 
L 1275 3500 
L 2222 3500 
L 2222 3053 
L 1275 3053 
L 1275 0 
L 697 0 
L 697 3053 
L 147 3053 
L 147 3500 
L 697 3500 
L 697 3744 
Q 697 4328 969 4595 
Q 1241 4863 1831 4863 
L 2375 4863 
z
" transform="scale(0.015625)"/>
       <path id="DejaVuSans-72" d="M 2631 2963 
Q 2534 3019 2420 3045 
Q 2306 3072 2169 3072 
Q 1681 3072 1420 2755 
Q 1159 2438 1159 1844 
L 1159 0 
L 581 0 
L 581 3500 
L 1159 3500 
L 1159 2956 
Q 1341 3275 1631 3429 
Q 1922 3584 2338 3584 
Q 2397 3584 2469 3576 
Q 2541 3569 2628 3553 
L 2631 2963 
z
" transform="scale(0.015625)"/>
       <path id="DejaVuSans-71" d="M 947 1747 
Q 947 1113 1208 752 
Q 1469 391 1925 391 
Q 2381 391 2643 752 
Q 2906 1113 2906 1747 
Q 2906 2381 2643 2742 
Q 2381 3103 1925 3103 
Q 1469 3103 1208 2742 
Q 947 2381 947 1747 
z
M 2906 525 
Q 2725 213 2448 61 
Q 2172 -91 1784 -91 
Q 1150 -91 751 415 
Q 353 922 353 1747 
Q 353 2572 751 3078 
Q 1150 3584 1784 3584 
Q 2172 3584 2448 3432 
Q 2725 3281 2906 2969 
L 2906 3500 
L 3481 3500 
L 3481 -1331 
L 2906 -1331 
L 2906 525 
z
" transform="scale(0.015625)"/>
       <path id="DejaVuSans-75" d="M 544 1381 
L 544 3500 
L 1119 3500 
L 1119 1403 
Q 1119 906 1312 657 
Q 1506 409 1894 409 
Q 2359 409 2629 706 
Q 2900 1003 2900 1516 
L 2900 3500 
L 3475 3500 
L 3475 0 
L 2900 0 
L 2900 538 
Q 2691 219 2414 64 
Q 2138 -91 1772 -91 
Q 1169 -91 856 284 
Q 544 659 544 1381 
z
M 1991 3584 
L 1991 3584 
z
" transform="scale(0.015625)"/>
       <path id="DejaVuSans-63" d="M 3122 3366 
L 3122 2828 
Q 2878 2963 2633 3030 
Q 2388 3097 2138 3097 
Q 1578 3097 1268 2742 
Q 959 2388 959 1747 
Q 959 1106 1268 751 
Q 1578 397 2138 397 
Q 2388 397 2633 464 
Q 2878 531 3122 666 
L 3122 134 
Q 2881 22 2623 -34 
Q 2366 -91 2075 -91 
Q 1284 -91 818 406 
Q 353 903 353 1747 
Q 353 2603 823 3093 
Q 1294 3584 2113 3584 
Q 2378 3584 2631 3529 
Q 2884 3475 3122 3366 
z
" transform="scale(0.015625)"/>
       <path id="DejaVuSans-79" d="M 2059 -325 
Q 1816 -950 1584 -1140 
Q 1353 -1331 966 -1331 
L 506 -1331 
L 506 -850 
L 844 -850 
Q 1081 -850 1212 -737 
Q 1344 -625 1503 -206 
L 1606 56 
L 191 3500 
L 800 3500 
L 1894 763 
L 2988 3500 
L 3597 3500 
L 2059 -325 
z
" transform="scale(0.015625)"/>
       <path id="DejaVuSans-48" d="M 628 4666 
L 1259 4666 
L 1259 2753 
L 3553 2753 
L 3553 4666 
L 4184 4666 
L 4184 0 
L 3553 0 
L 3553 2222 
L 1259 2222 
L 1259 0 
L 628 0 
L 628 4666 
z
" transform="scale(0.015625)"/>
       <path id="DejaVuSans-7a" d="M 353 3500 
L 3084 3500 
L 3084 2975 
L 922 459 
L 3084 459 
L 3084 0 
L 275 0 
L 275 525 
L 2438 3041 
L 353 3041 
L 353 3500 
z
" transform="scale(0.015625)"/>
      </defs>
      <use xlink:href="#DejaVuSans-66"/>
      <use xlink:href="#DejaVuSans-72" x="35.205078"/>
      <use xlink:href="#DejaVuSans-65" x="74.068359"/>
      <use xlink:href="#DejaVuSans-71" x="135.591797"/>
      <use xlink:href="#DejaVuSans-75" x="199.068359"/>
      <use xlink:href="#DejaVuSans-65" x="262.447266"/>
      <use xlink:href="#DejaVuSans-6e" x="323.970703"/>
      <use xlink:href="#DejaVuSans-63" x="387.349609"/>
      <use xlink:href="#DejaVuSans-79" x="442.330078"/>
      <use xlink:href="#DejaVuSans-20" x="501.509766"/>
      <use xlink:href="#DejaVuSans-5b" x="533.296875"/>
      <use xlink:href="#DejaVuSans-48" x="572.310547"/>
      <use xlink:href="#DejaVuSans-7a" x="647.505859"/>
      <use xlink:href="#DejaVuSans-5d" x="699.996094"/>
     </g>
    </g>
   </g>
   <g id="matplotlib.axis_4">
    <g id="ytick_4">
     <g id="line2d_17">
      <g>
       <use xlink:href="#m3f0f2b1c8f" x="46.965625" y="221.537777" style="stroke: #000000; stroke-width: 0.8"/>
      </g>
     </g>
     <g id="text_19">
      <!-- 0 -->
      <g transform="translate(33.603125 225.336996)scale(0.1 -0.1)">
       <use xlink:href="#DejaVuSans-30"/>
      </g>
     </g>
    </g>
    <g id="ytick_5">
     <g id="line2d_18">
      <g>
       <use xlink:href="#m3f0f2b1c8f" x="46.965625" y="185.597281" style="stroke: #000000; stroke-width: 0.8"/>
      </g>
     </g>
     <g id="text_20">
      <!-- 50 -->
      <g transform="translate(27.240625 189.3965)scale(0.1 -0.1)">
       <use xlink:href="#DejaVuSans-35"/>
       <use xlink:href="#DejaVuSans-30" x="63.623047"/>
      </g>
     </g>
    </g>
    <g id="ytick_6">
     <g id="line2d_19">
      <g>
       <use xlink:href="#m3f0f2b1c8f" x="46.965625" y="149.656786" style="stroke: #000000; stroke-width: 0.8"/>
      </g>
     </g>
     <g id="text_21">
      <!-- 100 -->
      <g transform="translate(20.878125 153.456004)scale(0.1 -0.1)">
       <use xlink:href="#DejaVuSans-31"/>
       <use xlink:href="#DejaVuSans-30" x="63.623047"/>
       <use xlink:href="#DejaVuSans-30" x="127.246094"/>
      </g>
     </g>
    </g>
    <g id="text_22">
     <!-- abs(DFT(signal)) -->
     <g transform="translate(14.798438 217.740283)rotate(-90)scale(0.1 -0.1)">
      <defs>
       <path id="DejaVuSans-62" d="M 3116 1747 
Q 3116 2381 2855 2742 
Q 2594 3103 2138 3103 
Q 1681 3103 1420 2742 
Q 1159 2381 1159 1747 
Q 1159 1113 1420 752 
Q 1681 391 2138 391 
Q 2594 391 2855 752 
Q 3116 1113 3116 1747 
z
M 1159 2969 
Q 1341 3281 1617 3432 
Q 1894 3584 2278 3584 
Q 2916 3584 3314 3078 
Q 3713 2572 3713 1747 
Q 3713 922 3314 415 
Q 2916 -91 2278 -91 
Q 1894 -91 1617 61 
Q 1341 213 1159 525 
L 1159 0 
L 581 0 
L 581 4863 
L 1159 4863 
L 1159 2969 
z
" transform="scale(0.015625)"/>
       <path id="DejaVuSans-28" d="M 1984 4856 
Q 1566 4138 1362 3434 
Q 1159 2731 1159 2009 
Q 1159 1288 1364 580 
Q 1569 -128 1984 -844 
L 1484 -844 
Q 1016 -109 783 600 
Q 550 1309 550 2009 
Q 550 2706 781 3412 
Q 1013 4119 1484 4856 
L 1984 4856 
z
" transform="scale(0.015625)"/>
       <path id="DejaVuSans-44" d="M 1259 4147 
L 1259 519 
L 2022 519 
Q 2988 519 3436 956 
Q 3884 1394 3884 2338 
Q 3884 3275 3436 3711 
Q 2988 4147 2022 4147 
L 1259 4147 
z
M 628 4666 
L 1925 4666 
Q 3281 4666 3915 4102 
Q 4550 3538 4550 2338 
Q 4550 1131 3912 565 
Q 3275 0 1925 0 
L 628 0 
L 628 4666 
z
" transform="scale(0.015625)"/>
       <path id="DejaVuSans-46" d="M 628 4666 
L 3309 4666 
L 3309 4134 
L 1259 4134 
L 1259 2759 
L 3109 2759 
L 3109 2228 
L 1259 2228 
L 1259 0 
L 628 0 
L 628 4666 
z
" transform="scale(0.015625)"/>
       <path id="DejaVuSans-54" d="M -19 4666 
L 3928 4666 
L 3928 4134 
L 2272 4134 
L 2272 0 
L 1638 0 
L 1638 4134 
L -19 4134 
L -19 4666 
z
" transform="scale(0.015625)"/>
       <path id="DejaVuSans-29" d="M 513 4856 
L 1013 4856 
Q 1481 4119 1714 3412 
Q 1947 2706 1947 2009 
Q 1947 1309 1714 600 
Q 1481 -109 1013 -844 
L 513 -844 
Q 928 -128 1133 580 
Q 1338 1288 1338 2009 
Q 1338 2731 1133 3434 
Q 928 4138 513 4856 
z
" transform="scale(0.015625)"/>
      </defs>
      <use xlink:href="#DejaVuSans-61"/>
      <use xlink:href="#DejaVuSans-62" x="61.279297"/>
      <use xlink:href="#DejaVuSans-73" x="124.755859"/>
      <use xlink:href="#DejaVuSans-28" x="176.855469"/>
      <use xlink:href="#DejaVuSans-44" x="215.869141"/>
      <use xlink:href="#DejaVuSans-46" x="292.871094"/>
      <use xlink:href="#DejaVuSans-54" x="348.640625"/>
      <use xlink:href="#DejaVuSans-28" x="409.724609"/>
      <use xlink:href="#DejaVuSans-73" x="448.738281"/>
      <use xlink:href="#DejaVuSans-69" x="500.837891"/>
      <use xlink:href="#DejaVuSans-67" x="528.621094"/>
      <use xlink:href="#DejaVuSans-6e" x="592.097656"/>
      <use xlink:href="#DejaVuSans-61" x="655.476562"/>
      <use xlink:href="#DejaVuSans-6c" x="716.755859"/>
      <use xlink:href="#DejaVuSans-29" x="744.539062"/>
      <use xlink:href="#DejaVuSans-29" x="783.552734"/>
     </g>
    </g>
   </g>
   <g id="line2d_20">
    <path d="M 62.183807 221.537777 
L 64.638352 221.537777 
L 67.092898 221.537777 
L 69.547443 221.537777 
L 72.001989 221.537777 
L 74.456534 221.537777 
L 76.91108 221.537777 
L 79.365625 221.537777 
L 81.82017 221.537777 
L 84.274716 221.537777 
L 86.729261 221.537777 
L 89.183807 221.537777 
L 91.638352 221.537777 
L 94.092898 221.537777 
L 96.547443 221.537777 
L 99.001989 221.537777 
L 101.456534 221.537777 
L 103.91108 221.537777 
L 106.365625 221.537777 
L 108.82017 221.537777 
L 111.274716 221.537777 
L 113.729261 221.537777 
L 116.183807 221.537777 
L 118.638352 221.537777 
L 121.092898 221.537777 
L 123.547443 131.686538 
L 126.001989 221.537777 
L 128.456534 221.537777 
L 130.91108 221.537777 
L 133.365625 221.537777 
L 135.82017 221.537777 
L 138.274716 221.537777 
L 140.729261 221.537777 
L 143.183807 221.537777 
L 145.638352 221.537777 
L 148.092898 131.686538 
L 150.547443 221.537777 
L 153.001989 221.537777 
L 155.456534 221.537777 
L 157.91108 221.537777 
L 160.365625 221.537777 
L 162.82017 221.537777 
L 165.274716 221.537777 
L 167.729261 221.537777 
L 170.183807 221.537777 
L 172.638352 221.537777 
L 175.092898 221.537777 
L 177.547443 221.537777 
L 180.001989 221.537777 
L 182.456534 221.537777 
L 184.91108 221.537777 
L 187.365625 221.537777 
L 189.82017 221.537777 
L 192.274716 221.537777 
L 194.729261 221.537777 
L 197.183807 221.537777 
L 199.638352 221.537777 
L 202.092898 221.537777 
L 204.547443 221.537777 
L 207.001989 221.537777 
L 209.456534 221.537777 
L 211.91108 221.537777 
L 214.365625 221.537777 
L 216.82017 221.537777 
L 219.274716 221.537777 
L 221.729261 221.537777 
L 224.183807 221.537777 
L 226.638352 221.537777 
L 229.092898 221.537777 
L 231.547443 221.537777 
L 234.001989 221.537777 
L 236.456534 221.537777 
L 238.91108 221.537777 
L 241.365625 221.537777 
L 243.82017 221.537777 
L 246.274716 221.537777 
L 248.729261 221.537777 
L 251.183807 221.537777 
L 253.638352 221.537777 
L 256.092898 221.537777 
L 258.547443 221.537777 
L 261.001989 221.537777 
L 263.456534 221.537777 
L 265.91108 221.537777 
L 268.365625 221.537777 
L 270.82017 221.537777 
L 273.274716 221.537777 
L 275.729261 221.537777 
L 278.183807 221.537777 
L 280.638352 221.537777 
L 283.092898 221.537777 
L 285.547443 221.537777 
L 288.001989 221.537777 
L 290.456534 221.537777 
L 292.91108 221.537777 
L 295.365625 221.537777 
L 297.82017 221.537777 
L 300.274716 221.537777 
L 302.729261 221.537777 
L 305.183807 221.537777 
L 307.638352 221.537777 
L 310.092898 221.537777 
L 312.547443 221.537777 
L 315.001989 221.537777 
L 317.456534 221.537777 
L 319.91108 221.537777 
L 322.365625 221.537777 
L 324.82017 221.537777 
L 327.274716 221.537777 
L 329.729261 221.537777 
L 332.183807 221.537777 
L 334.638352 221.537777 
L 337.092898 221.537777 
L 339.547443 221.537777 
L 342.001989 221.537777 
L 344.456534 221.537777 
L 346.91108 221.537777 
L 349.365625 221.537777 
L 351.82017 221.537777 
L 354.274716 221.537777 
L 356.729261 221.537777 
L 359.183807 221.537777 
L 361.638352 221.537777 
L 364.092898 221.537777 
L 366.547443 221.537777 
" clip-path="url(#pdd510071f2)" style="fill: none; stroke: #1f77b4; stroke-width: 1.5; stroke-linecap: square"/>
   </g>
   <g id="patch_8">
    <path d="M 46.965625 226.030339 
L 46.965625 127.193976 
" style="fill: none; stroke: #000000; stroke-width: 0.8; stroke-linejoin: miter; stroke-linecap: square"/>
   </g>
   <g id="patch_9">
    <path d="M 381.765625 226.030339 
L 381.765625 127.193976 
" style="fill: none; stroke: #000000; stroke-width: 0.8; stroke-linejoin: miter; stroke-linecap: square"/>
   </g>
   <g id="patch_10">
    <path d="M 46.965625 226.030339 
L 381.765625 226.030339 
" style="fill: none; stroke: #000000; stroke-width: 0.8; stroke-linejoin: miter; stroke-linecap: square"/>
   </g>
   <g id="patch_11">
    <path d="M 46.965625 127.193976 
L 381.765625 127.193976 
" style="fill: none; stroke: #000000; stroke-width: 0.8; stroke-linejoin: miter; stroke-linecap: square"/>
   </g>
  </g>
 </g>
 <defs>
  <clipPath id="p5d0b1a929a">
   <rect x="46.965625" y="8.590339" width="334.8" height="98.836364"/>
  </clipPath>
  <clipPath id="pdd510071f2">
   <rect x="46.965625" y="127.193976" width="334.8" height="98.836364"/>
  </clipPath>
 </defs>
</svg>
