<?xml version="1.0" encoding="utf-8" standalone="no"?>
<!DOCTYPE svg PUBLIC "-//W3C//DTD SVG 1.1//EN"
  "http://www.w3.org/Graphics/SVG/1.1/DTD/svg11.dtd">
<svg xmlns:xlink="http://www.w3.org/1999/xlink" width="375.2875pt" height="262.19625pt" viewBox="0 0 375.2875 262.19625" xmlns="http://www.w3.org/2000/svg" version="1.1">
 <metadata>
  <rdf:RDF xmlns:dc="http://purl.org/dc/elements/1.1/" xmlns:cc="http://creativecommons.org/ns#" xmlns:rdf="http://www.w3.org/1999/02/22-rdf-syntax-ns#">
   <cc:Work>
    <dc:type rdf:resource="http://purl.org/dc/dcmitype/StillImage"/>
    <dc:date>2022-01-03T16:21:26.212056</dc:date>
    <dc:format>image/svg+xml</dc:format>
    <dc:creator>
     <cc:Agent>
      <dc:title>Matplotlib v3.5.1, https://matplotlib.org/</dc:title>
     </cc:Agent>
    </dc:creator>
   </cc:Work>
  </rdf:RDF>
 </metadata>
 <defs>
  <style type="text/css">*{stroke-linejoin: round; stroke-linecap: butt}</style>
 </defs>
 <g id="figure_1">
  <g id="patch_1">
   <path d="M 0 262.19625 
L 375.2875 262.19625 
L 375.2875 0 
L 0 0 
L 0 262.19625 
z
" style="fill: none"/>
  </g>
  <g id="axes_1">
   <g id="patch_2">
    <path d="M 33.2875 224.64 
L 368.0875 224.64 
L 368.0875 7.2 
L 33.2875 7.2 
z
" style="fill: #ffffff"/>
   </g>
   <g id="matplotlib.axis_1">
    <g id="xtick_1">
     <g id="line2d_1">
      <defs>
       <path id="m1b6ea8e738" d="M 0 0 
L 0 3.5 
" style="stroke: #000000; stroke-width: 0.8"/>
      </defs>
      <g>
       <use xlink:href="#m1b6ea8e738" x="48.505682" y="224.64" style="stroke: #000000; stroke-width: 0.8"/>
      </g>
     </g>
     <g id="text_1">
      <!-- 0 -->
      <g transform="translate(45.324432 239.238437)scale(0.1 -0.1)">
       <defs>
        <path id="DejaVuSans-30" d="M 2034 4250 
Q 1547 4250 1301 3770 
Q 1056 3291 1056 2328 
Q 1056 1369 1301 889 
Q 1547 409 2034 409 
Q 2525 409 2770 889 
Q 3016 1369 3016 2328 
Q 3016 3291 2770 3770 
Q 2525 4250 2034 4250 
z
M 2034 4750 
Q 2819 4750 3233 4129 
Q 3647 3509 3647 2328 
Q 3647 1150 3233 529 
Q 2819 -91 2034 -91 
Q 1250 -91 836 529 
Q 422 1150 422 2328 
Q 422 3509 836 4129 
Q 1250 4750 2034 4750 
z
" transform="scale(0.015625)"/>
       </defs>
       <use xlink:href="#DejaVuSans-30"/>
      </g>
     </g>
    </g>
    <g id="xtick_2">
     <g id="line2d_2">
      <g>
       <use xlink:href="#m1b6ea8e738" x="99.402611" y="224.64" style="stroke: #000000; stroke-width: 0.8"/>
      </g>
     </g>
     <g id="text_2">
      <!-- 5 -->
      <g transform="translate(96.221361 239.238437)scale(0.1 -0.1)">
       <defs>
        <path id="DejaVuSans-35" d="M 691 4666 
L 3169 4666 
L 3169 4134 
L 1269 4134 
L 1269 2991 
Q 1406 3038 1543 3061 
Q 1681 3084 1819 3084 
Q 2600 3084 3056 2656 
Q 3513 2228 3513 1497 
Q 3513 744 3044 326 
Q 2575 -91 1722 -91 
Q 1428 -91 1123 -41 
Q 819 9 494 109 
L 494 744 
Q 775 591 1075 516 
Q 1375 441 1709 441 
Q 2250 441 2565 725 
Q 2881 1009 2881 1497 
Q 2881 1984 2565 2268 
Q 2250 2553 1709 2553 
Q 1456 2553 1204 2497 
Q 953 2441 691 2322 
L 691 4666 
z
" transform="scale(0.015625)"/>
       </defs>
       <use xlink:href="#DejaVuSans-35"/>
      </g>
     </g>
    </g>
    <g id="xtick_3">
     <g id="line2d_3">
      <g>
       <use xlink:href="#m1b6ea8e738" x="150.29954" y="224.64" style="stroke: #000000; stroke-width: 0.8"/>
      </g>
     </g>
     <g id="text_3">
      <!-- 10 -->
      <g transform="translate(143.93704 239.238437)scale(0.1 -0.1)">
       <defs>
        <path id="DejaVuSans-31" d="M 794 531 
L 1825 531 
L 1825 4091 
L 703 3866 
L 703 4441 
L 1819 4666 
L 2450 4666 
L 2450 531 
L 3481 531 
L 3481 0 
L 794 0 
L 794 531 
z
" transform="scale(0.015625)"/>
       </defs>
       <use xlink:href="#DejaVuSans-31"/>
       <use xlink:href="#DejaVuSans-30" x="63.623047"/>
      </g>
     </g>
    </g>
    <g id="xtick_4">
     <g id="line2d_4">
      <g>
       <use xlink:href="#m1b6ea8e738" x="201.196469" y="224.64" style="stroke: #000000; stroke-width: 0.8"/>
      </g>
     </g>
     <g id="text_4">
      <!-- 15 -->
      <g transform="translate(194.833969 239.238437)scale(0.1 -0.1)">
       <use xlink:href="#DejaVuSans-31"/>
       <use xlink:href="#DejaVuSans-35" x="63.623047"/>
      </g>
     </g>
    </g>
    <g id="xtick_5">
     <g id="line2d_5">
      <g>
       <use xlink:href="#m1b6ea8e738" x="252.093398" y="224.64" style="stroke: #000000; stroke-width: 0.8"/>
      </g>
     </g>
     <g id="text_5">
      <!-- 20 -->
      <g transform="translate(245.730898 239.238437)scale(0.1 -0.1)">
       <defs>
        <path id="DejaVuSans-32" d="M 1228 531 
L 3431 531 
L 3431 0 
L 469 0 
L 469 531 
Q 828 903 1448 1529 
Q 2069 2156 2228 2338 
Q 2531 2678 2651 2914 
Q 2772 3150 2772 3378 
Q 2772 3750 2511 3984 
Q 2250 4219 1831 4219 
Q 1534 4219 1204 4116 
Q 875 4013 500 3803 
L 500 4441 
Q 881 4594 1212 4672 
Q 1544 4750 1819 4750 
Q 2544 4750 2975 4387 
Q 3406 4025 3406 3419 
Q 3406 3131 3298 2873 
Q 3191 2616 2906 2266 
Q 2828 2175 2409 1742 
Q 1991 1309 1228 531 
z
" transform="scale(0.015625)"/>
       </defs>
       <use xlink:href="#DejaVuSans-32"/>
       <use xlink:href="#DejaVuSans-30" x="63.623047"/>
      </g>
     </g>
    </g>
    <g id="xtick_6">
     <g id="line2d_6">
      <g>
       <use xlink:href="#m1b6ea8e738" x="302.990328" y="224.64" style="stroke: #000000; stroke-width: 0.8"/>
      </g>
     </g>
     <g id="text_6">
      <!-- 25 -->
      <g transform="translate(296.627828 239.238437)scale(0.1 -0.1)">
       <use xlink:href="#DejaVuSans-32"/>
       <use xlink:href="#DejaVuSans-35" x="63.623047"/>
      </g>
     </g>
    </g>
    <g id="xtick_7">
     <g id="line2d_7">
      <g>
       <use xlink:href="#m1b6ea8e738" x="353.887257" y="224.64" style="stroke: #000000; stroke-width: 0.8"/>
      </g>
     </g>
     <g id="text_7">
      <!-- 30 -->
      <g transform="translate(347.524757 239.238437)scale(0.1 -0.1)">
       <defs>
        <path id="DejaVuSans-33" d="M 2597 2516 
Q 3050 2419 3304 2112 
Q 3559 1806 3559 1356 
Q 3559 666 3084 287 
Q 2609 -91 1734 -91 
Q 1441 -91 1130 -33 
Q 819 25 488 141 
L 488 750 
Q 750 597 1062 519 
Q 1375 441 1716 441 
Q 2309 441 2620 675 
Q 2931 909 2931 1356 
Q 2931 1769 2642 2001 
Q 2353 2234 1838 2234 
L 1294 2234 
L 1294 2753 
L 1863 2753 
Q 2328 2753 2575 2939 
Q 2822 3125 2822 3475 
Q 2822 3834 2567 4026 
Q 2313 4219 1838 4219 
Q 1578 4219 1281 4162 
Q 984 4106 628 3988 
L 628 4550 
Q 988 4650 1302 4700 
Q 1616 4750 1894 4750 
Q 2613 4750 3031 4423 
Q 3450 4097 3450 3541 
Q 3450 3153 3228 2886 
Q 3006 2619 2597 2516 
z
" transform="scale(0.015625)"/>
       </defs>
       <use xlink:href="#DejaVuSans-33"/>
       <use xlink:href="#DejaVuSans-30" x="63.623047"/>
      </g>
     </g>
    </g>
    <g id="text_8">
     <!-- t -->
     <g transform="translate(198.727344 252.916562)scale(0.1 -0.1)">
      <defs>
       <path id="DejaVuSans-74" d="M 1172 4494 
L 1172 3500 
L 2356 3500 
L 2356 3053 
L 1172 3053 
L 1172 1153 
Q 1172 725 1289 603 
Q 1406 481 1766 481 
L 2356 481 
L 2356 0 
L 1766 0 
Q 1100 0 847 248 
Q 594 497 594 1153 
L 594 3053 
L 172 3053 
L 172 3500 
L 594 3500 
L 594 4494 
L 1172 4494 
z
" transform="scale(0.015625)"/>
      </defs>
      <use xlink:href="#DejaVuSans-74"/>
     </g>
    </g>
   </g>
   <g id="matplotlib.axis_2">
    <g id="ytick_1">
     <g id="line2d_8">
      <defs>
       <path id="m2ce2b36066" d="M 0 0 
L -3.5 0 
" style="stroke: #000000; stroke-width: 0.8"/>
      </defs>
      <g>
       <use xlink:href="#m2ce2b36066" x="33.2875" y="200.107302" style="stroke: #000000; stroke-width: 0.8"/>
      </g>
     </g>
     <g id="text_9">
      <!-- 50 -->
      <g transform="translate(13.5625 203.90652)scale(0.1 -0.1)">
       <use xlink:href="#DejaVuSans-35"/>
       <use xlink:href="#DejaVuSans-30" x="63.623047"/>
      </g>
     </g>
    </g>
    <g id="ytick_2">
     <g id="line2d_9">
      <g>
       <use xlink:href="#m2ce2b36066" x="33.2875" y="163.081388" style="stroke: #000000; stroke-width: 0.8"/>
      </g>
     </g>
     <g id="text_10">
      <!-- 100 -->
      <g transform="translate(7.2 166.880606)scale(0.1 -0.1)">
       <use xlink:href="#DejaVuSans-31"/>
       <use xlink:href="#DejaVuSans-30" x="63.623047"/>
       <use xlink:href="#DejaVuSans-30" x="127.246094"/>
      </g>
     </g>
    </g>
    <g id="ytick_3">
     <g id="line2d_10">
      <g>
       <use xlink:href="#m2ce2b36066" x="33.2875" y="126.055474" style="stroke: #000000; stroke-width: 0.8"/>
      </g>
     </g>
     <g id="text_11">
      <!-- 150 -->
      <g transform="translate(7.2 129.854692)scale(0.1 -0.1)">
       <use xlink:href="#DejaVuSans-31"/>
       <use xlink:href="#DejaVuSans-35" x="63.623047"/>
       <use xlink:href="#DejaVuSans-30" x="127.246094"/>
      </g>
     </g>
    </g>
    <g id="ytick_4">
     <g id="line2d_11">
      <g>
       <use xlink:href="#m2ce2b36066" x="33.2875" y="89.029559" style="stroke: #000000; stroke-width: 0.8"/>
      </g>
     </g>
     <g id="text_12">
      <!-- 200 -->
      <g transform="translate(7.2 92.828778)scale(0.1 -0.1)">
       <use xlink:href="#DejaVuSans-32"/>
       <use xlink:href="#DejaVuSans-30" x="63.623047"/>
       <use xlink:href="#DejaVuSans-30" x="127.246094"/>
      </g>
     </g>
    </g>
    <g id="ytick_5">
     <g id="line2d_12">
      <g>
       <use xlink:href="#m2ce2b36066" x="33.2875" y="52.003645" style="stroke: #000000; stroke-width: 0.8"/>
      </g>
     </g>
     <g id="text_13">
      <!-- 250 -->
      <g transform="translate(7.2 55.802864)scale(0.1 -0.1)">
       <use xlink:href="#DejaVuSans-32"/>
       <use xlink:href="#DejaVuSans-35" x="63.623047"/>
       <use xlink:href="#DejaVuSans-30" x="127.246094"/>
      </g>
     </g>
    </g>
    <g id="ytick_6">
     <g id="line2d_13">
      <g>
       <use xlink:href="#m2ce2b36066" x="33.2875" y="14.977731" style="stroke: #000000; stroke-width: 0.8"/>
      </g>
     </g>
     <g id="text_14">
      <!-- 300 -->
      <g transform="translate(7.2 18.77695)scale(0.1 -0.1)">
       <use xlink:href="#DejaVuSans-33"/>
       <use xlink:href="#DejaVuSans-30" x="63.623047"/>
       <use xlink:href="#DejaVuSans-30" x="127.246094"/>
      </g>
     </g>
    </g>
   </g>
   <g id="line2d_14">
    <path d="M 48.505682 185.296936 
L 50.541559 181.350782 
L 52.577436 176.743381 
L 54.613313 171.426874 
L 56.64919 165.350389 
L 58.685068 158.461214 
L 60.720945 150.704807 
L 62.756822 142.043618 
L 64.792699 132.475077 
L 66.828576 121.884641 
L 68.864453 110.24694 
L 71.918269 91.052509 
L 80.061778 37.370073 
L 81.079716 31.824972 
L 82.097655 27.025889 
L 83.115594 23.161509 
L 84.133532 20.428308 
L 85.151471 19.030549 
L 86.169409 19.177989 
L 87.187348 21.036612 
L 88.205287 24.721739 
L 89.223225 30.264042 
L 90.241164 37.596577 
L 91.259102 46.554785 
L 93.294979 68.201916 
L 98.384672 126.364804 
L 100.42055 145.977757 
L 101.438488 154.259492 
L 102.456427 161.325184 
L 103.474365 167.38908 
L 104.492304 172.634037 
L 105.510242 177.150735 
L 106.528181 181.021587 
L 107.54612 184.320733 
L 108.564058 187.114044 
L 109.581997 189.45912 
L 110.599935 191.405289 
L 111.617874 192.994479 
L 112.635813 194.271189 
L 113.653751 195.270571 
L 114.67169 196.021345 
L 115.689628 196.548224 
L 116.707567 196.871916 
L 117.725505 197.009126 
L 118.743444 196.972552 
L 119.761383 196.770889 
L 120.779321 196.408826 
L 121.79726 195.888149 
L 122.815198 195.218921 
L 123.833137 194.404736 
L 125.869014 192.3425 
L 127.904891 189.697594 
L 129.940768 186.456801 
L 131.976646 182.597529 
L 134.012523 178.089791 
L 136.0484 172.896565 
L 138.084277 166.944301 
L 140.120154 160.164744 
L 142.156031 152.502 
L 144.191909 143.912532 
L 146.227786 134.36516 
L 148.263663 123.841065 
L 150.29954 112.333784 
L 152.335417 99.853269 
L 155.389233 79.607272 
L 160.478926 44.75947 
L 162.514803 32.555867 
L 163.532742 27.371268 
L 164.55068 23.029412 
L 165.568619 19.724381 
L 166.586557 17.66676 
L 167.604496 17.083636 
L 168.622435 18.211556 
L 169.640373 21.183481 
L 170.658312 26.060768 
L 171.67625 32.817392 
L 172.694189 41.32193 
L 173.712128 51.337569 
L 175.748005 74.49376 
L 178.80182 110.99358 
L 180.837698 132.619087 
L 182.873575 150.559743 
L 183.891513 158.02211 
L 184.909452 164.480056 
L 185.927391 169.986594 
L 186.945329 174.636617 
L 187.963268 178.566899 
L 189.999145 184.97368 
L 191.017083 187.537422 
L 192.035022 189.679427 
L 193.052961 191.453067 
L 194.070899 192.903629 
L 195.088838 194.06831 
L 196.106776 194.97622 
L 197.124715 195.648384 
L 198.142654 196.097736 
L 199.160592 196.336178 
L 200.178531 196.389916 
L 201.196469 196.269969 
L 202.214408 195.984748 
L 203.232346 195.541274 
L 204.250285 194.945188 
L 205.268224 194.200745 
L 207.304101 192.276884 
L 209.339978 189.776769 
L 211.375855 186.6951 
L 213.411732 182.999524 
L 215.447609 178.648821 
L 217.483487 173.599132 
L 219.519364 167.803955 
L 221.555241 161.214147 
L 223.591118 153.777927 
L 225.626995 145.44196 
L 227.662872 136.209976 
L 229.69875 125.991986 
L 231.734627 114.723142 
L 233.770504 102.449969 
L 236.82432 82.53296 
L 242.931951 41.682937 
L 244.967828 30.255957 
L 245.985767 25.655191 
L 247.003706 22.046849 
L 248.021644 19.624189 
L 249.039583 18.584713 
L 250.057521 19.130159 
L 251.07546 21.46331 
L 252.093398 25.67269 
L 253.111337 31.712906 
L 254.129276 39.467846 
L 255.147214 48.751622 
L 257.183091 70.813258 
L 261.254846 118.13508 
L 263.290723 138.4295 
L 264.308661 147.219348 
L 265.3266 155.037205 
L 266.344539 161.890221 
L 267.362477 167.831514 
L 268.380416 172.954079 
L 269.398354 177.356351 
L 270.416293 181.126119 
L 271.434232 184.34069 
L 272.45217 187.066887 
L 273.470109 189.361051 
L 274.488047 191.269037 
L 275.505986 192.82622 
L 276.523924 194.065933 
L 277.541863 195.032557 
L 278.559802 195.753347 
L 279.57774 196.251374 
L 280.595679 196.54633 
L 281.613617 196.65452 
L 282.631556 196.58887 
L 283.649495 196.358922 
L 284.667433 195.970836 
L 285.685372 195.427389 
L 286.70331 194.73368 
L 287.721249 193.895542 
L 289.757126 191.785199 
L 291.793003 189.089501 
L 293.82888 185.793145 
L 295.864758 181.872391 
L 297.900635 177.295059 
L 299.936512 172.04358 
L 301.972389 166.050752 
L 304.008266 159.219398 
L 306.044143 151.478214 
L 308.080021 142.781771 
L 310.115898 133.110521 
L 312.151775 122.470791 
L 314.187652 110.89479 
L 317.241468 91.909415 
L 319.277345 78.257172 
L 324.367038 42.218239 
L 325.384976 36.074504 
L 326.402915 30.685559 
L 327.420854 26.19781 
L 328.438792 22.745131 
L 329.456731 20.448862 
L 330.474669 19.41781 
L 331.492608 19.748251 
L 332.510547 21.523923 
L 333.528485 24.816036 
L 334.546424 29.683262 
L 335.564362 36.171743 
L 336.582301 44.315087 
L 337.600239 54.134367 
L 339.636117 77.291929 
L 342.689932 113.228642 
L 344.72581 134.293743 
L 346.761687 151.635064 
L 347.779625 158.863972 
L 348.797564 165.188458 
L 349.815502 170.683902 
L 350.833441 175.426664 
L 351.85138 179.492238 
L 352.869318 182.955259 
L 352.869318 182.955259 
" clip-path="url(#pb51f62f7b3)" style="fill: none; stroke: #1f77b4; stroke-width: 1.5; stroke-linecap: square"/>
   </g>
   <g id="line2d_15">
    <path d="M 48.505682 200.107302 
L 50.541559 203.575926 
L 52.577436 206.471803 
L 54.613313 208.854515 
L 56.64919 210.77123 
L 58.685068 212.255944 
L 60.720945 213.329486 
L 62.756822 213.989462 
L 64.792699 214.20221 
L 66.828576 213.988088 
L 67.846515 213.714082 
L 68.864453 213.317159 
L 69.882392 212.783637 
L 70.900331 212.095852 
L 71.918269 211.232166 
L 72.936208 210.166963 
L 73.954146 208.87065 
L 74.972085 207.309657 
L 75.990024 205.446436 
L 77.007962 203.239464 
L 78.025901 200.64324 
L 79.043839 197.612699 
L 80.061778 194.076287 
L 81.079716 189.948886 
L 82.097655 185.157219 
L 83.115594 179.639937 
L 84.133532 173.347613 
L 85.151471 166.242747 
L 87.187348 149.526406 
L 89.223225 130.021946 
L 92.277041 99.352645 
L 93.294979 90.049791 
L 94.312918 81.913559 
L 95.330857 75.266216 
L 96.348795 70.161197 
L 97.366734 66.62412 
L 98.384672 64.664152 
L 99.402611 64.27401 
L 100.42055 65.429959 
L 101.438488 68.091814 
L 102.456427 72.183824 
L 103.474365 77.272305 
L 105.510242 89.270823 
L 113.653751 141.031368 
L 115.689628 152.091353 
L 117.725505 161.995095 
L 119.761383 170.740114 
L 121.79726 178.408266 
L 123.833137 185.081814 
L 125.869014 190.843805 
L 127.904891 195.789826 
L 129.940768 200.005648 
L 131.976646 203.567218 
L 134.012523 206.539811 
L 136.0484 208.97977 
L 138.084277 210.948799 
L 140.120154 212.492684 
L 142.156031 213.637902 
L 144.191909 214.39163 
L 146.227786 214.741737 
L 147.245724 214.756364 
L 148.263663 214.656789 
L 149.281602 214.436067 
L 150.29954 214.086046 
L 151.317479 213.597366 
L 152.335417 212.96069 
L 153.353356 212.166062 
L 154.371294 211.18438 
L 155.389233 209.981321 
L 156.407172 208.519614 
L 157.42511 206.75904 
L 158.443049 204.656435 
L 159.460987 202.165687 
L 160.478926 199.237739 
L 161.496865 195.820584 
L 162.514803 191.85927 
L 163.532742 187.2959 
L 164.55068 182.069626 
L 165.568619 176.116657 
L 166.586557 169.370252 
L 167.604496 161.760725 
L 169.640373 143.866303 
L 172.694189 112.794784 
L 174.730066 92.536623 
L 175.748005 83.682666 
L 176.765943 76.145889 
L 177.783882 70.178994 
L 178.80182 65.947023 
L 179.819759 63.527348 
L 180.837698 62.888537 
L 181.855636 63.858664 
L 182.873575 66.265397 
L 183.891513 69.925724 
L 184.909452 74.643242 
L 185.927391 80.208157 
L 187.963268 92.974032 
L 193.052961 125.912151 
L 195.088838 138.117176 
L 197.124715 149.296466 
L 199.160592 159.393729 
L 201.196469 168.381886 
L 203.232346 176.289509 
L 205.268224 183.184502 
L 207.304101 189.147302 
L 209.339978 194.269622 
L 211.375855 198.632445 
L 213.411732 202.32546 
L 215.447609 205.43077 
L 217.483487 208.014247 
L 219.519364 210.125527 
L 221.555241 211.798015 
L 223.591118 213.048883 
L 225.626995 213.878685 
L 227.662872 214.260713 
L 229.69875 214.21243 
L 230.716688 214.026726 
L 231.734627 213.725399 
L 232.752565 213.297632 
L 233.770504 212.728703 
L 234.788443 211.999986 
L 235.806381 211.088949 
L 236.82432 209.969158 
L 237.842258 208.61027 
L 238.860197 206.978042 
L 239.878135 205.034322 
L 240.896074 202.737055 
L 241.914013 200.043842 
L 242.931951 196.909617 
L 243.94989 193.240971 
L 244.967828 188.951488 
L 245.985767 183.969791 
L 247.003706 178.23954 
L 248.021644 171.719435 
L 249.039583 164.383216 
L 251.07546 147.208467 
L 253.111337 127.243466 
L 256.165153 96.831605 
L 257.183091 87.817343 
L 258.20103 79.913894 
L 259.218969 73.466046 
L 260.236907 68.740921 
L 261.254846 65.754949 
L 262.272784 64.451811 
L 263.290723 64.741685 
L 264.308661 66.501251 
L 265.3266 69.573691 
L 266.344539 73.768685 
L 267.362477 78.862385 
L 269.398354 90.815639 
L 276.523924 136.116821 
L 278.559802 147.566754 
L 280.595679 157.909512 
L 282.631556 167.106321 
L 284.667433 175.18842 
L 286.70331 182.248075 
L 288.739187 188.362401 
L 290.775065 193.625529 
L 292.810942 198.128312 
L 294.846819 201.950755 
L 296.882696 205.162012 
L 298.918573 207.817179 
L 300.95445 209.9582 
L 302.990328 211.650047 
L 305.026205 212.938652 
L 307.062082 213.845121 
L 309.097959 214.365734 
L 311.133836 214.471942 
L 312.151775 214.353934 
L 313.169713 214.11037 
L 314.187652 213.730698 
L 315.205591 213.202815 
L 316.223529 212.513068 
L 317.241468 211.646249 
L 318.259406 210.585601 
L 320.295284 208.035353 
L 321.313222 206.508336 
L 322.331161 204.623301 
L 323.349099 202.257005 
L 324.367038 199.307762 
L 325.384976 195.695441 
L 326.402915 191.361467 
L 327.420854 186.268823 
L 328.438792 180.402045 
L 329.456731 173.767228 
L 331.492608 158.325633 
L 333.528485 140.423912 
L 339.636117 82.81915 
L 340.654055 75.661655 
L 341.671994 70.099398 
L 342.689932 66.280572 
L 343.707871 64.241768 
L 344.72581 63.90727 
L 345.743748 65.145696 
L 346.761687 67.775539 
L 347.779625 71.574481 
L 348.797564 76.322748 
L 350.833441 87.81664 
L 352.869318 100.78347 
L 352.869318 100.78347 
" clip-path="url(#pb51f62f7b3)" style="fill: none; stroke: #008000; stroke-width: 1.5; stroke-linecap: square"/>
    <defs>
     <path id="mc0f376ea39" d="M 0 3 
C 0.795609 3 1.55874 2.683901 2.12132 2.12132 
C 2.683901 1.55874 3 0.795609 3 0 
C 3 -0.795609 2.683901 -1.55874 2.12132 -2.12132 
C 1.55874 -2.683901 0.795609 -3 0 -3 
C -0.795609 -3 -1.55874 -2.683901 -2.12132 -2.12132 
C -2.683901 -1.55874 -3 -0.795609 -3 0 
C -3 0.795609 -2.683901 1.55874 -2.12132 2.12132 
C -1.55874 2.683901 -0.795609 3 0 3 
z
" style="stroke: #008000"/>
    </defs>
    <g clip-path="url(#pb51f62f7b3)">
     <use xlink:href="#mc0f376ea39" x="48.505682" y="200.107302" style="fill: #008000; stroke: #008000"/>
     <use xlink:href="#mc0f376ea39" x="49.52362" y="201.917224" style="fill: #008000; stroke: #008000"/>
     <use xlink:href="#mc0f376ea39" x="50.541559" y="203.575926" style="fill: #008000; stroke: #008000"/>
     <use xlink:href="#mc0f376ea39" x="51.559498" y="205.091472" style="fill: #008000; stroke: #008000"/>
     <use xlink:href="#mc0f376ea39" x="52.577436" y="206.471803" style="fill: #008000; stroke: #008000"/>
     <use xlink:href="#mc0f376ea39" x="53.595375" y="207.724048" style="fill: #008000; stroke: #008000"/>
     <use xlink:href="#mc0f376ea39" x="54.613313" y="208.854515" style="fill: #008000; stroke: #008000"/>
     <use xlink:href="#mc0f376ea39" x="55.631252" y="209.868689" style="fill: #008000; stroke: #008000"/>
     <use xlink:href="#mc0f376ea39" x="56.64919" y="210.77123" style="fill: #008000; stroke: #008000"/>
     <use xlink:href="#mc0f376ea39" x="57.667129" y="211.565977" style="fill: #008000; stroke: #008000"/>
     <use xlink:href="#mc0f376ea39" x="58.685068" y="212.255944" style="fill: #008000; stroke: #008000"/>
     <use xlink:href="#mc0f376ea39" x="59.703006" y="212.843324" style="fill: #008000; stroke: #008000"/>
     <use xlink:href="#mc0f376ea39" x="60.720945" y="213.329486" style="fill: #008000; stroke: #008000"/>
     <use xlink:href="#mc0f376ea39" x="61.738883" y="213.714969" style="fill: #008000; stroke: #008000"/>
     <use xlink:href="#mc0f376ea39" x="62.756822" y="213.989462" style="fill: #008000; stroke: #008000"/>
     <use xlink:href="#mc0f376ea39" x="63.774761" y="214.149809" style="fill: #008000; stroke: #008000"/>
     <use xlink:href="#mc0f376ea39" x="64.792699" y="214.20221" style="fill: #008000; stroke: #008000"/>
     <use xlink:href="#mc0f376ea39" x="65.810638" y="214.148887" style="fill: #008000; stroke: #008000"/>
     <use xlink:href="#mc0f376ea39" x="66.828576" y="213.988088" style="fill: #008000; stroke: #008000"/>
     <use xlink:href="#mc0f376ea39" x="67.846515" y="213.714082" style="fill: #008000; stroke: #008000"/>
     <use xlink:href="#mc0f376ea39" x="68.864453" y="213.317159" style="fill: #008000; stroke: #008000"/>
     <use xlink:href="#mc0f376ea39" x="69.882392" y="212.783637" style="fill: #008000; stroke: #008000"/>
     <use xlink:href="#mc0f376ea39" x="70.900331" y="212.095852" style="fill: #008000; stroke: #008000"/>
     <use xlink:href="#mc0f376ea39" x="71.918269" y="211.232166" style="fill: #008000; stroke: #008000"/>
     <use xlink:href="#mc0f376ea39" x="72.936208" y="210.166963" style="fill: #008000; stroke: #008000"/>
     <use xlink:href="#mc0f376ea39" x="73.954146" y="208.87065" style="fill: #008000; stroke: #008000"/>
     <use xlink:href="#mc0f376ea39" x="74.972085" y="207.309657" style="fill: #008000; stroke: #008000"/>
     <use xlink:href="#mc0f376ea39" x="75.990024" y="205.446436" style="fill: #008000; stroke: #008000"/>
     <use xlink:href="#mc0f376ea39" x="77.007962" y="203.239464" style="fill: #008000; stroke: #008000"/>
     <use xlink:href="#mc0f376ea39" x="78.025901" y="200.64324" style="fill: #008000; stroke: #008000"/>
     <use xlink:href="#mc0f376ea39" x="79.043839" y="197.612699" style="fill: #008000; stroke: #008000"/>
     <use xlink:href="#mc0f376ea39" x="80.061778" y="194.076287" style="fill: #008000; stroke: #008000"/>
     <use xlink:href="#mc0f376ea39" x="81.079716" y="189.948886" style="fill: #008000; stroke: #008000"/>
     <use xlink:href="#mc0f376ea39" x="82.097655" y="185.157219" style="fill: #008000; stroke: #008000"/>
     <use xlink:href="#mc0f376ea39" x="83.115594" y="179.639937" style="fill: #008000; stroke: #008000"/>
     <use xlink:href="#mc0f376ea39" x="84.133532" y="173.347613" style="fill: #008000; stroke: #008000"/>
     <use xlink:href="#mc0f376ea39" x="85.151471" y="166.242747" style="fill: #008000; stroke: #008000"/>
     <use xlink:href="#mc0f376ea39" x="86.169409" y="158.299247" style="fill: #008000; stroke: #008000"/>
     <use xlink:href="#mc0f376ea39" x="87.187348" y="149.526406" style="fill: #008000; stroke: #008000"/>
     <use xlink:href="#mc0f376ea39" x="88.205287" y="140.040723" style="fill: #008000; stroke: #008000"/>
     <use xlink:href="#mc0f376ea39" x="89.223225" y="130.021946" style="fill: #008000; stroke: #008000"/>
     <use xlink:href="#mc0f376ea39" x="90.241164" y="119.702364" style="fill: #008000; stroke: #008000"/>
     <use xlink:href="#mc0f376ea39" x="91.259102" y="109.366806" style="fill: #008000; stroke: #008000"/>
     <use xlink:href="#mc0f376ea39" x="92.277041" y="99.352645" style="fill: #008000; stroke: #008000"/>
     <use xlink:href="#mc0f376ea39" x="93.294979" y="90.049791" style="fill: #008000; stroke: #008000"/>
     <use xlink:href="#mc0f376ea39" x="94.312918" y="81.913559" style="fill: #008000; stroke: #008000"/>
     <use xlink:href="#mc0f376ea39" x="95.330857" y="75.266216" style="fill: #008000; stroke: #008000"/>
     <use xlink:href="#mc0f376ea39" x="96.348795" y="70.161197" style="fill: #008000; stroke: #008000"/>
     <use xlink:href="#mc0f376ea39" x="97.366734" y="66.62412" style="fill: #008000; stroke: #008000"/>
     <use xlink:href="#mc0f376ea39" x="98.384672" y="64.664152" style="fill: #008000; stroke: #008000"/>
     <use xlink:href="#mc0f376ea39" x="99.402611" y="64.27401" style="fill: #008000; stroke: #008000"/>
     <use xlink:href="#mc0f376ea39" x="100.42055" y="65.429959" style="fill: #008000; stroke: #008000"/>
     <use xlink:href="#mc0f376ea39" x="101.438488" y="68.091814" style="fill: #008000; stroke: #008000"/>
     <use xlink:href="#mc0f376ea39" x="102.456427" y="72.183824" style="fill: #008000; stroke: #008000"/>
     <use xlink:href="#mc0f376ea39" x="103.474365" y="77.272305" style="fill: #008000; stroke: #008000"/>
     <use xlink:href="#mc0f376ea39" x="104.492304" y="83.034014" style="fill: #008000; stroke: #008000"/>
     <use xlink:href="#mc0f376ea39" x="105.510242" y="89.270823" style="fill: #008000; stroke: #008000"/>
     <use xlink:href="#mc0f376ea39" x="106.528181" y="95.811057" style="fill: #008000; stroke: #008000"/>
     <use xlink:href="#mc0f376ea39" x="107.54612" y="102.509493" style="fill: #008000; stroke: #008000"/>
     <use xlink:href="#mc0f376ea39" x="108.564058" y="109.247358" style="fill: #008000; stroke: #008000"/>
     <use xlink:href="#mc0f376ea39" x="109.581997" y="115.932333" style="fill: #008000; stroke: #008000"/>
     <use xlink:href="#mc0f376ea39" x="110.599935" y="122.498548" style="fill: #008000; stroke: #008000"/>
     <use xlink:href="#mc0f376ea39" x="111.617874" y="128.903595" style="fill: #008000; stroke: #008000"/>
     <use xlink:href="#mc0f376ea39" x="112.635813" y="135.092068" style="fill: #008000; stroke: #008000"/>
     <use xlink:href="#mc0f376ea39" x="113.653751" y="141.031368" style="fill: #008000; stroke: #008000"/>
     <use xlink:href="#mc0f376ea39" x="114.67169" y="146.702378" style="fill: #008000; stroke: #008000"/>
     <use xlink:href="#mc0f376ea39" x="115.689628" y="152.091353" style="fill: #008000; stroke: #008000"/>
     <use xlink:href="#mc0f376ea39" x="116.707567" y="157.189924" style="fill: #008000; stroke: #008000"/>
     <use xlink:href="#mc0f376ea39" x="117.725505" y="161.995095" style="fill: #008000; stroke: #008000"/>
     <use xlink:href="#mc0f376ea39" x="118.743444" y="166.509241" style="fill: #008000; stroke: #008000"/>
     <use xlink:href="#mc0f376ea39" x="119.761383" y="170.740114" style="fill: #008000; stroke: #008000"/>
     <use xlink:href="#mc0f376ea39" x="120.779321" y="174.700837" style="fill: #008000; stroke: #008000"/>
     <use xlink:href="#mc0f376ea39" x="121.79726" y="178.408266" style="fill: #008000; stroke: #008000"/>
     <use xlink:href="#mc0f376ea39" x="122.815198" y="181.865343" style="fill: #008000; stroke: #008000"/>
     <use xlink:href="#mc0f376ea39" x="123.833137" y="185.081814" style="fill: #008000; stroke: #008000"/>
     <use xlink:href="#mc0f376ea39" x="124.851076" y="188.07055" style="fill: #008000; stroke: #008000"/>
     <use xlink:href="#mc0f376ea39" x="125.869014" y="190.843805" style="fill: #008000; stroke: #008000"/>
     <use xlink:href="#mc0f376ea39" x="126.886953" y="193.413221" style="fill: #008000; stroke: #008000"/>
     <use xlink:href="#mc0f376ea39" x="127.904891" y="195.789826" style="fill: #008000; stroke: #008000"/>
     <use xlink:href="#mc0f376ea39" x="128.92283" y="197.984035" style="fill: #008000; stroke: #008000"/>
     <use xlink:href="#mc0f376ea39" x="129.940768" y="200.005648" style="fill: #008000; stroke: #008000"/>
     <use xlink:href="#mc0f376ea39" x="130.958707" y="201.863851" style="fill: #008000; stroke: #008000"/>
     <use xlink:href="#mc0f376ea39" x="131.976646" y="203.567218" style="fill: #008000; stroke: #008000"/>
     <use xlink:href="#mc0f376ea39" x="132.994584" y="205.123707" style="fill: #008000; stroke: #008000"/>
     <use xlink:href="#mc0f376ea39" x="134.012523" y="206.539811" style="fill: #008000; stroke: #008000"/>
     <use xlink:href="#mc0f376ea39" x="135.030461" y="207.822272" style="fill: #008000; stroke: #008000"/>
     <use xlink:href="#mc0f376ea39" x="136.0484" y="208.97977" style="fill: #008000; stroke: #008000"/>
     <use xlink:href="#mc0f376ea39" x="137.066339" y="210.019837" style="fill: #008000; stroke: #008000"/>
     <use xlink:href="#mc0f376ea39" x="138.084277" y="210.948799" style="fill: #008000; stroke: #008000"/>
     <use xlink:href="#mc0f376ea39" x="139.102216" y="211.771777" style="fill: #008000; stroke: #008000"/>
     <use xlink:href="#mc0f376ea39" x="140.120154" y="212.492684" style="fill: #008000; stroke: #008000"/>
     <use xlink:href="#mc0f376ea39" x="141.138093" y="213.114225" style="fill: #008000; stroke: #008000"/>
     <use xlink:href="#mc0f376ea39" x="142.156031" y="213.637902" style="fill: #008000; stroke: #008000"/>
     <use xlink:href="#mc0f376ea39" x="143.17397" y="214.064008" style="fill: #008000; stroke: #008000"/>
     <use xlink:href="#mc0f376ea39" x="144.191909" y="214.39163" style="fill: #008000; stroke: #008000"/>
     <use xlink:href="#mc0f376ea39" x="145.209847" y="214.618648" style="fill: #008000; stroke: #008000"/>
     <use xlink:href="#mc0f376ea39" x="146.227786" y="214.741737" style="fill: #008000; stroke: #008000"/>
     <use xlink:href="#mc0f376ea39" x="147.245724" y="214.756364" style="fill: #008000; stroke: #008000"/>
     <use xlink:href="#mc0f376ea39" x="148.263663" y="214.656789" style="fill: #008000; stroke: #008000"/>
     <use xlink:href="#mc0f376ea39" x="149.281602" y="214.436067" style="fill: #008000; stroke: #008000"/>
     <use xlink:href="#mc0f376ea39" x="150.29954" y="214.086046" style="fill: #008000; stroke: #008000"/>
     <use xlink:href="#mc0f376ea39" x="151.317479" y="213.597366" style="fill: #008000; stroke: #008000"/>
     <use xlink:href="#mc0f376ea39" x="152.335417" y="212.96069" style="fill: #008000; stroke: #008000"/>
     <use xlink:href="#mc0f376ea39" x="153.353356" y="212.166062" style="fill: #008000; stroke: #008000"/>
     <use xlink:href="#mc0f376ea39" x="154.371294" y="211.18438" style="fill: #008000; stroke: #008000"/>
     <use xlink:href="#mc0f376ea39" x="155.389233" y="209.981321" style="fill: #008000; stroke: #008000"/>
     <use xlink:href="#mc0f376ea39" x="156.407172" y="208.519614" style="fill: #008000; stroke: #008000"/>
     <use xlink:href="#mc0f376ea39" x="157.42511" y="206.75904" style="fill: #008000; stroke: #008000"/>
     <use xlink:href="#mc0f376ea39" x="158.443049" y="204.656435" style="fill: #008000; stroke: #008000"/>
     <use xlink:href="#mc0f376ea39" x="159.460987" y="202.165687" style="fill: #008000; stroke: #008000"/>
     <use xlink:href="#mc0f376ea39" x="160.478926" y="199.237739" style="fill: #008000; stroke: #008000"/>
     <use xlink:href="#mc0f376ea39" x="161.496865" y="195.820584" style="fill: #008000; stroke: #008000"/>
     <use xlink:href="#mc0f376ea39" x="162.514803" y="191.85927" style="fill: #008000; stroke: #008000"/>
     <use xlink:href="#mc0f376ea39" x="163.532742" y="187.2959" style="fill: #008000; stroke: #008000"/>
     <use xlink:href="#mc0f376ea39" x="164.55068" y="182.069626" style="fill: #008000; stroke: #008000"/>
     <use xlink:href="#mc0f376ea39" x="165.568619" y="176.116657" style="fill: #008000; stroke: #008000"/>
     <use xlink:href="#mc0f376ea39" x="166.586557" y="169.370252" style="fill: #008000; stroke: #008000"/>
     <use xlink:href="#mc0f376ea39" x="167.604496" y="161.760725" style="fill: #008000; stroke: #008000"/>
     <use xlink:href="#mc0f376ea39" x="168.622435" y="153.225405" style="fill: #008000; stroke: #008000"/>
     <use xlink:href="#mc0f376ea39" x="169.640373" y="143.866303" style="fill: #008000; stroke: #008000"/>
     <use xlink:href="#mc0f376ea39" x="170.658312" y="133.854524" style="fill: #008000; stroke: #008000"/>
     <use xlink:href="#mc0f376ea39" x="171.67625" y="123.404191" style="fill: #008000; stroke: #008000"/>
     <use xlink:href="#mc0f376ea39" x="172.694189" y="112.794784" style="fill: #008000; stroke: #008000"/>
     <use xlink:href="#mc0f376ea39" x="173.712128" y="102.371142" style="fill: #008000; stroke: #008000"/>
     <use xlink:href="#mc0f376ea39" x="174.730066" y="92.536623" style="fill: #008000; stroke: #008000"/>
     <use xlink:href="#mc0f376ea39" x="175.748005" y="83.682666" style="fill: #008000; stroke: #008000"/>
     <use xlink:href="#mc0f376ea39" x="176.765943" y="76.145889" style="fill: #008000; stroke: #008000"/>
     <use xlink:href="#mc0f376ea39" x="177.783882" y="70.178994" style="fill: #008000; stroke: #008000"/>
     <use xlink:href="#mc0f376ea39" x="178.80182" y="65.947023" style="fill: #008000; stroke: #008000"/>
     <use xlink:href="#mc0f376ea39" x="179.819759" y="63.527348" style="fill: #008000; stroke: #008000"/>
     <use xlink:href="#mc0f376ea39" x="180.837698" y="62.888537" style="fill: #008000; stroke: #008000"/>
     <use xlink:href="#mc0f376ea39" x="181.855636" y="63.858664" style="fill: #008000; stroke: #008000"/>
     <use xlink:href="#mc0f376ea39" x="182.873575" y="66.265397" style="fill: #008000; stroke: #008000"/>
     <use xlink:href="#mc0f376ea39" x="183.891513" y="69.925724" style="fill: #008000; stroke: #008000"/>
     <use xlink:href="#mc0f376ea39" x="184.909452" y="74.643242" style="fill: #008000; stroke: #008000"/>
     <use xlink:href="#mc0f376ea39" x="185.927391" y="80.208157" style="fill: #008000; stroke: #008000"/>
     <use xlink:href="#mc0f376ea39" x="186.945329" y="86.397279" style="fill: #008000; stroke: #008000"/>
     <use xlink:href="#mc0f376ea39" x="187.963268" y="92.974032" style="fill: #008000; stroke: #008000"/>
     <use xlink:href="#mc0f376ea39" x="188.981206" y="99.688443" style="fill: #008000; stroke: #008000"/>
     <use xlink:href="#mc0f376ea39" x="189.999145" y="106.327838" style="fill: #008000; stroke: #008000"/>
     <use xlink:href="#mc0f376ea39" x="191.017083" y="112.949196" style="fill: #008000; stroke: #008000"/>
     <use xlink:href="#mc0f376ea39" x="192.035022" y="119.500012" style="fill: #008000; stroke: #008000"/>
     <use xlink:href="#mc0f376ea39" x="193.052961" y="125.912151" style="fill: #008000; stroke: #008000"/>
     <use xlink:href="#mc0f376ea39" x="194.070899" y="132.131341" style="fill: #008000; stroke: #008000"/>
     <use xlink:href="#mc0f376ea39" x="195.088838" y="138.117176" style="fill: #008000; stroke: #008000"/>
     <use xlink:href="#mc0f376ea39" x="196.106776" y="143.843111" style="fill: #008000; stroke: #008000"/>
     <use xlink:href="#mc0f376ea39" x="197.124715" y="149.296466" style="fill: #008000; stroke: #008000"/>
     <use xlink:href="#mc0f376ea39" x="198.142654" y="154.478425" style="fill: #008000; stroke: #008000"/>
     <use xlink:href="#mc0f376ea39" x="199.160592" y="159.393729" style="fill: #008000; stroke: #008000"/>
     <use xlink:href="#mc0f376ea39" x="200.178531" y="164.026629" style="fill: #008000; stroke: #008000"/>
     <use xlink:href="#mc0f376ea39" x="201.196469" y="168.381886" style="fill: #008000; stroke: #008000"/>
     <use xlink:href="#mc0f376ea39" x="202.214408" y="172.466814" style="fill: #008000; stroke: #008000"/>
     <use xlink:href="#mc0f376ea39" x="203.232346" y="176.289509" style="fill: #008000; stroke: #008000"/>
     <use xlink:href="#mc0f376ea39" x="204.250285" y="179.85885" style="fill: #008000; stroke: #008000"/>
     <use xlink:href="#mc0f376ea39" x="205.268224" y="183.184502" style="fill: #008000; stroke: #008000"/>
     <use xlink:href="#mc0f376ea39" x="206.286162" y="186.276909" style="fill: #008000; stroke: #008000"/>
     <use xlink:href="#mc0f376ea39" x="207.304101" y="189.147302" style="fill: #008000; stroke: #008000"/>
     <use xlink:href="#mc0f376ea39" x="208.322039" y="191.807694" style="fill: #008000; stroke: #008000"/>
     <use xlink:href="#mc0f376ea39" x="209.339978" y="194.269622" style="fill: #008000; stroke: #008000"/>
     <use xlink:href="#mc0f376ea39" x="210.357917" y="196.540525" style="fill: #008000; stroke: #008000"/>
     <use xlink:href="#mc0f376ea39" x="211.375855" y="198.632445" style="fill: #008000; stroke: #008000"/>
     <use xlink:href="#mc0f376ea39" x="212.393794" y="200.557167" style="fill: #008000; stroke: #008000"/>
     <use xlink:href="#mc0f376ea39" x="213.411732" y="202.32546" style="fill: #008000; stroke: #008000"/>
     <use xlink:href="#mc0f376ea39" x="214.429671" y="203.947081" style="fill: #008000; stroke: #008000"/>
     <use xlink:href="#mc0f376ea39" x="215.447609" y="205.43077" style="fill: #008000; stroke: #008000"/>
     <use xlink:href="#mc0f376ea39" x="216.465548" y="206.784255" style="fill: #008000; stroke: #008000"/>
     <use xlink:href="#mc0f376ea39" x="217.483487" y="208.014247" style="fill: #008000; stroke: #008000"/>
     <use xlink:href="#mc0f376ea39" x="218.501425" y="209.126443" style="fill: #008000; stroke: #008000"/>
     <use xlink:href="#mc0f376ea39" x="219.519364" y="210.125527" style="fill: #008000; stroke: #008000"/>
     <use xlink:href="#mc0f376ea39" x="220.537302" y="211.015166" style="fill: #008000; stroke: #008000"/>
     <use xlink:href="#mc0f376ea39" x="221.555241" y="211.798015" style="fill: #008000; stroke: #008000"/>
     <use xlink:href="#mc0f376ea39" x="222.57318" y="212.475713" style="fill: #008000; stroke: #008000"/>
     <use xlink:href="#mc0f376ea39" x="223.591118" y="213.048883" style="fill: #008000; stroke: #008000"/>
     <use xlink:href="#mc0f376ea39" x="224.609057" y="213.517135" style="fill: #008000; stroke: #008000"/>
     <use xlink:href="#mc0f376ea39" x="225.626995" y="213.878685" style="fill: #008000; stroke: #008000"/>
     <use xlink:href="#mc0f376ea39" x="226.644934" y="214.125401" style="fill: #008000; stroke: #008000"/>
     <use xlink:href="#mc0f376ea39" x="227.662872" y="214.260713" style="fill: #008000; stroke: #008000"/>
     <use xlink:href="#mc0f376ea39" x="228.680811" y="214.289424" style="fill: #008000; stroke: #008000"/>
     <use xlink:href="#mc0f376ea39" x="229.69875" y="214.21243" style="fill: #008000; stroke: #008000"/>
     <use xlink:href="#mc0f376ea39" x="230.716688" y="214.026726" style="fill: #008000; stroke: #008000"/>
     <use xlink:href="#mc0f376ea39" x="231.734627" y="213.725399" style="fill: #008000; stroke: #008000"/>
     <use xlink:href="#mc0f376ea39" x="232.752565" y="213.297632" style="fill: #008000; stroke: #008000"/>
     <use xlink:href="#mc0f376ea39" x="233.770504" y="212.728703" style="fill: #008000; stroke: #008000"/>
     <use xlink:href="#mc0f376ea39" x="234.788443" y="211.999986" style="fill: #008000; stroke: #008000"/>
     <use xlink:href="#mc0f376ea39" x="235.806381" y="211.088949" style="fill: #008000; stroke: #008000"/>
     <use xlink:href="#mc0f376ea39" x="236.82432" y="209.969158" style="fill: #008000; stroke: #008000"/>
     <use xlink:href="#mc0f376ea39" x="237.842258" y="208.61027" style="fill: #008000; stroke: #008000"/>
     <use xlink:href="#mc0f376ea39" x="238.860197" y="206.978042" style="fill: #008000; stroke: #008000"/>
     <use xlink:href="#mc0f376ea39" x="239.878135" y="205.034322" style="fill: #008000; stroke: #008000"/>
     <use xlink:href="#mc0f376ea39" x="240.896074" y="202.737055" style="fill: #008000; stroke: #008000"/>
     <use xlink:href="#mc0f376ea39" x="241.914013" y="200.043842" style="fill: #008000; stroke: #008000"/>
     <use xlink:href="#mc0f376ea39" x="242.931951" y="196.909617" style="fill: #008000; stroke: #008000"/>
     <use xlink:href="#mc0f376ea39" x="243.94989" y="193.240971" style="fill: #008000; stroke: #008000"/>
     <use xlink:href="#mc0f376ea39" x="244.967828" y="188.951488" style="fill: #008000; stroke: #008000"/>
     <use xlink:href="#mc0f376ea39" x="245.985767" y="183.969791" style="fill: #008000; stroke: #008000"/>
     <use xlink:href="#mc0f376ea39" x="247.003706" y="178.23954" style="fill: #008000; stroke: #008000"/>
     <use xlink:href="#mc0f376ea39" x="248.021644" y="171.719435" style="fill: #008000; stroke: #008000"/>
     <use xlink:href="#mc0f376ea39" x="249.039583" y="164.383216" style="fill: #008000; stroke: #008000"/>
     <use xlink:href="#mc0f376ea39" x="250.057521" y="156.219661" style="fill: #008000; stroke: #008000"/>
     <use xlink:href="#mc0f376ea39" x="251.07546" y="147.208467" style="fill: #008000; stroke: #008000"/>
     <use xlink:href="#mc0f376ea39" x="252.093398" y="137.456225" style="fill: #008000; stroke: #008000"/>
     <use xlink:href="#mc0f376ea39" x="253.111337" y="127.243466" style="fill: #008000; stroke: #008000"/>
     <use xlink:href="#mc0f376ea39" x="254.129276" y="116.864037" style="fill: #008000; stroke: #008000"/>
     <use xlink:href="#mc0f376ea39" x="255.147214" y="106.621995" style="fill: #008000; stroke: #008000"/>
     <use xlink:href="#mc0f376ea39" x="256.165153" y="96.831605" style="fill: #008000; stroke: #008000"/>
     <use xlink:href="#mc0f376ea39" x="257.183091" y="87.817343" style="fill: #008000; stroke: #008000"/>
     <use xlink:href="#mc0f376ea39" x="258.20103" y="79.913894" style="fill: #008000; stroke: #008000"/>
     <use xlink:href="#mc0f376ea39" x="259.218969" y="73.466046" style="fill: #008000; stroke: #008000"/>
     <use xlink:href="#mc0f376ea39" x="260.236907" y="68.740921" style="fill: #008000; stroke: #008000"/>
     <use xlink:href="#mc0f376ea39" x="261.254846" y="65.754949" style="fill: #008000; stroke: #008000"/>
     <use xlink:href="#mc0f376ea39" x="262.272784" y="64.451811" style="fill: #008000; stroke: #008000"/>
     <use xlink:href="#mc0f376ea39" x="263.290723" y="64.741685" style="fill: #008000; stroke: #008000"/>
     <use xlink:href="#mc0f376ea39" x="264.308661" y="66.501251" style="fill: #008000; stroke: #008000"/>
     <use xlink:href="#mc0f376ea39" x="265.3266" y="69.573691" style="fill: #008000; stroke: #008000"/>
     <use xlink:href="#mc0f376ea39" x="266.344539" y="73.768685" style="fill: #008000; stroke: #008000"/>
     <use xlink:href="#mc0f376ea39" x="267.362477" y="78.862385" style="fill: #008000; stroke: #008000"/>
     <use xlink:href="#mc0f376ea39" x="268.380416" y="84.611509" style="fill: #008000; stroke: #008000"/>
     <use xlink:href="#mc0f376ea39" x="269.398354" y="90.815639" style="fill: #008000; stroke: #008000"/>
     <use xlink:href="#mc0f376ea39" x="270.416293" y="97.307953" style="fill: #008000; stroke: #008000"/>
     <use xlink:href="#mc0f376ea39" x="271.434232" y="103.946713" style="fill: #008000; stroke: #008000"/>
     <use xlink:href="#mc0f376ea39" x="272.45217" y="110.615266" style="fill: #008000; stroke: #008000"/>
     <use xlink:href="#mc0f376ea39" x="273.470109" y="117.22204" style="fill: #008000; stroke: #008000"/>
     <use xlink:href="#mc0f376ea39" x="274.488047" y="123.700549" style="fill: #008000; stroke: #008000"/>
     <use xlink:href="#mc0f376ea39" x="275.505986" y="130.009388" style="fill: #008000; stroke: #008000"/>
     <use xlink:href="#mc0f376ea39" x="276.523924" y="136.116821" style="fill: #008000; stroke: #008000"/>
     <use xlink:href="#mc0f376ea39" x="277.541863" y="141.975026" style="fill: #008000; stroke: #008000"/>
     <use xlink:href="#mc0f376ea39" x="278.559802" y="147.566754" style="fill: #008000; stroke: #008000"/>
     <use xlink:href="#mc0f376ea39" x="279.57774" y="152.880595" style="fill: #008000; stroke: #008000"/>
     <use xlink:href="#mc0f376ea39" x="280.595679" y="157.909512" style="fill: #008000; stroke: #008000"/>
     <use xlink:href="#mc0f376ea39" x="281.613617" y="162.650849" style="fill: #008000; stroke: #008000"/>
     <use xlink:href="#mc0f376ea39" x="282.631556" y="167.106321" style="fill: #008000; stroke: #008000"/>
     <use xlink:href="#mc0f376ea39" x="283.649495" y="171.282022" style="fill: #008000; stroke: #008000"/>
     <use xlink:href="#mc0f376ea39" x="284.667433" y="175.18842" style="fill: #008000; stroke: #008000"/>
     <use xlink:href="#mc0f376ea39" x="285.685372" y="178.840362" style="fill: #008000; stroke: #008000"/>
     <use xlink:href="#mc0f376ea39" x="286.70331" y="182.248075" style="fill: #008000; stroke: #008000"/>
     <use xlink:href="#mc0f376ea39" x="287.721249" y="185.41774" style="fill: #008000; stroke: #008000"/>
     <use xlink:href="#mc0f376ea39" x="288.739187" y="188.362401" style="fill: #008000; stroke: #008000"/>
     <use xlink:href="#mc0f376ea39" x="289.757126" y="191.094432" style="fill: #008000; stroke: #008000"/>
     <use xlink:href="#mc0f376ea39" x="290.775065" y="193.625529" style="fill: #008000; stroke: #008000"/>
     <use xlink:href="#mc0f376ea39" x="291.793003" y="195.966709" style="fill: #008000; stroke: #008000"/>
     <use xlink:href="#mc0f376ea39" x="292.810942" y="198.128312" style="fill: #008000; stroke: #008000"/>
     <use xlink:href="#mc0f376ea39" x="293.82888" y="200.119999" style="fill: #008000; stroke: #008000"/>
     <use xlink:href="#mc0f376ea39" x="294.846819" y="201.950755" style="fill: #008000; stroke: #008000"/>
     <use xlink:href="#mc0f376ea39" x="295.864758" y="203.628883" style="fill: #008000; stroke: #008000"/>
     <use xlink:href="#mc0f376ea39" x="296.882696" y="205.162012" style="fill: #008000; stroke: #008000"/>
     <use xlink:href="#mc0f376ea39" x="297.900635" y="206.557091" style="fill: #008000; stroke: #008000"/>
     <use xlink:href="#mc0f376ea39" x="298.918573" y="207.817179" style="fill: #008000; stroke: #008000"/>
     <use xlink:href="#mc0f376ea39" x="299.936512" y="208.947677" style="fill: #008000; stroke: #008000"/>
     <use xlink:href="#mc0f376ea39" x="300.95445" y="209.9582" style="fill: #008000; stroke: #008000"/>
     <use xlink:href="#mc0f376ea39" x="301.972389" y="210.856818" style="fill: #008000; stroke: #008000"/>
     <use xlink:href="#mc0f376ea39" x="302.990328" y="211.650047" style="fill: #008000; stroke: #008000"/>
     <use xlink:href="#mc0f376ea39" x="304.008266" y="212.342853" style="fill: #008000; stroke: #008000"/>
     <use xlink:href="#mc0f376ea39" x="305.026205" y="212.938652" style="fill: #008000; stroke: #008000"/>
     <use xlink:href="#mc0f376ea39" x="306.044143" y="213.439304" style="fill: #008000; stroke: #008000"/>
     <use xlink:href="#mc0f376ea39" x="307.062082" y="213.845121" style="fill: #008000; stroke: #008000"/>
     <use xlink:href="#mc0f376ea39" x="308.080021" y="214.154862" style="fill: #008000; stroke: #008000"/>
     <use xlink:href="#mc0f376ea39" x="309.097959" y="214.365734" style="fill: #008000; stroke: #008000"/>
     <use xlink:href="#mc0f376ea39" x="310.115898" y="214.473393" style="fill: #008000; stroke: #008000"/>
     <use xlink:href="#mc0f376ea39" x="311.133836" y="214.471942" style="fill: #008000; stroke: #008000"/>
     <use xlink:href="#mc0f376ea39" x="312.151775" y="214.353934" style="fill: #008000; stroke: #008000"/>
     <use xlink:href="#mc0f376ea39" x="313.169713" y="214.11037" style="fill: #008000; stroke: #008000"/>
     <use xlink:href="#mc0f376ea39" x="314.187652" y="213.730698" style="fill: #008000; stroke: #008000"/>
     <use xlink:href="#mc0f376ea39" x="315.205591" y="213.202815" style="fill: #008000; stroke: #008000"/>
     <use xlink:href="#mc0f376ea39" x="316.223529" y="212.513068" style="fill: #008000; stroke: #008000"/>
     <use xlink:href="#mc0f376ea39" x="317.241468" y="211.646249" style="fill: #008000; stroke: #008000"/>
     <use xlink:href="#mc0f376ea39" x="318.259406" y="210.585601" style="fill: #008000; stroke: #008000"/>
     <use xlink:href="#mc0f376ea39" x="319.277345" y="209.349152" style="fill: #008000; stroke: #008000"/>
     <use xlink:href="#mc0f376ea39" x="320.295284" y="208.035353" style="fill: #008000; stroke: #008000"/>
     <use xlink:href="#mc0f376ea39" x="321.313222" y="206.508336" style="fill: #008000; stroke: #008000"/>
     <use xlink:href="#mc0f376ea39" x="322.331161" y="204.623301" style="fill: #008000; stroke: #008000"/>
     <use xlink:href="#mc0f376ea39" x="323.349099" y="202.257005" style="fill: #008000; stroke: #008000"/>
     <use xlink:href="#mc0f376ea39" x="324.367038" y="199.307762" style="fill: #008000; stroke: #008000"/>
     <use xlink:href="#mc0f376ea39" x="325.384976" y="195.695441" style="fill: #008000; stroke: #008000"/>
     <use xlink:href="#mc0f376ea39" x="326.402915" y="191.361467" style="fill: #008000; stroke: #008000"/>
     <use xlink:href="#mc0f376ea39" x="327.420854" y="186.268823" style="fill: #008000; stroke: #008000"/>
     <use xlink:href="#mc0f376ea39" x="328.438792" y="180.402045" style="fill: #008000; stroke: #008000"/>
     <use xlink:href="#mc0f376ea39" x="329.456731" y="173.767228" style="fill: #008000; stroke: #008000"/>
     <use xlink:href="#mc0f376ea39" x="330.474669" y="166.392022" style="fill: #008000; stroke: #008000"/>
     <use xlink:href="#mc0f376ea39" x="331.492608" y="158.325633" style="fill: #008000; stroke: #008000"/>
     <use xlink:href="#mc0f376ea39" x="332.510547" y="149.638823" style="fill: #008000; stroke: #008000"/>
     <use xlink:href="#mc0f376ea39" x="333.528485" y="140.423912" style="fill: #008000; stroke: #008000"/>
     <use xlink:href="#mc0f376ea39" x="334.546424" y="130.794774" style="fill: #008000; stroke: #008000"/>
     <use xlink:href="#mc0f376ea39" x="335.564362" y="120.88684" style="fill: #008000; stroke: #008000"/>
     <use xlink:href="#mc0f376ea39" x="336.582301" y="110.857096" style="fill: #008000; stroke: #008000"/>
     <use xlink:href="#mc0f376ea39" x="337.600239" y="100.884087" style="fill: #008000; stroke: #008000"/>
     <use xlink:href="#mc0f376ea39" x="338.618178" y="91.336005" style="fill: #008000; stroke: #008000"/>
     <use xlink:href="#mc0f376ea39" x="339.636117" y="82.81915" style="fill: #008000; stroke: #008000"/>
     <use xlink:href="#mc0f376ea39" x="340.654055" y="75.661655" style="fill: #008000; stroke: #008000"/>
     <use xlink:href="#mc0f376ea39" x="341.671994" y="70.099398" style="fill: #008000; stroke: #008000"/>
     <use xlink:href="#mc0f376ea39" x="342.689932" y="66.280572" style="fill: #008000; stroke: #008000"/>
     <use xlink:href="#mc0f376ea39" x="343.707871" y="64.241768" style="fill: #008000; stroke: #008000"/>
     <use xlink:href="#mc0f376ea39" x="344.72581" y="63.90727" style="fill: #008000; stroke: #008000"/>
     <use xlink:href="#mc0f376ea39" x="345.743748" y="65.145696" style="fill: #008000; stroke: #008000"/>
     <use xlink:href="#mc0f376ea39" x="346.761687" y="67.775539" style="fill: #008000; stroke: #008000"/>
     <use xlink:href="#mc0f376ea39" x="347.779625" y="71.574481" style="fill: #008000; stroke: #008000"/>
     <use xlink:href="#mc0f376ea39" x="348.797564" y="76.322748" style="fill: #008000; stroke: #008000"/>
     <use xlink:href="#mc0f376ea39" x="349.815502" y="81.802209" style="fill: #008000; stroke: #008000"/>
     <use xlink:href="#mc0f376ea39" x="350.833441" y="87.81664" style="fill: #008000; stroke: #008000"/>
     <use xlink:href="#mc0f376ea39" x="351.85138" y="94.193409" style="fill: #008000; stroke: #008000"/>
     <use xlink:href="#mc0f376ea39" x="352.869318" y="100.78347" style="fill: #008000; stroke: #008000"/>
    </g>
   </g>
   <g id="patch_3">
    <path d="M 33.2875 224.64 
L 33.2875 7.2 
" style="fill: none; stroke: #000000; stroke-width: 0.8; stroke-linejoin: miter; stroke-linecap: square"/>
   </g>
   <g id="patch_4">
    <path d="M 368.0875 224.64 
L 368.0875 7.2 
" style="fill: none; stroke: #000000; stroke-width: 0.8; stroke-linejoin: miter; stroke-linecap: square"/>
   </g>
   <g id="patch_5">
    <path d="M 33.2875 224.64 
L 368.0875 224.64 
" style="fill: none; stroke: #000000; stroke-width: 0.8; stroke-linejoin: miter; stroke-linecap: square"/>
   </g>
   <g id="patch_6">
    <path d="M 33.2875 7.2 
L 368.0875 7.2 
" style="fill: none; stroke: #000000; stroke-width: 0.8; stroke-linejoin: miter; stroke-linecap: square"/>
   </g>
   <g id="legend_1">
    <g id="patch_7">
     <path d="M 167.265625 44.55625 
L 234.109375 44.55625 
Q 236.109375 44.55625 236.109375 42.55625 
L 236.109375 14.2 
Q 236.109375 12.2 234.109375 12.2 
L 167.265625 12.2 
Q 165.265625 12.2 165.265625 14.2 
L 165.265625 42.55625 
Q 165.265625 44.55625 167.265625 44.55625 
z
" style="fill: #ffffff; opacity: 0.8; stroke: #cccccc; stroke-linejoin: miter"/>
    </g>
    <g id="line2d_16">
     <path d="M 169.265625 20.298437 
L 179.265625 20.298437 
L 189.265625 20.298437 
" style="fill: none; stroke: #1f77b4; stroke-width: 1.5; stroke-linecap: square"/>
    </g>
    <g id="text_15">
     <!-- rabbits -->
     <g transform="translate(197.265625 23.798437)scale(0.1 -0.1)">
      <defs>
       <path id="DejaVuSans-72" d="M 2631 2963 
Q 2534 3019 2420 3045 
Q 2306 3072 2169 3072 
Q 1681 3072 1420 2755 
Q 1159 2438 1159 1844 
L 1159 0 
L 581 0 
L 581 3500 
L 1159 3500 
L 1159 2956 
Q 1341 3275 1631 3429 
Q 1922 3584 2338 3584 
Q 2397 3584 2469 3576 
Q 2541 3569 2628 3553 
L 2631 2963 
z
" transform="scale(0.015625)"/>
       <path id="DejaVuSans-61" d="M 2194 1759 
Q 1497 1759 1228 1600 
Q 959 1441 959 1056 
Q 959 750 1161 570 
Q 1363 391 1709 391 
Q 2188 391 2477 730 
Q 2766 1069 2766 1631 
L 2766 1759 
L 2194 1759 
z
M 3341 1997 
L 3341 0 
L 2766 0 
L 2766 531 
Q 2569 213 2275 61 
Q 1981 -91 1556 -91 
Q 1019 -91 701 211 
Q 384 513 384 1019 
Q 384 1609 779 1909 
Q 1175 2209 1959 2209 
L 2766 2209 
L 2766 2266 
Q 2766 2663 2505 2880 
Q 2244 3097 1772 3097 
Q 1472 3097 1187 3025 
Q 903 2953 641 2809 
L 641 3341 
Q 956 3463 1253 3523 
Q 1550 3584 1831 3584 
Q 2591 3584 2966 3190 
Q 3341 2797 3341 1997 
z
" transform="scale(0.015625)"/>
       <path id="DejaVuSans-62" d="M 3116 1747 
Q 3116 2381 2855 2742 
Q 2594 3103 2138 3103 
Q 1681 3103 1420 2742 
Q 1159 2381 1159 1747 
Q 1159 1113 1420 752 
Q 1681 391 2138 391 
Q 2594 391 2855 752 
Q 3116 1113 3116 1747 
z
M 1159 2969 
Q 1341 3281 1617 3432 
Q 1894 3584 2278 3584 
Q 2916 3584 3314 3078 
Q 3713 2572 3713 1747 
Q 3713 922 3314 415 
Q 2916 -91 2278 -91 
Q 1894 -91 1617 61 
Q 1341 213 1159 525 
L 1159 0 
L 581 0 
L 581 4863 
L 1159 4863 
L 1159 2969 
z
" transform="scale(0.015625)"/>
       <path id="DejaVuSans-69" d="M 603 3500 
L 1178 3500 
L 1178 0 
L 603 0 
L 603 3500 
z
M 603 4863 
L 1178 4863 
L 1178 4134 
L 603 4134 
L 603 4863 
z
" transform="scale(0.015625)"/>
       <path id="DejaVuSans-73" d="M 2834 3397 
L 2834 2853 
Q 2591 2978 2328 3040 
Q 2066 3103 1784 3103 
Q 1356 3103 1142 2972 
Q 928 2841 928 2578 
Q 928 2378 1081 2264 
Q 1234 2150 1697 2047 
L 1894 2003 
Q 2506 1872 2764 1633 
Q 3022 1394 3022 966 
Q 3022 478 2636 193 
Q 2250 -91 1575 -91 
Q 1294 -91 989 -36 
Q 684 19 347 128 
L 347 722 
Q 666 556 975 473 
Q 1284 391 1588 391 
Q 1994 391 2212 530 
Q 2431 669 2431 922 
Q 2431 1156 2273 1281 
Q 2116 1406 1581 1522 
L 1381 1569 
Q 847 1681 609 1914 
Q 372 2147 372 2553 
Q 372 3047 722 3315 
Q 1072 3584 1716 3584 
Q 2034 3584 2315 3537 
Q 2597 3491 2834 3397 
z
" transform="scale(0.015625)"/>
      </defs>
      <use xlink:href="#DejaVuSans-72"/>
      <use xlink:href="#DejaVuSans-61" x="41.113281"/>
      <use xlink:href="#DejaVuSans-62" x="102.392578"/>
      <use xlink:href="#DejaVuSans-62" x="165.869141"/>
      <use xlink:href="#DejaVuSans-69" x="229.345703"/>
      <use xlink:href="#DejaVuSans-74" x="257.128906"/>
      <use xlink:href="#DejaVuSans-73" x="296.337891"/>
     </g>
    </g>
    <g id="line2d_17">
     <path d="M 169.265625 34.976562 
L 179.265625 34.976562 
L 189.265625 34.976562 
" style="fill: none; stroke: #008000; stroke-width: 1.5; stroke-linecap: square"/>
     <g>
      <use xlink:href="#mc0f376ea39" x="179.265625" y="34.976562" style="fill: #008000; stroke: #008000"/>
     </g>
    </g>
    <g id="text_16">
     <!-- foxes -->
     <g transform="translate(197.265625 38.476562)scale(0.1 -0.1)">
      <defs>
       <path id="DejaVuSans-66" d="M 2375 4863 
L 2375 4384 
L 1825 4384 
Q 1516 4384 1395 4259 
Q 1275 4134 1275 3809 
L 1275 3500 
L 2222 3500 
L 2222 3053 
L 1275 3053 
L 1275 0 
L 697 0 
L 697 3053 
L 147 3053 
L 147 3500 
L 697 3500 
L 697 3744 
Q 697 4328 969 4595 
Q 1241 4863 1831 4863 
L 2375 4863 
z
" transform="scale(0.015625)"/>
       <path id="DejaVuSans-6f" d="M 1959 3097 
Q 1497 3097 1228 2736 
Q 959 2375 959 1747 
Q 959 1119 1226 758 
Q 1494 397 1959 397 
Q 2419 397 2687 759 
Q 2956 1122 2956 1747 
Q 2956 2369 2687 2733 
Q 2419 3097 1959 3097 
z
M 1959 3584 
Q 2709 3584 3137 3096 
Q 3566 2609 3566 1747 
Q 3566 888 3137 398 
Q 2709 -91 1959 -91 
Q 1206 -91 779 398 
Q 353 888 353 1747 
Q 353 2609 779 3096 
Q 1206 3584 1959 3584 
z
" transform="scale(0.015625)"/>
       <path id="DejaVuSans-78" d="M 3513 3500 
L 2247 1797 
L 3578 0 
L 2900 0 
L 1881 1375 
L 863 0 
L 184 0 
L 1544 1831 
L 300 3500 
L 978 3500 
L 1906 2253 
L 2834 3500 
L 3513 3500 
z
" transform="scale(0.015625)"/>
       <path id="DejaVuSans-65" d="M 3597 1894 
L 3597 1613 
L 953 1613 
Q 991 1019 1311 708 
Q 1631 397 2203 397 
Q 2534 397 2845 478 
Q 3156 559 3463 722 
L 3463 178 
Q 3153 47 2828 -22 
Q 2503 -91 2169 -91 
Q 1331 -91 842 396 
Q 353 884 353 1716 
Q 353 2575 817 3079 
Q 1281 3584 2069 3584 
Q 2775 3584 3186 3129 
Q 3597 2675 3597 1894 
z
M 3022 2063 
Q 3016 2534 2758 2815 
Q 2500 3097 2075 3097 
Q 1594 3097 1305 2825 
Q 1016 2553 972 2059 
L 3022 2063 
z
" transform="scale(0.015625)"/>
      </defs>
      <use xlink:href="#DejaVuSans-66"/>
      <use xlink:href="#DejaVuSans-6f" x="35.205078"/>
      <use xlink:href="#DejaVuSans-78" x="93.261719"/>
      <use xlink:href="#DejaVuSans-65" x="149.316406"/>
      <use xlink:href="#DejaVuSans-73" x="210.839844"/>
     </g>
    </g>
   </g>
  </g>
 </g>
 <defs>
  <clipPath id="pb51f62f7b3">
   <rect x="33.2875" y="7.2" width="334.8" height="217.44"/>
  </clipPath>
 </defs>
</svg>
