<?xml version="1.0" encoding="utf-8" standalone="no"?>
<!DOCTYPE svg PUBLIC "-//W3C//DTD SVG 1.1//EN"
  "http://www.w3.org/Graphics/SVG/1.1/DTD/svg11.dtd">
<svg xmlns:xlink="http://www.w3.org/1999/xlink" width="385.78125pt" height="262.19625pt" viewBox="0 0 385.78125 262.19625" xmlns="http://www.w3.org/2000/svg" version="1.1">
 <metadata>
  <rdf:RDF xmlns:dc="http://purl.org/dc/elements/1.1/" xmlns:cc="http://creativecommons.org/ns#" xmlns:rdf="http://www.w3.org/1999/02/22-rdf-syntax-ns#">
   <cc:Work>
    <dc:type rdf:resource="http://purl.org/dc/dcmitype/StillImage"/>
    <dc:date>2022-01-04T15:48:58.478174</dc:date>
    <dc:format>image/svg+xml</dc:format>
    <dc:creator>
     <cc:Agent>
      <dc:title>Matplotlib v3.5.1, https://matplotlib.org/</dc:title>
     </cc:Agent>
    </dc:creator>
   </cc:Work>
  </rdf:RDF>
 </metadata>
 <defs>
  <style type="text/css">*{stroke-linejoin: round; stroke-linecap: butt}</style>
 </defs>
 <g id="figure_1">
  <g id="patch_1">
   <path d="M 0 262.19625 
L 385.78125 262.19625 
L 385.78125 0 
L 0 0 
L 0 262.19625 
z
" style="fill: none"/>
  </g>
  <g id="axes_1">
   <g id="patch_2">
    <path d="M 43.78125 224.64 
L 378.58125 224.64 
L 378.58125 7.2 
L 43.78125 7.2 
z
" style="fill: #ffffff"/>
   </g>
   <g id="matplotlib.axis_1">
    <g id="xtick_1">
     <g id="line2d_1">
      <defs>
       <path id="mabc81ea38f" d="M 0 0 
L 0 3.5 
" style="stroke: #000000; stroke-width: 0.8"/>
      </defs>
      <g>
       <use xlink:href="#mabc81ea38f" x="58.999432" y="224.64" style="stroke: #000000; stroke-width: 0.8"/>
      </g>
     </g>
     <g id="text_1">
      <!-- 0.00 -->
      <g transform="translate(47.866619 239.238437)scale(0.1 -0.1)">
       <defs>
        <path id="DejaVuSans-30" d="M 2034 4250 
Q 1547 4250 1301 3770 
Q 1056 3291 1056 2328 
Q 1056 1369 1301 889 
Q 1547 409 2034 409 
Q 2525 409 2770 889 
Q 3016 1369 3016 2328 
Q 3016 3291 2770 3770 
Q 2525 4250 2034 4250 
z
M 2034 4750 
Q 2819 4750 3233 4129 
Q 3647 3509 3647 2328 
Q 3647 1150 3233 529 
Q 2819 -91 2034 -91 
Q 1250 -91 836 529 
Q 422 1150 422 2328 
Q 422 3509 836 4129 
Q 1250 4750 2034 4750 
z
" transform="scale(0.015625)"/>
        <path id="DejaVuSans-2e" d="M 684 794 
L 1344 794 
L 1344 0 
L 684 0 
L 684 794 
z
" transform="scale(0.015625)"/>
       </defs>
       <use xlink:href="#DejaVuSans-30"/>
       <use xlink:href="#DejaVuSans-2e" x="63.623047"/>
       <use xlink:href="#DejaVuSans-30" x="95.410156"/>
       <use xlink:href="#DejaVuSans-30" x="159.033203"/>
      </g>
     </g>
    </g>
    <g id="xtick_2">
     <g id="line2d_2">
      <g>
       <use xlink:href="#mabc81ea38f" x="97.044886" y="224.64" style="stroke: #000000; stroke-width: 0.8"/>
      </g>
     </g>
     <g id="text_2">
      <!-- 0.25 -->
      <g transform="translate(85.912074 239.238437)scale(0.1 -0.1)">
       <defs>
        <path id="DejaVuSans-32" d="M 1228 531 
L 3431 531 
L 3431 0 
L 469 0 
L 469 531 
Q 828 903 1448 1529 
Q 2069 2156 2228 2338 
Q 2531 2678 2651 2914 
Q 2772 3150 2772 3378 
Q 2772 3750 2511 3984 
Q 2250 4219 1831 4219 
Q 1534 4219 1204 4116 
Q 875 4013 500 3803 
L 500 4441 
Q 881 4594 1212 4672 
Q 1544 4750 1819 4750 
Q 2544 4750 2975 4387 
Q 3406 4025 3406 3419 
Q 3406 3131 3298 2873 
Q 3191 2616 2906 2266 
Q 2828 2175 2409 1742 
Q 1991 1309 1228 531 
z
" transform="scale(0.015625)"/>
        <path id="DejaVuSans-35" d="M 691 4666 
L 3169 4666 
L 3169 4134 
L 1269 4134 
L 1269 2991 
Q 1406 3038 1543 3061 
Q 1681 3084 1819 3084 
Q 2600 3084 3056 2656 
Q 3513 2228 3513 1497 
Q 3513 744 3044 326 
Q 2575 -91 1722 -91 
Q 1428 -91 1123 -41 
Q 819 9 494 109 
L 494 744 
Q 775 591 1075 516 
Q 1375 441 1709 441 
Q 2250 441 2565 725 
Q 2881 1009 2881 1497 
Q 2881 1984 2565 2268 
Q 2250 2553 1709 2553 
Q 1456 2553 1204 2497 
Q 953 2441 691 2322 
L 691 4666 
z
" transform="scale(0.015625)"/>
       </defs>
       <use xlink:href="#DejaVuSans-30"/>
       <use xlink:href="#DejaVuSans-2e" x="63.623047"/>
       <use xlink:href="#DejaVuSans-32" x="95.410156"/>
       <use xlink:href="#DejaVuSans-35" x="159.033203"/>
      </g>
     </g>
    </g>
    <g id="xtick_3">
     <g id="line2d_3">
      <g>
       <use xlink:href="#mabc81ea38f" x="135.090341" y="224.64" style="stroke: #000000; stroke-width: 0.8"/>
      </g>
     </g>
     <g id="text_3">
      <!-- 0.50 -->
      <g transform="translate(123.957528 239.238437)scale(0.1 -0.1)">
       <use xlink:href="#DejaVuSans-30"/>
       <use xlink:href="#DejaVuSans-2e" x="63.623047"/>
       <use xlink:href="#DejaVuSans-35" x="95.410156"/>
       <use xlink:href="#DejaVuSans-30" x="159.033203"/>
      </g>
     </g>
    </g>
    <g id="xtick_4">
     <g id="line2d_4">
      <g>
       <use xlink:href="#mabc81ea38f" x="173.135795" y="224.64" style="stroke: #000000; stroke-width: 0.8"/>
      </g>
     </g>
     <g id="text_4">
      <!-- 0.75 -->
      <g transform="translate(162.002983 239.238437)scale(0.1 -0.1)">
       <defs>
        <path id="DejaVuSans-37" d="M 525 4666 
L 3525 4666 
L 3525 4397 
L 1831 0 
L 1172 0 
L 2766 4134 
L 525 4134 
L 525 4666 
z
" transform="scale(0.015625)"/>
       </defs>
       <use xlink:href="#DejaVuSans-30"/>
       <use xlink:href="#DejaVuSans-2e" x="63.623047"/>
       <use xlink:href="#DejaVuSans-37" x="95.410156"/>
       <use xlink:href="#DejaVuSans-35" x="159.033203"/>
      </g>
     </g>
    </g>
    <g id="xtick_5">
     <g id="line2d_5">
      <g>
       <use xlink:href="#mabc81ea38f" x="211.18125" y="224.64" style="stroke: #000000; stroke-width: 0.8"/>
      </g>
     </g>
     <g id="text_5">
      <!-- 1.00 -->
      <g transform="translate(200.048438 239.238437)scale(0.1 -0.1)">
       <defs>
        <path id="DejaVuSans-31" d="M 794 531 
L 1825 531 
L 1825 4091 
L 703 3866 
L 703 4441 
L 1819 4666 
L 2450 4666 
L 2450 531 
L 3481 531 
L 3481 0 
L 794 0 
L 794 531 
z
" transform="scale(0.015625)"/>
       </defs>
       <use xlink:href="#DejaVuSans-31"/>
       <use xlink:href="#DejaVuSans-2e" x="63.623047"/>
       <use xlink:href="#DejaVuSans-30" x="95.410156"/>
       <use xlink:href="#DejaVuSans-30" x="159.033203"/>
      </g>
     </g>
    </g>
    <g id="xtick_6">
     <g id="line2d_6">
      <g>
       <use xlink:href="#mabc81ea38f" x="249.226705" y="224.64" style="stroke: #000000; stroke-width: 0.8"/>
      </g>
     </g>
     <g id="text_6">
      <!-- 1.25 -->
      <g transform="translate(238.093892 239.238437)scale(0.1 -0.1)">
       <use xlink:href="#DejaVuSans-31"/>
       <use xlink:href="#DejaVuSans-2e" x="63.623047"/>
       <use xlink:href="#DejaVuSans-32" x="95.410156"/>
       <use xlink:href="#DejaVuSans-35" x="159.033203"/>
      </g>
     </g>
    </g>
    <g id="xtick_7">
     <g id="line2d_7">
      <g>
       <use xlink:href="#mabc81ea38f" x="287.272159" y="224.64" style="stroke: #000000; stroke-width: 0.8"/>
      </g>
     </g>
     <g id="text_7">
      <!-- 1.50 -->
      <g transform="translate(276.139347 239.238437)scale(0.1 -0.1)">
       <use xlink:href="#DejaVuSans-31"/>
       <use xlink:href="#DejaVuSans-2e" x="63.623047"/>
       <use xlink:href="#DejaVuSans-35" x="95.410156"/>
       <use xlink:href="#DejaVuSans-30" x="159.033203"/>
      </g>
     </g>
    </g>
    <g id="xtick_8">
     <g id="line2d_8">
      <g>
       <use xlink:href="#mabc81ea38f" x="325.317614" y="224.64" style="stroke: #000000; stroke-width: 0.8"/>
      </g>
     </g>
     <g id="text_8">
      <!-- 1.75 -->
      <g transform="translate(314.184801 239.238437)scale(0.1 -0.1)">
       <use xlink:href="#DejaVuSans-31"/>
       <use xlink:href="#DejaVuSans-2e" x="63.623047"/>
       <use xlink:href="#DejaVuSans-37" x="95.410156"/>
       <use xlink:href="#DejaVuSans-35" x="159.033203"/>
      </g>
     </g>
    </g>
    <g id="xtick_9">
     <g id="line2d_9">
      <g>
       <use xlink:href="#mabc81ea38f" x="363.363068" y="224.64" style="stroke: #000000; stroke-width: 0.8"/>
      </g>
     </g>
     <g id="text_9">
      <!-- 2.00 -->
      <g transform="translate(352.230256 239.238437)scale(0.1 -0.1)">
       <use xlink:href="#DejaVuSans-32"/>
       <use xlink:href="#DejaVuSans-2e" x="63.623047"/>
       <use xlink:href="#DejaVuSans-30" x="95.410156"/>
       <use xlink:href="#DejaVuSans-30" x="159.033203"/>
      </g>
     </g>
    </g>
    <g id="text_10">
     <!-- t -->
     <g transform="translate(209.221094 252.916562)scale(0.1 -0.1)">
      <defs>
       <path id="DejaVuSans-74" d="M 1172 4494 
L 1172 3500 
L 2356 3500 
L 2356 3053 
L 1172 3053 
L 1172 1153 
Q 1172 725 1289 603 
Q 1406 481 1766 481 
L 2356 481 
L 2356 0 
L 1766 0 
Q 1100 0 847 248 
Q 594 497 594 1153 
L 594 3053 
L 172 3053 
L 172 3500 
L 594 3500 
L 594 4494 
L 1172 4494 
z
" transform="scale(0.015625)"/>
      </defs>
      <use xlink:href="#DejaVuSans-74"/>
     </g>
    </g>
   </g>
   <g id="matplotlib.axis_2">
    <g id="ytick_1">
     <g id="line2d_10">
      <defs>
       <path id="m2b391e0c58" d="M 0 0 
L -3.5 0 
" style="stroke: #000000; stroke-width: 0.8"/>
      </defs>
      <g>
       <use xlink:href="#m2b391e0c58" x="43.78125" y="218.445958" style="stroke: #000000; stroke-width: 0.8"/>
      </g>
     </g>
     <g id="text_11">
      <!-- 0.0 -->
      <g transform="translate(20.878125 222.245177)scale(0.1 -0.1)">
       <use xlink:href="#DejaVuSans-30"/>
       <use xlink:href="#DejaVuSans-2e" x="63.623047"/>
       <use xlink:href="#DejaVuSans-30" x="95.410156"/>
      </g>
     </g>
    </g>
    <g id="ytick_2">
     <g id="line2d_11">
      <g>
       <use xlink:href="#m2b391e0c58" x="43.78125" y="178.173494" style="stroke: #000000; stroke-width: 0.8"/>
      </g>
     </g>
     <g id="text_12">
      <!-- 0.2 -->
      <g transform="translate(20.878125 181.972712)scale(0.1 -0.1)">
       <use xlink:href="#DejaVuSans-30"/>
       <use xlink:href="#DejaVuSans-2e" x="63.623047"/>
       <use xlink:href="#DejaVuSans-32" x="95.410156"/>
      </g>
     </g>
    </g>
    <g id="ytick_3">
     <g id="line2d_12">
      <g>
       <use xlink:href="#m2b391e0c58" x="43.78125" y="137.901029" style="stroke: #000000; stroke-width: 0.8"/>
      </g>
     </g>
     <g id="text_13">
      <!-- 0.4 -->
      <g transform="translate(20.878125 141.700248)scale(0.1 -0.1)">
       <defs>
        <path id="DejaVuSans-34" d="M 2419 4116 
L 825 1625 
L 2419 1625 
L 2419 4116 
z
M 2253 4666 
L 3047 4666 
L 3047 1625 
L 3713 1625 
L 3713 1100 
L 3047 1100 
L 3047 0 
L 2419 0 
L 2419 1100 
L 313 1100 
L 313 1709 
L 2253 4666 
z
" transform="scale(0.015625)"/>
       </defs>
       <use xlink:href="#DejaVuSans-30"/>
       <use xlink:href="#DejaVuSans-2e" x="63.623047"/>
       <use xlink:href="#DejaVuSans-34" x="95.410156"/>
      </g>
     </g>
    </g>
    <g id="ytick_4">
     <g id="line2d_13">
      <g>
       <use xlink:href="#m2b391e0c58" x="43.78125" y="97.628565" style="stroke: #000000; stroke-width: 0.8"/>
      </g>
     </g>
     <g id="text_14">
      <!-- 0.6 -->
      <g transform="translate(20.878125 101.427784)scale(0.1 -0.1)">
       <defs>
        <path id="DejaVuSans-36" d="M 2113 2584 
Q 1688 2584 1439 2293 
Q 1191 2003 1191 1497 
Q 1191 994 1439 701 
Q 1688 409 2113 409 
Q 2538 409 2786 701 
Q 3034 994 3034 1497 
Q 3034 2003 2786 2293 
Q 2538 2584 2113 2584 
z
M 3366 4563 
L 3366 3988 
Q 3128 4100 2886 4159 
Q 2644 4219 2406 4219 
Q 1781 4219 1451 3797 
Q 1122 3375 1075 2522 
Q 1259 2794 1537 2939 
Q 1816 3084 2150 3084 
Q 2853 3084 3261 2657 
Q 3669 2231 3669 1497 
Q 3669 778 3244 343 
Q 2819 -91 2113 -91 
Q 1303 -91 875 529 
Q 447 1150 447 2328 
Q 447 3434 972 4092 
Q 1497 4750 2381 4750 
Q 2619 4750 2861 4703 
Q 3103 4656 3366 4563 
z
" transform="scale(0.015625)"/>
       </defs>
       <use xlink:href="#DejaVuSans-30"/>
       <use xlink:href="#DejaVuSans-2e" x="63.623047"/>
       <use xlink:href="#DejaVuSans-36" x="95.410156"/>
      </g>
     </g>
    </g>
    <g id="ytick_5">
     <g id="line2d_14">
      <g>
       <use xlink:href="#m2b391e0c58" x="43.78125" y="57.356101" style="stroke: #000000; stroke-width: 0.8"/>
      </g>
     </g>
     <g id="text_15">
      <!-- 0.8 -->
      <g transform="translate(20.878125 61.155319)scale(0.1 -0.1)">
       <defs>
        <path id="DejaVuSans-38" d="M 2034 2216 
Q 1584 2216 1326 1975 
Q 1069 1734 1069 1313 
Q 1069 891 1326 650 
Q 1584 409 2034 409 
Q 2484 409 2743 651 
Q 3003 894 3003 1313 
Q 3003 1734 2745 1975 
Q 2488 2216 2034 2216 
z
M 1403 2484 
Q 997 2584 770 2862 
Q 544 3141 544 3541 
Q 544 4100 942 4425 
Q 1341 4750 2034 4750 
Q 2731 4750 3128 4425 
Q 3525 4100 3525 3541 
Q 3525 3141 3298 2862 
Q 3072 2584 2669 2484 
Q 3125 2378 3379 2068 
Q 3634 1759 3634 1313 
Q 3634 634 3220 271 
Q 2806 -91 2034 -91 
Q 1263 -91 848 271 
Q 434 634 434 1313 
Q 434 1759 690 2068 
Q 947 2378 1403 2484 
z
M 1172 3481 
Q 1172 3119 1398 2916 
Q 1625 2713 2034 2713 
Q 2441 2713 2670 2916 
Q 2900 3119 2900 3481 
Q 2900 3844 2670 4047 
Q 2441 4250 2034 4250 
Q 1625 4250 1398 4047 
Q 1172 3844 1172 3481 
z
" transform="scale(0.015625)"/>
       </defs>
       <use xlink:href="#DejaVuSans-30"/>
       <use xlink:href="#DejaVuSans-2e" x="63.623047"/>
       <use xlink:href="#DejaVuSans-38" x="95.410156"/>
      </g>
     </g>
    </g>
    <g id="ytick_6">
     <g id="line2d_15">
      <g>
       <use xlink:href="#m2b391e0c58" x="43.78125" y="17.083636" style="stroke: #000000; stroke-width: 0.8"/>
      </g>
     </g>
     <g id="text_16">
      <!-- 1.0 -->
      <g transform="translate(20.878125 20.882855)scale(0.1 -0.1)">
       <use xlink:href="#DejaVuSans-31"/>
       <use xlink:href="#DejaVuSans-2e" x="63.623047"/>
       <use xlink:href="#DejaVuSans-30" x="95.410156"/>
      </g>
     </g>
    </g>
    <g id="text_17">
     <!-- y(t) -->
     <g transform="translate(14.798438 124.741094)rotate(-90)scale(0.1 -0.1)">
      <defs>
       <path id="DejaVuSans-79" d="M 2059 -325 
Q 1816 -950 1584 -1140 
Q 1353 -1331 966 -1331 
L 506 -1331 
L 506 -850 
L 844 -850 
Q 1081 -850 1212 -737 
Q 1344 -625 1503 -206 
L 1606 56 
L 191 3500 
L 800 3500 
L 1894 763 
L 2988 3500 
L 3597 3500 
L 2059 -325 
z
" transform="scale(0.015625)"/>
       <path id="DejaVuSans-28" d="M 1984 4856 
Q 1566 4138 1362 3434 
Q 1159 2731 1159 2009 
Q 1159 1288 1364 580 
Q 1569 -128 1984 -844 
L 1484 -844 
Q 1016 -109 783 600 
Q 550 1309 550 2009 
Q 550 2706 781 3412 
Q 1013 4119 1484 4856 
L 1984 4856 
z
" transform="scale(0.015625)"/>
       <path id="DejaVuSans-29" d="M 513 4856 
L 1013 4856 
Q 1481 4119 1714 3412 
Q 1947 2706 1947 2009 
Q 1947 1309 1714 600 
Q 1481 -109 1013 -844 
L 513 -844 
Q 928 -128 1133 580 
Q 1338 1288 1338 2009 
Q 1338 2731 1133 3434 
Q 928 4138 513 4856 
z
" transform="scale(0.015625)"/>
      </defs>
      <use xlink:href="#DejaVuSans-79"/>
      <use xlink:href="#DejaVuSans-28" x="59.179688"/>
      <use xlink:href="#DejaVuSans-74" x="98.193359"/>
      <use xlink:href="#DejaVuSans-29" x="137.402344"/>
     </g>
    </g>
   </g>
   <g id="line2d_16">
    <defs>
     <path id="m7da0ccc2fd" d="M 0 1.5 
C 0.397805 1.5 0.77937 1.341951 1.06066 1.06066 
C 1.341951 0.77937 1.5 0.397805 1.5 0 
C 1.5 -0.397805 1.341951 -0.77937 1.06066 -1.06066 
C 0.77937 -1.341951 0.397805 -1.5 0 -1.5 
C -0.397805 -1.5 -0.77937 -1.341951 -1.06066 -1.06066 
C -1.341951 -0.77937 -1.5 -0.397805 -1.5 0 
C -1.5 0.397805 -1.341951 0.77937 -1.06066 1.06066 
C -0.77937 1.341951 -0.397805 1.5 0 1.5 
z
" style="stroke: #1f77b4"/>
    </defs>
    <g clip-path="url(#pc9f647cbca)">
     <use xlink:href="#m7da0ccc2fd" x="58.999432" y="17.083636" style="fill: #1f77b4; stroke: #1f77b4"/>
     <use xlink:href="#m7da0ccc2fd" x="62.073812" y="17.1658" style="fill: #1f77b4; stroke: #1f77b4"/>
     <use xlink:href="#m7da0ccc2fd" x="65.148192" y="17.412091" style="fill: #1f77b4; stroke: #1f77b4"/>
     <use xlink:href="#m7da0ccc2fd" x="68.222572" y="17.821903" style="fill: #1f77b4; stroke: #1f77b4"/>
     <use xlink:href="#m7da0ccc2fd" x="71.296952" y="18.394237" style="fill: #1f77b4; stroke: #1f77b4"/>
     <use xlink:href="#m7da0ccc2fd" x="74.371333" y="19.127698" style="fill: #1f77b4; stroke: #1f77b4"/>
     <use xlink:href="#m7da0ccc2fd" x="77.445713" y="20.020926" style="fill: #1f77b4; stroke: #1f77b4"/>
     <use xlink:href="#m7da0ccc2fd" x="80.520093" y="21.073779" style="fill: #1f77b4; stroke: #1f77b4"/>
     <use xlink:href="#m7da0ccc2fd" x="83.594473" y="22.282934" style="fill: #1f77b4; stroke: #1f77b4"/>
     <use xlink:href="#m7da0ccc2fd" x="86.668853" y="23.644441" style="fill: #1f77b4; stroke: #1f77b4"/>
     <use xlink:href="#m7da0ccc2fd" x="89.743233" y="25.154212" style="fill: #1f77b4; stroke: #1f77b4"/>
     <use xlink:href="#m7da0ccc2fd" x="92.817614" y="26.808024" style="fill: #1f77b4; stroke: #1f77b4"/>
     <use xlink:href="#m7da0ccc2fd" x="95.891994" y="28.601515" style="fill: #1f77b4; stroke: #1f77b4"/>
     <use xlink:href="#m7da0ccc2fd" x="98.966374" y="30.530185" style="fill: #1f77b4; stroke: #1f77b4"/>
     <use xlink:href="#m7da0ccc2fd" x="102.040754" y="32.589397" style="fill: #1f77b4; stroke: #1f77b4"/>
     <use xlink:href="#m7da0ccc2fd" x="105.115134" y="34.774376" style="fill: #1f77b4; stroke: #1f77b4"/>
     <use xlink:href="#m7da0ccc2fd" x="108.189514" y="37.08021" style="fill: #1f77b4; stroke: #1f77b4"/>
     <use xlink:href="#m7da0ccc2fd" x="111.263895" y="39.50185" style="fill: #1f77b4; stroke: #1f77b4"/>
     <use xlink:href="#m7da0ccc2fd" x="114.338275" y="42.034107" style="fill: #1f77b4; stroke: #1f77b4"/>
     <use xlink:href="#m7da0ccc2fd" x="117.412655" y="44.671657" style="fill: #1f77b4; stroke: #1f77b4"/>
     <use xlink:href="#m7da0ccc2fd" x="120.487035" y="47.409037" style="fill: #1f77b4; stroke: #1f77b4"/>
     <use xlink:href="#m7da0ccc2fd" x="123.561415" y="50.240648" style="fill: #1f77b4; stroke: #1f77b4"/>
     <use xlink:href="#m7da0ccc2fd" x="126.635795" y="53.160751" style="fill: #1f77b4; stroke: #1f77b4"/>
     <use xlink:href="#m7da0ccc2fd" x="129.710176" y="56.163472" style="fill: #1f77b4; stroke: #1f77b4"/>
     <use xlink:href="#m7da0ccc2fd" x="132.784556" y="59.242797" style="fill: #1f77b4; stroke: #1f77b4"/>
     <use xlink:href="#m7da0ccc2fd" x="135.858936" y="62.392576" style="fill: #1f77b4; stroke: #1f77b4"/>
     <use xlink:href="#m7da0ccc2fd" x="138.933316" y="65.606522" style="fill: #1f77b4; stroke: #1f77b4"/>
     <use xlink:href="#m7da0ccc2fd" x="142.007696" y="68.878208" style="fill: #1f77b4; stroke: #1f77b4"/>
     <use xlink:href="#m7da0ccc2fd" x="145.082076" y="72.201072" style="fill: #1f77b4; stroke: #1f77b4"/>
     <use xlink:href="#m7da0ccc2fd" x="148.156457" y="75.568412" style="fill: #1f77b4; stroke: #1f77b4"/>
     <use xlink:href="#m7da0ccc2fd" x="151.230837" y="78.973392" style="fill: #1f77b4; stroke: #1f77b4"/>
     <use xlink:href="#m7da0ccc2fd" x="154.305217" y="82.409035" style="fill: #1f77b4; stroke: #1f77b4"/>
     <use xlink:href="#m7da0ccc2fd" x="157.379597" y="85.868227" style="fill: #1f77b4; stroke: #1f77b4"/>
     <use xlink:href="#m7da0ccc2fd" x="160.453977" y="89.343718" style="fill: #1f77b4; stroke: #1f77b4"/>
     <use xlink:href="#m7da0ccc2fd" x="163.528357" y="92.828119" style="fill: #1f77b4; stroke: #1f77b4"/>
     <use xlink:href="#m7da0ccc2fd" x="166.602738" y="96.315585" style="fill: #1f77b4; stroke: #1f77b4"/>
     <use xlink:href="#m7da0ccc2fd" x="169.677118" y="99.801809" style="fill: #1f77b4; stroke: #1f77b4"/>
     <use xlink:href="#m7da0ccc2fd" x="172.751498" y="103.281413" style="fill: #1f77b4; stroke: #1f77b4"/>
     <use xlink:href="#m7da0ccc2fd" x="175.825878" y="106.749222" style="fill: #1f77b4; stroke: #1f77b4"/>
     <use xlink:href="#m7da0ccc2fd" x="178.900258" y="110.20026" style="fill: #1f77b4; stroke: #1f77b4"/>
     <use xlink:href="#m7da0ccc2fd" x="181.974638" y="113.629758" style="fill: #1f77b4; stroke: #1f77b4"/>
     <use xlink:href="#m7da0ccc2fd" x="185.049019" y="117.033148" style="fill: #1f77b4; stroke: #1f77b4"/>
     <use xlink:href="#m7da0ccc2fd" x="188.123399" y="120.406065" style="fill: #1f77b4; stroke: #1f77b4"/>
     <use xlink:href="#m7da0ccc2fd" x="191.197779" y="123.744347" style="fill: #1f77b4; stroke: #1f77b4"/>
     <use xlink:href="#m7da0ccc2fd" x="194.272159" y="127.044035" style="fill: #1f77b4; stroke: #1f77b4"/>
     <use xlink:href="#m7da0ccc2fd" x="197.346539" y="130.301375" style="fill: #1f77b4; stroke: #1f77b4"/>
     <use xlink:href="#m7da0ccc2fd" x="200.420919" y="133.512814" style="fill: #1f77b4; stroke: #1f77b4"/>
     <use xlink:href="#m7da0ccc2fd" x="203.4953" y="136.675001" style="fill: #1f77b4; stroke: #1f77b4"/>
     <use xlink:href="#m7da0ccc2fd" x="206.56968" y="139.784792" style="fill: #1f77b4; stroke: #1f77b4"/>
     <use xlink:href="#m7da0ccc2fd" x="209.64406" y="142.839241" style="fill: #1f77b4; stroke: #1f77b4"/>
     <use xlink:href="#m7da0ccc2fd" x="212.71844" y="145.835609" style="fill: #1f77b4; stroke: #1f77b4"/>
     <use xlink:href="#m7da0ccc2fd" x="215.79282" y="148.771359" style="fill: #1f77b4; stroke: #1f77b4"/>
     <use xlink:href="#m7da0ccc2fd" x="218.8672" y="151.644155" style="fill: #1f77b4; stroke: #1f77b4"/>
     <use xlink:href="#m7da0ccc2fd" x="221.941581" y="154.451868" style="fill: #1f77b4; stroke: #1f77b4"/>
     <use xlink:href="#m7da0ccc2fd" x="225.015961" y="157.192567" style="fill: #1f77b4; stroke: #1f77b4"/>
     <use xlink:href="#m7da0ccc2fd" x="228.090341" y="159.864529" style="fill: #1f77b4; stroke: #1f77b4"/>
     <use xlink:href="#m7da0ccc2fd" x="231.164721" y="162.466232" style="fill: #1f77b4; stroke: #1f77b4"/>
     <use xlink:href="#m7da0ccc2fd" x="234.239101" y="164.996354" style="fill: #1f77b4; stroke: #1f77b4"/>
     <use xlink:href="#m7da0ccc2fd" x="237.313481" y="167.453782" style="fill: #1f77b4; stroke: #1f77b4"/>
     <use xlink:href="#m7da0ccc2fd" x="240.387862" y="169.837601" style="fill: #1f77b4; stroke: #1f77b4"/>
     <use xlink:href="#m7da0ccc2fd" x="243.462242" y="172.147102" style="fill: #1f77b4; stroke: #1f77b4"/>
     <use xlink:href="#m7da0ccc2fd" x="246.536622" y="174.381777" style="fill: #1f77b4; stroke: #1f77b4"/>
     <use xlink:href="#m7da0ccc2fd" x="249.611002" y="176.541323" style="fill: #1f77b4; stroke: #1f77b4"/>
     <use xlink:href="#m7da0ccc2fd" x="252.685382" y="178.625926" style="fill: #1f77b4; stroke: #1f77b4"/>
     <use xlink:href="#m7da0ccc2fd" x="255.759762" y="180.638062" style="fill: #1f77b4; stroke: #1f77b4"/>
     <use xlink:href="#m7da0ccc2fd" x="258.834143" y="182.57841" style="fill: #1f77b4; stroke: #1f77b4"/>
     <use xlink:href="#m7da0ccc2fd" x="261.908523" y="184.447266" style="fill: #1f77b4; stroke: #1f77b4"/>
     <use xlink:href="#m7da0ccc2fd" x="264.982903" y="186.245099" style="fill: #1f77b4; stroke: #1f77b4"/>
     <use xlink:href="#m7da0ccc2fd" x="268.057283" y="187.97256" style="fill: #1f77b4; stroke: #1f77b4"/>
     <use xlink:href="#m7da0ccc2fd" x="271.131663" y="189.630473" style="fill: #1f77b4; stroke: #1f77b4"/>
     <use xlink:href="#m7da0ccc2fd" x="274.206043" y="191.219844" style="fill: #1f77b4; stroke: #1f77b4"/>
     <use xlink:href="#m7da0ccc2fd" x="277.280424" y="192.741853" style="fill: #1f77b4; stroke: #1f77b4"/>
     <use xlink:href="#m7da0ccc2fd" x="280.354804" y="194.197861" style="fill: #1f77b4; stroke: #1f77b4"/>
     <use xlink:href="#m7da0ccc2fd" x="283.429184" y="195.589402" style="fill: #1f77b4; stroke: #1f77b4"/>
     <use xlink:href="#m7da0ccc2fd" x="286.503564" y="196.918192" style="fill: #1f77b4; stroke: #1f77b4"/>
     <use xlink:href="#m7da0ccc2fd" x="289.577944" y="198.186122" style="fill: #1f77b4; stroke: #1f77b4"/>
     <use xlink:href="#m7da0ccc2fd" x="292.652324" y="199.395262" style="fill: #1f77b4; stroke: #1f77b4"/>
     <use xlink:href="#m7da0ccc2fd" x="295.726705" y="200.547856" style="fill: #1f77b4; stroke: #1f77b4"/>
     <use xlink:href="#m7da0ccc2fd" x="298.801085" y="201.645922" style="fill: #1f77b4; stroke: #1f77b4"/>
     <use xlink:href="#m7da0ccc2fd" x="301.875465" y="202.690603" style="fill: #1f77b4; stroke: #1f77b4"/>
     <use xlink:href="#m7da0ccc2fd" x="304.949845" y="203.683012" style="fill: #1f77b4; stroke: #1f77b4"/>
     <use xlink:href="#m7da0ccc2fd" x="308.024225" y="204.624379" style="fill: #1f77b4; stroke: #1f77b4"/>
     <use xlink:href="#m7da0ccc2fd" x="311.098605" y="205.516051" style="fill: #1f77b4; stroke: #1f77b4"/>
     <use xlink:href="#m7da0ccc2fd" x="314.172986" y="206.359493" style="fill: #1f77b4; stroke: #1f77b4"/>
     <use xlink:href="#m7da0ccc2fd" x="317.247366" y="207.156285" style="fill: #1f77b4; stroke: #1f77b4"/>
     <use xlink:href="#m7da0ccc2fd" x="320.321746" y="207.908129" style="fill: #1f77b4; stroke: #1f77b4"/>
     <use xlink:href="#m7da0ccc2fd" x="323.396126" y="208.616839" style="fill: #1f77b4; stroke: #1f77b4"/>
     <use xlink:href="#m7da0ccc2fd" x="326.470506" y="209.284351" style="fill: #1f77b4; stroke: #1f77b4"/>
     <use xlink:href="#m7da0ccc2fd" x="329.544886" y="209.912715" style="fill: #1f77b4; stroke: #1f77b4"/>
     <use xlink:href="#m7da0ccc2fd" x="332.619267" y="210.5041" style="fill: #1f77b4; stroke: #1f77b4"/>
     <use xlink:href="#m7da0ccc2fd" x="335.693647" y="211.060793" style="fill: #1f77b4; stroke: #1f77b4"/>
     <use xlink:href="#m7da0ccc2fd" x="338.768027" y="211.585196" style="fill: #1f77b4; stroke: #1f77b4"/>
     <use xlink:href="#m7da0ccc2fd" x="341.842407" y="212.078924" style="fill: #1f77b4; stroke: #1f77b4"/>
     <use xlink:href="#m7da0ccc2fd" x="344.916787" y="212.54206" style="fill: #1f77b4; stroke: #1f77b4"/>
     <use xlink:href="#m7da0ccc2fd" x="347.991167" y="212.975976" style="fill: #1f77b4; stroke: #1f77b4"/>
     <use xlink:href="#m7da0ccc2fd" x="351.065548" y="213.382084" style="fill: #1f77b4; stroke: #1f77b4"/>
     <use xlink:href="#m7da0ccc2fd" x="354.139928" y="213.761787" style="fill: #1f77b4; stroke: #1f77b4"/>
     <use xlink:href="#m7da0ccc2fd" x="357.214308" y="214.116479" style="fill: #1f77b4; stroke: #1f77b4"/>
     <use xlink:href="#m7da0ccc2fd" x="360.288688" y="214.447546" style="fill: #1f77b4; stroke: #1f77b4"/>
     <use xlink:href="#m7da0ccc2fd" x="363.363068" y="214.756364" style="fill: #1f77b4; stroke: #1f77b4"/>
    </g>
   </g>
   <g id="patch_3">
    <path d="M 43.78125 224.64 
L 43.78125 7.2 
" style="fill: none; stroke: #000000; stroke-width: 0.8; stroke-linejoin: miter; stroke-linecap: square"/>
   </g>
   <g id="patch_4">
    <path d="M 378.58125 224.64 
L 378.58125 7.2 
" style="fill: none; stroke: #000000; stroke-width: 0.8; stroke-linejoin: miter; stroke-linecap: square"/>
   </g>
   <g id="patch_5">
    <path d="M 43.78125 224.64 
L 378.58125 224.64 
" style="fill: none; stroke: #000000; stroke-width: 0.8; stroke-linejoin: miter; stroke-linecap: square"/>
   </g>
   <g id="patch_6">
    <path d="M 43.78125 7.2 
L 378.58125 7.2 
" style="fill: none; stroke: #000000; stroke-width: 0.8; stroke-linejoin: miter; stroke-linecap: square"/>
   </g>
  </g>
 </g>
 <defs>
  <clipPath id="pc9f647cbca">
   <rect x="43.78125" y="7.2" width="334.8" height="217.44"/>
  </clipPath>
 </defs>
</svg>
