<?xml version="1.0" encoding="utf-8" standalone="no"?>
<!DOCTYPE svg PUBLIC "-//W3C//DTD SVG 1.1//EN"
  "http://www.w3.org/Graphics/SVG/1.1/DTD/svg11.dtd">
<svg xmlns:xlink="http://www.w3.org/1999/xlink" width="368.925pt" height="332.782188pt" viewBox="0 0 368.925 332.782188" xmlns="http://www.w3.org/2000/svg" version="1.1">
 <metadata>
  <rdf:RDF xmlns:dc="http://purl.org/dc/elements/1.1/" xmlns:cc="http://creativecommons.org/ns#" xmlns:rdf="http://www.w3.org/1999/02/22-rdf-syntax-ns#">
   <cc:Work>
    <dc:type rdf:resource="http://purl.org/dc/dcmitype/StillImage"/>
    <dc:date>2022-01-05T15:21:04.725392</dc:date>
    <dc:format>image/svg+xml</dc:format>
    <dc:creator>
     <cc:Agent>
      <dc:title>Matplotlib v3.5.1, https://matplotlib.org/</dc:title>
     </cc:Agent>
    </dc:creator>
   </cc:Work>
  </rdf:RDF>
 </metadata>
 <defs>
  <style type="text/css">*{stroke-linejoin: round; stroke-linecap: butt}</style>
 </defs>
 <g id="figure_1">
  <g id="patch_1">
   <path d="M -0 332.782188 
L 368.925 332.782188 
L 368.925 0 
L -0 0 
L -0 332.782188 
z
" style="fill: none"/>
  </g>
  <g id="axes_1">
   <g id="patch_2">
    <path d="M 26.925 224.64 
L 361.725 224.64 
L 361.725 7.2 
L 26.925 7.2 
z
" style="fill: #ffffff"/>
   </g>
   <g id="patch_3">
    <path d="M 29.914286 224.64 
L 32.903571 224.64 
L 32.903571 223.489476 
L 29.914286 223.489476 
z
" clip-path="url(#p3a3daed7db)" style="fill: #1f77b4"/>
   </g>
   <g id="patch_4">
    <path d="M 41.871429 224.64 
L 44.860714 224.64 
L 44.860714 223.163613 
L 41.871429 223.163613 
z
" clip-path="url(#p3a3daed7db)" style="fill: #1f77b4"/>
   </g>
   <g id="patch_5">
    <path d="M 53.828571 224.64 
L 56.817857 224.64 
L 56.817857 222.5034 
L 53.828571 222.5034 
z
" clip-path="url(#p3a3daed7db)" style="fill: #1f77b4"/>
   </g>
   <g id="patch_6">
    <path d="M 65.785714 224.64 
L 68.775 224.64 
L 68.775 221.351539 
L 65.785714 221.351539 
z
" clip-path="url(#p3a3daed7db)" style="fill: #1f77b4"/>
   </g>
   <g id="patch_7">
    <path d="M 77.742857 224.64 
L 80.732143 224.64 
L 80.732143 219.765635 
L 77.742857 219.765635 
z
" clip-path="url(#p3a3daed7db)" style="fill: #1f77b4"/>
   </g>
   <g id="patch_8">
    <path d="M 89.7 224.64 
L 92.689286 224.64 
L 92.689286 219.476242 
L 89.7 219.476242 
z
" clip-path="url(#p3a3daed7db)" style="fill: #1f77b4"/>
   </g>
   <g id="patch_9">
    <path d="M 101.657143 224.64 
L 104.646429 224.64 
L 104.646429 217.52159 
L 101.657143 217.52159 
z
" clip-path="url(#p3a3daed7db)" style="fill: #1f77b4"/>
   </g>
   <g id="patch_10">
    <path d="M 113.614286 224.64 
L 116.603571 224.64 
L 116.603571 214.25644 
L 113.614286 214.25644 
z
" clip-path="url(#p3a3daed7db)" style="fill: #1f77b4"/>
   </g>
   <g id="patch_11">
    <path d="M 125.571429 224.64 
L 128.560714 224.64 
L 128.560714 212.681311 
L 125.571429 212.681311 
z
" clip-path="url(#p3a3daed7db)" style="fill: #1f77b4"/>
   </g>
   <g id="patch_12">
    <path d="M 137.528571 224.64 
L 140.517857 224.64 
L 140.517857 211.05422 
L 137.528571 211.05422 
z
" clip-path="url(#p3a3daed7db)" style="fill: #1f77b4"/>
   </g>
   <g id="patch_13">
    <path d="M 149.485714 224.64 
L 152.475 224.64 
L 152.475 210.884367 
L 149.485714 210.884367 
z
" clip-path="url(#p3a3daed7db)" style="fill: #1f77b4"/>
   </g>
   <g id="patch_14">
    <path d="M 161.442857 224.64 
L 164.432143 224.64 
L 164.432143 210.270803 
L 161.442857 210.270803 
z
" clip-path="url(#p3a3daed7db)" style="fill: #1f77b4"/>
   </g>
   <g id="patch_15">
    <path d="M 173.4 224.64 
L 176.389286 224.64 
L 176.389286 206.88872 
L 173.4 206.88872 
z
" clip-path="url(#p3a3daed7db)" style="fill: #1f77b4"/>
   </g>
   <g id="patch_16">
    <path d="M 185.357143 224.64 
L 188.346429 224.64 
L 188.346429 202.711997 
L 185.357143 202.711997 
z
" clip-path="url(#p3a3daed7db)" style="fill: #1f77b4"/>
   </g>
   <g id="patch_17">
    <path d="M 197.314286 224.64 
L 200.303571 224.64 
L 200.303571 200.150743 
L 197.314286 200.150743 
z
" clip-path="url(#p3a3daed7db)" style="fill: #1f77b4"/>
   </g>
   <g id="patch_18">
    <path d="M 209.271429 224.64 
L 212.260714 224.64 
L 212.260714 199.656857 
L 209.271429 199.656857 
z
" clip-path="url(#p3a3daed7db)" style="fill: #1f77b4"/>
   </g>
   <g id="patch_19">
    <path d="M 221.228571 224.64 
L 224.217857 224.64 
L 224.217857 198.870956 
L 221.228571 198.870956 
z
" clip-path="url(#p3a3daed7db)" style="fill: #1f77b4"/>
   </g>
   <g id="patch_20">
    <path d="M 233.185714 224.64 
L 236.175 224.64 
L 236.175 198.197966 
L 233.185714 198.197966 
z
" clip-path="url(#p3a3daed7db)" style="fill: #1f77b4"/>
   </g>
   <g id="patch_21">
    <path d="M 245.142857 224.64 
L 248.132143 224.64 
L 248.132143 197.724624 
L 245.142857 197.724624 
z
" clip-path="url(#p3a3daed7db)" style="fill: #1f77b4"/>
   </g>
   <g id="patch_22">
    <path d="M 257.1 224.64 
L 260.089286 224.64 
L 260.089286 196.266065 
L 257.1 196.266065 
z
" clip-path="url(#p3a3daed7db)" style="fill: #1f77b4"/>
   </g>
   <g id="patch_23">
    <path d="M 269.057143 224.64 
L 272.046429 224.64 
L 272.046429 181.944332 
L 269.057143 181.944332 
z
" clip-path="url(#p3a3daed7db)" style="fill: #1f77b4"/>
   </g>
   <g id="patch_24">
    <path d="M 281.014286 224.64 
L 284.003571 224.64 
L 284.003571 175.53844 
L 281.014286 175.53844 
z
" clip-path="url(#p3a3daed7db)" style="fill: #1f77b4"/>
   </g>
   <g id="patch_25">
    <path d="M 292.971429 224.64 
L 295.960714 224.64 
L 295.960714 129.725596 
L 292.971429 129.725596 
z
" clip-path="url(#p3a3daed7db)" style="fill: #1f77b4"/>
   </g>
   <g id="patch_26">
    <path d="M 304.928571 224.64 
L 307.917857 224.64 
L 307.917857 108.344465 
L 304.928571 108.344465 
z
" clip-path="url(#p3a3daed7db)" style="fill: #1f77b4"/>
   </g>
   <g id="patch_27">
    <path d="M 316.885714 224.64 
L 319.875 224.64 
L 319.875 73.195118 
L 316.885714 73.195118 
z
" clip-path="url(#p3a3daed7db)" style="fill: #1f77b4"/>
   </g>
   <g id="patch_28">
    <path d="M 328.842857 224.64 
L 331.832143 224.64 
L 331.832143 60.149773 
L 328.842857 60.149773 
z
" clip-path="url(#p3a3daed7db)" style="fill: #1f77b4"/>
   </g>
   <g id="patch_29">
    <path d="M 340.8 224.64 
L 343.789286 224.64 
L 343.789286 57.199057 
L 340.8 57.199057 
z
" clip-path="url(#p3a3daed7db)" style="fill: #1f77b4"/>
   </g>
   <g id="patch_30">
    <path d="M 352.757143 224.64 
L 355.746429 224.64 
L 355.746429 18.374998 
L 352.757143 18.374998 
z
" clip-path="url(#p3a3daed7db)" style="fill: #1f77b4"/>
   </g>
   <g id="patch_31">
    <path d="M 32.903571 224.64 
L 35.892857 224.64 
L 35.892857 223.450973 
L 32.903571 223.450973 
z
" clip-path="url(#p3a3daed7db)" style="fill: #ff7f0e"/>
   </g>
   <g id="patch_32">
    <path d="M 44.860714 224.64 
L 47.85 224.64 
L 47.85 223.135273 
L 44.860714 223.135273 
z
" clip-path="url(#p3a3daed7db)" style="fill: #ff7f0e"/>
   </g>
   <g id="patch_33">
    <path d="M 56.817857 224.64 
L 59.807143 224.64 
L 59.807143 222.47982 
L 56.817857 222.47982 
z
" clip-path="url(#p3a3daed7db)" style="fill: #ff7f0e"/>
   </g>
   <g id="patch_34">
    <path d="M 68.775 224.64 
L 71.764286 224.64 
L 71.764286 221.342793 
L 68.775 221.342793 
z
" clip-path="url(#p3a3daed7db)" style="fill: #ff7f0e"/>
   </g>
   <g id="patch_35">
    <path d="M 80.732143 224.64 
L 83.721429 224.64 
L 83.721429 219.80497 
L 80.732143 219.80497 
z
" clip-path="url(#p3a3daed7db)" style="fill: #ff7f0e"/>
   </g>
   <g id="patch_36">
    <path d="M 92.689286 224.64 
L 95.678571 224.64 
L 95.678571 219.47378 
L 92.689286 219.47378 
z
" clip-path="url(#p3a3daed7db)" style="fill: #ff7f0e"/>
   </g>
   <g id="patch_37">
    <path d="M 104.646429 224.64 
L 107.635714 224.64 
L 107.635714 217.619079 
L 104.646429 217.619079 
z
" clip-path="url(#p3a3daed7db)" style="fill: #ff7f0e"/>
   </g>
   <g id="patch_38">
    <path d="M 116.603571 224.64 
L 119.592857 224.64 
L 119.592857 214.378214 
L 116.603571 214.378214 
z
" clip-path="url(#p3a3daed7db)" style="fill: #ff7f0e"/>
   </g>
   <g id="patch_39">
    <path d="M 128.560714 224.64 
L 131.55 224.64 
L 131.55 212.546647 
L 128.560714 212.546647 
z
" clip-path="url(#p3a3daed7db)" style="fill: #ff7f0e"/>
   </g>
   <g id="patch_40">
    <path d="M 140.517857 224.64 
L 143.507143 224.64 
L 143.507143 211.034781 
L 140.517857 211.034781 
z
" clip-path="url(#p3a3daed7db)" style="fill: #ff7f0e"/>
   </g>
   <g id="patch_41">
    <path d="M 152.475 224.64 
L 155.464286 224.64 
L 155.464286 210.859789 
L 152.475 210.859789 
z
" clip-path="url(#p3a3daed7db)" style="fill: #ff7f0e"/>
   </g>
   <g id="patch_42">
    <path d="M 164.432143 224.64 
L 167.421429 224.64 
L 167.421429 210.189766 
L 164.432143 210.189766 
z
" clip-path="url(#p3a3daed7db)" style="fill: #ff7f0e"/>
   </g>
   <g id="patch_43">
    <path d="M 176.389286 224.64 
L 179.378571 224.64 
L 179.378571 207.018258 
L 176.389286 207.018258 
z
" clip-path="url(#p3a3daed7db)" style="fill: #ff7f0e"/>
   </g>
   <g id="patch_44">
    <path d="M 188.346429 224.64 
L 191.335714 224.64 
L 191.335714 202.588516 
L 188.346429 202.588516 
z
" clip-path="url(#p3a3daed7db)" style="fill: #ff7f0e"/>
   </g>
   <g id="patch_45">
    <path d="M 200.303571 224.64 
L 203.292857 224.64 
L 203.292857 200.198709 
L 200.303571 200.198709 
z
" clip-path="url(#p3a3daed7db)" style="fill: #ff7f0e"/>
   </g>
   <g id="patch_46">
    <path d="M 212.260714 224.64 
L 215.25 224.64 
L 215.25 199.344194 
L 212.260714 199.344194 
z
" clip-path="url(#p3a3daed7db)" style="fill: #ff7f0e"/>
   </g>
   <g id="patch_47">
    <path d="M 224.217857 224.64 
L 227.207143 224.64 
L 227.207143 198.917312 
L 224.217857 198.917312 
z
" clip-path="url(#p3a3daed7db)" style="fill: #ff7f0e"/>
   </g>
   <g id="patch_48">
    <path d="M 236.175 224.64 
L 239.164286 224.64 
L 239.164286 198.119894 
L 236.175 198.119894 
z
" clip-path="url(#p3a3daed7db)" style="fill: #ff7f0e"/>
   </g>
   <g id="patch_49">
    <path d="M 248.132143 224.64 
L 251.121429 224.64 
L 251.121429 197.797922 
L 248.132143 197.797922 
z
" clip-path="url(#p3a3daed7db)" style="fill: #ff7f0e"/>
   </g>
   <g id="patch_50">
    <path d="M 260.089286 224.64 
L 263.078571 224.64 
L 263.078571 196.112767 
L 260.089286 196.112767 
z
" clip-path="url(#p3a3daed7db)" style="fill: #ff7f0e"/>
   </g>
   <g id="patch_51">
    <path d="M 272.046429 224.64 
L 275.035714 224.64 
L 275.035714 181.695437 
L 272.046429 181.695437 
z
" clip-path="url(#p3a3daed7db)" style="fill: #ff7f0e"/>
   </g>
   <g id="patch_52">
    <path d="M 284.003571 224.64 
L 286.992857 224.64 
L 286.992857 175.840205 
L 284.003571 175.840205 
z
" clip-path="url(#p3a3daed7db)" style="fill: #ff7f0e"/>
   </g>
   <g id="patch_53">
    <path d="M 295.960714 224.64 
L 298.95 224.64 
L 298.95 129.71629 
L 295.960714 129.71629 
z
" clip-path="url(#p3a3daed7db)" style="fill: #ff7f0e"/>
   </g>
   <g id="patch_54">
    <path d="M 307.917857 224.64 
L 310.907143 224.64 
L 310.907143 108.01387 
L 307.917857 108.01387 
z
" clip-path="url(#p3a3daed7db)" style="fill: #ff7f0e"/>
   </g>
   <g id="patch_55">
    <path d="M 319.875 224.64 
L 322.864286 224.64 
L 322.864286 73.458748 
L 319.875 73.458748 
z
" clip-path="url(#p3a3daed7db)" style="fill: #ff7f0e"/>
   </g>
   <g id="patch_56">
    <path d="M 331.832143 224.64 
L 334.821429 224.64 
L 334.821429 59.076391 
L 331.832143 59.076391 
z
" clip-path="url(#p3a3daed7db)" style="fill: #ff7f0e"/>
   </g>
   <g id="patch_57">
    <path d="M 343.789286 224.64 
L 346.778571 224.64 
L 346.778571 56.617018 
L 343.789286 56.617018 
z
" clip-path="url(#p3a3daed7db)" style="fill: #ff7f0e"/>
   </g>
   <g id="patch_58">
    <path d="M 355.746429 224.64 
L 358.735714 224.64 
L 358.735714 17.554286 
L 355.746429 17.554286 
z
" clip-path="url(#p3a3daed7db)" style="fill: #ff7f0e"/>
   </g>
   <g id="matplotlib.axis_1">
    <g id="xtick_1">
     <g id="line2d_1">
      <defs>
       <path id="medb6a2e37f" d="M 0 0 
L 0 3.5 
" style="stroke: #000000; stroke-width: 0.8"/>
      </defs>
      <g>
       <use xlink:href="#medb6a2e37f" x="32.903571" y="224.64" style="stroke: #000000; stroke-width: 0.8"/>
      </g>
     </g>
     <g id="text_1">
      <!-- Malta -->
      <g transform="translate(35.662946 259.222813)rotate(-90)scale(0.1 -0.1)">
       <defs>
        <path id="DejaVuSans-4d" d="M 628 4666 
L 1569 4666 
L 2759 1491 
L 3956 4666 
L 4897 4666 
L 4897 0 
L 4281 0 
L 4281 4097 
L 3078 897 
L 2444 897 
L 1241 4097 
L 1241 0 
L 628 0 
L 628 4666 
z
" transform="scale(0.015625)"/>
        <path id="DejaVuSans-61" d="M 2194 1759 
Q 1497 1759 1228 1600 
Q 959 1441 959 1056 
Q 959 750 1161 570 
Q 1363 391 1709 391 
Q 2188 391 2477 730 
Q 2766 1069 2766 1631 
L 2766 1759 
L 2194 1759 
z
M 3341 1997 
L 3341 0 
L 2766 0 
L 2766 531 
Q 2569 213 2275 61 
Q 1981 -91 1556 -91 
Q 1019 -91 701 211 
Q 384 513 384 1019 
Q 384 1609 779 1909 
Q 1175 2209 1959 2209 
L 2766 2209 
L 2766 2266 
Q 2766 2663 2505 2880 
Q 2244 3097 1772 3097 
Q 1472 3097 1187 3025 
Q 903 2953 641 2809 
L 641 3341 
Q 956 3463 1253 3523 
Q 1550 3584 1831 3584 
Q 2591 3584 2966 3190 
Q 3341 2797 3341 1997 
z
" transform="scale(0.015625)"/>
        <path id="DejaVuSans-6c" d="M 603 4863 
L 1178 4863 
L 1178 0 
L 603 0 
L 603 4863 
z
" transform="scale(0.015625)"/>
        <path id="DejaVuSans-74" d="M 1172 4494 
L 1172 3500 
L 2356 3500 
L 2356 3053 
L 1172 3053 
L 1172 1153 
Q 1172 725 1289 603 
Q 1406 481 1766 481 
L 2356 481 
L 2356 0 
L 1766 0 
Q 1100 0 847 248 
Q 594 497 594 1153 
L 594 3053 
L 172 3053 
L 172 3500 
L 594 3500 
L 594 4494 
L 1172 4494 
z
" transform="scale(0.015625)"/>
       </defs>
       <use xlink:href="#DejaVuSans-4d"/>
       <use xlink:href="#DejaVuSans-61" x="86.279297"/>
       <use xlink:href="#DejaVuSans-6c" x="147.558594"/>
       <use xlink:href="#DejaVuSans-74" x="175.341797"/>
       <use xlink:href="#DejaVuSans-61" x="214.550781"/>
      </g>
     </g>
    </g>
    <g id="xtick_2">
     <g id="line2d_2">
      <g>
       <use xlink:href="#medb6a2e37f" x="44.860714" y="224.64" style="stroke: #000000; stroke-width: 0.8"/>
      </g>
     </g>
     <g id="text_2">
      <!-- Luxembourg -->
      <g transform="translate(47.620089 293.963438)rotate(-90)scale(0.1 -0.1)">
       <defs>
        <path id="DejaVuSans-4c" d="M 628 4666 
L 1259 4666 
L 1259 531 
L 3531 531 
L 3531 0 
L 628 0 
L 628 4666 
z
" transform="scale(0.015625)"/>
        <path id="DejaVuSans-75" d="M 544 1381 
L 544 3500 
L 1119 3500 
L 1119 1403 
Q 1119 906 1312 657 
Q 1506 409 1894 409 
Q 2359 409 2629 706 
Q 2900 1003 2900 1516 
L 2900 3500 
L 3475 3500 
L 3475 0 
L 2900 0 
L 2900 538 
Q 2691 219 2414 64 
Q 2138 -91 1772 -91 
Q 1169 -91 856 284 
Q 544 659 544 1381 
z
M 1991 3584 
L 1991 3584 
z
" transform="scale(0.015625)"/>
        <path id="DejaVuSans-78" d="M 3513 3500 
L 2247 1797 
L 3578 0 
L 2900 0 
L 1881 1375 
L 863 0 
L 184 0 
L 1544 1831 
L 300 3500 
L 978 3500 
L 1906 2253 
L 2834 3500 
L 3513 3500 
z
" transform="scale(0.015625)"/>
        <path id="DejaVuSans-65" d="M 3597 1894 
L 3597 1613 
L 953 1613 
Q 991 1019 1311 708 
Q 1631 397 2203 397 
Q 2534 397 2845 478 
Q 3156 559 3463 722 
L 3463 178 
Q 3153 47 2828 -22 
Q 2503 -91 2169 -91 
Q 1331 -91 842 396 
Q 353 884 353 1716 
Q 353 2575 817 3079 
Q 1281 3584 2069 3584 
Q 2775 3584 3186 3129 
Q 3597 2675 3597 1894 
z
M 3022 2063 
Q 3016 2534 2758 2815 
Q 2500 3097 2075 3097 
Q 1594 3097 1305 2825 
Q 1016 2553 972 2059 
L 3022 2063 
z
" transform="scale(0.015625)"/>
        <path id="DejaVuSans-6d" d="M 3328 2828 
Q 3544 3216 3844 3400 
Q 4144 3584 4550 3584 
Q 5097 3584 5394 3201 
Q 5691 2819 5691 2113 
L 5691 0 
L 5113 0 
L 5113 2094 
Q 5113 2597 4934 2840 
Q 4756 3084 4391 3084 
Q 3944 3084 3684 2787 
Q 3425 2491 3425 1978 
L 3425 0 
L 2847 0 
L 2847 2094 
Q 2847 2600 2669 2842 
Q 2491 3084 2119 3084 
Q 1678 3084 1418 2786 
Q 1159 2488 1159 1978 
L 1159 0 
L 581 0 
L 581 3500 
L 1159 3500 
L 1159 2956 
Q 1356 3278 1631 3431 
Q 1906 3584 2284 3584 
Q 2666 3584 2933 3390 
Q 3200 3197 3328 2828 
z
" transform="scale(0.015625)"/>
        <path id="DejaVuSans-62" d="M 3116 1747 
Q 3116 2381 2855 2742 
Q 2594 3103 2138 3103 
Q 1681 3103 1420 2742 
Q 1159 2381 1159 1747 
Q 1159 1113 1420 752 
Q 1681 391 2138 391 
Q 2594 391 2855 752 
Q 3116 1113 3116 1747 
z
M 1159 2969 
Q 1341 3281 1617 3432 
Q 1894 3584 2278 3584 
Q 2916 3584 3314 3078 
Q 3713 2572 3713 1747 
Q 3713 922 3314 415 
Q 2916 -91 2278 -91 
Q 1894 -91 1617 61 
Q 1341 213 1159 525 
L 1159 0 
L 581 0 
L 581 4863 
L 1159 4863 
L 1159 2969 
z
" transform="scale(0.015625)"/>
        <path id="DejaVuSans-6f" d="M 1959 3097 
Q 1497 3097 1228 2736 
Q 959 2375 959 1747 
Q 959 1119 1226 758 
Q 1494 397 1959 397 
Q 2419 397 2687 759 
Q 2956 1122 2956 1747 
Q 2956 2369 2687 2733 
Q 2419 3097 1959 3097 
z
M 1959 3584 
Q 2709 3584 3137 3096 
Q 3566 2609 3566 1747 
Q 3566 888 3137 398 
Q 2709 -91 1959 -91 
Q 1206 -91 779 398 
Q 353 888 353 1747 
Q 353 2609 779 3096 
Q 1206 3584 1959 3584 
z
" transform="scale(0.015625)"/>
        <path id="DejaVuSans-72" d="M 2631 2963 
Q 2534 3019 2420 3045 
Q 2306 3072 2169 3072 
Q 1681 3072 1420 2755 
Q 1159 2438 1159 1844 
L 1159 0 
L 581 0 
L 581 3500 
L 1159 3500 
L 1159 2956 
Q 1341 3275 1631 3429 
Q 1922 3584 2338 3584 
Q 2397 3584 2469 3576 
Q 2541 3569 2628 3553 
L 2631 2963 
z
" transform="scale(0.015625)"/>
        <path id="DejaVuSans-67" d="M 2906 1791 
Q 2906 2416 2648 2759 
Q 2391 3103 1925 3103 
Q 1463 3103 1205 2759 
Q 947 2416 947 1791 
Q 947 1169 1205 825 
Q 1463 481 1925 481 
Q 2391 481 2648 825 
Q 2906 1169 2906 1791 
z
M 3481 434 
Q 3481 -459 3084 -895 
Q 2688 -1331 1869 -1331 
Q 1566 -1331 1297 -1286 
Q 1028 -1241 775 -1147 
L 775 -588 
Q 1028 -725 1275 -790 
Q 1522 -856 1778 -856 
Q 2344 -856 2625 -561 
Q 2906 -266 2906 331 
L 2906 616 
Q 2728 306 2450 153 
Q 2172 0 1784 0 
Q 1141 0 747 490 
Q 353 981 353 1791 
Q 353 2603 747 3093 
Q 1141 3584 1784 3584 
Q 2172 3584 2450 3431 
Q 2728 3278 2906 2969 
L 2906 3500 
L 3481 3500 
L 3481 434 
z
" transform="scale(0.015625)"/>
       </defs>
       <use xlink:href="#DejaVuSans-4c"/>
       <use xlink:href="#DejaVuSans-75" x="53.962891"/>
       <use xlink:href="#DejaVuSans-78" x="117.341797"/>
       <use xlink:href="#DejaVuSans-65" x="173.396484"/>
       <use xlink:href="#DejaVuSans-6d" x="234.919922"/>
       <use xlink:href="#DejaVuSans-62" x="332.332031"/>
       <use xlink:href="#DejaVuSans-6f" x="395.808594"/>
       <use xlink:href="#DejaVuSans-75" x="456.990234"/>
       <use xlink:href="#DejaVuSans-72" x="520.369141"/>
       <use xlink:href="#DejaVuSans-67" x="559.732422"/>
      </g>
     </g>
    </g>
    <g id="xtick_3">
     <g id="line2d_3">
      <g>
       <use xlink:href="#medb6a2e37f" x="56.817857" y="224.64" style="stroke: #000000; stroke-width: 0.8"/>
      </g>
     </g>
     <g id="text_3">
      <!-- Cyprus -->
      <g transform="translate(59.577232 266.547813)rotate(-90)scale(0.1 -0.1)">
       <defs>
        <path id="DejaVuSans-43" d="M 4122 4306 
L 4122 3641 
Q 3803 3938 3442 4084 
Q 3081 4231 2675 4231 
Q 1875 4231 1450 3742 
Q 1025 3253 1025 2328 
Q 1025 1406 1450 917 
Q 1875 428 2675 428 
Q 3081 428 3442 575 
Q 3803 722 4122 1019 
L 4122 359 
Q 3791 134 3420 21 
Q 3050 -91 2638 -91 
Q 1578 -91 968 557 
Q 359 1206 359 2328 
Q 359 3453 968 4101 
Q 1578 4750 2638 4750 
Q 3056 4750 3426 4639 
Q 3797 4528 4122 4306 
z
" transform="scale(0.015625)"/>
        <path id="DejaVuSans-79" d="M 2059 -325 
Q 1816 -950 1584 -1140 
Q 1353 -1331 966 -1331 
L 506 -1331 
L 506 -850 
L 844 -850 
Q 1081 -850 1212 -737 
Q 1344 -625 1503 -206 
L 1606 56 
L 191 3500 
L 800 3500 
L 1894 763 
L 2988 3500 
L 3597 3500 
L 2059 -325 
z
" transform="scale(0.015625)"/>
        <path id="DejaVuSans-70" d="M 1159 525 
L 1159 -1331 
L 581 -1331 
L 581 3500 
L 1159 3500 
L 1159 2969 
Q 1341 3281 1617 3432 
Q 1894 3584 2278 3584 
Q 2916 3584 3314 3078 
Q 3713 2572 3713 1747 
Q 3713 922 3314 415 
Q 2916 -91 2278 -91 
Q 1894 -91 1617 61 
Q 1341 213 1159 525 
z
M 3116 1747 
Q 3116 2381 2855 2742 
Q 2594 3103 2138 3103 
Q 1681 3103 1420 2742 
Q 1159 2381 1159 1747 
Q 1159 1113 1420 752 
Q 1681 391 2138 391 
Q 2594 391 2855 752 
Q 3116 1113 3116 1747 
z
" transform="scale(0.015625)"/>
        <path id="DejaVuSans-73" d="M 2834 3397 
L 2834 2853 
Q 2591 2978 2328 3040 
Q 2066 3103 1784 3103 
Q 1356 3103 1142 2972 
Q 928 2841 928 2578 
Q 928 2378 1081 2264 
Q 1234 2150 1697 2047 
L 1894 2003 
Q 2506 1872 2764 1633 
Q 3022 1394 3022 966 
Q 3022 478 2636 193 
Q 2250 -91 1575 -91 
Q 1294 -91 989 -36 
Q 684 19 347 128 
L 347 722 
Q 666 556 975 473 
Q 1284 391 1588 391 
Q 1994 391 2212 530 
Q 2431 669 2431 922 
Q 2431 1156 2273 1281 
Q 2116 1406 1581 1522 
L 1381 1569 
Q 847 1681 609 1914 
Q 372 2147 372 2553 
Q 372 3047 722 3315 
Q 1072 3584 1716 3584 
Q 2034 3584 2315 3537 
Q 2597 3491 2834 3397 
z
" transform="scale(0.015625)"/>
       </defs>
       <use xlink:href="#DejaVuSans-43"/>
       <use xlink:href="#DejaVuSans-79" x="69.824219"/>
       <use xlink:href="#DejaVuSans-70" x="129.003906"/>
       <use xlink:href="#DejaVuSans-72" x="192.480469"/>
       <use xlink:href="#DejaVuSans-75" x="233.59375"/>
       <use xlink:href="#DejaVuSans-73" x="296.972656"/>
      </g>
     </g>
    </g>
    <g id="xtick_4">
     <g id="line2d_4">
      <g>
       <use xlink:href="#medb6a2e37f" x="68.775" y="224.64" style="stroke: #000000; stroke-width: 0.8"/>
      </g>
     </g>
     <g id="text_4">
      <!-- Estonia  -->
      <g transform="translate(71.534375 271.629063)rotate(-90)scale(0.1 -0.1)">
       <defs>
        <path id="DejaVuSans-45" d="M 628 4666 
L 3578 4666 
L 3578 4134 
L 1259 4134 
L 1259 2753 
L 3481 2753 
L 3481 2222 
L 1259 2222 
L 1259 531 
L 3634 531 
L 3634 0 
L 628 0 
L 628 4666 
z
" transform="scale(0.015625)"/>
        <path id="DejaVuSans-6e" d="M 3513 2113 
L 3513 0 
L 2938 0 
L 2938 2094 
Q 2938 2591 2744 2837 
Q 2550 3084 2163 3084 
Q 1697 3084 1428 2787 
Q 1159 2491 1159 1978 
L 1159 0 
L 581 0 
L 581 3500 
L 1159 3500 
L 1159 2956 
Q 1366 3272 1645 3428 
Q 1925 3584 2291 3584 
Q 2894 3584 3203 3211 
Q 3513 2838 3513 2113 
z
" transform="scale(0.015625)"/>
        <path id="DejaVuSans-69" d="M 603 3500 
L 1178 3500 
L 1178 0 
L 603 0 
L 603 3500 
z
M 603 4863 
L 1178 4863 
L 1178 4134 
L 603 4134 
L 603 4863 
z
" transform="scale(0.015625)"/>
        <path id="DejaVuSans-20" transform="scale(0.015625)"/>
       </defs>
       <use xlink:href="#DejaVuSans-45"/>
       <use xlink:href="#DejaVuSans-73" x="63.183594"/>
       <use xlink:href="#DejaVuSans-74" x="115.283203"/>
       <use xlink:href="#DejaVuSans-6f" x="154.492188"/>
       <use xlink:href="#DejaVuSans-6e" x="215.673828"/>
       <use xlink:href="#DejaVuSans-69" x="279.052734"/>
       <use xlink:href="#DejaVuSans-61" x="306.835938"/>
       <use xlink:href="#DejaVuSans-20" x="368.115234"/>
      </g>
     </g>
    </g>
    <g id="xtick_5">
     <g id="line2d_5">
      <g>
       <use xlink:href="#medb6a2e37f" x="80.732143" y="224.64" style="stroke: #000000; stroke-width: 0.8"/>
      </g>
     </g>
     <g id="text_5">
      <!-- Latvia -->
      <g transform="translate(83.491518 262.085313)rotate(-90)scale(0.1 -0.1)">
       <defs>
        <path id="DejaVuSans-76" d="M 191 3500 
L 800 3500 
L 1894 563 
L 2988 3500 
L 3597 3500 
L 2284 0 
L 1503 0 
L 191 3500 
z
" transform="scale(0.015625)"/>
       </defs>
       <use xlink:href="#DejaVuSans-4c"/>
       <use xlink:href="#DejaVuSans-61" x="55.712891"/>
       <use xlink:href="#DejaVuSans-74" x="116.992188"/>
       <use xlink:href="#DejaVuSans-76" x="156.201172"/>
       <use xlink:href="#DejaVuSans-69" x="215.380859"/>
       <use xlink:href="#DejaVuSans-61" x="243.164062"/>
      </g>
     </g>
    </g>
    <g id="xtick_6">
     <g id="line2d_6">
      <g>
       <use xlink:href="#medb6a2e37f" x="92.689286" y="224.64" style="stroke: #000000; stroke-width: 0.8"/>
      </g>
     </g>
     <g id="text_6">
      <!-- Slovenia -->
      <g transform="translate(95.448661 274.200938)rotate(-90)scale(0.1 -0.1)">
       <defs>
        <path id="DejaVuSans-53" d="M 3425 4513 
L 3425 3897 
Q 3066 4069 2747 4153 
Q 2428 4238 2131 4238 
Q 1616 4238 1336 4038 
Q 1056 3838 1056 3469 
Q 1056 3159 1242 3001 
Q 1428 2844 1947 2747 
L 2328 2669 
Q 3034 2534 3370 2195 
Q 3706 1856 3706 1288 
Q 3706 609 3251 259 
Q 2797 -91 1919 -91 
Q 1588 -91 1214 -16 
Q 841 59 441 206 
L 441 856 
Q 825 641 1194 531 
Q 1563 422 1919 422 
Q 2459 422 2753 634 
Q 3047 847 3047 1241 
Q 3047 1584 2836 1778 
Q 2625 1972 2144 2069 
L 1759 2144 
Q 1053 2284 737 2584 
Q 422 2884 422 3419 
Q 422 4038 858 4394 
Q 1294 4750 2059 4750 
Q 2388 4750 2728 4690 
Q 3069 4631 3425 4513 
z
" transform="scale(0.015625)"/>
       </defs>
       <use xlink:href="#DejaVuSans-53"/>
       <use xlink:href="#DejaVuSans-6c" x="63.476562"/>
       <use xlink:href="#DejaVuSans-6f" x="91.259766"/>
       <use xlink:href="#DejaVuSans-76" x="152.441406"/>
       <use xlink:href="#DejaVuSans-65" x="211.621094"/>
       <use xlink:href="#DejaVuSans-6e" x="273.144531"/>
       <use xlink:href="#DejaVuSans-69" x="336.523438"/>
       <use xlink:href="#DejaVuSans-61" x="364.306641"/>
      </g>
     </g>
    </g>
    <g id="xtick_7">
     <g id="line2d_7">
      <g>
       <use xlink:href="#medb6a2e37f" x="104.646429" y="224.64" style="stroke: #000000; stroke-width: 0.8"/>
      </g>
     </g>
     <g id="text_7">
      <!-- Lithuania -->
      <g transform="translate(107.405804 277.957188)rotate(-90)scale(0.1 -0.1)">
       <defs>
        <path id="DejaVuSans-68" d="M 3513 2113 
L 3513 0 
L 2938 0 
L 2938 2094 
Q 2938 2591 2744 2837 
Q 2550 3084 2163 3084 
Q 1697 3084 1428 2787 
Q 1159 2491 1159 1978 
L 1159 0 
L 581 0 
L 581 4863 
L 1159 4863 
L 1159 2956 
Q 1366 3272 1645 3428 
Q 1925 3584 2291 3584 
Q 2894 3584 3203 3211 
Q 3513 2838 3513 2113 
z
" transform="scale(0.015625)"/>
       </defs>
       <use xlink:href="#DejaVuSans-4c"/>
       <use xlink:href="#DejaVuSans-69" x="55.712891"/>
       <use xlink:href="#DejaVuSans-74" x="83.496094"/>
       <use xlink:href="#DejaVuSans-68" x="122.705078"/>
       <use xlink:href="#DejaVuSans-75" x="186.083984"/>
       <use xlink:href="#DejaVuSans-61" x="249.462891"/>
       <use xlink:href="#DejaVuSans-6e" x="310.742188"/>
       <use xlink:href="#DejaVuSans-69" x="374.121094"/>
       <use xlink:href="#DejaVuSans-61" x="401.904297"/>
      </g>
     </g>
    </g>
    <g id="xtick_8">
     <g id="line2d_8">
      <g>
       <use xlink:href="#medb6a2e37f" x="116.603571" y="224.64" style="stroke: #000000; stroke-width: 0.8"/>
      </g>
     </g>
     <g id="text_8">
      <!-- Croatia -->
      <g transform="translate(119.362946 267.582188)rotate(-90)scale(0.1 -0.1)">
       <use xlink:href="#DejaVuSans-43"/>
       <use xlink:href="#DejaVuSans-72" x="69.824219"/>
       <use xlink:href="#DejaVuSans-6f" x="108.6875"/>
       <use xlink:href="#DejaVuSans-61" x="169.869141"/>
       <use xlink:href="#DejaVuSans-74" x="231.148438"/>
       <use xlink:href="#DejaVuSans-69" x="270.357422"/>
       <use xlink:href="#DejaVuSans-61" x="298.140625"/>
      </g>
     </g>
    </g>
    <g id="xtick_9">
     <g id="line2d_9">
      <g>
       <use xlink:href="#medb6a2e37f" x="128.560714" y="224.64" style="stroke: #000000; stroke-width: 0.8"/>
      </g>
     </g>
     <g id="text_9">
      <!-- Ireland -->
      <g transform="translate(131.320089 266.22125)rotate(-90)scale(0.1 -0.1)">
       <defs>
        <path id="DejaVuSans-49" d="M 628 4666 
L 1259 4666 
L 1259 0 
L 628 0 
L 628 4666 
z
" transform="scale(0.015625)"/>
        <path id="DejaVuSans-64" d="M 2906 2969 
L 2906 4863 
L 3481 4863 
L 3481 0 
L 2906 0 
L 2906 525 
Q 2725 213 2448 61 
Q 2172 -91 1784 -91 
Q 1150 -91 751 415 
Q 353 922 353 1747 
Q 353 2572 751 3078 
Q 1150 3584 1784 3584 
Q 2172 3584 2448 3432 
Q 2725 3281 2906 2969 
z
M 947 1747 
Q 947 1113 1208 752 
Q 1469 391 1925 391 
Q 2381 391 2643 752 
Q 2906 1113 2906 1747 
Q 2906 2381 2643 2742 
Q 2381 3103 1925 3103 
Q 1469 3103 1208 2742 
Q 947 2381 947 1747 
z
" transform="scale(0.015625)"/>
       </defs>
       <use xlink:href="#DejaVuSans-49"/>
       <use xlink:href="#DejaVuSans-72" x="29.492188"/>
       <use xlink:href="#DejaVuSans-65" x="68.355469"/>
       <use xlink:href="#DejaVuSans-6c" x="129.878906"/>
       <use xlink:href="#DejaVuSans-61" x="157.662109"/>
       <use xlink:href="#DejaVuSans-6e" x="218.941406"/>
       <use xlink:href="#DejaVuSans-64" x="282.320312"/>
      </g>
     </g>
    </g>
    <g id="xtick_10">
     <g id="line2d_10">
      <g>
       <use xlink:href="#medb6a2e37f" x="140.517857" y="224.64" style="stroke: #000000; stroke-width: 0.8"/>
      </g>
     </g>
     <g id="text_10">
      <!-- Slovakia -->
      <g transform="translate(143.277232 273.629063)rotate(-90)scale(0.1 -0.1)">
       <defs>
        <path id="DejaVuSans-6b" d="M 581 4863 
L 1159 4863 
L 1159 1991 
L 2875 3500 
L 3609 3500 
L 1753 1863 
L 3688 0 
L 2938 0 
L 1159 1709 
L 1159 0 
L 581 0 
L 581 4863 
z
" transform="scale(0.015625)"/>
       </defs>
       <use xlink:href="#DejaVuSans-53"/>
       <use xlink:href="#DejaVuSans-6c" x="63.476562"/>
       <use xlink:href="#DejaVuSans-6f" x="91.259766"/>
       <use xlink:href="#DejaVuSans-76" x="152.441406"/>
       <use xlink:href="#DejaVuSans-61" x="211.621094"/>
       <use xlink:href="#DejaVuSans-6b" x="272.900391"/>
       <use xlink:href="#DejaVuSans-69" x="330.810547"/>
       <use xlink:href="#DejaVuSans-61" x="358.59375"/>
      </g>
     </g>
    </g>
    <g id="xtick_11">
     <g id="line2d_11">
      <g>
       <use xlink:href="#medb6a2e37f" x="152.475" y="224.64" style="stroke: #000000; stroke-width: 0.8"/>
      </g>
     </g>
     <g id="text_11">
      <!-- Finland -->
      <g transform="translate(155.234375 267.374375)rotate(-90)scale(0.1 -0.1)">
       <defs>
        <path id="DejaVuSans-46" d="M 628 4666 
L 3309 4666 
L 3309 4134 
L 1259 4134 
L 1259 2759 
L 3109 2759 
L 3109 2228 
L 1259 2228 
L 1259 0 
L 628 0 
L 628 4666 
z
" transform="scale(0.015625)"/>
       </defs>
       <use xlink:href="#DejaVuSans-46"/>
       <use xlink:href="#DejaVuSans-69" x="50.269531"/>
       <use xlink:href="#DejaVuSans-6e" x="78.052734"/>
       <use xlink:href="#DejaVuSans-6c" x="141.431641"/>
       <use xlink:href="#DejaVuSans-61" x="169.214844"/>
       <use xlink:href="#DejaVuSans-6e" x="230.494141"/>
       <use xlink:href="#DejaVuSans-64" x="293.873047"/>
      </g>
     </g>
    </g>
    <g id="xtick_12">
     <g id="line2d_12">
      <g>
       <use xlink:href="#medb6a2e37f" x="164.432143" y="224.64" style="stroke: #000000; stroke-width: 0.8"/>
      </g>
     </g>
     <g id="text_12">
      <!-- Denmark -->
      <g transform="translate(167.191518 277.600938)rotate(-90)scale(0.1 -0.1)">
       <defs>
        <path id="DejaVuSans-44" d="M 1259 4147 
L 1259 519 
L 2022 519 
Q 2988 519 3436 956 
Q 3884 1394 3884 2338 
Q 3884 3275 3436 3711 
Q 2988 4147 2022 4147 
L 1259 4147 
z
M 628 4666 
L 1925 4666 
Q 3281 4666 3915 4102 
Q 4550 3538 4550 2338 
Q 4550 1131 3912 565 
Q 3275 0 1925 0 
L 628 0 
L 628 4666 
z
" transform="scale(0.015625)"/>
       </defs>
       <use xlink:href="#DejaVuSans-44"/>
       <use xlink:href="#DejaVuSans-65" x="77.001953"/>
       <use xlink:href="#DejaVuSans-6e" x="138.525391"/>
       <use xlink:href="#DejaVuSans-6d" x="201.904297"/>
       <use xlink:href="#DejaVuSans-61" x="299.316406"/>
       <use xlink:href="#DejaVuSans-72" x="360.595703"/>
       <use xlink:href="#DejaVuSans-6b" x="401.708984"/>
      </g>
     </g>
    </g>
    <g id="xtick_13">
     <g id="line2d_13">
      <g>
       <use xlink:href="#medb6a2e37f" x="176.389286" y="224.64" style="stroke: #000000; stroke-width: 0.8"/>
      </g>
     </g>
     <g id="text_13">
      <!-- Bulgaria -->
      <g transform="translate(179.148661 273.110313)rotate(-90)scale(0.1 -0.1)">
       <defs>
        <path id="DejaVuSans-42" d="M 1259 2228 
L 1259 519 
L 2272 519 
Q 2781 519 3026 730 
Q 3272 941 3272 1375 
Q 3272 1813 3026 2020 
Q 2781 2228 2272 2228 
L 1259 2228 
z
M 1259 4147 
L 1259 2741 
L 2194 2741 
Q 2656 2741 2882 2914 
Q 3109 3088 3109 3444 
Q 3109 3797 2882 3972 
Q 2656 4147 2194 4147 
L 1259 4147 
z
M 628 4666 
L 2241 4666 
Q 2963 4666 3353 4366 
Q 3744 4066 3744 3513 
Q 3744 3084 3544 2831 
Q 3344 2578 2956 2516 
Q 3422 2416 3680 2098 
Q 3938 1781 3938 1306 
Q 3938 681 3513 340 
Q 3088 0 2303 0 
L 628 0 
L 628 4666 
z
" transform="scale(0.015625)"/>
       </defs>
       <use xlink:href="#DejaVuSans-42"/>
       <use xlink:href="#DejaVuSans-75" x="68.603516"/>
       <use xlink:href="#DejaVuSans-6c" x="131.982422"/>
       <use xlink:href="#DejaVuSans-67" x="159.765625"/>
       <use xlink:href="#DejaVuSans-61" x="223.242188"/>
       <use xlink:href="#DejaVuSans-72" x="284.521484"/>
       <use xlink:href="#DejaVuSans-69" x="325.634766"/>
       <use xlink:href="#DejaVuSans-61" x="353.417969"/>
      </g>
     </g>
    </g>
    <g id="xtick_14">
     <g id="line2d_14">
      <g>
       <use xlink:href="#medb6a2e37f" x="188.346429" y="224.64" style="stroke: #000000; stroke-width: 0.8"/>
      </g>
     </g>
     <g id="text_14">
      <!-- Austria -->
      <g transform="translate(191.105804 266.965)rotate(-90)scale(0.1 -0.1)">
       <defs>
        <path id="DejaVuSans-41" d="M 2188 4044 
L 1331 1722 
L 3047 1722 
L 2188 4044 
z
M 1831 4666 
L 2547 4666 
L 4325 0 
L 3669 0 
L 3244 1197 
L 1141 1197 
L 716 0 
L 50 0 
L 1831 4666 
z
" transform="scale(0.015625)"/>
       </defs>
       <use xlink:href="#DejaVuSans-41"/>
       <use xlink:href="#DejaVuSans-75" x="68.408203"/>
       <use xlink:href="#DejaVuSans-73" x="131.787109"/>
       <use xlink:href="#DejaVuSans-74" x="183.886719"/>
       <use xlink:href="#DejaVuSans-72" x="223.095703"/>
       <use xlink:href="#DejaVuSans-69" x="264.208984"/>
       <use xlink:href="#DejaVuSans-61" x="291.992188"/>
      </g>
     </g>
    </g>
    <g id="xtick_15">
     <g id="line2d_15">
      <g>
       <use xlink:href="#medb6a2e37f" x="200.303571" y="224.64" style="stroke: #000000; stroke-width: 0.8"/>
      </g>
     </g>
     <g id="text_15">
      <!-- Hungary -->
      <g transform="translate(203.062946 274.341563)rotate(-90)scale(0.1 -0.1)">
       <defs>
        <path id="DejaVuSans-48" d="M 628 4666 
L 1259 4666 
L 1259 2753 
L 3553 2753 
L 3553 4666 
L 4184 4666 
L 4184 0 
L 3553 0 
L 3553 2222 
L 1259 2222 
L 1259 0 
L 628 0 
L 628 4666 
z
" transform="scale(0.015625)"/>
       </defs>
       <use xlink:href="#DejaVuSans-48"/>
       <use xlink:href="#DejaVuSans-75" x="75.195312"/>
       <use xlink:href="#DejaVuSans-6e" x="138.574219"/>
       <use xlink:href="#DejaVuSans-67" x="201.953125"/>
       <use xlink:href="#DejaVuSans-61" x="265.429688"/>
       <use xlink:href="#DejaVuSans-72" x="326.708984"/>
       <use xlink:href="#DejaVuSans-79" x="367.822266"/>
      </g>
     </g>
    </g>
    <g id="xtick_16">
     <g id="line2d_16">
      <g>
       <use xlink:href="#medb6a2e37f" x="212.260714" y="224.64" style="stroke: #000000; stroke-width: 0.8"/>
      </g>
     </g>
     <g id="text_16">
      <!-- Sweden -->
      <g transform="translate(215.020089 271.15875)rotate(-90)scale(0.1 -0.1)">
       <defs>
        <path id="DejaVuSans-77" d="M 269 3500 
L 844 3500 
L 1563 769 
L 2278 3500 
L 2956 3500 
L 3675 769 
L 4391 3500 
L 4966 3500 
L 4050 0 
L 3372 0 
L 2619 2869 
L 1863 0 
L 1184 0 
L 269 3500 
z
" transform="scale(0.015625)"/>
       </defs>
       <use xlink:href="#DejaVuSans-53"/>
       <use xlink:href="#DejaVuSans-77" x="63.476562"/>
       <use xlink:href="#DejaVuSans-65" x="145.263672"/>
       <use xlink:href="#DejaVuSans-64" x="206.787109"/>
       <use xlink:href="#DejaVuSans-65" x="270.263672"/>
       <use xlink:href="#DejaVuSans-6e" x="331.787109"/>
      </g>
     </g>
    </g>
    <g id="xtick_17">
     <g id="line2d_17">
      <g>
       <use xlink:href="#medb6a2e37f" x="224.217857" y="224.64" style="stroke: #000000; stroke-width: 0.8"/>
      </g>
     </g>
     <g id="text_17">
      <!-- Portugal -->
      <g transform="translate(226.977232 273.049375)rotate(-90)scale(0.1 -0.1)">
       <defs>
        <path id="DejaVuSans-50" d="M 1259 4147 
L 1259 2394 
L 2053 2394 
Q 2494 2394 2734 2622 
Q 2975 2850 2975 3272 
Q 2975 3691 2734 3919 
Q 2494 4147 2053 4147 
L 1259 4147 
z
M 628 4666 
L 2053 4666 
Q 2838 4666 3239 4311 
Q 3641 3956 3641 3272 
Q 3641 2581 3239 2228 
Q 2838 1875 2053 1875 
L 1259 1875 
L 1259 0 
L 628 0 
L 628 4666 
z
" transform="scale(0.015625)"/>
       </defs>
       <use xlink:href="#DejaVuSans-50"/>
       <use xlink:href="#DejaVuSans-6f" x="56.677734"/>
       <use xlink:href="#DejaVuSans-72" x="117.859375"/>
       <use xlink:href="#DejaVuSans-74" x="158.972656"/>
       <use xlink:href="#DejaVuSans-75" x="198.181641"/>
       <use xlink:href="#DejaVuSans-67" x="261.560547"/>
       <use xlink:href="#DejaVuSans-61" x="325.037109"/>
       <use xlink:href="#DejaVuSans-6c" x="386.316406"/>
      </g>
     </g>
    </g>
    <g id="xtick_18">
     <g id="line2d_18">
      <g>
       <use xlink:href="#medb6a2e37f" x="236.175" y="224.64" style="stroke: #000000; stroke-width: 0.8"/>
      </g>
     </g>
     <g id="text_18">
      <!-- Czechia -->
      <g transform="translate(238.934375 270.766563)rotate(-90)scale(0.1 -0.1)">
       <defs>
        <path id="DejaVuSans-7a" d="M 353 3500 
L 3084 3500 
L 3084 2975 
L 922 459 
L 3084 459 
L 3084 0 
L 275 0 
L 275 525 
L 2438 3041 
L 353 3041 
L 353 3500 
z
" transform="scale(0.015625)"/>
        <path id="DejaVuSans-63" d="M 3122 3366 
L 3122 2828 
Q 2878 2963 2633 3030 
Q 2388 3097 2138 3097 
Q 1578 3097 1268 2742 
Q 959 2388 959 1747 
Q 959 1106 1268 751 
Q 1578 397 2138 397 
Q 2388 397 2633 464 
Q 2878 531 3122 666 
L 3122 134 
Q 2881 22 2623 -34 
Q 2366 -91 2075 -91 
Q 1284 -91 818 406 
Q 353 903 353 1747 
Q 353 2603 823 3093 
Q 1294 3584 2113 3584 
Q 2378 3584 2631 3529 
Q 2884 3475 3122 3366 
z
" transform="scale(0.015625)"/>
       </defs>
       <use xlink:href="#DejaVuSans-43"/>
       <use xlink:href="#DejaVuSans-7a" x="69.824219"/>
       <use xlink:href="#DejaVuSans-65" x="122.314453"/>
       <use xlink:href="#DejaVuSans-63" x="183.837891"/>
       <use xlink:href="#DejaVuSans-68" x="238.818359"/>
       <use xlink:href="#DejaVuSans-69" x="302.197266"/>
       <use xlink:href="#DejaVuSans-61" x="329.980469"/>
      </g>
     </g>
    </g>
    <g id="xtick_19">
     <g id="line2d_19">
      <g>
       <use xlink:href="#medb6a2e37f" x="248.132143" y="224.64" style="stroke: #000000; stroke-width: 0.8"/>
      </g>
     </g>
     <g id="text_19">
      <!-- Greece -->
      <g transform="translate(250.891518 267.232188)rotate(-90)scale(0.1 -0.1)">
       <defs>
        <path id="DejaVuSans-47" d="M 3809 666 
L 3809 1919 
L 2778 1919 
L 2778 2438 
L 4434 2438 
L 4434 434 
Q 4069 175 3628 42 
Q 3188 -91 2688 -91 
Q 1594 -91 976 548 
Q 359 1188 359 2328 
Q 359 3472 976 4111 
Q 1594 4750 2688 4750 
Q 3144 4750 3555 4637 
Q 3966 4525 4313 4306 
L 4313 3634 
Q 3963 3931 3569 4081 
Q 3175 4231 2741 4231 
Q 1884 4231 1454 3753 
Q 1025 3275 1025 2328 
Q 1025 1384 1454 906 
Q 1884 428 2741 428 
Q 3075 428 3337 486 
Q 3600 544 3809 666 
z
" transform="scale(0.015625)"/>
       </defs>
       <use xlink:href="#DejaVuSans-47"/>
       <use xlink:href="#DejaVuSans-72" x="77.490234"/>
       <use xlink:href="#DejaVuSans-65" x="116.353516"/>
       <use xlink:href="#DejaVuSans-65" x="177.876953"/>
       <use xlink:href="#DejaVuSans-63" x="239.400391"/>
       <use xlink:href="#DejaVuSans-65" x="294.380859"/>
      </g>
     </g>
    </g>
    <g id="xtick_20">
     <g id="line2d_20">
      <g>
       <use xlink:href="#medb6a2e37f" x="260.089286" y="224.64" style="stroke: #000000; stroke-width: 0.8"/>
      </g>
     </g>
     <g id="text_20">
      <!-- Belgium  -->
      <g transform="translate(262.848661 275.815)rotate(-90)scale(0.1 -0.1)">
       <use xlink:href="#DejaVuSans-42"/>
       <use xlink:href="#DejaVuSans-65" x="68.603516"/>
       <use xlink:href="#DejaVuSans-6c" x="130.126953"/>
       <use xlink:href="#DejaVuSans-67" x="157.910156"/>
       <use xlink:href="#DejaVuSans-69" x="221.386719"/>
       <use xlink:href="#DejaVuSans-75" x="249.169922"/>
       <use xlink:href="#DejaVuSans-6d" x="312.548828"/>
       <use xlink:href="#DejaVuSans-20" x="409.960938"/>
      </g>
     </g>
    </g>
    <g id="xtick_21">
     <g id="line2d_21">
      <g>
       <use xlink:href="#medb6a2e37f" x="272.046429" y="224.64" style="stroke: #000000; stroke-width: 0.8"/>
      </g>
     </g>
     <g id="text_21">
      <!-- Netherlands -->
      <g transform="translate(274.805804 292.597813)rotate(-90)scale(0.1 -0.1)">
       <defs>
        <path id="DejaVuSans-4e" d="M 628 4666 
L 1478 4666 
L 3547 763 
L 3547 4666 
L 4159 4666 
L 4159 0 
L 3309 0 
L 1241 3903 
L 1241 0 
L 628 0 
L 628 4666 
z
" transform="scale(0.015625)"/>
       </defs>
       <use xlink:href="#DejaVuSans-4e"/>
       <use xlink:href="#DejaVuSans-65" x="74.804688"/>
       <use xlink:href="#DejaVuSans-74" x="136.328125"/>
       <use xlink:href="#DejaVuSans-68" x="175.537109"/>
       <use xlink:href="#DejaVuSans-65" x="238.916016"/>
       <use xlink:href="#DejaVuSans-72" x="300.439453"/>
       <use xlink:href="#DejaVuSans-6c" x="341.552734"/>
       <use xlink:href="#DejaVuSans-61" x="369.335938"/>
       <use xlink:href="#DejaVuSans-6e" x="430.615234"/>
       <use xlink:href="#DejaVuSans-64" x="493.994141"/>
       <use xlink:href="#DejaVuSans-73" x="557.470703"/>
      </g>
     </g>
    </g>
    <g id="xtick_22">
     <g id="line2d_22">
      <g>
       <use xlink:href="#medb6a2e37f" x="284.003571" y="224.64" style="stroke: #000000; stroke-width: 0.8"/>
      </g>
     </g>
     <g id="text_22">
      <!-- Romania -->
      <g transform="translate(286.762946 275.369688)rotate(-90)scale(0.1 -0.1)">
       <defs>
        <path id="DejaVuSans-52" d="M 2841 2188 
Q 3044 2119 3236 1894 
Q 3428 1669 3622 1275 
L 4263 0 
L 3584 0 
L 2988 1197 
Q 2756 1666 2539 1819 
Q 2322 1972 1947 1972 
L 1259 1972 
L 1259 0 
L 628 0 
L 628 4666 
L 2053 4666 
Q 2853 4666 3247 4331 
Q 3641 3997 3641 3322 
Q 3641 2881 3436 2590 
Q 3231 2300 2841 2188 
z
M 1259 4147 
L 1259 2491 
L 2053 2491 
Q 2509 2491 2742 2702 
Q 2975 2913 2975 3322 
Q 2975 3731 2742 3939 
Q 2509 4147 2053 4147 
L 1259 4147 
z
" transform="scale(0.015625)"/>
       </defs>
       <use xlink:href="#DejaVuSans-52"/>
       <use xlink:href="#DejaVuSans-6f" x="64.982422"/>
       <use xlink:href="#DejaVuSans-6d" x="126.164062"/>
       <use xlink:href="#DejaVuSans-61" x="223.576172"/>
       <use xlink:href="#DejaVuSans-6e" x="284.855469"/>
       <use xlink:href="#DejaVuSans-69" x="348.234375"/>
       <use xlink:href="#DejaVuSans-61" x="376.017578"/>
      </g>
     </g>
    </g>
    <g id="xtick_23">
     <g id="line2d_23">
      <g>
       <use xlink:href="#medb6a2e37f" x="295.960714" y="224.64" style="stroke: #000000; stroke-width: 0.8"/>
      </g>
     </g>
     <g id="text_23">
      <!-- Poland -->
      <g transform="translate(298.720089 265.018125)rotate(-90)scale(0.1 -0.1)">
       <use xlink:href="#DejaVuSans-50"/>
       <use xlink:href="#DejaVuSans-6f" x="56.677734"/>
       <use xlink:href="#DejaVuSans-6c" x="117.859375"/>
       <use xlink:href="#DejaVuSans-61" x="145.642578"/>
       <use xlink:href="#DejaVuSans-6e" x="206.921875"/>
       <use xlink:href="#DejaVuSans-64" x="270.300781"/>
      </g>
     </g>
    </g>
    <g id="xtick_24">
     <g id="line2d_24">
      <g>
       <use xlink:href="#medb6a2e37f" x="307.917857" y="224.64" style="stroke: #000000; stroke-width: 0.8"/>
      </g>
     </g>
     <g id="text_24">
      <!-- Spain -->
      <g transform="translate(310.677232 259.580625)rotate(-90)scale(0.1 -0.1)">
       <use xlink:href="#DejaVuSans-53"/>
       <use xlink:href="#DejaVuSans-70" x="63.476562"/>
       <use xlink:href="#DejaVuSans-61" x="126.953125"/>
       <use xlink:href="#DejaVuSans-69" x="188.232422"/>
       <use xlink:href="#DejaVuSans-6e" x="216.015625"/>
      </g>
     </g>
    </g>
    <g id="xtick_25">
     <g id="line2d_25">
      <g>
       <use xlink:href="#medb6a2e37f" x="319.875" y="224.64" style="stroke: #000000; stroke-width: 0.8"/>
      </g>
     </g>
     <g id="text_25">
      <!-- Italy -->
      <g transform="translate(322.634375 253.335313)rotate(-90)scale(0.1 -0.1)">
       <use xlink:href="#DejaVuSans-49"/>
       <use xlink:href="#DejaVuSans-74" x="29.492188"/>
       <use xlink:href="#DejaVuSans-61" x="68.701172"/>
       <use xlink:href="#DejaVuSans-6c" x="129.980469"/>
       <use xlink:href="#DejaVuSans-79" x="157.763672"/>
      </g>
     </g>
    </g>
    <g id="xtick_26">
     <g id="line2d_26">
      <g>
       <use xlink:href="#medb6a2e37f" x="331.832143" y="224.64" style="stroke: #000000; stroke-width: 0.8"/>
      </g>
     </g>
     <g id="text_26">
      <!-- United Kingdom -->
      <g transform="translate(334.591518 311.904063)rotate(-90)scale(0.1 -0.1)">
       <defs>
        <path id="DejaVuSans-55" d="M 556 4666 
L 1191 4666 
L 1191 1831 
Q 1191 1081 1462 751 
Q 1734 422 2344 422 
Q 2950 422 3222 751 
Q 3494 1081 3494 1831 
L 3494 4666 
L 4128 4666 
L 4128 1753 
Q 4128 841 3676 375 
Q 3225 -91 2344 -91 
Q 1459 -91 1007 375 
Q 556 841 556 1753 
L 556 4666 
z
" transform="scale(0.015625)"/>
        <path id="DejaVuSans-4b" d="M 628 4666 
L 1259 4666 
L 1259 2694 
L 3353 4666 
L 4166 4666 
L 1850 2491 
L 4331 0 
L 3500 0 
L 1259 2247 
L 1259 0 
L 628 0 
L 628 4666 
z
" transform="scale(0.015625)"/>
       </defs>
       <use xlink:href="#DejaVuSans-55"/>
       <use xlink:href="#DejaVuSans-6e" x="73.193359"/>
       <use xlink:href="#DejaVuSans-69" x="136.572266"/>
       <use xlink:href="#DejaVuSans-74" x="164.355469"/>
       <use xlink:href="#DejaVuSans-65" x="203.564453"/>
       <use xlink:href="#DejaVuSans-64" x="265.087891"/>
       <use xlink:href="#DejaVuSans-20" x="328.564453"/>
       <use xlink:href="#DejaVuSans-4b" x="360.351562"/>
       <use xlink:href="#DejaVuSans-69" x="425.927734"/>
       <use xlink:href="#DejaVuSans-6e" x="453.710938"/>
       <use xlink:href="#DejaVuSans-67" x="517.089844"/>
       <use xlink:href="#DejaVuSans-64" x="580.566406"/>
       <use xlink:href="#DejaVuSans-6f" x="644.042969"/>
       <use xlink:href="#DejaVuSans-6d" x="705.224609"/>
      </g>
     </g>
    </g>
    <g id="xtick_27">
     <g id="line2d_27">
      <g>
       <use xlink:href="#medb6a2e37f" x="343.789286" y="224.64" style="stroke: #000000; stroke-width: 0.8"/>
      </g>
     </g>
     <g id="text_27">
      <!-- France  -->
      <g transform="translate(346.548661 268.072813)rotate(-90)scale(0.1 -0.1)">
       <use xlink:href="#DejaVuSans-46"/>
       <use xlink:href="#DejaVuSans-72" x="50.269531"/>
       <use xlink:href="#DejaVuSans-61" x="91.382812"/>
       <use xlink:href="#DejaVuSans-6e" x="152.662109"/>
       <use xlink:href="#DejaVuSans-63" x="216.041016"/>
       <use xlink:href="#DejaVuSans-65" x="271.021484"/>
       <use xlink:href="#DejaVuSans-20" x="332.544922"/>
      </g>
     </g>
    </g>
    <g id="xtick_28">
     <g id="line2d_28">
      <g>
       <use xlink:href="#medb6a2e37f" x="355.746429" y="224.64" style="stroke: #000000; stroke-width: 0.8"/>
      </g>
     </g>
     <g id="text_28">
      <!-- Germany -->
      <g transform="translate(358.505804 277.6025)rotate(-90)scale(0.1 -0.1)">
       <use xlink:href="#DejaVuSans-47"/>
       <use xlink:href="#DejaVuSans-65" x="77.490234"/>
       <use xlink:href="#DejaVuSans-72" x="139.013672"/>
       <use xlink:href="#DejaVuSans-6d" x="178.376953"/>
       <use xlink:href="#DejaVuSans-61" x="275.789062"/>
       <use xlink:href="#DejaVuSans-6e" x="337.068359"/>
       <use xlink:href="#DejaVuSans-79" x="400.447266"/>
      </g>
     </g>
    </g>
    <g id="text_29">
     <!-- geo -->
     <g transform="translate(185.014844 323.5025)scale(0.1 -0.1)">
      <use xlink:href="#DejaVuSans-67"/>
      <use xlink:href="#DejaVuSans-65" x="63.476562"/>
      <use xlink:href="#DejaVuSans-6f" x="125"/>
     </g>
    </g>
   </g>
   <g id="matplotlib.axis_2">
    <g id="ytick_1">
     <g id="line2d_29">
      <defs>
       <path id="mcedd156b84" d="M 0 0 
L -3.5 0 
" style="stroke: #000000; stroke-width: 0.8"/>
      </defs>
      <g>
       <use xlink:href="#mcedd156b84" x="26.925" y="224.64" style="stroke: #000000; stroke-width: 0.8"/>
      </g>
     </g>
     <g id="text_30">
      <!-- 0 -->
      <g transform="translate(13.5625 228.439219)scale(0.1 -0.1)">
       <defs>
        <path id="DejaVuSans-30" d="M 2034 4250 
Q 1547 4250 1301 3770 
Q 1056 3291 1056 2328 
Q 1056 1369 1301 889 
Q 1547 409 2034 409 
Q 2525 409 2770 889 
Q 3016 1369 3016 2328 
Q 3016 3291 2770 3770 
Q 2525 4250 2034 4250 
z
M 2034 4750 
Q 2819 4750 3233 4129 
Q 3647 3509 3647 2328 
Q 3647 1150 3233 529 
Q 2819 -91 2034 -91 
Q 1250 -91 836 529 
Q 422 1150 422 2328 
Q 422 3509 836 4129 
Q 1250 4750 2034 4750 
z
" transform="scale(0.015625)"/>
       </defs>
       <use xlink:href="#DejaVuSans-30"/>
      </g>
     </g>
    </g>
    <g id="ytick_2">
     <g id="line2d_30">
      <g>
       <use xlink:href="#mcedd156b84" x="26.925" y="199.644742" style="stroke: #000000; stroke-width: 0.8"/>
      </g>
     </g>
     <g id="text_31">
      <!-- 10 -->
      <g transform="translate(7.2 203.443961)scale(0.1 -0.1)">
       <defs>
        <path id="DejaVuSans-31" d="M 794 531 
L 1825 531 
L 1825 4091 
L 703 3866 
L 703 4441 
L 1819 4666 
L 2450 4666 
L 2450 531 
L 3481 531 
L 3481 0 
L 794 0 
L 794 531 
z
" transform="scale(0.015625)"/>
       </defs>
       <use xlink:href="#DejaVuSans-31"/>
       <use xlink:href="#DejaVuSans-30" x="63.623047"/>
      </g>
     </g>
    </g>
    <g id="ytick_3">
     <g id="line2d_31">
      <g>
       <use xlink:href="#mcedd156b84" x="26.925" y="174.649484" style="stroke: #000000; stroke-width: 0.8"/>
      </g>
     </g>
     <g id="text_32">
      <!-- 20 -->
      <g transform="translate(7.2 178.448702)scale(0.1 -0.1)">
       <defs>
        <path id="DejaVuSans-32" d="M 1228 531 
L 3431 531 
L 3431 0 
L 469 0 
L 469 531 
Q 828 903 1448 1529 
Q 2069 2156 2228 2338 
Q 2531 2678 2651 2914 
Q 2772 3150 2772 3378 
Q 2772 3750 2511 3984 
Q 2250 4219 1831 4219 
Q 1534 4219 1204 4116 
Q 875 4013 500 3803 
L 500 4441 
Q 881 4594 1212 4672 
Q 1544 4750 1819 4750 
Q 2544 4750 2975 4387 
Q 3406 4025 3406 3419 
Q 3406 3131 3298 2873 
Q 3191 2616 2906 2266 
Q 2828 2175 2409 1742 
Q 1991 1309 1228 531 
z
" transform="scale(0.015625)"/>
       </defs>
       <use xlink:href="#DejaVuSans-32"/>
       <use xlink:href="#DejaVuSans-30" x="63.623047"/>
      </g>
     </g>
    </g>
    <g id="ytick_4">
     <g id="line2d_32">
      <g>
       <use xlink:href="#mcedd156b84" x="26.925" y="149.654225" style="stroke: #000000; stroke-width: 0.8"/>
      </g>
     </g>
     <g id="text_33">
      <!-- 30 -->
      <g transform="translate(7.2 153.453444)scale(0.1 -0.1)">
       <defs>
        <path id="DejaVuSans-33" d="M 2597 2516 
Q 3050 2419 3304 2112 
Q 3559 1806 3559 1356 
Q 3559 666 3084 287 
Q 2609 -91 1734 -91 
Q 1441 -91 1130 -33 
Q 819 25 488 141 
L 488 750 
Q 750 597 1062 519 
Q 1375 441 1716 441 
Q 2309 441 2620 675 
Q 2931 909 2931 1356 
Q 2931 1769 2642 2001 
Q 2353 2234 1838 2234 
L 1294 2234 
L 1294 2753 
L 1863 2753 
Q 2328 2753 2575 2939 
Q 2822 3125 2822 3475 
Q 2822 3834 2567 4026 
Q 2313 4219 1838 4219 
Q 1578 4219 1281 4162 
Q 984 4106 628 3988 
L 628 4550 
Q 988 4650 1302 4700 
Q 1616 4750 1894 4750 
Q 2613 4750 3031 4423 
Q 3450 4097 3450 3541 
Q 3450 3153 3228 2886 
Q 3006 2619 2597 2516 
z
" transform="scale(0.015625)"/>
       </defs>
       <use xlink:href="#DejaVuSans-33"/>
       <use xlink:href="#DejaVuSans-30" x="63.623047"/>
      </g>
     </g>
    </g>
    <g id="ytick_5">
     <g id="line2d_33">
      <g>
       <use xlink:href="#mcedd156b84" x="26.925" y="124.658967" style="stroke: #000000; stroke-width: 0.8"/>
      </g>
     </g>
     <g id="text_34">
      <!-- 40 -->
      <g transform="translate(7.2 128.458186)scale(0.1 -0.1)">
       <defs>
        <path id="DejaVuSans-34" d="M 2419 4116 
L 825 1625 
L 2419 1625 
L 2419 4116 
z
M 2253 4666 
L 3047 4666 
L 3047 1625 
L 3713 1625 
L 3713 1100 
L 3047 1100 
L 3047 0 
L 2419 0 
L 2419 1100 
L 313 1100 
L 313 1709 
L 2253 4666 
z
" transform="scale(0.015625)"/>
       </defs>
       <use xlink:href="#DejaVuSans-34"/>
       <use xlink:href="#DejaVuSans-30" x="63.623047"/>
      </g>
     </g>
    </g>
    <g id="ytick_6">
     <g id="line2d_34">
      <g>
       <use xlink:href="#mcedd156b84" x="26.925" y="99.663709" style="stroke: #000000; stroke-width: 0.8"/>
      </g>
     </g>
     <g id="text_35">
      <!-- 50 -->
      <g transform="translate(7.2 103.462928)scale(0.1 -0.1)">
       <defs>
        <path id="DejaVuSans-35" d="M 691 4666 
L 3169 4666 
L 3169 4134 
L 1269 4134 
L 1269 2991 
Q 1406 3038 1543 3061 
Q 1681 3084 1819 3084 
Q 2600 3084 3056 2656 
Q 3513 2228 3513 1497 
Q 3513 744 3044 326 
Q 2575 -91 1722 -91 
Q 1428 -91 1123 -41 
Q 819 9 494 109 
L 494 744 
Q 775 591 1075 516 
Q 1375 441 1709 441 
Q 2250 441 2565 725 
Q 2881 1009 2881 1497 
Q 2881 1984 2565 2268 
Q 2250 2553 1709 2553 
Q 1456 2553 1204 2497 
Q 953 2441 691 2322 
L 691 4666 
z
" transform="scale(0.015625)"/>
       </defs>
       <use xlink:href="#DejaVuSans-35"/>
       <use xlink:href="#DejaVuSans-30" x="63.623047"/>
      </g>
     </g>
    </g>
    <g id="ytick_7">
     <g id="line2d_35">
      <g>
       <use xlink:href="#mcedd156b84" x="26.925" y="74.668451" style="stroke: #000000; stroke-width: 0.8"/>
      </g>
     </g>
     <g id="text_36">
      <!-- 60 -->
      <g transform="translate(7.2 78.467669)scale(0.1 -0.1)">
       <defs>
        <path id="DejaVuSans-36" d="M 2113 2584 
Q 1688 2584 1439 2293 
Q 1191 2003 1191 1497 
Q 1191 994 1439 701 
Q 1688 409 2113 409 
Q 2538 409 2786 701 
Q 3034 994 3034 1497 
Q 3034 2003 2786 2293 
Q 2538 2584 2113 2584 
z
M 3366 4563 
L 3366 3988 
Q 3128 4100 2886 4159 
Q 2644 4219 2406 4219 
Q 1781 4219 1451 3797 
Q 1122 3375 1075 2522 
Q 1259 2794 1537 2939 
Q 1816 3084 2150 3084 
Q 2853 3084 3261 2657 
Q 3669 2231 3669 1497 
Q 3669 778 3244 343 
Q 2819 -91 2113 -91 
Q 1303 -91 875 529 
Q 447 1150 447 2328 
Q 447 3434 972 4092 
Q 1497 4750 2381 4750 
Q 2619 4750 2861 4703 
Q 3103 4656 3366 4563 
z
" transform="scale(0.015625)"/>
       </defs>
       <use xlink:href="#DejaVuSans-36"/>
       <use xlink:href="#DejaVuSans-30" x="63.623047"/>
      </g>
     </g>
    </g>
    <g id="ytick_8">
     <g id="line2d_36">
      <g>
       <use xlink:href="#mcedd156b84" x="26.925" y="49.673193" style="stroke: #000000; stroke-width: 0.8"/>
      </g>
     </g>
     <g id="text_37">
      <!-- 70 -->
      <g transform="translate(7.2 53.472411)scale(0.1 -0.1)">
       <defs>
        <path id="DejaVuSans-37" d="M 525 4666 
L 3525 4666 
L 3525 4397 
L 1831 0 
L 1172 0 
L 2766 4134 
L 525 4134 
L 525 4666 
z
" transform="scale(0.015625)"/>
       </defs>
       <use xlink:href="#DejaVuSans-37"/>
       <use xlink:href="#DejaVuSans-30" x="63.623047"/>
      </g>
     </g>
    </g>
    <g id="ytick_9">
     <g id="line2d_37">
      <g>
       <use xlink:href="#mcedd156b84" x="26.925" y="24.677934" style="stroke: #000000; stroke-width: 0.8"/>
      </g>
     </g>
     <g id="text_38">
      <!-- 80 -->
      <g transform="translate(7.2 28.477153)scale(0.1 -0.1)">
       <defs>
        <path id="DejaVuSans-38" d="M 2034 2216 
Q 1584 2216 1326 1975 
Q 1069 1734 1069 1313 
Q 1069 891 1326 650 
Q 1584 409 2034 409 
Q 2484 409 2743 651 
Q 3003 894 3003 1313 
Q 3003 1734 2745 1975 
Q 2488 2216 2034 2216 
z
M 1403 2484 
Q 997 2584 770 2862 
Q 544 3141 544 3541 
Q 544 4100 942 4425 
Q 1341 4750 2034 4750 
Q 2731 4750 3128 4425 
Q 3525 4100 3525 3541 
Q 3525 3141 3298 2862 
Q 3072 2584 2669 2484 
Q 3125 2378 3379 2068 
Q 3634 1759 3634 1313 
Q 3634 634 3220 271 
Q 2806 -91 2034 -91 
Q 1263 -91 848 271 
Q 434 634 434 1313 
Q 434 1759 690 2068 
Q 947 2378 1403 2484 
z
M 1172 3481 
Q 1172 3119 1398 2916 
Q 1625 2713 2034 2713 
Q 2441 2713 2670 2916 
Q 2900 3119 2900 3481 
Q 2900 3844 2670 4047 
Q 2441 4250 2034 4250 
Q 1625 4250 1398 4047 
Q 1172 3844 1172 3481 
z
" transform="scale(0.015625)"/>
       </defs>
       <use xlink:href="#DejaVuSans-38"/>
       <use xlink:href="#DejaVuSans-30" x="63.623047"/>
      </g>
     </g>
    </g>
   </g>
   <g id="patch_59">
    <path d="M 26.925 224.64 
L 26.925 7.2 
" style="fill: none; stroke: #000000; stroke-width: 0.8; stroke-linejoin: miter; stroke-linecap: square"/>
   </g>
   <g id="patch_60">
    <path d="M 361.725 224.64 
L 361.725 7.2 
" style="fill: none; stroke: #000000; stroke-width: 0.8; stroke-linejoin: miter; stroke-linecap: square"/>
   </g>
   <g id="patch_61">
    <path d="M 26.925 224.64 
L 361.725 224.64 
" style="fill: none; stroke: #000000; stroke-width: 0.8; stroke-linejoin: miter; stroke-linecap: square"/>
   </g>
   <g id="patch_62">
    <path d="M 26.925 7.2 
L 361.725 7.2 
" style="fill: none; stroke: #000000; stroke-width: 0.8; stroke-linejoin: miter; stroke-linecap: square"/>
   </g>
   <g id="legend_1">
    <g id="patch_63">
     <path d="M 33.925 44.55625 
L 97.465625 44.55625 
Q 99.465625 44.55625 99.465625 42.55625 
L 99.465625 14.2 
Q 99.465625 12.2 97.465625 12.2 
L 33.925 12.2 
Q 31.925 12.2 31.925 14.2 
L 31.925 42.55625 
Q 31.925 44.55625 33.925 44.55625 
z
" style="fill: #ffffff; opacity: 0.8; stroke: #cccccc; stroke-linejoin: miter"/>
    </g>
    <g id="patch_64">
     <path d="M 35.925 23.798438 
L 55.925 23.798438 
L 55.925 16.798438 
L 35.925 16.798438 
z
" style="fill: #1f77b4"/>
    </g>
    <g id="text_39">
     <!-- pop17 -->
     <g transform="translate(63.925 23.798438)scale(0.1 -0.1)">
      <use xlink:href="#DejaVuSans-70"/>
      <use xlink:href="#DejaVuSans-6f" x="63.476562"/>
      <use xlink:href="#DejaVuSans-70" x="124.658203"/>
      <use xlink:href="#DejaVuSans-31" x="188.134766"/>
      <use xlink:href="#DejaVuSans-37" x="251.757812"/>
     </g>
    </g>
    <g id="patch_65">
     <path d="M 35.925 38.476563 
L 55.925 38.476563 
L 55.925 31.476563 
L 35.925 31.476563 
z
" style="fill: #ff7f0e"/>
    </g>
    <g id="text_40">
     <!-- pop18 -->
     <g transform="translate(63.925 38.476563)scale(0.1 -0.1)">
      <use xlink:href="#DejaVuSans-70"/>
      <use xlink:href="#DejaVuSans-6f" x="63.476562"/>
      <use xlink:href="#DejaVuSans-70" x="124.658203"/>
      <use xlink:href="#DejaVuSans-31" x="188.134766"/>
      <use xlink:href="#DejaVuSans-38" x="251.757812"/>
     </g>
    </g>
   </g>
  </g>
 </g>
 <defs>
  <clipPath id="p3a3daed7db">
   <rect x="26.925" y="7.2" width="334.8" height="217.44"/>
  </clipPath>
 </defs>
</svg>
