<?xml version="1.0" encoding="utf-8" standalone="no"?>
<!DOCTYPE svg PUBLIC "-//W3C//DTD SVG 1.1//EN"
  "http://www.w3.org/Graphics/SVG/1.1/DTD/svg11.dtd">
<!-- Created with matplotlib (https://matplotlib.org/) -->
<svg height="442.942187pt" version="1.1" viewBox="0 0 737.554688 442.942187" width="737.554688pt" xmlns="http://www.w3.org/2000/svg" xmlns:xlink="http://www.w3.org/1999/xlink">
 <metadata>
  <rdf:RDF xmlns:cc="http://creativecommons.org/ns#" xmlns:dc="http://purl.org/dc/elements/1.1/" xmlns:rdf="http://www.w3.org/1999/02/22-rdf-syntax-ns#">
   <cc:Work>
    <dc:type rdf:resource="http://purl.org/dc/dcmitype/StillImage"/>
    <dc:date>2020-12-03T07:53:24.034154</dc:date>
    <dc:format>image/svg+xml</dc:format>
    <dc:creator>
     <cc:Agent>
      <dc:title>Matplotlib v3.3.2, https://matplotlib.org/</dc:title>
     </cc:Agent>
    </dc:creator>
   </cc:Work>
  </rdf:RDF>
 </metadata>
 <defs>
  <style type="text/css">*{stroke-linecap:butt;stroke-linejoin:round;}</style>
 </defs>
 <g id="figure_1">
  <g id="patch_1">
   <path d="M 0 442.942187 
L 737.554688 442.942187 
L 737.554688 0 
L 0 0 
z
" style="fill:none;"/>
  </g>
  <g id="axes_1">
   <g id="patch_2">
    <path d="M 60.754688 170.57267 
L 730.354688 170.57267 
L 730.354688 22.318125 
L 60.754688 22.318125 
z
" style="fill:#ffffff;"/>
   </g>
   <g id="patch_3">
    <path clip-path="url(#p59d7e8e26b)" d="M 66.733259 134.258092 
L 78.690402 134.258092 
L 78.690402 163.833827 
L 66.733259 163.833827 
z
" style="fill:#1f77b4;"/>
   </g>
   <g id="patch_4">
    <path clip-path="url(#p59d7e8e26b)" d="M 90.647545 134.258092 
L 102.604687 134.258092 
L 102.604687 160.096225 
L 90.647545 160.096225 
z
" style="fill:#1f77b4;"/>
   </g>
   <g id="patch_5">
    <path clip-path="url(#p59d7e8e26b)" d="M 114.56183 134.258092 
L 126.518973 134.258092 
L 126.518973 146.953985 
L 114.56183 146.953985 
z
" style="fill:#1f77b4;"/>
   </g>
   <g id="patch_6">
    <path clip-path="url(#p59d7e8e26b)" d="M 138.476116 134.258092 
L 150.433259 134.258092 
L 150.433259 146.193089 
L 138.476116 146.193089 
z
" style="fill:#1f77b4;"/>
   </g>
   <g id="patch_7">
    <path clip-path="url(#p59d7e8e26b)" d="M 162.390402 134.258092 
L 174.347545 134.258092 
L 174.347545 143.8129 
L 162.390402 143.8129 
z
" style="fill:#1f77b4;"/>
   </g>
   <g id="patch_8">
    <path clip-path="url(#p59d7e8e26b)" d="M 186.304688 134.258092 
L 198.26183 134.258092 
L 198.26183 141.44202 
L 186.304688 141.44202 
z
" style="fill:#1f77b4;"/>
   </g>
   <g id="patch_9">
    <path clip-path="url(#p59d7e8e26b)" d="M 210.218973 134.258092 
L 222.176116 134.258092 
L 222.176116 138.959186 
L 210.218973 138.959186 
z
" style="fill:#1f77b4;"/>
   </g>
   <g id="patch_10">
    <path clip-path="url(#p59d7e8e26b)" d="M 234.133259 134.258092 
L 246.090402 134.258092 
L 246.090402 138.801421 
L 234.133259 138.801421 
z
" style="fill:#1f77b4;"/>
   </g>
   <g id="patch_11">
    <path clip-path="url(#p59d7e8e26b)" d="M 258.047545 134.258092 
L 270.004687 134.258092 
L 270.004687 138.113283 
L 258.047545 138.113283 
z
" style="fill:#1f77b4;"/>
   </g>
   <g id="patch_12">
    <path clip-path="url(#p59d7e8e26b)" d="M 281.96183 134.258092 
L 293.918973 134.258092 
L 293.918973 134.01679 
L 281.96183 134.01679 
z
" style="fill:#1f77b4;"/>
   </g>
   <g id="patch_13">
    <path clip-path="url(#p59d7e8e26b)" d="M 305.876116 134.258092 
L 317.833259 134.258092 
L 317.833259 133.40092 
L 305.876116 133.40092 
z
" style="fill:#1f77b4;"/>
   </g>
   <g id="patch_14">
    <path clip-path="url(#p59d7e8e26b)" d="M 329.790402 134.258092 
L 341.747545 134.258092 
L 341.747545 133.346045 
L 329.790402 133.346045 
z
" style="fill:#1f77b4;"/>
   </g>
   <g id="patch_15">
    <path clip-path="url(#p59d7e8e26b)" d="M 353.704687 134.258092 
L 365.66183 134.258092 
L 365.66183 132.352912 
L 353.704687 132.352912 
z
" style="fill:#1f77b4;"/>
   </g>
   <g id="patch_16">
    <path clip-path="url(#p59d7e8e26b)" d="M 377.618973 134.258092 
L 389.576116 134.258092 
L 389.576116 131.946986 
L 377.618973 131.946986 
z
" style="fill:#1f77b4;"/>
   </g>
   <g id="patch_17">
    <path clip-path="url(#p59d7e8e26b)" d="M 401.533259 134.258092 
L 413.490402 134.258092 
L 413.490402 131.84924 
L 401.533259 131.84924 
z
" style="fill:#1f77b4;"/>
   </g>
   <g id="patch_18">
    <path clip-path="url(#p59d7e8e26b)" d="M 425.447545 134.258092 
L 437.404687 134.258092 
L 437.404687 131.480551 
L 425.447545 131.480551 
z
" style="fill:#1f77b4;"/>
   </g>
   <g id="patch_19">
    <path clip-path="url(#p59d7e8e26b)" d="M 449.36183 134.258092 
L 461.318973 134.258092 
L 461.318973 130.484478 
L 449.36183 130.484478 
z
" style="fill:#1f77b4;"/>
   </g>
   <g id="patch_20">
    <path clip-path="url(#p59d7e8e26b)" d="M 473.276116 134.258092 
L 485.233259 134.258092 
L 485.233259 126.606259 
L 473.276116 126.606259 
z
" style="fill:#1f77b4;"/>
   </g>
   <g id="patch_21">
    <path clip-path="url(#p59d7e8e26b)" d="M 497.190402 134.258092 
L 509.147545 134.258092 
L 509.147545 126.315717 
L 497.190402 126.315717 
z
" style="fill:#1f77b4;"/>
   </g>
   <g id="patch_22">
    <path clip-path="url(#p59d7e8e26b)" d="M 521.104688 134.258092 
L 533.06183 134.258092 
L 533.06183 122.155776 
L 521.104688 122.155776 
z
" style="fill:#1f77b4;"/>
   </g>
   <g id="patch_23">
    <path clip-path="url(#p59d7e8e26b)" d="M 545.018973 134.258092 
L 556.976116 134.258092 
L 556.976116 121.059752 
L 545.018973 121.059752 
z
" style="fill:#1f77b4;"/>
   </g>
   <g id="patch_24">
    <path clip-path="url(#p59d7e8e26b)" d="M 568.933259 134.258092 
L 580.890402 134.258092 
L 580.890402 119.233454 
L 568.933259 119.233454 
z
" style="fill:#1f77b4;"/>
   </g>
   <g id="patch_25">
    <path clip-path="url(#p59d7e8e26b)" d="M 592.847545 134.258092 
L 604.804688 134.258092 
L 604.804688 109.864093 
L 592.847545 109.864093 
z
" style="fill:#1f77b4;"/>
   </g>
   <g id="patch_26">
    <path clip-path="url(#p59d7e8e26b)" d="M 616.76183 134.258092 
L 628.718973 134.258092 
L 628.718973 103.61426 
L 616.76183 103.61426 
z
" style="fill:#1f77b4;"/>
   </g>
   <g id="patch_27">
    <path clip-path="url(#p59d7e8e26b)" d="M 640.676116 134.258092 
L 652.633259 134.258092 
L 652.633259 101.8568 
L 640.676116 101.8568 
z
" style="fill:#1f77b4;"/>
   </g>
   <g id="patch_28">
    <path clip-path="url(#p59d7e8e26b)" d="M 664.590402 134.258092 
L 676.547545 134.258092 
L 676.547545 77.212926 
L 664.590402 77.212926 
z
" style="fill:#1f77b4;"/>
   </g>
   <g id="patch_29">
    <path clip-path="url(#p59d7e8e26b)" d="M 688.504688 134.258092 
L 700.46183 134.258092 
L 700.46183 53.82088 
L 688.504688 53.82088 
z
" style="fill:#1f77b4;"/>
   </g>
   <g id="patch_30">
    <path clip-path="url(#p59d7e8e26b)" d="M 712.418973 134.258092 
L 724.376116 134.258092 
L 724.376116 29.056968 
L 712.418973 29.056968 
z
" style="fill:#1f77b4;"/>
   </g>
   <g id="matplotlib.axis_1">
    <g id="xtick_1">
     <g id="line2d_1">
      <defs>
       <path d="M 0 0 
L 0 3.5 
" id="m24fa49b361" style="stroke:#000000;stroke-width:0.8;"/>
      </defs>
      <g>
       <use style="stroke:#000000;stroke-width:0.8;" x="72.71183" xlink:href="#m24fa49b361" y="170.57267"/>
      </g>
     </g>
    </g>
    <g id="xtick_2">
     <g id="line2d_2">
      <g>
       <use style="stroke:#000000;stroke-width:0.8;" x="96.626116" xlink:href="#m24fa49b361" y="170.57267"/>
      </g>
     </g>
    </g>
    <g id="xtick_3">
     <g id="line2d_3">
      <g>
       <use style="stroke:#000000;stroke-width:0.8;" x="120.540402" xlink:href="#m24fa49b361" y="170.57267"/>
      </g>
     </g>
    </g>
    <g id="xtick_4">
     <g id="line2d_4">
      <g>
       <use style="stroke:#000000;stroke-width:0.8;" x="144.454688" xlink:href="#m24fa49b361" y="170.57267"/>
      </g>
     </g>
    </g>
    <g id="xtick_5">
     <g id="line2d_5">
      <g>
       <use style="stroke:#000000;stroke-width:0.8;" x="168.368973" xlink:href="#m24fa49b361" y="170.57267"/>
      </g>
     </g>
    </g>
    <g id="xtick_6">
     <g id="line2d_6">
      <g>
       <use style="stroke:#000000;stroke-width:0.8;" x="192.283259" xlink:href="#m24fa49b361" y="170.57267"/>
      </g>
     </g>
    </g>
    <g id="xtick_7">
     <g id="line2d_7">
      <g>
       <use style="stroke:#000000;stroke-width:0.8;" x="216.197545" xlink:href="#m24fa49b361" y="170.57267"/>
      </g>
     </g>
    </g>
    <g id="xtick_8">
     <g id="line2d_8">
      <g>
       <use style="stroke:#000000;stroke-width:0.8;" x="240.11183" xlink:href="#m24fa49b361" y="170.57267"/>
      </g>
     </g>
    </g>
    <g id="xtick_9">
     <g id="line2d_9">
      <g>
       <use style="stroke:#000000;stroke-width:0.8;" x="264.026116" xlink:href="#m24fa49b361" y="170.57267"/>
      </g>
     </g>
    </g>
    <g id="xtick_10">
     <g id="line2d_10">
      <g>
       <use style="stroke:#000000;stroke-width:0.8;" x="287.940402" xlink:href="#m24fa49b361" y="170.57267"/>
      </g>
     </g>
    </g>
    <g id="xtick_11">
     <g id="line2d_11">
      <g>
       <use style="stroke:#000000;stroke-width:0.8;" x="311.854688" xlink:href="#m24fa49b361" y="170.57267"/>
      </g>
     </g>
    </g>
    <g id="xtick_12">
     <g id="line2d_12">
      <g>
       <use style="stroke:#000000;stroke-width:0.8;" x="335.768973" xlink:href="#m24fa49b361" y="170.57267"/>
      </g>
     </g>
    </g>
    <g id="xtick_13">
     <g id="line2d_13">
      <g>
       <use style="stroke:#000000;stroke-width:0.8;" x="359.683259" xlink:href="#m24fa49b361" y="170.57267"/>
      </g>
     </g>
    </g>
    <g id="xtick_14">
     <g id="line2d_14">
      <g>
       <use style="stroke:#000000;stroke-width:0.8;" x="383.597545" xlink:href="#m24fa49b361" y="170.57267"/>
      </g>
     </g>
    </g>
    <g id="xtick_15">
     <g id="line2d_15">
      <g>
       <use style="stroke:#000000;stroke-width:0.8;" x="407.51183" xlink:href="#m24fa49b361" y="170.57267"/>
      </g>
     </g>
    </g>
    <g id="xtick_16">
     <g id="line2d_16">
      <g>
       <use style="stroke:#000000;stroke-width:0.8;" x="431.426116" xlink:href="#m24fa49b361" y="170.57267"/>
      </g>
     </g>
    </g>
    <g id="xtick_17">
     <g id="line2d_17">
      <g>
       <use style="stroke:#000000;stroke-width:0.8;" x="455.340402" xlink:href="#m24fa49b361" y="170.57267"/>
      </g>
     </g>
    </g>
    <g id="xtick_18">
     <g id="line2d_18">
      <g>
       <use style="stroke:#000000;stroke-width:0.8;" x="479.254687" xlink:href="#m24fa49b361" y="170.57267"/>
      </g>
     </g>
    </g>
    <g id="xtick_19">
     <g id="line2d_19">
      <g>
       <use style="stroke:#000000;stroke-width:0.8;" x="503.168973" xlink:href="#m24fa49b361" y="170.57267"/>
      </g>
     </g>
    </g>
    <g id="xtick_20">
     <g id="line2d_20">
      <g>
       <use style="stroke:#000000;stroke-width:0.8;" x="527.083259" xlink:href="#m24fa49b361" y="170.57267"/>
      </g>
     </g>
    </g>
    <g id="xtick_21">
     <g id="line2d_21">
      <g>
       <use style="stroke:#000000;stroke-width:0.8;" x="550.997545" xlink:href="#m24fa49b361" y="170.57267"/>
      </g>
     </g>
    </g>
    <g id="xtick_22">
     <g id="line2d_22">
      <g>
       <use style="stroke:#000000;stroke-width:0.8;" x="574.91183" xlink:href="#m24fa49b361" y="170.57267"/>
      </g>
     </g>
    </g>
    <g id="xtick_23">
     <g id="line2d_23">
      <g>
       <use style="stroke:#000000;stroke-width:0.8;" x="598.826116" xlink:href="#m24fa49b361" y="170.57267"/>
      </g>
     </g>
    </g>
    <g id="xtick_24">
     <g id="line2d_24">
      <g>
       <use style="stroke:#000000;stroke-width:0.8;" x="622.740402" xlink:href="#m24fa49b361" y="170.57267"/>
      </g>
     </g>
    </g>
    <g id="xtick_25">
     <g id="line2d_25">
      <g>
       <use style="stroke:#000000;stroke-width:0.8;" x="646.654688" xlink:href="#m24fa49b361" y="170.57267"/>
      </g>
     </g>
    </g>
    <g id="xtick_26">
     <g id="line2d_26">
      <g>
       <use style="stroke:#000000;stroke-width:0.8;" x="670.568973" xlink:href="#m24fa49b361" y="170.57267"/>
      </g>
     </g>
    </g>
    <g id="xtick_27">
     <g id="line2d_27">
      <g>
       <use style="stroke:#000000;stroke-width:0.8;" x="694.483259" xlink:href="#m24fa49b361" y="170.57267"/>
      </g>
     </g>
    </g>
    <g id="xtick_28">
     <g id="line2d_28">
      <g>
       <use style="stroke:#000000;stroke-width:0.8;" x="718.397545" xlink:href="#m24fa49b361" y="170.57267"/>
      </g>
     </g>
    </g>
   </g>
   <g id="matplotlib.axis_2">
    <g id="ytick_1">
     <g id="line2d_29">
      <defs>
       <path d="M 0 0 
L -3.5 0 
" id="m409af2637b" style="stroke:#000000;stroke-width:0.8;"/>
      </defs>
      <g>
       <use style="stroke:#000000;stroke-width:0.8;" x="60.754688" xlink:href="#m409af2637b" y="158.755715"/>
      </g>
     </g>
     <g id="text_1">
      <!-- −100000 -->
      <g transform="translate(7.2 162.554934)scale(0.1 -0.1)">
       <defs>
        <path d="M 10.59375 35.5 
L 73.1875 35.5 
L 73.1875 27.203125 
L 10.59375 27.203125 
z
" id="DejaVuSans-8722"/>
        <path d="M 12.40625 8.296875 
L 28.515625 8.296875 
L 28.515625 63.921875 
L 10.984375 60.40625 
L 10.984375 69.390625 
L 28.421875 72.90625 
L 38.28125 72.90625 
L 38.28125 8.296875 
L 54.390625 8.296875 
L 54.390625 0 
L 12.40625 0 
z
" id="DejaVuSans-49"/>
        <path d="M 31.78125 66.40625 
Q 24.171875 66.40625 20.328125 58.90625 
Q 16.5 51.421875 16.5 36.375 
Q 16.5 21.390625 20.328125 13.890625 
Q 24.171875 6.390625 31.78125 6.390625 
Q 39.453125 6.390625 43.28125 13.890625 
Q 47.125 21.390625 47.125 36.375 
Q 47.125 51.421875 43.28125 58.90625 
Q 39.453125 66.40625 31.78125 66.40625 
z
M 31.78125 74.21875 
Q 44.046875 74.21875 50.515625 64.515625 
Q 56.984375 54.828125 56.984375 36.375 
Q 56.984375 17.96875 50.515625 8.265625 
Q 44.046875 -1.421875 31.78125 -1.421875 
Q 19.53125 -1.421875 13.0625 8.265625 
Q 6.59375 17.96875 6.59375 36.375 
Q 6.59375 54.828125 13.0625 64.515625 
Q 19.53125 74.21875 31.78125 74.21875 
z
" id="DejaVuSans-48"/>
       </defs>
       <use xlink:href="#DejaVuSans-8722"/>
       <use x="83.789062" xlink:href="#DejaVuSans-49"/>
       <use x="147.412109" xlink:href="#DejaVuSans-48"/>
       <use x="211.035156" xlink:href="#DejaVuSans-48"/>
       <use x="274.658203" xlink:href="#DejaVuSans-48"/>
       <use x="338.28125" xlink:href="#DejaVuSans-48"/>
       <use x="401.904297" xlink:href="#DejaVuSans-48"/>
      </g>
     </g>
    </g>
    <g id="ytick_2">
     <g id="line2d_30">
      <g>
       <use style="stroke:#000000;stroke-width:0.8;" x="60.754688" xlink:href="#m409af2637b" y="134.258092"/>
      </g>
     </g>
     <g id="text_2">
      <!-- 0 -->
      <g transform="translate(47.392188 138.057311)scale(0.1 -0.1)">
       <use xlink:href="#DejaVuSans-48"/>
      </g>
     </g>
    </g>
    <g id="ytick_3">
     <g id="line2d_31">
      <g>
       <use style="stroke:#000000;stroke-width:0.8;" x="60.754688" xlink:href="#m409af2637b" y="109.760468"/>
      </g>
     </g>
     <g id="text_3">
      <!-- 100000 -->
      <g transform="translate(15.579687 113.559687)scale(0.1 -0.1)">
       <use xlink:href="#DejaVuSans-49"/>
       <use x="63.623047" xlink:href="#DejaVuSans-48"/>
       <use x="127.246094" xlink:href="#DejaVuSans-48"/>
       <use x="190.869141" xlink:href="#DejaVuSans-48"/>
       <use x="254.492188" xlink:href="#DejaVuSans-48"/>
       <use x="318.115234" xlink:href="#DejaVuSans-48"/>
      </g>
     </g>
    </g>
    <g id="ytick_4">
     <g id="line2d_32">
      <g>
       <use style="stroke:#000000;stroke-width:0.8;" x="60.754688" xlink:href="#m409af2637b" y="85.262845"/>
      </g>
     </g>
     <g id="text_4">
      <!-- 200000 -->
      <g transform="translate(15.579687 89.062064)scale(0.1 -0.1)">
       <defs>
        <path d="M 19.1875 8.296875 
L 53.609375 8.296875 
L 53.609375 0 
L 7.328125 0 
L 7.328125 8.296875 
Q 12.9375 14.109375 22.625 23.890625 
Q 32.328125 33.6875 34.8125 36.53125 
Q 39.546875 41.84375 41.421875 45.53125 
Q 43.3125 49.21875 43.3125 52.78125 
Q 43.3125 58.59375 39.234375 62.25 
Q 35.15625 65.921875 28.609375 65.921875 
Q 23.96875 65.921875 18.8125 64.3125 
Q 13.671875 62.703125 7.8125 59.421875 
L 7.8125 69.390625 
Q 13.765625 71.78125 18.9375 73 
Q 24.125 74.21875 28.421875 74.21875 
Q 39.75 74.21875 46.484375 68.546875 
Q 53.21875 62.890625 53.21875 53.421875 
Q 53.21875 48.921875 51.53125 44.890625 
Q 49.859375 40.875 45.40625 35.40625 
Q 44.1875 33.984375 37.640625 27.21875 
Q 31.109375 20.453125 19.1875 8.296875 
z
" id="DejaVuSans-50"/>
       </defs>
       <use xlink:href="#DejaVuSans-50"/>
       <use x="63.623047" xlink:href="#DejaVuSans-48"/>
       <use x="127.246094" xlink:href="#DejaVuSans-48"/>
       <use x="190.869141" xlink:href="#DejaVuSans-48"/>
       <use x="254.492188" xlink:href="#DejaVuSans-48"/>
       <use x="318.115234" xlink:href="#DejaVuSans-48"/>
      </g>
     </g>
    </g>
    <g id="ytick_5">
     <g id="line2d_33">
      <g>
       <use style="stroke:#000000;stroke-width:0.8;" x="60.754688" xlink:href="#m409af2637b" y="60.765222"/>
      </g>
     </g>
     <g id="text_5">
      <!-- 300000 -->
      <g transform="translate(15.579687 64.564441)scale(0.1 -0.1)">
       <defs>
        <path d="M 40.578125 39.3125 
Q 47.65625 37.796875 51.625 33 
Q 55.609375 28.21875 55.609375 21.1875 
Q 55.609375 10.40625 48.1875 4.484375 
Q 40.765625 -1.421875 27.09375 -1.421875 
Q 22.515625 -1.421875 17.65625 -0.515625 
Q 12.796875 0.390625 7.625 2.203125 
L 7.625 11.71875 
Q 11.71875 9.328125 16.59375 8.109375 
Q 21.484375 6.890625 26.8125 6.890625 
Q 36.078125 6.890625 40.9375 10.546875 
Q 45.796875 14.203125 45.796875 21.1875 
Q 45.796875 27.640625 41.28125 31.265625 
Q 36.765625 34.90625 28.71875 34.90625 
L 20.21875 34.90625 
L 20.21875 43.015625 
L 29.109375 43.015625 
Q 36.375 43.015625 40.234375 45.921875 
Q 44.09375 48.828125 44.09375 54.296875 
Q 44.09375 59.90625 40.109375 62.90625 
Q 36.140625 65.921875 28.71875 65.921875 
Q 24.65625 65.921875 20.015625 65.03125 
Q 15.375 64.15625 9.8125 62.3125 
L 9.8125 71.09375 
Q 15.4375 72.65625 20.34375 73.4375 
Q 25.25 74.21875 29.59375 74.21875 
Q 40.828125 74.21875 47.359375 69.109375 
Q 53.90625 64.015625 53.90625 55.328125 
Q 53.90625 49.265625 50.4375 45.09375 
Q 46.96875 40.921875 40.578125 39.3125 
z
" id="DejaVuSans-51"/>
       </defs>
       <use xlink:href="#DejaVuSans-51"/>
       <use x="63.623047" xlink:href="#DejaVuSans-48"/>
       <use x="127.246094" xlink:href="#DejaVuSans-48"/>
       <use x="190.869141" xlink:href="#DejaVuSans-48"/>
       <use x="254.492188" xlink:href="#DejaVuSans-48"/>
       <use x="318.115234" xlink:href="#DejaVuSans-48"/>
      </g>
     </g>
    </g>
    <g id="ytick_6">
     <g id="line2d_34">
      <g>
       <use style="stroke:#000000;stroke-width:0.8;" x="60.754688" xlink:href="#m409af2637b" y="36.267598"/>
      </g>
     </g>
     <g id="text_6">
      <!-- 400000 -->
      <g transform="translate(15.579687 40.066817)scale(0.1 -0.1)">
       <defs>
        <path d="M 37.796875 64.3125 
L 12.890625 25.390625 
L 37.796875 25.390625 
z
M 35.203125 72.90625 
L 47.609375 72.90625 
L 47.609375 25.390625 
L 58.015625 25.390625 
L 58.015625 17.1875 
L 47.609375 17.1875 
L 47.609375 0 
L 37.796875 0 
L 37.796875 17.1875 
L 4.890625 17.1875 
L 4.890625 26.703125 
z
" id="DejaVuSans-52"/>
       </defs>
       <use xlink:href="#DejaVuSans-52"/>
       <use x="63.623047" xlink:href="#DejaVuSans-48"/>
       <use x="127.246094" xlink:href="#DejaVuSans-48"/>
       <use x="190.869141" xlink:href="#DejaVuSans-48"/>
       <use x="254.492188" xlink:href="#DejaVuSans-48"/>
       <use x="318.115234" xlink:href="#DejaVuSans-48"/>
      </g>
     </g>
    </g>
   </g>
   <g id="patch_31">
    <path d="M 60.754688 170.57267 
L 60.754688 22.318125 
" style="fill:none;stroke:#000000;stroke-linecap:square;stroke-linejoin:miter;stroke-width:0.8;"/>
   </g>
   <g id="patch_32">
    <path d="M 730.354688 170.57267 
L 730.354688 22.318125 
" style="fill:none;stroke:#000000;stroke-linecap:square;stroke-linejoin:miter;stroke-width:0.8;"/>
   </g>
   <g id="patch_33">
    <path d="M 60.754688 170.57267 
L 730.354687 170.57267 
" style="fill:none;stroke:#000000;stroke-linecap:square;stroke-linejoin:miter;stroke-width:0.8;"/>
   </g>
   <g id="patch_34">
    <path d="M 60.754688 22.318125 
L 730.354687 22.318125 
" style="fill:none;stroke:#000000;stroke-linecap:square;stroke-linejoin:miter;stroke-width:0.8;"/>
   </g>
   <g id="text_7">
    <!-- Population changes in 2017 -->
    <g transform="translate(312.3675 16.318125)scale(0.12 -0.12)">
     <defs>
      <path d="M 19.671875 64.796875 
L 19.671875 37.40625 
L 32.078125 37.40625 
Q 38.96875 37.40625 42.71875 40.96875 
Q 46.484375 44.53125 46.484375 51.125 
Q 46.484375 57.671875 42.71875 61.234375 
Q 38.96875 64.796875 32.078125 64.796875 
z
M 9.8125 72.90625 
L 32.078125 72.90625 
Q 44.34375 72.90625 50.609375 67.359375 
Q 56.890625 61.8125 56.890625 51.125 
Q 56.890625 40.328125 50.609375 34.8125 
Q 44.34375 29.296875 32.078125 29.296875 
L 19.671875 29.296875 
L 19.671875 0 
L 9.8125 0 
z
" id="DejaVuSans-80"/>
      <path d="M 30.609375 48.390625 
Q 23.390625 48.390625 19.1875 42.75 
Q 14.984375 37.109375 14.984375 27.296875 
Q 14.984375 17.484375 19.15625 11.84375 
Q 23.34375 6.203125 30.609375 6.203125 
Q 37.796875 6.203125 41.984375 11.859375 
Q 46.1875 17.53125 46.1875 27.296875 
Q 46.1875 37.015625 41.984375 42.703125 
Q 37.796875 48.390625 30.609375 48.390625 
z
M 30.609375 56 
Q 42.328125 56 49.015625 48.375 
Q 55.71875 40.765625 55.71875 27.296875 
Q 55.71875 13.875 49.015625 6.21875 
Q 42.328125 -1.421875 30.609375 -1.421875 
Q 18.84375 -1.421875 12.171875 6.21875 
Q 5.515625 13.875 5.515625 27.296875 
Q 5.515625 40.765625 12.171875 48.375 
Q 18.84375 56 30.609375 56 
z
" id="DejaVuSans-111"/>
      <path d="M 18.109375 8.203125 
L 18.109375 -20.796875 
L 9.078125 -20.796875 
L 9.078125 54.6875 
L 18.109375 54.6875 
L 18.109375 46.390625 
Q 20.953125 51.265625 25.265625 53.625 
Q 29.59375 56 35.59375 56 
Q 45.5625 56 51.78125 48.09375 
Q 58.015625 40.1875 58.015625 27.296875 
Q 58.015625 14.40625 51.78125 6.484375 
Q 45.5625 -1.421875 35.59375 -1.421875 
Q 29.59375 -1.421875 25.265625 0.953125 
Q 20.953125 3.328125 18.109375 8.203125 
z
M 48.6875 27.296875 
Q 48.6875 37.203125 44.609375 42.84375 
Q 40.53125 48.484375 33.40625 48.484375 
Q 26.265625 48.484375 22.1875 42.84375 
Q 18.109375 37.203125 18.109375 27.296875 
Q 18.109375 17.390625 22.1875 11.75 
Q 26.265625 6.109375 33.40625 6.109375 
Q 40.53125 6.109375 44.609375 11.75 
Q 48.6875 17.390625 48.6875 27.296875 
z
" id="DejaVuSans-112"/>
      <path d="M 8.5 21.578125 
L 8.5 54.6875 
L 17.484375 54.6875 
L 17.484375 21.921875 
Q 17.484375 14.15625 20.5 10.265625 
Q 23.53125 6.390625 29.59375 6.390625 
Q 36.859375 6.390625 41.078125 11.03125 
Q 45.3125 15.671875 45.3125 23.6875 
L 45.3125 54.6875 
L 54.296875 54.6875 
L 54.296875 0 
L 45.3125 0 
L 45.3125 8.40625 
Q 42.046875 3.421875 37.71875 1 
Q 33.40625 -1.421875 27.6875 -1.421875 
Q 18.265625 -1.421875 13.375 4.4375 
Q 8.5 10.296875 8.5 21.578125 
z
M 31.109375 56 
z
" id="DejaVuSans-117"/>
      <path d="M 9.421875 75.984375 
L 18.40625 75.984375 
L 18.40625 0 
L 9.421875 0 
z
" id="DejaVuSans-108"/>
      <path d="M 34.28125 27.484375 
Q 23.390625 27.484375 19.1875 25 
Q 14.984375 22.515625 14.984375 16.5 
Q 14.984375 11.71875 18.140625 8.90625 
Q 21.296875 6.109375 26.703125 6.109375 
Q 34.1875 6.109375 38.703125 11.40625 
Q 43.21875 16.703125 43.21875 25.484375 
L 43.21875 27.484375 
z
M 52.203125 31.203125 
L 52.203125 0 
L 43.21875 0 
L 43.21875 8.296875 
Q 40.140625 3.328125 35.546875 0.953125 
Q 30.953125 -1.421875 24.3125 -1.421875 
Q 15.921875 -1.421875 10.953125 3.296875 
Q 6 8.015625 6 15.921875 
Q 6 25.140625 12.171875 29.828125 
Q 18.359375 34.515625 30.609375 34.515625 
L 43.21875 34.515625 
L 43.21875 35.40625 
Q 43.21875 41.609375 39.140625 45 
Q 35.0625 48.390625 27.6875 48.390625 
Q 23 48.390625 18.546875 47.265625 
Q 14.109375 46.140625 10.015625 43.890625 
L 10.015625 52.203125 
Q 14.9375 54.109375 19.578125 55.046875 
Q 24.21875 56 28.609375 56 
Q 40.484375 56 46.34375 49.84375 
Q 52.203125 43.703125 52.203125 31.203125 
z
" id="DejaVuSans-97"/>
      <path d="M 18.3125 70.21875 
L 18.3125 54.6875 
L 36.8125 54.6875 
L 36.8125 47.703125 
L 18.3125 47.703125 
L 18.3125 18.015625 
Q 18.3125 11.328125 20.140625 9.421875 
Q 21.96875 7.515625 27.59375 7.515625 
L 36.8125 7.515625 
L 36.8125 0 
L 27.59375 0 
Q 17.1875 0 13.234375 3.875 
Q 9.28125 7.765625 9.28125 18.015625 
L 9.28125 47.703125 
L 2.6875 47.703125 
L 2.6875 54.6875 
L 9.28125 54.6875 
L 9.28125 70.21875 
z
" id="DejaVuSans-116"/>
      <path d="M 9.421875 54.6875 
L 18.40625 54.6875 
L 18.40625 0 
L 9.421875 0 
z
M 9.421875 75.984375 
L 18.40625 75.984375 
L 18.40625 64.59375 
L 9.421875 64.59375 
z
" id="DejaVuSans-105"/>
      <path d="M 54.890625 33.015625 
L 54.890625 0 
L 45.90625 0 
L 45.90625 32.71875 
Q 45.90625 40.484375 42.875 44.328125 
Q 39.84375 48.1875 33.796875 48.1875 
Q 26.515625 48.1875 22.3125 43.546875 
Q 18.109375 38.921875 18.109375 30.90625 
L 18.109375 0 
L 9.078125 0 
L 9.078125 54.6875 
L 18.109375 54.6875 
L 18.109375 46.1875 
Q 21.34375 51.125 25.703125 53.5625 
Q 30.078125 56 35.796875 56 
Q 45.21875 56 50.046875 50.171875 
Q 54.890625 44.34375 54.890625 33.015625 
z
" id="DejaVuSans-110"/>
      <path id="DejaVuSans-32"/>
      <path d="M 48.78125 52.59375 
L 48.78125 44.1875 
Q 44.96875 46.296875 41.140625 47.34375 
Q 37.3125 48.390625 33.40625 48.390625 
Q 24.65625 48.390625 19.8125 42.84375 
Q 14.984375 37.3125 14.984375 27.296875 
Q 14.984375 17.28125 19.8125 11.734375 
Q 24.65625 6.203125 33.40625 6.203125 
Q 37.3125 6.203125 41.140625 7.25 
Q 44.96875 8.296875 48.78125 10.40625 
L 48.78125 2.09375 
Q 45.015625 0.34375 40.984375 -0.53125 
Q 36.96875 -1.421875 32.421875 -1.421875 
Q 20.0625 -1.421875 12.78125 6.34375 
Q 5.515625 14.109375 5.515625 27.296875 
Q 5.515625 40.671875 12.859375 48.328125 
Q 20.21875 56 33.015625 56 
Q 37.15625 56 41.109375 55.140625 
Q 45.0625 54.296875 48.78125 52.59375 
z
" id="DejaVuSans-99"/>
      <path d="M 54.890625 33.015625 
L 54.890625 0 
L 45.90625 0 
L 45.90625 32.71875 
Q 45.90625 40.484375 42.875 44.328125 
Q 39.84375 48.1875 33.796875 48.1875 
Q 26.515625 48.1875 22.3125 43.546875 
Q 18.109375 38.921875 18.109375 30.90625 
L 18.109375 0 
L 9.078125 0 
L 9.078125 75.984375 
L 18.109375 75.984375 
L 18.109375 46.1875 
Q 21.34375 51.125 25.703125 53.5625 
Q 30.078125 56 35.796875 56 
Q 45.21875 56 50.046875 50.171875 
Q 54.890625 44.34375 54.890625 33.015625 
z
" id="DejaVuSans-104"/>
      <path d="M 45.40625 27.984375 
Q 45.40625 37.75 41.375 43.109375 
Q 37.359375 48.484375 30.078125 48.484375 
Q 22.859375 48.484375 18.828125 43.109375 
Q 14.796875 37.75 14.796875 27.984375 
Q 14.796875 18.265625 18.828125 12.890625 
Q 22.859375 7.515625 30.078125 7.515625 
Q 37.359375 7.515625 41.375 12.890625 
Q 45.40625 18.265625 45.40625 27.984375 
z
M 54.390625 6.78125 
Q 54.390625 -7.171875 48.1875 -13.984375 
Q 42 -20.796875 29.203125 -20.796875 
Q 24.46875 -20.796875 20.265625 -20.09375 
Q 16.0625 -19.390625 12.109375 -17.921875 
L 12.109375 -9.1875 
Q 16.0625 -11.328125 19.921875 -12.34375 
Q 23.78125 -13.375 27.78125 -13.375 
Q 36.625 -13.375 41.015625 -8.765625 
Q 45.40625 -4.15625 45.40625 5.171875 
L 45.40625 9.625 
Q 42.625 4.78125 38.28125 2.390625 
Q 33.9375 0 27.875 0 
Q 17.828125 0 11.671875 7.65625 
Q 5.515625 15.328125 5.515625 27.984375 
Q 5.515625 40.671875 11.671875 48.328125 
Q 17.828125 56 27.875 56 
Q 33.9375 56 38.28125 53.609375 
Q 42.625 51.21875 45.40625 46.390625 
L 45.40625 54.6875 
L 54.390625 54.6875 
z
" id="DejaVuSans-103"/>
      <path d="M 56.203125 29.59375 
L 56.203125 25.203125 
L 14.890625 25.203125 
Q 15.484375 15.921875 20.484375 11.0625 
Q 25.484375 6.203125 34.421875 6.203125 
Q 39.59375 6.203125 44.453125 7.46875 
Q 49.3125 8.734375 54.109375 11.28125 
L 54.109375 2.78125 
Q 49.265625 0.734375 44.1875 -0.34375 
Q 39.109375 -1.421875 33.890625 -1.421875 
Q 20.796875 -1.421875 13.15625 6.1875 
Q 5.515625 13.8125 5.515625 26.8125 
Q 5.515625 40.234375 12.765625 48.109375 
Q 20.015625 56 32.328125 56 
Q 43.359375 56 49.78125 48.890625 
Q 56.203125 41.796875 56.203125 29.59375 
z
M 47.21875 32.234375 
Q 47.125 39.59375 43.09375 43.984375 
Q 39.0625 48.390625 32.421875 48.390625 
Q 24.90625 48.390625 20.390625 44.140625 
Q 15.875 39.890625 15.1875 32.171875 
z
" id="DejaVuSans-101"/>
      <path d="M 44.28125 53.078125 
L 44.28125 44.578125 
Q 40.484375 46.53125 36.375 47.5 
Q 32.28125 48.484375 27.875 48.484375 
Q 21.1875 48.484375 17.84375 46.4375 
Q 14.5 44.390625 14.5 40.28125 
Q 14.5 37.15625 16.890625 35.375 
Q 19.28125 33.59375 26.515625 31.984375 
L 29.59375 31.296875 
Q 39.15625 29.25 43.1875 25.515625 
Q 47.21875 21.78125 47.21875 15.09375 
Q 47.21875 7.46875 41.1875 3.015625 
Q 35.15625 -1.421875 24.609375 -1.421875 
Q 20.21875 -1.421875 15.453125 -0.5625 
Q 10.6875 0.296875 5.421875 2 
L 5.421875 11.28125 
Q 10.40625 8.6875 15.234375 7.390625 
Q 20.0625 6.109375 24.8125 6.109375 
Q 31.15625 6.109375 34.5625 8.28125 
Q 37.984375 10.453125 37.984375 14.40625 
Q 37.984375 18.0625 35.515625 20.015625 
Q 33.0625 21.96875 24.703125 23.78125 
L 21.578125 24.515625 
Q 13.234375 26.265625 9.515625 29.90625 
Q 5.8125 33.546875 5.8125 39.890625 
Q 5.8125 47.609375 11.28125 51.796875 
Q 16.75 56 26.8125 56 
Q 31.78125 56 36.171875 55.265625 
Q 40.578125 54.546875 44.28125 53.078125 
z
" id="DejaVuSans-115"/>
      <path d="M 8.203125 72.90625 
L 55.078125 72.90625 
L 55.078125 68.703125 
L 28.609375 0 
L 18.3125 0 
L 43.21875 64.59375 
L 8.203125 64.59375 
z
" id="DejaVuSans-55"/>
     </defs>
     <use xlink:href="#DejaVuSans-80"/>
     <use x="56.677734" xlink:href="#DejaVuSans-111"/>
     <use x="117.859375" xlink:href="#DejaVuSans-112"/>
     <use x="181.335938" xlink:href="#DejaVuSans-117"/>
     <use x="244.714844" xlink:href="#DejaVuSans-108"/>
     <use x="272.498047" xlink:href="#DejaVuSans-97"/>
     <use x="333.777344" xlink:href="#DejaVuSans-116"/>
     <use x="372.986328" xlink:href="#DejaVuSans-105"/>
     <use x="400.769531" xlink:href="#DejaVuSans-111"/>
     <use x="461.951172" xlink:href="#DejaVuSans-110"/>
     <use x="525.330078" xlink:href="#DejaVuSans-32"/>
     <use x="557.117188" xlink:href="#DejaVuSans-99"/>
     <use x="612.097656" xlink:href="#DejaVuSans-104"/>
     <use x="675.476562" xlink:href="#DejaVuSans-97"/>
     <use x="736.755859" xlink:href="#DejaVuSans-110"/>
     <use x="800.134766" xlink:href="#DejaVuSans-103"/>
     <use x="863.611328" xlink:href="#DejaVuSans-101"/>
     <use x="925.134766" xlink:href="#DejaVuSans-115"/>
     <use x="977.234375" xlink:href="#DejaVuSans-32"/>
     <use x="1009.021484" xlink:href="#DejaVuSans-105"/>
     <use x="1036.804688" xlink:href="#DejaVuSans-110"/>
     <use x="1100.183594" xlink:href="#DejaVuSans-32"/>
     <use x="1131.970703" xlink:href="#DejaVuSans-50"/>
     <use x="1195.59375" xlink:href="#DejaVuSans-48"/>
     <use x="1259.216797" xlink:href="#DejaVuSans-49"/>
     <use x="1322.839844" xlink:href="#DejaVuSans-55"/>
    </g>
   </g>
   <g id="legend_1">
    <g id="patch_35">
     <path d="M 67.754688 44.99625 
L 503.99375 44.99625 
Q 505.99375 44.99625 505.99375 42.99625 
L 505.99375 29.318125 
Q 505.99375 27.318125 503.99375 27.318125 
L 67.754688 27.318125 
Q 65.754688 27.318125 65.754688 29.318125 
L 65.754688 42.99625 
Q 65.754688 44.99625 67.754688 44.99625 
z
" style="fill:#ffffff;opacity:0.8;stroke:#cccccc;stroke-linejoin:miter;"/>
    </g>
    <g id="patch_36">
     <path d="M 69.754688 38.916562 
L 89.754688 38.916562 
L 89.754688 31.916562 
L 69.754688 31.916562 
z
" style="fill:#1f77b4;"/>
    </g>
    <g id="text_8">
     <!-- total change of population (migration + natural change due to deaths and births -->
     <g transform="translate(97.754688 38.916562)scale(0.1 -0.1)">
      <defs>
       <path d="M 37.109375 75.984375 
L 37.109375 68.5 
L 28.515625 68.5 
Q 23.6875 68.5 21.796875 66.546875 
Q 19.921875 64.59375 19.921875 59.515625 
L 19.921875 54.6875 
L 34.71875 54.6875 
L 34.71875 47.703125 
L 19.921875 47.703125 
L 19.921875 0 
L 10.890625 0 
L 10.890625 47.703125 
L 2.296875 47.703125 
L 2.296875 54.6875 
L 10.890625 54.6875 
L 10.890625 58.5 
Q 10.890625 67.625 15.140625 71.796875 
Q 19.390625 75.984375 28.609375 75.984375 
z
" id="DejaVuSans-102"/>
       <path d="M 31 75.875 
Q 24.46875 64.65625 21.28125 53.65625 
Q 18.109375 42.671875 18.109375 31.390625 
Q 18.109375 20.125 21.3125 9.0625 
Q 24.515625 -2 31 -13.1875 
L 23.1875 -13.1875 
Q 15.875 -1.703125 12.234375 9.375 
Q 8.59375 20.453125 8.59375 31.390625 
Q 8.59375 42.28125 12.203125 53.3125 
Q 15.828125 64.359375 23.1875 75.875 
z
" id="DejaVuSans-40"/>
       <path d="M 52 44.1875 
Q 55.375 50.25 60.0625 53.125 
Q 64.75 56 71.09375 56 
Q 79.640625 56 84.28125 50.015625 
Q 88.921875 44.046875 88.921875 33.015625 
L 88.921875 0 
L 79.890625 0 
L 79.890625 32.71875 
Q 79.890625 40.578125 77.09375 44.375 
Q 74.3125 48.1875 68.609375 48.1875 
Q 61.625 48.1875 57.5625 43.546875 
Q 53.515625 38.921875 53.515625 30.90625 
L 53.515625 0 
L 44.484375 0 
L 44.484375 32.71875 
Q 44.484375 40.625 41.703125 44.40625 
Q 38.921875 48.1875 33.109375 48.1875 
Q 26.21875 48.1875 22.15625 43.53125 
Q 18.109375 38.875 18.109375 30.90625 
L 18.109375 0 
L 9.078125 0 
L 9.078125 54.6875 
L 18.109375 54.6875 
L 18.109375 46.1875 
Q 21.1875 51.21875 25.484375 53.609375 
Q 29.78125 56 35.6875 56 
Q 41.65625 56 45.828125 52.96875 
Q 50 49.953125 52 44.1875 
z
" id="DejaVuSans-109"/>
       <path d="M 41.109375 46.296875 
Q 39.59375 47.171875 37.8125 47.578125 
Q 36.03125 48 33.890625 48 
Q 26.265625 48 22.1875 43.046875 
Q 18.109375 38.09375 18.109375 28.8125 
L 18.109375 0 
L 9.078125 0 
L 9.078125 54.6875 
L 18.109375 54.6875 
L 18.109375 46.1875 
Q 20.953125 51.171875 25.484375 53.578125 
Q 30.03125 56 36.53125 56 
Q 37.453125 56 38.578125 55.875 
Q 39.703125 55.765625 41.0625 55.515625 
z
" id="DejaVuSans-114"/>
       <path d="M 46 62.703125 
L 46 35.5 
L 73.1875 35.5 
L 73.1875 27.203125 
L 46 27.203125 
L 46 0 
L 37.796875 0 
L 37.796875 27.203125 
L 10.59375 27.203125 
L 10.59375 35.5 
L 37.796875 35.5 
L 37.796875 62.703125 
z
" id="DejaVuSans-43"/>
       <path d="M 45.40625 46.390625 
L 45.40625 75.984375 
L 54.390625 75.984375 
L 54.390625 0 
L 45.40625 0 
L 45.40625 8.203125 
Q 42.578125 3.328125 38.25 0.953125 
Q 33.9375 -1.421875 27.875 -1.421875 
Q 17.96875 -1.421875 11.734375 6.484375 
Q 5.515625 14.40625 5.515625 27.296875 
Q 5.515625 40.1875 11.734375 48.09375 
Q 17.96875 56 27.875 56 
Q 33.9375 56 38.25 53.625 
Q 42.578125 51.265625 45.40625 46.390625 
z
M 14.796875 27.296875 
Q 14.796875 17.390625 18.875 11.75 
Q 22.953125 6.109375 30.078125 6.109375 
Q 37.203125 6.109375 41.296875 11.75 
Q 45.40625 17.390625 45.40625 27.296875 
Q 45.40625 37.203125 41.296875 42.84375 
Q 37.203125 48.484375 30.078125 48.484375 
Q 22.953125 48.484375 18.875 42.84375 
Q 14.796875 37.203125 14.796875 27.296875 
z
" id="DejaVuSans-100"/>
       <path d="M 48.6875 27.296875 
Q 48.6875 37.203125 44.609375 42.84375 
Q 40.53125 48.484375 33.40625 48.484375 
Q 26.265625 48.484375 22.1875 42.84375 
Q 18.109375 37.203125 18.109375 27.296875 
Q 18.109375 17.390625 22.1875 11.75 
Q 26.265625 6.109375 33.40625 6.109375 
Q 40.53125 6.109375 44.609375 11.75 
Q 48.6875 17.390625 48.6875 27.296875 
z
M 18.109375 46.390625 
Q 20.953125 51.265625 25.265625 53.625 
Q 29.59375 56 35.59375 56 
Q 45.5625 56 51.78125 48.09375 
Q 58.015625 40.1875 58.015625 27.296875 
Q 58.015625 14.40625 51.78125 6.484375 
Q 45.5625 -1.421875 35.59375 -1.421875 
Q 29.59375 -1.421875 25.265625 0.953125 
Q 20.953125 3.328125 18.109375 8.203125 
L 18.109375 0 
L 9.078125 0 
L 9.078125 75.984375 
L 18.109375 75.984375 
z
" id="DejaVuSans-98"/>
      </defs>
      <use xlink:href="#DejaVuSans-116"/>
      <use x="39.208984" xlink:href="#DejaVuSans-111"/>
      <use x="100.390625" xlink:href="#DejaVuSans-116"/>
      <use x="139.599609" xlink:href="#DejaVuSans-97"/>
      <use x="200.878906" xlink:href="#DejaVuSans-108"/>
      <use x="228.662109" xlink:href="#DejaVuSans-32"/>
      <use x="260.449219" xlink:href="#DejaVuSans-99"/>
      <use x="315.429688" xlink:href="#DejaVuSans-104"/>
      <use x="378.808594" xlink:href="#DejaVuSans-97"/>
      <use x="440.087891" xlink:href="#DejaVuSans-110"/>
      <use x="503.466797" xlink:href="#DejaVuSans-103"/>
      <use x="566.943359" xlink:href="#DejaVuSans-101"/>
      <use x="628.466797" xlink:href="#DejaVuSans-32"/>
      <use x="660.253906" xlink:href="#DejaVuSans-111"/>
      <use x="721.435547" xlink:href="#DejaVuSans-102"/>
      <use x="756.640625" xlink:href="#DejaVuSans-32"/>
      <use x="788.427734" xlink:href="#DejaVuSans-112"/>
      <use x="851.904297" xlink:href="#DejaVuSans-111"/>
      <use x="913.085938" xlink:href="#DejaVuSans-112"/>
      <use x="976.5625" xlink:href="#DejaVuSans-117"/>
      <use x="1039.941406" xlink:href="#DejaVuSans-108"/>
      <use x="1067.724609" xlink:href="#DejaVuSans-97"/>
      <use x="1129.003906" xlink:href="#DejaVuSans-116"/>
      <use x="1168.212891" xlink:href="#DejaVuSans-105"/>
      <use x="1195.996094" xlink:href="#DejaVuSans-111"/>
      <use x="1257.177734" xlink:href="#DejaVuSans-110"/>
      <use x="1320.556641" xlink:href="#DejaVuSans-32"/>
      <use x="1352.34375" xlink:href="#DejaVuSans-40"/>
      <use x="1391.357422" xlink:href="#DejaVuSans-109"/>
      <use x="1488.769531" xlink:href="#DejaVuSans-105"/>
      <use x="1516.552734" xlink:href="#DejaVuSans-103"/>
      <use x="1580.029297" xlink:href="#DejaVuSans-114"/>
      <use x="1621.142578" xlink:href="#DejaVuSans-97"/>
      <use x="1682.421875" xlink:href="#DejaVuSans-116"/>
      <use x="1721.630859" xlink:href="#DejaVuSans-105"/>
      <use x="1749.414062" xlink:href="#DejaVuSans-111"/>
      <use x="1810.595703" xlink:href="#DejaVuSans-110"/>
      <use x="1873.974609" xlink:href="#DejaVuSans-32"/>
      <use x="1905.761719" xlink:href="#DejaVuSans-43"/>
      <use x="1989.550781" xlink:href="#DejaVuSans-32"/>
      <use x="2021.337891" xlink:href="#DejaVuSans-110"/>
      <use x="2084.716797" xlink:href="#DejaVuSans-97"/>
      <use x="2145.996094" xlink:href="#DejaVuSans-116"/>
      <use x="2185.205078" xlink:href="#DejaVuSans-117"/>
      <use x="2248.583984" xlink:href="#DejaVuSans-114"/>
      <use x="2289.697266" xlink:href="#DejaVuSans-97"/>
      <use x="2350.976562" xlink:href="#DejaVuSans-108"/>
      <use x="2378.759766" xlink:href="#DejaVuSans-32"/>
      <use x="2410.546875" xlink:href="#DejaVuSans-99"/>
      <use x="2465.527344" xlink:href="#DejaVuSans-104"/>
      <use x="2528.90625" xlink:href="#DejaVuSans-97"/>
      <use x="2590.185547" xlink:href="#DejaVuSans-110"/>
      <use x="2653.564453" xlink:href="#DejaVuSans-103"/>
      <use x="2717.041016" xlink:href="#DejaVuSans-101"/>
      <use x="2778.564453" xlink:href="#DejaVuSans-32"/>
      <use x="2810.351562" xlink:href="#DejaVuSans-100"/>
      <use x="2873.828125" xlink:href="#DejaVuSans-117"/>
      <use x="2937.207031" xlink:href="#DejaVuSans-101"/>
      <use x="2998.730469" xlink:href="#DejaVuSans-32"/>
      <use x="3030.517578" xlink:href="#DejaVuSans-116"/>
      <use x="3069.726562" xlink:href="#DejaVuSans-111"/>
      <use x="3130.908203" xlink:href="#DejaVuSans-32"/>
      <use x="3162.695312" xlink:href="#DejaVuSans-100"/>
      <use x="3226.171875" xlink:href="#DejaVuSans-101"/>
      <use x="3287.695312" xlink:href="#DejaVuSans-97"/>
      <use x="3348.974609" xlink:href="#DejaVuSans-116"/>
      <use x="3388.183594" xlink:href="#DejaVuSans-104"/>
      <use x="3451.5625" xlink:href="#DejaVuSans-115"/>
      <use x="3503.662109" xlink:href="#DejaVuSans-32"/>
      <use x="3535.449219" xlink:href="#DejaVuSans-97"/>
      <use x="3596.728516" xlink:href="#DejaVuSans-110"/>
      <use x="3660.107422" xlink:href="#DejaVuSans-100"/>
      <use x="3723.583984" xlink:href="#DejaVuSans-32"/>
      <use x="3755.371094" xlink:href="#DejaVuSans-98"/>
      <use x="3818.847656" xlink:href="#DejaVuSans-105"/>
      <use x="3846.630859" xlink:href="#DejaVuSans-114"/>
      <use x="3887.744141" xlink:href="#DejaVuSans-116"/>
      <use x="3926.953125" xlink:href="#DejaVuSans-104"/>
      <use x="3990.332031" xlink:href="#DejaVuSans-115"/>
     </g>
    </g>
   </g>
  </g>
  <g id="axes_2">
   <g id="patch_37">
    <path d="M 60.754688 348.478125 
L 730.354688 348.478125 
L 730.354688 200.22358 
L 60.754688 200.22358 
z
" style="fill:#ffffff;"/>
   </g>
   <g id="patch_38">
    <path clip-path="url(#pf3a77a7a5d)" d="M 66.733259 303.178053 
L 72.71183 303.178053 
L 72.71183 313.197388 
L 66.733259 313.197388 
z
" style="fill:#1f77b4;"/>
   </g>
   <g id="patch_39">
    <path clip-path="url(#pf3a77a7a5d)" d="M 90.647545 303.178053 
L 96.626116 303.178053 
L 96.626116 285.920736 
L 90.647545 285.920736 
z
" style="fill:#1f77b4;"/>
   </g>
   <g id="patch_40">
    <path clip-path="url(#pf3a77a7a5d)" d="M 114.56183 303.178053 
L 120.540402 303.178053 
L 120.540402 304.387749 
L 114.56183 304.387749 
z
" style="fill:#1f77b4;"/>
   </g>
   <g id="patch_41">
    <path clip-path="url(#pf3a77a7a5d)" d="M 138.476116 303.178053 
L 144.454688 303.178053 
L 144.454688 309.600817 
L 138.476116 309.600817 
z
" style="fill:#1f77b4;"/>
   </g>
   <g id="patch_42">
    <path clip-path="url(#pf3a77a7a5d)" d="M 162.390402 303.178053 
L 168.368973 303.178053 
L 168.368973 308.744193 
L 162.390402 308.744193 
z
" style="fill:#1f77b4;"/>
   </g>
   <g id="patch_43">
    <path clip-path="url(#pf3a77a7a5d)" d="M 186.304688 303.178053 
L 192.283259 303.178053 
L 192.283259 301.828379 
L 186.304688 301.828379 
z
" style="fill:#1f77b4;"/>
   </g>
   <g id="patch_44">
    <path clip-path="url(#pf3a77a7a5d)" d="M 210.218973 303.178053 
L 216.197545 303.178053 
L 216.197545 299.534015 
L 210.218973 299.534015 
z
" style="fill:#1f77b4;"/>
   </g>
   <g id="patch_45">
    <path clip-path="url(#pf3a77a7a5d)" d="M 234.133259 303.178053 
L 240.11183 303.178053 
L 240.11183 302.191147 
L 234.133259 302.191147 
z
" style="fill:#1f77b4;"/>
   </g>
   <g id="patch_46">
    <path clip-path="url(#pf3a77a7a5d)" d="M 258.047545 303.178053 
L 264.026116 303.178053 
L 264.026116 304.755163 
L 258.047545 304.755163 
z
" style="fill:#1f77b4;"/>
   </g>
   <g id="patch_47">
    <path clip-path="url(#pf3a77a7a5d)" d="M 281.96183 303.178053 
L 287.940402 303.178053 
L 287.940402 302.924964 
L 281.96183 302.924964 
z
" style="fill:#1f77b4;"/>
   </g>
   <g id="patch_48">
    <path clip-path="url(#pf3a77a7a5d)" d="M 305.876116 303.178053 
L 311.854688 303.178053 
L 311.854688 302.116008 
L 305.876116 302.116008 
z
" style="fill:#1f77b4;"/>
   </g>
   <g id="patch_49">
    <path clip-path="url(#pf3a77a7a5d)" d="M 329.790402 303.178053 
L 335.768973 303.178053 
L 335.768973 302.250329 
L 329.790402 302.250329 
z
" style="fill:#1f77b4;"/>
   </g>
   <g id="patch_50">
    <path clip-path="url(#pf3a77a7a5d)" d="M 353.704687 303.178053 
L 359.683259 303.178053 
L 359.683259 302.426259 
L 353.704687 302.426259 
z
" style="fill:#1f77b4;"/>
   </g>
   <g id="patch_51">
    <path clip-path="url(#pf3a77a7a5d)" d="M 377.618973 303.178053 
L 383.597545 303.178053 
L 383.597545 301.925333 
L 377.618973 301.925333 
z
" style="fill:#1f77b4;"/>
   </g>
   <g id="patch_52">
    <path clip-path="url(#pf3a77a7a5d)" d="M 401.533259 303.178053 
L 407.51183 303.178053 
L 407.51183 300.504964 
L 401.533259 300.504964 
z
" style="fill:#1f77b4;"/>
   </g>
   <g id="patch_53">
    <path clip-path="url(#pf3a77a7a5d)" d="M 425.447545 303.178053 
L 431.426116 303.178053 
L 431.426116 301.273927 
L 425.447545 301.273927 
z
" style="fill:#1f77b4;"/>
   </g>
   <g id="patch_54">
    <path clip-path="url(#pf3a77a7a5d)" d="M 449.36183 303.178053 
L 455.340402 303.178053 
L 455.340402 300.217739 
L 449.36183 300.217739 
z
" style="fill:#1f77b4;"/>
   </g>
   <g id="patch_55">
    <path clip-path="url(#pf3a77a7a5d)" d="M 473.276116 303.178053 
L 479.254688 303.178053 
L 479.254688 297.46729 
L 473.276116 297.46729 
z
" style="fill:#1f77b4;"/>
   </g>
   <g id="patch_56">
    <path clip-path="url(#pf3a77a7a5d)" d="M 497.190402 303.178053 
L 503.168973 303.178053 
L 503.168973 298.272812 
L 497.190402 298.272812 
z
" style="fill:#1f77b4;"/>
   </g>
   <g id="patch_57">
    <path clip-path="url(#pf3a77a7a5d)" d="M 521.104688 303.178053 
L 527.083259 303.178053 
L 527.083259 294.080786 
L 521.104688 294.080786 
z
" style="fill:#1f77b4;"/>
   </g>
   <g id="patch_58">
    <path clip-path="url(#pf3a77a7a5d)" d="M 545.018973 303.178053 
L 550.997545 303.178053 
L 550.997545 298.710921 
L 545.018973 298.710921 
z
" style="fill:#1f77b4;"/>
   </g>
   <g id="patch_59">
    <path clip-path="url(#pf3a77a7a5d)" d="M 568.933259 303.178053 
L 574.91183 303.178053 
L 574.91183 292.814735 
L 568.933259 292.814735 
z
" style="fill:#1f77b4;"/>
   </g>
   <g id="patch_60">
    <path clip-path="url(#pf3a77a7a5d)" d="M 592.847545 303.178053 
L 598.826116 303.178053 
L 598.826116 286.937536 
L 592.847545 286.937536 
z
" style="fill:#1f77b4;"/>
   </g>
   <g id="patch_61">
    <path clip-path="url(#pf3a77a7a5d)" d="M 616.76183 303.178053 
L 622.740402 303.178053 
L 622.740402 282.647142 
L 616.76183 282.647142 
z
" style="fill:#1f77b4;"/>
   </g>
   <g id="patch_62">
    <path clip-path="url(#pf3a77a7a5d)" d="M 640.676116 303.178053 
L 646.654687 303.178053 
L 646.654687 270.151655 
L 640.676116 270.151655 
z
" style="fill:#1f77b4;"/>
   </g>
   <g id="patch_63">
    <path clip-path="url(#pf3a77a7a5d)" d="M 664.590402 303.178053 
L 670.568973 303.178053 
L 670.568973 289.38036 
L 664.590402 289.38036 
z
" style="fill:#1f77b4;"/>
   </g>
   <g id="patch_64">
    <path clip-path="url(#pf3a77a7a5d)" d="M 688.504688 303.178053 
L 694.483259 303.178053 
L 694.483259 206.962423 
L 688.504688 206.962423 
z
" style="fill:#1f77b4;"/>
   </g>
   <g id="patch_65">
    <path clip-path="url(#pf3a77a7a5d)" d="M 712.418973 303.178053 
L 718.397545 303.178053 
L 718.397545 246.306147 
L 712.418973 246.306147 
z
" style="fill:#1f77b4;"/>
   </g>
   <g id="patch_66">
    <path clip-path="url(#pf3a77a7a5d)" d="M 72.71183 303.178053 
L 78.690402 303.178053 
L 78.690402 317.544337 
L 72.71183 317.544337 
z
" style="fill:#ff7f0e;"/>
   </g>
   <g id="patch_67">
    <path clip-path="url(#pf3a77a7a5d)" d="M 96.626116 303.178053 
L 102.604687 303.178053 
L 102.604687 341.739282 
L 96.626116 341.739282 
z
" style="fill:#ff7f0e;"/>
   </g>
   <g id="patch_68">
    <path clip-path="url(#pf3a77a7a5d)" d="M 120.540402 303.178053 
L 126.518973 303.178053 
L 126.518973 312.436303 
L 120.540402 312.436303 
z
" style="fill:#ff7f0e;"/>
   </g>
   <g id="patch_69">
    <path clip-path="url(#pf3a77a7a5d)" d="M 144.454688 303.178053 
L 150.433259 303.178053 
L 150.433259 306.595865 
L 144.454688 306.595865 
z
" style="fill:#ff7f0e;"/>
   </g>
   <g id="patch_70">
    <path clip-path="url(#pf3a77a7a5d)" d="M 168.368973 303.178053 
L 174.347545 303.178053 
L 174.347545 305.489989 
L 168.368973 305.489989 
z
" style="fill:#ff7f0e;"/>
   </g>
   <g id="patch_71">
    <path clip-path="url(#pf3a77a7a5d)" d="M 192.283259 303.178053 
L 198.26183 303.178053 
L 198.26183 310.450978 
L 192.283259 310.450978 
z
" style="fill:#ff7f0e;"/>
   </g>
   <g id="patch_72">
    <path clip-path="url(#pf3a77a7a5d)" d="M 216.197545 303.178053 
L 222.176116 303.178053 
L 222.176116 310.698209 
L 216.197545 310.698209 
z
" style="fill:#ff7f0e;"/>
   </g>
   <g id="patch_73">
    <path clip-path="url(#pf3a77a7a5d)" d="M 240.11183 303.178053 
L 246.090402 303.178053 
L 246.090402 307.910999 
L 240.11183 307.910999 
z
" style="fill:#ff7f0e;"/>
   </g>
   <g id="patch_74">
    <path clip-path="url(#pf3a77a7a5d)" d="M 264.026116 303.178053 
L 270.004688 303.178053 
L 270.004688 304.779603 
L 264.026116 304.779603 
z
" style="fill:#ff7f0e;"/>
   </g>
   <g id="patch_75">
    <path clip-path="url(#pf3a77a7a5d)" d="M 287.940402 303.178053 
L 293.918973 303.178053 
L 293.918973 303.232185 
L 287.940402 303.232185 
z
" style="fill:#ff7f0e;"/>
   </g>
   <g id="patch_76">
    <path clip-path="url(#pf3a77a7a5d)" d="M 311.854688 303.178053 
L 317.833259 303.178053 
L 317.833259 303.533347 
L 311.854688 303.533347 
z
" style="fill:#ff7f0e;"/>
   </g>
   <g id="patch_77">
    <path clip-path="url(#pf3a77a7a5d)" d="M 335.768973 303.178053 
L 341.747545 303.178053 
L 341.747545 303.353781 
L 335.768973 303.353781 
z
" style="fill:#ff7f0e;"/>
   </g>
   <g id="patch_78">
    <path clip-path="url(#pf3a77a7a5d)" d="M 359.683259 303.178053 
L 365.66183 303.178053 
L 365.66183 302.358998 
L 359.683259 302.358998 
z
" style="fill:#ff7f0e;"/>
   </g>
   <g id="patch_79">
    <path clip-path="url(#pf3a77a7a5d)" d="M 383.597545 303.178053 
L 389.576116 303.178053 
L 389.576116 302.525232 
L 383.597545 302.525232 
z
" style="fill:#ff7f0e;"/>
   </g>
   <g id="patch_80">
    <path clip-path="url(#pf3a77a7a5d)" d="M 407.51183 303.178053 
L 413.490402 303.178053 
L 413.490402 303.865008 
L 407.51183 303.865008 
z
" style="fill:#ff7f0e;"/>
   </g>
   <g id="patch_81">
    <path clip-path="url(#pf3a77a7a5d)" d="M 431.426116 303.178053 
L 437.404688 303.178053 
L 437.404688 302.792057 
L 431.426116 302.792057 
z
" style="fill:#ff7f0e;"/>
   </g>
   <g id="patch_82">
    <path clip-path="url(#pf3a77a7a5d)" d="M 455.340402 303.178053 
L 461.318973 303.178053 
L 461.318973 303.026967 
L 455.340402 303.026967 
z
" style="fill:#ff7f0e;"/>
   </g>
   <g id="patch_83">
    <path clip-path="url(#pf3a77a7a5d)" d="M 479.254687 303.178053 
L 485.233259 303.178053 
L 485.233259 302.579769 
L 479.254687 302.579769 
z
" style="fill:#ff7f0e;"/>
   </g>
   <g id="patch_84">
    <path clip-path="url(#pf3a77a7a5d)" d="M 503.168973 303.178053 
L 509.147545 303.178053 
L 509.147545 301.534691 
L 503.168973 301.534691 
z
" style="fill:#ff7f0e;"/>
   </g>
   <g id="patch_85">
    <path clip-path="url(#pf3a77a7a5d)" d="M 527.083259 303.178053 
L 533.06183 303.178053 
L 533.06183 302.296786 
L 527.083259 302.296786 
z
" style="fill:#ff7f0e;"/>
   </g>
   <g id="patch_86">
    <path clip-path="url(#pf3a77a7a5d)" d="M 550.997545 303.178053 
L 556.976116 303.178053 
L 556.976116 296.762964 
L 550.997545 296.762964 
z
" style="fill:#ff7f0e;"/>
   </g>
   <g id="patch_87">
    <path clip-path="url(#pf3a77a7a5d)" d="M 574.91183 303.178053 
L 580.890402 303.178053 
L 580.890402 301.153341 
L 574.91183 301.153341 
z
" style="fill:#ff7f0e;"/>
   </g>
   <g id="patch_88">
    <path clip-path="url(#pf3a77a7a5d)" d="M 598.826116 303.178053 
L 604.804688 303.178053 
L 604.804688 299.305367 
L 598.826116 299.305367 
z
" style="fill:#ff7f0e;"/>
   </g>
   <g id="patch_89">
    <path clip-path="url(#pf3a77a7a5d)" d="M 622.740402 303.178053 
L 628.718973 303.178053 
L 628.718973 298.442683 
L 622.740402 298.442683 
z
" style="fill:#ff7f0e;"/>
   </g>
   <g id="patch_90">
    <path clip-path="url(#pf3a77a7a5d)" d="M 646.654688 303.178053 
L 652.633259 303.178053 
L 652.633259 309.489119 
L 646.654688 309.489119 
z
" style="fill:#ff7f0e;"/>
   </g>
   <g id="patch_91">
    <path clip-path="url(#pf3a77a7a5d)" d="M 670.568973 303.178053 
L 676.547545 303.178053 
L 676.547545 269.941186 
L 670.568973 269.941186 
z
" style="fill:#ff7f0e;"/>
   </g>
   <g id="patch_92">
    <path clip-path="url(#pf3a77a7a5d)" d="M 694.483259 303.178053 
L 700.46183 303.178053 
L 700.46183 333.072044 
L 694.483259 333.072044 
z
" style="fill:#ff7f0e;"/>
   </g>
   <g id="patch_93">
    <path clip-path="url(#pf3a77a7a5d)" d="M 718.397545 303.178053 
L 724.376116 303.178053 
L 724.376116 273.310117 
L 718.397545 273.310117 
z
" style="fill:#ff7f0e;"/>
   </g>
   <g id="matplotlib.axis_3">
    <g id="xtick_29">
     <g id="line2d_35">
      <g>
       <use style="stroke:#000000;stroke-width:0.8;" x="72.71183" xlink:href="#m24fa49b361" y="348.478125"/>
      </g>
     </g>
     <g id="text_9">
      <!-- Romania -->
      <g transform="translate(75.471205 399.207812)rotate(-90)scale(0.1 -0.1)">
       <defs>
        <path d="M 44.390625 34.1875 
Q 47.5625 33.109375 50.5625 29.59375 
Q 53.5625 26.078125 56.59375 19.921875 
L 66.609375 0 
L 56 0 
L 46.6875 18.703125 
Q 43.0625 26.03125 39.671875 28.421875 
Q 36.28125 30.8125 30.421875 30.8125 
L 19.671875 30.8125 
L 19.671875 0 
L 9.8125 0 
L 9.8125 72.90625 
L 32.078125 72.90625 
Q 44.578125 72.90625 50.734375 67.671875 
Q 56.890625 62.453125 56.890625 51.90625 
Q 56.890625 45.015625 53.6875 40.46875 
Q 50.484375 35.9375 44.390625 34.1875 
z
M 19.671875 64.796875 
L 19.671875 38.921875 
L 32.078125 38.921875 
Q 39.203125 38.921875 42.84375 42.21875 
Q 46.484375 45.515625 46.484375 51.90625 
Q 46.484375 58.296875 42.84375 61.546875 
Q 39.203125 64.796875 32.078125 64.796875 
z
" id="DejaVuSans-82"/>
       </defs>
       <use xlink:href="#DejaVuSans-82"/>
       <use x="64.982422" xlink:href="#DejaVuSans-111"/>
       <use x="126.164062" xlink:href="#DejaVuSans-109"/>
       <use x="223.576172" xlink:href="#DejaVuSans-97"/>
       <use x="284.855469" xlink:href="#DejaVuSans-110"/>
       <use x="348.234375" xlink:href="#DejaVuSans-105"/>
       <use x="376.017578" xlink:href="#DejaVuSans-97"/>
      </g>
     </g>
    </g>
    <g id="xtick_30">
     <g id="line2d_36">
      <g>
       <use style="stroke:#000000;stroke-width:0.8;" x="96.626116" xlink:href="#m24fa49b361" y="348.478125"/>
      </g>
     </g>
     <g id="text_10">
      <!-- Italy -->
      <g transform="translate(99.385491 377.173437)rotate(-90)scale(0.1 -0.1)">
       <defs>
        <path d="M 9.8125 72.90625 
L 19.671875 72.90625 
L 19.671875 0 
L 9.8125 0 
z
" id="DejaVuSans-73"/>
        <path d="M 32.171875 -5.078125 
Q 28.375 -14.84375 24.75 -17.8125 
Q 21.140625 -20.796875 15.09375 -20.796875 
L 7.90625 -20.796875 
L 7.90625 -13.28125 
L 13.1875 -13.28125 
Q 16.890625 -13.28125 18.9375 -11.515625 
Q 21 -9.765625 23.484375 -3.21875 
L 25.09375 0.875 
L 2.984375 54.6875 
L 12.5 54.6875 
L 29.59375 11.921875 
L 46.6875 54.6875 
L 56.203125 54.6875 
z
" id="DejaVuSans-121"/>
       </defs>
       <use xlink:href="#DejaVuSans-73"/>
       <use x="29.492188" xlink:href="#DejaVuSans-116"/>
       <use x="68.701172" xlink:href="#DejaVuSans-97"/>
       <use x="129.980469" xlink:href="#DejaVuSans-108"/>
       <use x="157.763672" xlink:href="#DejaVuSans-121"/>
      </g>
     </g>
    </g>
    <g id="xtick_31">
     <g id="line2d_37">
      <g>
       <use style="stroke:#000000;stroke-width:0.8;" x="120.540402" xlink:href="#m24fa49b361" y="348.478125"/>
      </g>
     </g>
     <g id="text_11">
      <!-- Bulgaria -->
      <g transform="translate(123.299777 396.948437)rotate(-90)scale(0.1 -0.1)">
       <defs>
        <path d="M 19.671875 34.8125 
L 19.671875 8.109375 
L 35.5 8.109375 
Q 43.453125 8.109375 47.28125 11.40625 
Q 51.125 14.703125 51.125 21.484375 
Q 51.125 28.328125 47.28125 31.5625 
Q 43.453125 34.8125 35.5 34.8125 
z
M 19.671875 64.796875 
L 19.671875 42.828125 
L 34.28125 42.828125 
Q 41.5 42.828125 45.03125 45.53125 
Q 48.578125 48.25 48.578125 53.8125 
Q 48.578125 59.328125 45.03125 62.0625 
Q 41.5 64.796875 34.28125 64.796875 
z
M 9.8125 72.90625 
L 35.015625 72.90625 
Q 46.296875 72.90625 52.390625 68.21875 
Q 58.5 63.53125 58.5 54.890625 
Q 58.5 48.1875 55.375 44.234375 
Q 52.25 40.28125 46.1875 39.3125 
Q 53.46875 37.75 57.5 32.78125 
Q 61.53125 27.828125 61.53125 20.40625 
Q 61.53125 10.640625 54.890625 5.3125 
Q 48.25 0 35.984375 0 
L 9.8125 0 
z
" id="DejaVuSans-66"/>
       </defs>
       <use xlink:href="#DejaVuSans-66"/>
       <use x="68.603516" xlink:href="#DejaVuSans-117"/>
       <use x="131.982422" xlink:href="#DejaVuSans-108"/>
       <use x="159.765625" xlink:href="#DejaVuSans-103"/>
       <use x="223.242188" xlink:href="#DejaVuSans-97"/>
       <use x="284.521484" xlink:href="#DejaVuSans-114"/>
       <use x="325.634766" xlink:href="#DejaVuSans-105"/>
       <use x="353.417969" xlink:href="#DejaVuSans-97"/>
      </g>
     </g>
    </g>
    <g id="xtick_32">
     <g id="line2d_38">
      <g>
       <use style="stroke:#000000;stroke-width:0.8;" x="144.454688" xlink:href="#m24fa49b361" y="348.478125"/>
      </g>
     </g>
     <g id="text_12">
      <!-- Croatia -->
      <g transform="translate(147.214063 391.420312)rotate(-90)scale(0.1 -0.1)">
       <defs>
        <path d="M 64.40625 67.28125 
L 64.40625 56.890625 
Q 59.421875 61.53125 53.78125 63.8125 
Q 48.140625 66.109375 41.796875 66.109375 
Q 29.296875 66.109375 22.65625 58.46875 
Q 16.015625 50.828125 16.015625 36.375 
Q 16.015625 21.96875 22.65625 14.328125 
Q 29.296875 6.6875 41.796875 6.6875 
Q 48.140625 6.6875 53.78125 8.984375 
Q 59.421875 11.28125 64.40625 15.921875 
L 64.40625 5.609375 
Q 59.234375 2.09375 53.4375 0.328125 
Q 47.65625 -1.421875 41.21875 -1.421875 
Q 24.65625 -1.421875 15.125 8.703125 
Q 5.609375 18.84375 5.609375 36.375 
Q 5.609375 53.953125 15.125 64.078125 
Q 24.65625 74.21875 41.21875 74.21875 
Q 47.75 74.21875 53.53125 72.484375 
Q 59.328125 70.75 64.40625 67.28125 
z
" id="DejaVuSans-67"/>
       </defs>
       <use xlink:href="#DejaVuSans-67"/>
       <use x="69.824219" xlink:href="#DejaVuSans-114"/>
       <use x="108.6875" xlink:href="#DejaVuSans-111"/>
       <use x="169.869141" xlink:href="#DejaVuSans-97"/>
       <use x="231.148438" xlink:href="#DejaVuSans-116"/>
       <use x="270.357422" xlink:href="#DejaVuSans-105"/>
       <use x="298.140625" xlink:href="#DejaVuSans-97"/>
      </g>
     </g>
    </g>
    <g id="xtick_33">
     <g id="line2d_39">
      <g>
       <use style="stroke:#000000;stroke-width:0.8;" x="168.368973" xlink:href="#m24fa49b361" y="348.478125"/>
      </g>
     </g>
     <g id="text_13">
      <!-- Lithuania -->
      <g transform="translate(171.128348 401.795312)rotate(-90)scale(0.1 -0.1)">
       <defs>
        <path d="M 9.8125 72.90625 
L 19.671875 72.90625 
L 19.671875 8.296875 
L 55.171875 8.296875 
L 55.171875 0 
L 9.8125 0 
z
" id="DejaVuSans-76"/>
       </defs>
       <use xlink:href="#DejaVuSans-76"/>
       <use x="55.712891" xlink:href="#DejaVuSans-105"/>
       <use x="83.496094" xlink:href="#DejaVuSans-116"/>
       <use x="122.705078" xlink:href="#DejaVuSans-104"/>
       <use x="186.083984" xlink:href="#DejaVuSans-117"/>
       <use x="249.462891" xlink:href="#DejaVuSans-97"/>
       <use x="310.742188" xlink:href="#DejaVuSans-110"/>
       <use x="374.121094" xlink:href="#DejaVuSans-105"/>
       <use x="401.904297" xlink:href="#DejaVuSans-97"/>
      </g>
     </g>
    </g>
    <g id="xtick_34">
     <g id="line2d_40">
      <g>
       <use style="stroke:#000000;stroke-width:0.8;" x="192.283259" xlink:href="#m24fa49b361" y="348.478125"/>
      </g>
     </g>
     <g id="text_14">
      <!-- Greece -->
      <g transform="translate(195.042634 391.070312)rotate(-90)scale(0.1 -0.1)">
       <defs>
        <path d="M 59.515625 10.40625 
L 59.515625 29.984375 
L 43.40625 29.984375 
L 43.40625 38.09375 
L 69.28125 38.09375 
L 69.28125 6.78125 
Q 63.578125 2.734375 56.6875 0.65625 
Q 49.8125 -1.421875 42 -1.421875 
Q 24.90625 -1.421875 15.25 8.5625 
Q 5.609375 18.5625 5.609375 36.375 
Q 5.609375 54.25 15.25 64.234375 
Q 24.90625 74.21875 42 74.21875 
Q 49.125 74.21875 55.546875 72.453125 
Q 61.96875 70.703125 67.390625 67.28125 
L 67.390625 56.78125 
Q 61.921875 61.421875 55.765625 63.765625 
Q 49.609375 66.109375 42.828125 66.109375 
Q 29.4375 66.109375 22.71875 58.640625 
Q 16.015625 51.171875 16.015625 36.375 
Q 16.015625 21.625 22.71875 14.15625 
Q 29.4375 6.6875 42.828125 6.6875 
Q 48.046875 6.6875 52.140625 7.59375 
Q 56.25 8.5 59.515625 10.40625 
z
" id="DejaVuSans-71"/>
       </defs>
       <use xlink:href="#DejaVuSans-71"/>
       <use x="77.490234" xlink:href="#DejaVuSans-114"/>
       <use x="116.353516" xlink:href="#DejaVuSans-101"/>
       <use x="177.876953" xlink:href="#DejaVuSans-101"/>
       <use x="239.400391" xlink:href="#DejaVuSans-99"/>
       <use x="294.380859" xlink:href="#DejaVuSans-101"/>
      </g>
     </g>
    </g>
    <g id="xtick_35">
     <g id="line2d_41">
      <g>
       <use style="stroke:#000000;stroke-width:0.8;" x="216.197545" xlink:href="#m24fa49b361" y="348.478125"/>
      </g>
     </g>
     <g id="text_15">
      <!-- Hungary -->
      <g transform="translate(218.95692 398.179687)rotate(-90)scale(0.1 -0.1)">
       <defs>
        <path d="M 9.8125 72.90625 
L 19.671875 72.90625 
L 19.671875 43.015625 
L 55.515625 43.015625 
L 55.515625 72.90625 
L 65.375 72.90625 
L 65.375 0 
L 55.515625 0 
L 55.515625 34.71875 
L 19.671875 34.71875 
L 19.671875 0 
L 9.8125 0 
z
" id="DejaVuSans-72"/>
       </defs>
       <use xlink:href="#DejaVuSans-72"/>
       <use x="75.195312" xlink:href="#DejaVuSans-117"/>
       <use x="138.574219" xlink:href="#DejaVuSans-110"/>
       <use x="201.953125" xlink:href="#DejaVuSans-103"/>
       <use x="265.429688" xlink:href="#DejaVuSans-97"/>
       <use x="326.708984" xlink:href="#DejaVuSans-114"/>
       <use x="367.822266" xlink:href="#DejaVuSans-121"/>
      </g>
     </g>
    </g>
    <g id="xtick_36">
     <g id="line2d_42">
      <g>
       <use style="stroke:#000000;stroke-width:0.8;" x="240.11183" xlink:href="#m24fa49b361" y="348.478125"/>
      </g>
     </g>
     <g id="text_16">
      <!-- Portugal -->
      <g transform="translate(242.871205 396.8875)rotate(-90)scale(0.1 -0.1)">
       <use xlink:href="#DejaVuSans-80"/>
       <use x="56.677734" xlink:href="#DejaVuSans-111"/>
       <use x="117.859375" xlink:href="#DejaVuSans-114"/>
       <use x="158.972656" xlink:href="#DejaVuSans-116"/>
       <use x="198.181641" xlink:href="#DejaVuSans-117"/>
       <use x="261.560547" xlink:href="#DejaVuSans-103"/>
       <use x="325.037109" xlink:href="#DejaVuSans-97"/>
       <use x="386.316406" xlink:href="#DejaVuSans-108"/>
      </g>
     </g>
    </g>
    <g id="xtick_37">
     <g id="line2d_43">
      <g>
       <use style="stroke:#000000;stroke-width:0.8;" x="264.026116" xlink:href="#m24fa49b361" y="348.478125"/>
      </g>
     </g>
     <g id="text_17">
      <!-- Latvia -->
      <g transform="translate(266.785491 385.923437)rotate(-90)scale(0.1 -0.1)">
       <defs>
        <path d="M 2.984375 54.6875 
L 12.5 54.6875 
L 29.59375 8.796875 
L 46.6875 54.6875 
L 56.203125 54.6875 
L 35.6875 0 
L 23.484375 0 
z
" id="DejaVuSans-118"/>
       </defs>
       <use xlink:href="#DejaVuSans-76"/>
       <use x="55.712891" xlink:href="#DejaVuSans-97"/>
       <use x="116.992188" xlink:href="#DejaVuSans-116"/>
       <use x="156.201172" xlink:href="#DejaVuSans-118"/>
       <use x="215.380859" xlink:href="#DejaVuSans-105"/>
       <use x="243.164062" xlink:href="#DejaVuSans-97"/>
      </g>
     </g>
    </g>
    <g id="xtick_38">
     <g id="line2d_44">
      <g>
       <use style="stroke:#000000;stroke-width:0.8;" x="287.940402" xlink:href="#m24fa49b361" y="348.478125"/>
      </g>
     </g>
     <g id="text_18">
      <!-- Slovenia -->
      <g transform="translate(290.699777 398.039062)rotate(-90)scale(0.1 -0.1)">
       <defs>
        <path d="M 53.515625 70.515625 
L 53.515625 60.890625 
Q 47.90625 63.578125 42.921875 64.890625 
Q 37.9375 66.21875 33.296875 66.21875 
Q 25.25 66.21875 20.875 63.09375 
Q 16.5 59.96875 16.5 54.203125 
Q 16.5 49.359375 19.40625 46.890625 
Q 22.3125 44.4375 30.421875 42.921875 
L 36.375 41.703125 
Q 47.40625 39.59375 52.65625 34.296875 
Q 57.90625 29 57.90625 20.125 
Q 57.90625 9.515625 50.796875 4.046875 
Q 43.703125 -1.421875 29.984375 -1.421875 
Q 24.8125 -1.421875 18.96875 -0.25 
Q 13.140625 0.921875 6.890625 3.21875 
L 6.890625 13.375 
Q 12.890625 10.015625 18.65625 8.296875 
Q 24.421875 6.59375 29.984375 6.59375 
Q 38.421875 6.59375 43.015625 9.90625 
Q 47.609375 13.234375 47.609375 19.390625 
Q 47.609375 24.75 44.3125 27.78125 
Q 41.015625 30.8125 33.5 32.328125 
L 27.484375 33.5 
Q 16.453125 35.6875 11.515625 40.375 
Q 6.59375 45.0625 6.59375 53.421875 
Q 6.59375 63.09375 13.40625 68.65625 
Q 20.21875 74.21875 32.171875 74.21875 
Q 37.3125 74.21875 42.625 73.28125 
Q 47.953125 72.359375 53.515625 70.515625 
z
" id="DejaVuSans-83"/>
       </defs>
       <use xlink:href="#DejaVuSans-83"/>
       <use x="63.476562" xlink:href="#DejaVuSans-108"/>
       <use x="91.259766" xlink:href="#DejaVuSans-111"/>
       <use x="152.441406" xlink:href="#DejaVuSans-118"/>
       <use x="211.621094" xlink:href="#DejaVuSans-101"/>
       <use x="273.144531" xlink:href="#DejaVuSans-110"/>
       <use x="336.523438" xlink:href="#DejaVuSans-105"/>
       <use x="364.306641" xlink:href="#DejaVuSans-97"/>
      </g>
     </g>
    </g>
    <g id="xtick_39">
     <g id="line2d_45">
      <g>
       <use style="stroke:#000000;stroke-width:0.8;" x="311.854688" xlink:href="#m24fa49b361" y="348.478125"/>
      </g>
     </g>
     <g id="text_19">
      <!-- Estonia  -->
      <g transform="translate(314.614062 395.467187)rotate(-90)scale(0.1 -0.1)">
       <defs>
        <path d="M 9.8125 72.90625 
L 55.90625 72.90625 
L 55.90625 64.59375 
L 19.671875 64.59375 
L 19.671875 43.015625 
L 54.390625 43.015625 
L 54.390625 34.71875 
L 19.671875 34.71875 
L 19.671875 8.296875 
L 56.78125 8.296875 
L 56.78125 0 
L 9.8125 0 
z
" id="DejaVuSans-69"/>
       </defs>
       <use xlink:href="#DejaVuSans-69"/>
       <use x="63.183594" xlink:href="#DejaVuSans-115"/>
       <use x="115.283203" xlink:href="#DejaVuSans-116"/>
       <use x="154.492188" xlink:href="#DejaVuSans-111"/>
       <use x="215.673828" xlink:href="#DejaVuSans-110"/>
       <use x="279.052734" xlink:href="#DejaVuSans-105"/>
       <use x="306.835938" xlink:href="#DejaVuSans-97"/>
       <use x="368.115234" xlink:href="#DejaVuSans-32"/>
      </g>
     </g>
    </g>
    <g id="xtick_40">
     <g id="line2d_46">
      <g>
       <use style="stroke:#000000;stroke-width:0.8;" x="335.768973" xlink:href="#m24fa49b361" y="348.478125"/>
      </g>
     </g>
     <g id="text_20">
      <!-- Poland -->
      <g transform="translate(338.528348 388.85625)rotate(-90)scale(0.1 -0.1)">
       <use xlink:href="#DejaVuSans-80"/>
       <use x="56.677734" xlink:href="#DejaVuSans-111"/>
       <use x="117.859375" xlink:href="#DejaVuSans-108"/>
       <use x="145.642578" xlink:href="#DejaVuSans-97"/>
       <use x="206.921875" xlink:href="#DejaVuSans-110"/>
       <use x="270.300781" xlink:href="#DejaVuSans-100"/>
      </g>
     </g>
    </g>
    <g id="xtick_41">
     <g id="line2d_47">
      <g>
       <use style="stroke:#000000;stroke-width:0.8;" x="359.683259" xlink:href="#m24fa49b361" y="348.478125"/>
      </g>
     </g>
     <g id="text_21">
      <!-- Slovakia -->
      <g transform="translate(362.442634 397.467187)rotate(-90)scale(0.1 -0.1)">
       <defs>
        <path d="M 9.078125 75.984375 
L 18.109375 75.984375 
L 18.109375 31.109375 
L 44.921875 54.6875 
L 56.390625 54.6875 
L 27.390625 29.109375 
L 57.625 0 
L 45.90625 0 
L 18.109375 26.703125 
L 18.109375 0 
L 9.078125 0 
z
" id="DejaVuSans-107"/>
       </defs>
       <use xlink:href="#DejaVuSans-83"/>
       <use x="63.476562" xlink:href="#DejaVuSans-108"/>
       <use x="91.259766" xlink:href="#DejaVuSans-111"/>
       <use x="152.441406" xlink:href="#DejaVuSans-118"/>
       <use x="211.621094" xlink:href="#DejaVuSans-97"/>
       <use x="272.900391" xlink:href="#DejaVuSans-107"/>
       <use x="330.810547" xlink:href="#DejaVuSans-105"/>
       <use x="358.59375" xlink:href="#DejaVuSans-97"/>
      </g>
     </g>
    </g>
    <g id="xtick_42">
     <g id="line2d_48">
      <g>
       <use style="stroke:#000000;stroke-width:0.8;" x="383.597545" xlink:href="#m24fa49b361" y="348.478125"/>
      </g>
     </g>
     <g id="text_22">
      <!-- Cyprus -->
      <g transform="translate(386.35692 390.385937)rotate(-90)scale(0.1 -0.1)">
       <use xlink:href="#DejaVuSans-67"/>
       <use x="69.824219" xlink:href="#DejaVuSans-121"/>
       <use x="129.003906" xlink:href="#DejaVuSans-112"/>
       <use x="192.480469" xlink:href="#DejaVuSans-114"/>
       <use x="233.59375" xlink:href="#DejaVuSans-117"/>
       <use x="296.972656" xlink:href="#DejaVuSans-115"/>
      </g>
     </g>
    </g>
    <g id="xtick_43">
     <g id="line2d_49">
      <g>
       <use style="stroke:#000000;stroke-width:0.8;" x="407.51183" xlink:href="#m24fa49b361" y="348.478125"/>
      </g>
     </g>
     <g id="text_23">
      <!-- Finland -->
      <g transform="translate(410.271205 391.2125)rotate(-90)scale(0.1 -0.1)">
       <defs>
        <path d="M 9.8125 72.90625 
L 51.703125 72.90625 
L 51.703125 64.59375 
L 19.671875 64.59375 
L 19.671875 43.109375 
L 48.578125 43.109375 
L 48.578125 34.8125 
L 19.671875 34.8125 
L 19.671875 0 
L 9.8125 0 
z
" id="DejaVuSans-70"/>
       </defs>
       <use xlink:href="#DejaVuSans-70"/>
       <use x="50.269531" xlink:href="#DejaVuSans-105"/>
       <use x="78.052734" xlink:href="#DejaVuSans-110"/>
       <use x="141.431641" xlink:href="#DejaVuSans-108"/>
       <use x="169.214844" xlink:href="#DejaVuSans-97"/>
       <use x="230.494141" xlink:href="#DejaVuSans-110"/>
       <use x="293.873047" xlink:href="#DejaVuSans-100"/>
      </g>
     </g>
    </g>
    <g id="xtick_44">
     <g id="line2d_50">
      <g>
       <use style="stroke:#000000;stroke-width:0.8;" x="431.426116" xlink:href="#m24fa49b361" y="348.478125"/>
      </g>
     </g>
     <g id="text_24">
      <!-- Luxembourg -->
      <g transform="translate(434.185491 417.801562)rotate(-90)scale(0.1 -0.1)">
       <defs>
        <path d="M 54.890625 54.6875 
L 35.109375 28.078125 
L 55.90625 0 
L 45.3125 0 
L 29.390625 21.484375 
L 13.484375 0 
L 2.875 0 
L 24.125 28.609375 
L 4.6875 54.6875 
L 15.28125 54.6875 
L 29.78125 35.203125 
L 44.28125 54.6875 
z
" id="DejaVuSans-120"/>
       </defs>
       <use xlink:href="#DejaVuSans-76"/>
       <use x="53.962891" xlink:href="#DejaVuSans-117"/>
       <use x="117.341797" xlink:href="#DejaVuSans-120"/>
       <use x="173.396484" xlink:href="#DejaVuSans-101"/>
       <use x="234.919922" xlink:href="#DejaVuSans-109"/>
       <use x="332.332031" xlink:href="#DejaVuSans-98"/>
       <use x="395.808594" xlink:href="#DejaVuSans-111"/>
       <use x="456.990234" xlink:href="#DejaVuSans-117"/>
       <use x="520.369141" xlink:href="#DejaVuSans-114"/>
       <use x="559.732422" xlink:href="#DejaVuSans-103"/>
      </g>
     </g>
    </g>
    <g id="xtick_45">
     <g id="line2d_51">
      <g>
       <use style="stroke:#000000;stroke-width:0.8;" x="455.340402" xlink:href="#m24fa49b361" y="348.478125"/>
      </g>
     </g>
     <g id="text_25">
      <!-- Malta -->
      <g transform="translate(458.099777 383.060937)rotate(-90)scale(0.1 -0.1)">
       <defs>
        <path d="M 9.8125 72.90625 
L 24.515625 72.90625 
L 43.109375 23.296875 
L 61.8125 72.90625 
L 76.515625 72.90625 
L 76.515625 0 
L 66.890625 0 
L 66.890625 64.015625 
L 48.09375 14.015625 
L 38.1875 14.015625 
L 19.390625 64.015625 
L 19.390625 0 
L 9.8125 0 
z
" id="DejaVuSans-77"/>
       </defs>
       <use xlink:href="#DejaVuSans-77"/>
       <use x="86.279297" xlink:href="#DejaVuSans-97"/>
       <use x="147.558594" xlink:href="#DejaVuSans-108"/>
       <use x="175.341797" xlink:href="#DejaVuSans-116"/>
       <use x="214.550781" xlink:href="#DejaVuSans-97"/>
      </g>
     </g>
    </g>
    <g id="xtick_46">
     <g id="line2d_52">
      <g>
       <use style="stroke:#000000;stroke-width:0.8;" x="479.254687" xlink:href="#m24fa49b361" y="348.478125"/>
      </g>
     </g>
     <g id="text_26">
      <!-- Czechia -->
      <g transform="translate(482.014062 394.604687)rotate(-90)scale(0.1 -0.1)">
       <defs>
        <path d="M 5.515625 54.6875 
L 48.1875 54.6875 
L 48.1875 46.484375 
L 14.40625 7.171875 
L 48.1875 7.171875 
L 48.1875 0 
L 4.296875 0 
L 4.296875 8.203125 
L 38.09375 47.515625 
L 5.515625 47.515625 
z
" id="DejaVuSans-122"/>
       </defs>
       <use xlink:href="#DejaVuSans-67"/>
       <use x="69.824219" xlink:href="#DejaVuSans-122"/>
       <use x="122.314453" xlink:href="#DejaVuSans-101"/>
       <use x="183.837891" xlink:href="#DejaVuSans-99"/>
       <use x="238.818359" xlink:href="#DejaVuSans-104"/>
       <use x="302.197266" xlink:href="#DejaVuSans-105"/>
       <use x="329.980469" xlink:href="#DejaVuSans-97"/>
      </g>
     </g>
    </g>
    <g id="xtick_47">
     <g id="line2d_53">
      <g>
       <use style="stroke:#000000;stroke-width:0.8;" x="503.168973" xlink:href="#m24fa49b361" y="348.478125"/>
      </g>
     </g>
     <g id="text_27">
      <!-- Denmark -->
      <g transform="translate(505.928348 401.439062)rotate(-90)scale(0.1 -0.1)">
       <defs>
        <path d="M 19.671875 64.796875 
L 19.671875 8.109375 
L 31.59375 8.109375 
Q 46.6875 8.109375 53.6875 14.9375 
Q 60.6875 21.78125 60.6875 36.53125 
Q 60.6875 51.171875 53.6875 57.984375 
Q 46.6875 64.796875 31.59375 64.796875 
z
M 9.8125 72.90625 
L 30.078125 72.90625 
Q 51.265625 72.90625 61.171875 64.09375 
Q 71.09375 55.28125 71.09375 36.53125 
Q 71.09375 17.671875 61.125 8.828125 
Q 51.171875 0 30.078125 0 
L 9.8125 0 
z
" id="DejaVuSans-68"/>
       </defs>
       <use xlink:href="#DejaVuSans-68"/>
       <use x="77.001953" xlink:href="#DejaVuSans-101"/>
       <use x="138.525391" xlink:href="#DejaVuSans-110"/>
       <use x="201.904297" xlink:href="#DejaVuSans-109"/>
       <use x="299.316406" xlink:href="#DejaVuSans-97"/>
       <use x="360.595703" xlink:href="#DejaVuSans-114"/>
       <use x="401.708984" xlink:href="#DejaVuSans-107"/>
      </g>
     </g>
    </g>
    <g id="xtick_48">
     <g id="line2d_54">
      <g>
       <use style="stroke:#000000;stroke-width:0.8;" x="527.083259" xlink:href="#m24fa49b361" y="348.478125"/>
      </g>
     </g>
     <g id="text_28">
      <!-- Austria -->
      <g transform="translate(529.842634 390.803125)rotate(-90)scale(0.1 -0.1)">
       <defs>
        <path d="M 34.1875 63.1875 
L 20.796875 26.90625 
L 47.609375 26.90625 
z
M 28.609375 72.90625 
L 39.796875 72.90625 
L 67.578125 0 
L 57.328125 0 
L 50.6875 18.703125 
L 17.828125 18.703125 
L 11.1875 0 
L 0.78125 0 
z
" id="DejaVuSans-65"/>
       </defs>
       <use xlink:href="#DejaVuSans-65"/>
       <use x="68.408203" xlink:href="#DejaVuSans-117"/>
       <use x="131.787109" xlink:href="#DejaVuSans-115"/>
       <use x="183.886719" xlink:href="#DejaVuSans-116"/>
       <use x="223.095703" xlink:href="#DejaVuSans-114"/>
       <use x="264.208984" xlink:href="#DejaVuSans-105"/>
       <use x="291.992188" xlink:href="#DejaVuSans-97"/>
      </g>
     </g>
    </g>
    <g id="xtick_49">
     <g id="line2d_55">
      <g>
       <use style="stroke:#000000;stroke-width:0.8;" x="550.997545" xlink:href="#m24fa49b361" y="348.478125"/>
      </g>
     </g>
     <g id="text_29">
      <!-- Ireland -->
      <g transform="translate(553.75692 390.059375)rotate(-90)scale(0.1 -0.1)">
       <use xlink:href="#DejaVuSans-73"/>
       <use x="29.492188" xlink:href="#DejaVuSans-114"/>
       <use x="68.355469" xlink:href="#DejaVuSans-101"/>
       <use x="129.878906" xlink:href="#DejaVuSans-108"/>
       <use x="157.662109" xlink:href="#DejaVuSans-97"/>
       <use x="218.941406" xlink:href="#DejaVuSans-110"/>
       <use x="282.320312" xlink:href="#DejaVuSans-100"/>
      </g>
     </g>
    </g>
    <g id="xtick_50">
     <g id="line2d_56">
      <g>
       <use style="stroke:#000000;stroke-width:0.8;" x="574.91183" xlink:href="#m24fa49b361" y="348.478125"/>
      </g>
     </g>
     <g id="text_30">
      <!-- Belgium  -->
      <g transform="translate(577.671205 399.653125)rotate(-90)scale(0.1 -0.1)">
       <use xlink:href="#DejaVuSans-66"/>
       <use x="68.603516" xlink:href="#DejaVuSans-101"/>
       <use x="130.126953" xlink:href="#DejaVuSans-108"/>
       <use x="157.910156" xlink:href="#DejaVuSans-103"/>
       <use x="221.386719" xlink:href="#DejaVuSans-105"/>
       <use x="249.169922" xlink:href="#DejaVuSans-117"/>
       <use x="312.548828" xlink:href="#DejaVuSans-109"/>
       <use x="409.960938" xlink:href="#DejaVuSans-32"/>
      </g>
     </g>
    </g>
    <g id="xtick_51">
     <g id="line2d_57">
      <g>
       <use style="stroke:#000000;stroke-width:0.8;" x="598.826116" xlink:href="#m24fa49b361" y="348.478125"/>
      </g>
     </g>
     <g id="text_31">
      <!-- Netherlands -->
      <g transform="translate(601.585491 416.435937)rotate(-90)scale(0.1 -0.1)">
       <defs>
        <path d="M 9.8125 72.90625 
L 23.09375 72.90625 
L 55.421875 11.921875 
L 55.421875 72.90625 
L 64.984375 72.90625 
L 64.984375 0 
L 51.703125 0 
L 19.390625 60.984375 
L 19.390625 0 
L 9.8125 0 
z
" id="DejaVuSans-78"/>
       </defs>
       <use xlink:href="#DejaVuSans-78"/>
       <use x="74.804688" xlink:href="#DejaVuSans-101"/>
       <use x="136.328125" xlink:href="#DejaVuSans-116"/>
       <use x="175.537109" xlink:href="#DejaVuSans-104"/>
       <use x="238.916016" xlink:href="#DejaVuSans-101"/>
       <use x="300.439453" xlink:href="#DejaVuSans-114"/>
       <use x="341.552734" xlink:href="#DejaVuSans-108"/>
       <use x="369.335938" xlink:href="#DejaVuSans-97"/>
       <use x="430.615234" xlink:href="#DejaVuSans-110"/>
       <use x="493.994141" xlink:href="#DejaVuSans-100"/>
       <use x="557.470703" xlink:href="#DejaVuSans-115"/>
      </g>
     </g>
    </g>
    <g id="xtick_52">
     <g id="line2d_58">
      <g>
       <use style="stroke:#000000;stroke-width:0.8;" x="622.740402" xlink:href="#m24fa49b361" y="348.478125"/>
      </g>
     </g>
     <g id="text_32">
      <!-- Sweden -->
      <g transform="translate(625.499777 394.996875)rotate(-90)scale(0.1 -0.1)">
       <defs>
        <path d="M 4.203125 54.6875 
L 13.1875 54.6875 
L 24.421875 12.015625 
L 35.59375 54.6875 
L 46.1875 54.6875 
L 57.421875 12.015625 
L 68.609375 54.6875 
L 77.59375 54.6875 
L 63.28125 0 
L 52.6875 0 
L 40.921875 44.828125 
L 29.109375 0 
L 18.5 0 
z
" id="DejaVuSans-119"/>
       </defs>
       <use xlink:href="#DejaVuSans-83"/>
       <use x="63.476562" xlink:href="#DejaVuSans-119"/>
       <use x="145.263672" xlink:href="#DejaVuSans-101"/>
       <use x="206.787109" xlink:href="#DejaVuSans-100"/>
       <use x="270.263672" xlink:href="#DejaVuSans-101"/>
       <use x="331.787109" xlink:href="#DejaVuSans-110"/>
      </g>
     </g>
    </g>
    <g id="xtick_53">
     <g id="line2d_59">
      <g>
       <use style="stroke:#000000;stroke-width:0.8;" x="646.654688" xlink:href="#m24fa49b361" y="348.478125"/>
      </g>
     </g>
     <g id="text_33">
      <!-- Spain -->
      <g transform="translate(649.414062 383.41875)rotate(-90)scale(0.1 -0.1)">
       <use xlink:href="#DejaVuSans-83"/>
       <use x="63.476562" xlink:href="#DejaVuSans-112"/>
       <use x="126.953125" xlink:href="#DejaVuSans-97"/>
       <use x="188.232422" xlink:href="#DejaVuSans-105"/>
       <use x="216.015625" xlink:href="#DejaVuSans-110"/>
      </g>
     </g>
    </g>
    <g id="xtick_54">
     <g id="line2d_60">
      <g>
       <use style="stroke:#000000;stroke-width:0.8;" x="670.568973" xlink:href="#m24fa49b361" y="348.478125"/>
      </g>
     </g>
     <g id="text_34">
      <!-- France  -->
      <g transform="translate(673.328348 391.910937)rotate(-90)scale(0.1 -0.1)">
       <use xlink:href="#DejaVuSans-70"/>
       <use x="50.269531" xlink:href="#DejaVuSans-114"/>
       <use x="91.382812" xlink:href="#DejaVuSans-97"/>
       <use x="152.662109" xlink:href="#DejaVuSans-110"/>
       <use x="216.041016" xlink:href="#DejaVuSans-99"/>
       <use x="271.021484" xlink:href="#DejaVuSans-101"/>
       <use x="332.544922" xlink:href="#DejaVuSans-32"/>
      </g>
     </g>
    </g>
    <g id="xtick_55">
     <g id="line2d_61">
      <g>
       <use style="stroke:#000000;stroke-width:0.8;" x="694.483259" xlink:href="#m24fa49b361" y="348.478125"/>
      </g>
     </g>
     <g id="text_35">
      <!-- Germany -->
      <g transform="translate(697.242634 401.440625)rotate(-90)scale(0.1 -0.1)">
       <use xlink:href="#DejaVuSans-71"/>
       <use x="77.490234" xlink:href="#DejaVuSans-101"/>
       <use x="139.013672" xlink:href="#DejaVuSans-114"/>
       <use x="178.376953" xlink:href="#DejaVuSans-109"/>
       <use x="275.789062" xlink:href="#DejaVuSans-97"/>
       <use x="337.068359" xlink:href="#DejaVuSans-110"/>
       <use x="400.447266" xlink:href="#DejaVuSans-121"/>
      </g>
     </g>
    </g>
    <g id="xtick_56">
     <g id="line2d_62">
      <g>
       <use style="stroke:#000000;stroke-width:0.8;" x="718.397545" xlink:href="#m24fa49b361" y="348.478125"/>
      </g>
     </g>
     <g id="text_36">
      <!-- United Kingdom -->
      <g transform="translate(721.15692 435.742187)rotate(-90)scale(0.1 -0.1)">
       <defs>
        <path d="M 8.6875 72.90625 
L 18.609375 72.90625 
L 18.609375 28.609375 
Q 18.609375 16.890625 22.84375 11.734375 
Q 27.09375 6.59375 36.625 6.59375 
Q 46.09375 6.59375 50.34375 11.734375 
Q 54.59375 16.890625 54.59375 28.609375 
L 54.59375 72.90625 
L 64.5 72.90625 
L 64.5 27.390625 
Q 64.5 13.140625 57.4375 5.859375 
Q 50.390625 -1.421875 36.625 -1.421875 
Q 22.796875 -1.421875 15.734375 5.859375 
Q 8.6875 13.140625 8.6875 27.390625 
z
" id="DejaVuSans-85"/>
        <path d="M 9.8125 72.90625 
L 19.671875 72.90625 
L 19.671875 42.09375 
L 52.390625 72.90625 
L 65.09375 72.90625 
L 28.90625 38.921875 
L 67.671875 0 
L 54.6875 0 
L 19.671875 35.109375 
L 19.671875 0 
L 9.8125 0 
z
" id="DejaVuSans-75"/>
       </defs>
       <use xlink:href="#DejaVuSans-85"/>
       <use x="73.193359" xlink:href="#DejaVuSans-110"/>
       <use x="136.572266" xlink:href="#DejaVuSans-105"/>
       <use x="164.355469" xlink:href="#DejaVuSans-116"/>
       <use x="203.564453" xlink:href="#DejaVuSans-101"/>
       <use x="265.087891" xlink:href="#DejaVuSans-100"/>
       <use x="328.564453" xlink:href="#DejaVuSans-32"/>
       <use x="360.351562" xlink:href="#DejaVuSans-75"/>
       <use x="425.927734" xlink:href="#DejaVuSans-105"/>
       <use x="453.710938" xlink:href="#DejaVuSans-110"/>
       <use x="517.089844" xlink:href="#DejaVuSans-103"/>
       <use x="580.566406" xlink:href="#DejaVuSans-100"/>
       <use x="644.042969" xlink:href="#DejaVuSans-111"/>
       <use x="705.224609" xlink:href="#DejaVuSans-109"/>
      </g>
     </g>
    </g>
   </g>
   <g id="matplotlib.axis_4">
    <g id="ytick_7">
     <g id="line2d_63">
      <g>
       <use style="stroke:#000000;stroke-width:0.8;" x="60.754688" xlink:href="#m409af2637b" y="343.575339"/>
      </g>
     </g>
     <g id="text_37">
      <!-- −200000 -->
      <g transform="translate(7.2 347.374557)scale(0.1 -0.1)">
       <use xlink:href="#DejaVuSans-8722"/>
       <use x="83.789062" xlink:href="#DejaVuSans-50"/>
       <use x="147.412109" xlink:href="#DejaVuSans-48"/>
       <use x="211.035156" xlink:href="#DejaVuSans-48"/>
       <use x="274.658203" xlink:href="#DejaVuSans-48"/>
       <use x="338.28125" xlink:href="#DejaVuSans-48"/>
       <use x="401.904297" xlink:href="#DejaVuSans-48"/>
      </g>
     </g>
    </g>
    <g id="ytick_8">
     <g id="line2d_64">
      <g>
       <use style="stroke:#000000;stroke-width:0.8;" x="60.754688" xlink:href="#m409af2637b" y="303.178053"/>
      </g>
     </g>
     <g id="text_38">
      <!-- 0 -->
      <g transform="translate(47.392188 306.977271)scale(0.1 -0.1)">
       <use xlink:href="#DejaVuSans-48"/>
      </g>
     </g>
    </g>
    <g id="ytick_9">
     <g id="line2d_65">
      <g>
       <use style="stroke:#000000;stroke-width:0.8;" x="60.754688" xlink:href="#m409af2637b" y="262.780767"/>
      </g>
     </g>
     <g id="text_39">
      <!-- 200000 -->
      <g transform="translate(15.579687 266.579985)scale(0.1 -0.1)">
       <use xlink:href="#DejaVuSans-50"/>
       <use x="63.623047" xlink:href="#DejaVuSans-48"/>
       <use x="127.246094" xlink:href="#DejaVuSans-48"/>
       <use x="190.869141" xlink:href="#DejaVuSans-48"/>
       <use x="254.492188" xlink:href="#DejaVuSans-48"/>
       <use x="318.115234" xlink:href="#DejaVuSans-48"/>
      </g>
     </g>
    </g>
    <g id="ytick_10">
     <g id="line2d_66">
      <g>
       <use style="stroke:#000000;stroke-width:0.8;" x="60.754688" xlink:href="#m409af2637b" y="222.383481"/>
      </g>
     </g>
     <g id="text_40">
      <!-- 400000 -->
      <g transform="translate(15.579687 226.182699)scale(0.1 -0.1)">
       <use xlink:href="#DejaVuSans-52"/>
       <use x="63.623047" xlink:href="#DejaVuSans-48"/>
       <use x="127.246094" xlink:href="#DejaVuSans-48"/>
       <use x="190.869141" xlink:href="#DejaVuSans-48"/>
       <use x="254.492188" xlink:href="#DejaVuSans-48"/>
       <use x="318.115234" xlink:href="#DejaVuSans-48"/>
      </g>
     </g>
    </g>
   </g>
   <g id="patch_94">
    <path d="M 60.754688 348.478125 
L 60.754688 200.22358 
" style="fill:none;stroke:#000000;stroke-linecap:square;stroke-linejoin:miter;stroke-width:0.8;"/>
   </g>
   <g id="patch_95">
    <path d="M 730.354688 348.478125 
L 730.354688 200.22358 
" style="fill:none;stroke:#000000;stroke-linecap:square;stroke-linejoin:miter;stroke-width:0.8;"/>
   </g>
   <g id="patch_96">
    <path d="M 60.754688 348.478125 
L 730.354687 348.478125 
" style="fill:none;stroke:#000000;stroke-linecap:square;stroke-linejoin:miter;stroke-width:0.8;"/>
   </g>
   <g id="patch_97">
    <path d="M 60.754688 200.22358 
L 730.354687 200.22358 
" style="fill:none;stroke:#000000;stroke-linecap:square;stroke-linejoin:miter;stroke-width:0.8;"/>
   </g>
   <g id="legend_2">
    <g id="patch_98">
     <path d="M 67.754688 237.57983 
L 301.860938 237.57983 
Q 303.860938 237.57983 303.860938 235.57983 
L 303.860938 207.22358 
Q 303.860938 205.22358 301.860938 205.22358 
L 67.754688 205.22358 
Q 65.754688 205.22358 65.754688 207.22358 
L 65.754688 235.57983 
Q 65.754688 237.57983 67.754688 237.57983 
z
" style="fill:#ffffff;opacity:0.8;stroke:#cccccc;stroke-linejoin:miter;"/>
    </g>
    <g id="patch_99">
     <path d="M 69.754688 216.822017 
L 89.754688 216.822017 
L 89.754688 209.822017 
L 69.754688 209.822017 
z
" style="fill:#1f77b4;"/>
    </g>
    <g id="text_41">
     <!-- Migration -->
     <g transform="translate(97.754688 216.822017)scale(0.1 -0.1)">
      <use xlink:href="#DejaVuSans-77"/>
      <use x="86.279297" xlink:href="#DejaVuSans-105"/>
      <use x="114.0625" xlink:href="#DejaVuSans-103"/>
      <use x="177.539062" xlink:href="#DejaVuSans-114"/>
      <use x="218.652344" xlink:href="#DejaVuSans-97"/>
      <use x="279.931641" xlink:href="#DejaVuSans-116"/>
      <use x="319.140625" xlink:href="#DejaVuSans-105"/>
      <use x="346.923828" xlink:href="#DejaVuSans-111"/>
      <use x="408.105469" xlink:href="#DejaVuSans-110"/>
     </g>
    </g>
    <g id="patch_100">
     <path d="M 69.754688 231.500142 
L 89.754688 231.500142 
L 89.754688 224.500142 
L 69.754688 224.500142 
z
" style="fill:#ff7f0e;"/>
    </g>
    <g id="text_42">
     <!-- natural change due to deaths and births -->
     <g transform="translate(97.754688 231.500142)scale(0.1 -0.1)">
      <use xlink:href="#DejaVuSans-110"/>
      <use x="63.378906" xlink:href="#DejaVuSans-97"/>
      <use x="124.658203" xlink:href="#DejaVuSans-116"/>
      <use x="163.867188" xlink:href="#DejaVuSans-117"/>
      <use x="227.246094" xlink:href="#DejaVuSans-114"/>
      <use x="268.359375" xlink:href="#DejaVuSans-97"/>
      <use x="329.638672" xlink:href="#DejaVuSans-108"/>
      <use x="357.421875" xlink:href="#DejaVuSans-32"/>
      <use x="389.208984" xlink:href="#DejaVuSans-99"/>
      <use x="444.189453" xlink:href="#DejaVuSans-104"/>
      <use x="507.568359" xlink:href="#DejaVuSans-97"/>
      <use x="568.847656" xlink:href="#DejaVuSans-110"/>
      <use x="632.226562" xlink:href="#DejaVuSans-103"/>
      <use x="695.703125" xlink:href="#DejaVuSans-101"/>
      <use x="757.226562" xlink:href="#DejaVuSans-32"/>
      <use x="789.013672" xlink:href="#DejaVuSans-100"/>
      <use x="852.490234" xlink:href="#DejaVuSans-117"/>
      <use x="915.869141" xlink:href="#DejaVuSans-101"/>
      <use x="977.392578" xlink:href="#DejaVuSans-32"/>
      <use x="1009.179688" xlink:href="#DejaVuSans-116"/>
      <use x="1048.388672" xlink:href="#DejaVuSans-111"/>
      <use x="1109.570312" xlink:href="#DejaVuSans-32"/>
      <use x="1141.357422" xlink:href="#DejaVuSans-100"/>
      <use x="1204.833984" xlink:href="#DejaVuSans-101"/>
      <use x="1266.357422" xlink:href="#DejaVuSans-97"/>
      <use x="1327.636719" xlink:href="#DejaVuSans-116"/>
      <use x="1366.845703" xlink:href="#DejaVuSans-104"/>
      <use x="1430.224609" xlink:href="#DejaVuSans-115"/>
      <use x="1482.324219" xlink:href="#DejaVuSans-32"/>
      <use x="1514.111328" xlink:href="#DejaVuSans-97"/>
      <use x="1575.390625" xlink:href="#DejaVuSans-110"/>
      <use x="1638.769531" xlink:href="#DejaVuSans-100"/>
      <use x="1702.246094" xlink:href="#DejaVuSans-32"/>
      <use x="1734.033203" xlink:href="#DejaVuSans-98"/>
      <use x="1797.509766" xlink:href="#DejaVuSans-105"/>
      <use x="1825.292969" xlink:href="#DejaVuSans-114"/>
      <use x="1866.40625" xlink:href="#DejaVuSans-116"/>
      <use x="1905.615234" xlink:href="#DejaVuSans-104"/>
      <use x="1968.994141" xlink:href="#DejaVuSans-115"/>
     </g>
    </g>
   </g>
  </g>
 </g>
 <defs>
  <clipPath id="p59d7e8e26b">
   <rect height="148.254545" width="669.6" x="60.754688" y="22.318125"/>
  </clipPath>
  <clipPath id="pf3a77a7a5d">
   <rect height="148.254545" width="669.6" x="60.754688" y="200.22358"/>
  </clipPath>
 </defs>
</svg>
