<?xml version="1.0" encoding="utf-8" standalone="no"?>
<!DOCTYPE svg PUBLIC "-//W3C//DTD SVG 1.1//EN"
  "http://www.w3.org/Graphics/SVG/1.1/DTD/svg11.dtd">
<svg xmlns:xlink="http://www.w3.org/1999/xlink" width="394.423125pt" height="310.86825pt" viewBox="0 0 394.423125 310.86825" xmlns="http://www.w3.org/2000/svg" version="1.1">
 <metadata>
  <rdf:RDF xmlns:dc="http://purl.org/dc/elements/1.1/" xmlns:cc="http://creativecommons.org/ns#" xmlns:rdf="http://www.w3.org/1999/02/22-rdf-syntax-ns#">
   <cc:Work>
    <dc:type rdf:resource="http://purl.org/dc/dcmitype/StillImage"/>
    <dc:date>2024-01-18T22:39:06.963956</dc:date>
    <dc:format>image/svg+xml</dc:format>
    <dc:creator>
     <cc:Agent>
      <dc:title>Matplotlib v3.8.2, https://matplotlib.org/</dc:title>
     </cc:Agent>
    </dc:creator>
   </cc:Work>
  </rdf:RDF>
 </metadata>
 <defs>
  <style type="text/css">*{stroke-linejoin: round; stroke-linecap: butt}</style>
 </defs>
 <g id="figure_1">
  <g id="patch_1">
   <path d="M 0 310.86825 
L 394.423125 310.86825 
L 394.423125 0 
L 0 0 
z
" style="fill: #ffffff"/>
  </g>
  <g id="axes_1">
   <g id="patch_2">
    <path d="M 30.103125 273.312 
L 387.223125 273.312 
L 387.223125 7.2 
L 30.103125 7.2 
z
" style="fill: #ffffff"/>
   </g>
   <g id="matplotlib.axis_1">
    <g id="xtick_1">
     <g id="line2d_1">
      <defs>
       <path id="m41d347020d" d="M 0 0 
L 0 3.5 
" style="stroke: #000000; stroke-width: 0.8"/>
      </defs>
      <g>
       <use xlink:href="#m41d347020d" x="46.335852" y="273.312" style="stroke: #000000; stroke-width: 0.8"/>
      </g>
     </g>
     <g id="text_1">
      <!-- 0.0 -->
      <g transform="translate(38.38429 287.910437) scale(0.1 -0.1)">
       <defs>
        <path id="DejaVuSans-30" d="M 2034 4250 
Q 1547 4250 1301 3770 
Q 1056 3291 1056 2328 
Q 1056 1369 1301 889 
Q 1547 409 2034 409 
Q 2525 409 2770 889 
Q 3016 1369 3016 2328 
Q 3016 3291 2770 3770 
Q 2525 4250 2034 4250 
z
M 2034 4750 
Q 2819 4750 3233 4129 
Q 3647 3509 3647 2328 
Q 3647 1150 3233 529 
Q 2819 -91 2034 -91 
Q 1250 -91 836 529 
Q 422 1150 422 2328 
Q 422 3509 836 4129 
Q 1250 4750 2034 4750 
z
" transform="scale(0.015625)"/>
        <path id="DejaVuSans-2e" d="M 684 794 
L 1344 794 
L 1344 0 
L 684 0 
L 684 794 
z
" transform="scale(0.015625)"/>
       </defs>
       <use xlink:href="#DejaVuSans-30"/>
       <use xlink:href="#DejaVuSans-2e" x="63.623047"/>
       <use xlink:href="#DejaVuSans-30" x="95.410156"/>
      </g>
     </g>
    </g>
    <g id="xtick_2">
     <g id="line2d_2">
      <g>
       <use xlink:href="#m41d347020d" x="86.91767" y="273.312" style="stroke: #000000; stroke-width: 0.8"/>
      </g>
     </g>
     <g id="text_2">
      <!-- 0.5 -->
      <g transform="translate(78.966108 287.910437) scale(0.1 -0.1)">
       <defs>
        <path id="DejaVuSans-35" d="M 691 4666 
L 3169 4666 
L 3169 4134 
L 1269 4134 
L 1269 2991 
Q 1406 3038 1543 3061 
Q 1681 3084 1819 3084 
Q 2600 3084 3056 2656 
Q 3513 2228 3513 1497 
Q 3513 744 3044 326 
Q 2575 -91 1722 -91 
Q 1428 -91 1123 -41 
Q 819 9 494 109 
L 494 744 
Q 775 591 1075 516 
Q 1375 441 1709 441 
Q 2250 441 2565 725 
Q 2881 1009 2881 1497 
Q 2881 1984 2565 2268 
Q 2250 2553 1709 2553 
Q 1456 2553 1204 2497 
Q 953 2441 691 2322 
L 691 4666 
z
" transform="scale(0.015625)"/>
       </defs>
       <use xlink:href="#DejaVuSans-30"/>
       <use xlink:href="#DejaVuSans-2e" x="63.623047"/>
       <use xlink:href="#DejaVuSans-35" x="95.410156"/>
      </g>
     </g>
    </g>
    <g id="xtick_3">
     <g id="line2d_3">
      <g>
       <use xlink:href="#m41d347020d" x="127.499489" y="273.312" style="stroke: #000000; stroke-width: 0.8"/>
      </g>
     </g>
     <g id="text_3">
      <!-- 1.0 -->
      <g transform="translate(119.547926 287.910437) scale(0.1 -0.1)">
       <defs>
        <path id="DejaVuSans-31" d="M 794 531 
L 1825 531 
L 1825 4091 
L 703 3866 
L 703 4441 
L 1819 4666 
L 2450 4666 
L 2450 531 
L 3481 531 
L 3481 0 
L 794 0 
L 794 531 
z
" transform="scale(0.015625)"/>
       </defs>
       <use xlink:href="#DejaVuSans-31"/>
       <use xlink:href="#DejaVuSans-2e" x="63.623047"/>
       <use xlink:href="#DejaVuSans-30" x="95.410156"/>
      </g>
     </g>
    </g>
    <g id="xtick_4">
     <g id="line2d_4">
      <g>
       <use xlink:href="#m41d347020d" x="168.081307" y="273.312" style="stroke: #000000; stroke-width: 0.8"/>
      </g>
     </g>
     <g id="text_4">
      <!-- 1.5 -->
      <g transform="translate(160.129744 287.910437) scale(0.1 -0.1)">
       <use xlink:href="#DejaVuSans-31"/>
       <use xlink:href="#DejaVuSans-2e" x="63.623047"/>
       <use xlink:href="#DejaVuSans-35" x="95.410156"/>
      </g>
     </g>
    </g>
    <g id="xtick_5">
     <g id="line2d_5">
      <g>
       <use xlink:href="#m41d347020d" x="208.663125" y="273.312" style="stroke: #000000; stroke-width: 0.8"/>
      </g>
     </g>
     <g id="text_5">
      <!-- 2.0 -->
      <g transform="translate(200.711562 287.910437) scale(0.1 -0.1)">
       <defs>
        <path id="DejaVuSans-32" d="M 1228 531 
L 3431 531 
L 3431 0 
L 469 0 
L 469 531 
Q 828 903 1448 1529 
Q 2069 2156 2228 2338 
Q 2531 2678 2651 2914 
Q 2772 3150 2772 3378 
Q 2772 3750 2511 3984 
Q 2250 4219 1831 4219 
Q 1534 4219 1204 4116 
Q 875 4013 500 3803 
L 500 4441 
Q 881 4594 1212 4672 
Q 1544 4750 1819 4750 
Q 2544 4750 2975 4387 
Q 3406 4025 3406 3419 
Q 3406 3131 3298 2873 
Q 3191 2616 2906 2266 
Q 2828 2175 2409 1742 
Q 1991 1309 1228 531 
z
" transform="scale(0.015625)"/>
       </defs>
       <use xlink:href="#DejaVuSans-32"/>
       <use xlink:href="#DejaVuSans-2e" x="63.623047"/>
       <use xlink:href="#DejaVuSans-30" x="95.410156"/>
      </g>
     </g>
    </g>
    <g id="xtick_6">
     <g id="line2d_6">
      <g>
       <use xlink:href="#m41d347020d" x="249.244943" y="273.312" style="stroke: #000000; stroke-width: 0.8"/>
      </g>
     </g>
     <g id="text_6">
      <!-- 2.5 -->
      <g transform="translate(241.293381 287.910437) scale(0.1 -0.1)">
       <use xlink:href="#DejaVuSans-32"/>
       <use xlink:href="#DejaVuSans-2e" x="63.623047"/>
       <use xlink:href="#DejaVuSans-35" x="95.410156"/>
      </g>
     </g>
    </g>
    <g id="xtick_7">
     <g id="line2d_7">
      <g>
       <use xlink:href="#m41d347020d" x="289.826761" y="273.312" style="stroke: #000000; stroke-width: 0.8"/>
      </g>
     </g>
     <g id="text_7">
      <!-- 3.0 -->
      <g transform="translate(281.875199 287.910437) scale(0.1 -0.1)">
       <defs>
        <path id="DejaVuSans-33" d="M 2597 2516 
Q 3050 2419 3304 2112 
Q 3559 1806 3559 1356 
Q 3559 666 3084 287 
Q 2609 -91 1734 -91 
Q 1441 -91 1130 -33 
Q 819 25 488 141 
L 488 750 
Q 750 597 1062 519 
Q 1375 441 1716 441 
Q 2309 441 2620 675 
Q 2931 909 2931 1356 
Q 2931 1769 2642 2001 
Q 2353 2234 1838 2234 
L 1294 2234 
L 1294 2753 
L 1863 2753 
Q 2328 2753 2575 2939 
Q 2822 3125 2822 3475 
Q 2822 3834 2567 4026 
Q 2313 4219 1838 4219 
Q 1578 4219 1281 4162 
Q 984 4106 628 3988 
L 628 4550 
Q 988 4650 1302 4700 
Q 1616 4750 1894 4750 
Q 2613 4750 3031 4423 
Q 3450 4097 3450 3541 
Q 3450 3153 3228 2886 
Q 3006 2619 2597 2516 
z
" transform="scale(0.015625)"/>
       </defs>
       <use xlink:href="#DejaVuSans-33"/>
       <use xlink:href="#DejaVuSans-2e" x="63.623047"/>
       <use xlink:href="#DejaVuSans-30" x="95.410156"/>
      </g>
     </g>
    </g>
    <g id="xtick_8">
     <g id="line2d_8">
      <g>
       <use xlink:href="#m41d347020d" x="330.40858" y="273.312" style="stroke: #000000; stroke-width: 0.8"/>
      </g>
     </g>
     <g id="text_8">
      <!-- 3.5 -->
      <g transform="translate(322.457017 287.910437) scale(0.1 -0.1)">
       <use xlink:href="#DejaVuSans-33"/>
       <use xlink:href="#DejaVuSans-2e" x="63.623047"/>
       <use xlink:href="#DejaVuSans-35" x="95.410156"/>
      </g>
     </g>
    </g>
    <g id="xtick_9">
     <g id="line2d_9">
      <g>
       <use xlink:href="#m41d347020d" x="370.990398" y="273.312" style="stroke: #000000; stroke-width: 0.8"/>
      </g>
     </g>
     <g id="text_9">
      <!-- 4.0 -->
      <g transform="translate(363.038835 287.910437) scale(0.1 -0.1)">
       <defs>
        <path id="DejaVuSans-34" d="M 2419 4116 
L 825 1625 
L 2419 1625 
L 2419 4116 
z
M 2253 4666 
L 3047 4666 
L 3047 1625 
L 3713 1625 
L 3713 1100 
L 3047 1100 
L 3047 0 
L 2419 0 
L 2419 1100 
L 313 1100 
L 313 1709 
L 2253 4666 
z
" transform="scale(0.015625)"/>
       </defs>
       <use xlink:href="#DejaVuSans-34"/>
       <use xlink:href="#DejaVuSans-2e" x="63.623047"/>
       <use xlink:href="#DejaVuSans-30" x="95.410156"/>
      </g>
     </g>
    </g>
    <g id="text_10">
     <!-- x -->
     <g transform="translate(205.70375 301.588562) scale(0.1 -0.1)">
      <defs>
       <path id="DejaVuSans-78" d="M 3513 3500 
L 2247 1797 
L 3578 0 
L 2900 0 
L 1881 1375 
L 863 0 
L 184 0 
L 1544 1831 
L 300 3500 
L 978 3500 
L 1906 2253 
L 2834 3500 
L 3513 3500 
z
" transform="scale(0.015625)"/>
      </defs>
      <use xlink:href="#DejaVuSans-78"/>
     </g>
    </g>
   </g>
   <g id="matplotlib.axis_2">
    <g id="ytick_1">
     <g id="line2d_10">
      <defs>
       <path id="m38adf0d80c" d="M 0 0 
L -3.5 0 
" style="stroke: #000000; stroke-width: 0.8"/>
      </defs>
      <g>
       <use xlink:href="#m38adf0d80c" x="30.103125" y="242.749895" style="stroke: #000000; stroke-width: 0.8"/>
      </g>
     </g>
     <g id="text_11">
      <!-- 0.5 -->
      <g transform="translate(7.2 246.549114) scale(0.1 -0.1)">
       <use xlink:href="#DejaVuSans-30"/>
       <use xlink:href="#DejaVuSans-2e" x="63.623047"/>
       <use xlink:href="#DejaVuSans-35" x="95.410156"/>
      </g>
     </g>
    </g>
    <g id="ytick_2">
     <g id="line2d_11">
      <g>
       <use xlink:href="#m38adf0d80c" x="30.103125" y="201.466702" style="stroke: #000000; stroke-width: 0.8"/>
      </g>
     </g>
     <g id="text_12">
      <!-- 1.0 -->
      <g transform="translate(7.2 205.265921) scale(0.1 -0.1)">
       <use xlink:href="#DejaVuSans-31"/>
       <use xlink:href="#DejaVuSans-2e" x="63.623047"/>
       <use xlink:href="#DejaVuSans-30" x="95.410156"/>
      </g>
     </g>
    </g>
    <g id="ytick_3">
     <g id="line2d_12">
      <g>
       <use xlink:href="#m38adf0d80c" x="30.103125" y="160.18351" style="stroke: #000000; stroke-width: 0.8"/>
      </g>
     </g>
     <g id="text_13">
      <!-- 1.5 -->
      <g transform="translate(7.2 163.982728) scale(0.1 -0.1)">
       <use xlink:href="#DejaVuSans-31"/>
       <use xlink:href="#DejaVuSans-2e" x="63.623047"/>
       <use xlink:href="#DejaVuSans-35" x="95.410156"/>
      </g>
     </g>
    </g>
    <g id="ytick_4">
     <g id="line2d_13">
      <g>
       <use xlink:href="#m38adf0d80c" x="30.103125" y="118.900317" style="stroke: #000000; stroke-width: 0.8"/>
      </g>
     </g>
     <g id="text_14">
      <!-- 2.0 -->
      <g transform="translate(7.2 122.699535) scale(0.1 -0.1)">
       <use xlink:href="#DejaVuSans-32"/>
       <use xlink:href="#DejaVuSans-2e" x="63.623047"/>
       <use xlink:href="#DejaVuSans-30" x="95.410156"/>
      </g>
     </g>
    </g>
    <g id="ytick_5">
     <g id="line2d_14">
      <g>
       <use xlink:href="#m38adf0d80c" x="30.103125" y="77.617124" style="stroke: #000000; stroke-width: 0.8"/>
      </g>
     </g>
     <g id="text_15">
      <!-- 2.5 -->
      <g transform="translate(7.2 81.416342) scale(0.1 -0.1)">
       <use xlink:href="#DejaVuSans-32"/>
       <use xlink:href="#DejaVuSans-2e" x="63.623047"/>
       <use xlink:href="#DejaVuSans-35" x="95.410156"/>
      </g>
     </g>
    </g>
    <g id="ytick_6">
     <g id="line2d_15">
      <g>
       <use xlink:href="#m38adf0d80c" x="30.103125" y="36.333931" style="stroke: #000000; stroke-width: 0.8"/>
      </g>
     </g>
     <g id="text_16">
      <!-- 3.0 -->
      <g transform="translate(7.2 40.133149) scale(0.1 -0.1)">
       <use xlink:href="#DejaVuSans-33"/>
       <use xlink:href="#DejaVuSans-2e" x="63.623047"/>
       <use xlink:href="#DejaVuSans-30" x="95.410156"/>
      </g>
     </g>
    </g>
   </g>
   <g id="line2d_16">
    <defs>
     <path id="me8163a4e73" d="M 0 3 
C 0.795609 3 1.55874 2.683901 2.12132 2.12132 
C 2.683901 1.55874 3 0.795609 3 0 
C 3 -0.795609 2.683901 -1.55874 2.12132 -2.12132 
C 1.55874 -2.683901 0.795609 -3 0 -3 
C -0.795609 -3 -1.55874 -2.683901 -2.12132 -2.12132 
C -2.683901 -1.55874 -3 -0.795609 -3 0 
C -3 0.795609 -2.683901 1.55874 -2.12132 2.12132 
C -1.55874 2.683901 -0.795609 3 0 3 
z
" style="stroke: #1f77b4"/>
    </defs>
    <g clip-path="url(#pd6c74aa307)">
     <use xlink:href="#me8163a4e73" x="46.335852" y="19.296" style="fill: #1f77b4; stroke: #1f77b4"/>
     <use xlink:href="#me8163a4e73" x="52.961455" y="49.901355" style="fill: #1f77b4; stroke: #1f77b4"/>
     <use xlink:href="#me8163a4e73" x="59.587058" y="60.750706" style="fill: #1f77b4; stroke: #1f77b4"/>
     <use xlink:href="#me8163a4e73" x="66.212661" y="87.0295" style="fill: #1f77b4; stroke: #1f77b4"/>
     <use xlink:href="#me8163a4e73" x="72.838264" y="90.6272" style="fill: #1f77b4; stroke: #1f77b4"/>
     <use xlink:href="#me8163a4e73" x="79.463867" y="99.440997" style="fill: #1f77b4; stroke: #1f77b4"/>
     <use xlink:href="#me8163a4e73" x="86.08947" y="154.13764" style="fill: #1f77b4; stroke: #1f77b4"/>
     <use xlink:href="#me8163a4e73" x="92.715073" y="139.270798" style="fill: #1f77b4; stroke: #1f77b4"/>
     <use xlink:href="#me8163a4e73" x="99.340676" y="136.910058" style="fill: #1f77b4; stroke: #1f77b4"/>
     <use xlink:href="#me8163a4e73" x="105.966279" y="154.332589" style="fill: #1f77b4; stroke: #1f77b4"/>
     <use xlink:href="#me8163a4e73" x="112.591882" y="172.39073" style="fill: #1f77b4; stroke: #1f77b4"/>
     <use xlink:href="#me8163a4e73" x="119.217485" y="174.296603" style="fill: #1f77b4; stroke: #1f77b4"/>
     <use xlink:href="#me8163a4e73" x="125.843088" y="172.399603" style="fill: #1f77b4; stroke: #1f77b4"/>
     <use xlink:href="#me8163a4e73" x="132.468691" y="189.6321" style="fill: #1f77b4; stroke: #1f77b4"/>
     <use xlink:href="#me8163a4e73" x="139.094294" y="205.596453" style="fill: #1f77b4; stroke: #1f77b4"/>
     <use xlink:href="#me8163a4e73" x="145.719897" y="216.796055" style="fill: #1f77b4; stroke: #1f77b4"/>
     <use xlink:href="#me8163a4e73" x="152.3455" y="190.079597" style="fill: #1f77b4; stroke: #1f77b4"/>
     <use xlink:href="#me8163a4e73" x="158.971103" y="182.609309" style="fill: #1f77b4; stroke: #1f77b4"/>
     <use xlink:href="#me8163a4e73" x="165.596706" y="225.24017" style="fill: #1f77b4; stroke: #1f77b4"/>
     <use xlink:href="#me8163a4e73" x="172.222309" y="214.578055" style="fill: #1f77b4; stroke: #1f77b4"/>
     <use xlink:href="#me8163a4e73" x="178.847912" y="181.966098" style="fill: #1f77b4; stroke: #1f77b4"/>
     <use xlink:href="#me8163a4e73" x="185.473515" y="229.431226" style="fill: #1f77b4; stroke: #1f77b4"/>
     <use xlink:href="#me8163a4e73" x="192.099118" y="235.383327" style="fill: #1f77b4; stroke: #1f77b4"/>
     <use xlink:href="#me8163a4e73" x="198.724721" y="219.524339" style="fill: #1f77b4; stroke: #1f77b4"/>
     <use xlink:href="#me8163a4e73" x="205.350324" y="261.216" style="fill: #1f77b4; stroke: #1f77b4"/>
     <use xlink:href="#me8163a4e73" x="211.975926" y="246.26469" style="fill: #1f77b4; stroke: #1f77b4"/>
     <use xlink:href="#me8163a4e73" x="218.601529" y="241.543856" style="fill: #1f77b4; stroke: #1f77b4"/>
     <use xlink:href="#me8163a4e73" x="225.227132" y="234.919736" style="fill: #1f77b4; stroke: #1f77b4"/>
     <use xlink:href="#me8163a4e73" x="231.852735" y="204.376272" style="fill: #1f77b4; stroke: #1f77b4"/>
     <use xlink:href="#me8163a4e73" x="238.478338" y="238.736092" style="fill: #1f77b4; stroke: #1f77b4"/>
     <use xlink:href="#me8163a4e73" x="245.103941" y="233.965487" style="fill: #1f77b4; stroke: #1f77b4"/>
     <use xlink:href="#me8163a4e73" x="251.729544" y="245.030156" style="fill: #1f77b4; stroke: #1f77b4"/>
     <use xlink:href="#me8163a4e73" x="258.355147" y="246.243879" style="fill: #1f77b4; stroke: #1f77b4"/>
     <use xlink:href="#me8163a4e73" x="264.98075" y="232.425361" style="fill: #1f77b4; stroke: #1f77b4"/>
     <use xlink:href="#me8163a4e73" x="271.606353" y="242.365458" style="fill: #1f77b4; stroke: #1f77b4"/>
     <use xlink:href="#me8163a4e73" x="278.231956" y="231.64542" style="fill: #1f77b4; stroke: #1f77b4"/>
     <use xlink:href="#me8163a4e73" x="284.857559" y="232.618113" style="fill: #1f77b4; stroke: #1f77b4"/>
     <use xlink:href="#me8163a4e73" x="291.483162" y="254.464294" style="fill: #1f77b4; stroke: #1f77b4"/>
     <use xlink:href="#me8163a4e73" x="298.108765" y="236.031491" style="fill: #1f77b4; stroke: #1f77b4"/>
     <use xlink:href="#me8163a4e73" x="304.734368" y="259.053505" style="fill: #1f77b4; stroke: #1f77b4"/>
     <use xlink:href="#me8163a4e73" x="311.359971" y="244.105458" style="fill: #1f77b4; stroke: #1f77b4"/>
     <use xlink:href="#me8163a4e73" x="317.985574" y="257.399156" style="fill: #1f77b4; stroke: #1f77b4"/>
     <use xlink:href="#me8163a4e73" x="324.611177" y="217.106728" style="fill: #1f77b4; stroke: #1f77b4"/>
     <use xlink:href="#me8163a4e73" x="331.23678" y="227.758079" style="fill: #1f77b4; stroke: #1f77b4"/>
     <use xlink:href="#me8163a4e73" x="337.862383" y="254.99503" style="fill: #1f77b4; stroke: #1f77b4"/>
     <use xlink:href="#me8163a4e73" x="344.487986" y="230.65104" style="fill: #1f77b4; stroke: #1f77b4"/>
     <use xlink:href="#me8163a4e73" x="351.113589" y="226.633958" style="fill: #1f77b4; stroke: #1f77b4"/>
     <use xlink:href="#me8163a4e73" x="357.739192" y="226.309827" style="fill: #1f77b4; stroke: #1f77b4"/>
     <use xlink:href="#me8163a4e73" x="364.364795" y="232.718433" style="fill: #1f77b4; stroke: #1f77b4"/>
     <use xlink:href="#me8163a4e73" x="370.990398" y="236.324341" style="fill: #1f77b4; stroke: #1f77b4"/>
    </g>
   </g>
   <g id="line2d_17">
    <path d="M 46.335852 19.5643 
L 52.961455 42.832342 
L 59.587058 63.671482 
L 66.212661 82.335268 
L 72.838264 99.050781 
L 79.463867 114.021398 
L 86.08947 127.429263 
L 92.715073 139.43751 
L 99.340676 150.192242 
L 105.966279 159.82431 
L 112.591882 168.450907 
L 119.217485 176.176992 
L 125.843088 183.096567 
L 132.468691 189.293823 
L 139.094294 194.84416 
L 145.719897 199.815109 
L 152.3455 204.267151 
L 158.971103 208.254455 
L 165.596706 211.825532 
L 172.222309 215.023832 
L 178.847912 217.888268 
L 185.473515 220.453692 
L 192.099118 222.751316 
L 198.724721 224.809097 
L 205.350324 226.65207 
L 211.975926 228.302659 
L 218.601529 229.780947 
L 225.227132 231.104919 
L 231.852735 232.290685 
L 238.478338 233.352671 
L 245.103941 234.303798 
L 251.729544 235.15564 
L 258.355147 235.918559 
L 264.98075 236.601839 
L 271.606353 237.213793 
L 278.231956 237.761866 
L 284.857559 238.252727 
L 291.483162 238.692348 
L 298.108765 239.086078 
L 304.734368 239.438708 
L 311.359971 239.754527 
L 317.985574 240.037378 
L 324.611177 240.290704 
L 331.23678 240.517585 
L 337.862383 240.720782 
L 344.487986 240.902768 
L 351.113589 241.065757 
L 357.739192 241.211732 
L 364.364795 241.342469 
L 370.990398 241.459559 
" clip-path="url(#pd6c74aa307)" style="fill: none; stroke: #ff7f0e; stroke-width: 1.5; stroke-linecap: square"/>
   </g>
   <g id="patch_3">
    <path d="M 30.103125 273.312 
L 30.103125 7.2 
" style="fill: none; stroke: #000000; stroke-width: 0.8; stroke-linejoin: miter; stroke-linecap: square"/>
   </g>
   <g id="patch_4">
    <path d="M 387.223125 273.312 
L 387.223125 7.2 
" style="fill: none; stroke: #000000; stroke-width: 0.8; stroke-linejoin: miter; stroke-linecap: square"/>
   </g>
   <g id="patch_5">
    <path d="M 30.103125 273.312 
L 387.223125 273.312 
" style="fill: none; stroke: #000000; stroke-width: 0.8; stroke-linejoin: miter; stroke-linecap: square"/>
   </g>
   <g id="patch_6">
    <path d="M 30.103125 7.2 
L 387.223125 7.2 
" style="fill: none; stroke: #000000; stroke-width: 0.8; stroke-linejoin: miter; stroke-linecap: square"/>
   </g>
   <g id="legend_1">
    <g id="patch_7">
     <path d="M 314.323125 44.578125 
L 380.223125 44.578125 
Q 382.223125 44.578125 382.223125 42.578125 
L 382.223125 14.2 
Q 382.223125 12.2 380.223125 12.2 
L 314.323125 12.2 
Q 312.323125 12.2 312.323125 14.2 
L 312.323125 42.578125 
Q 312.323125 44.578125 314.323125 44.578125 
z
" style="fill: #ffffff; opacity: 0.8; stroke: #cccccc; stroke-linejoin: miter"/>
    </g>
    <g id="line2d_18">
     <g>
      <use xlink:href="#me8163a4e73" x="326.323125" y="20.3" style="fill: #1f77b4; stroke: #1f77b4"/>
     </g>
    </g>
    <g id="text_17">
     <!-- data $y_i$ -->
     <g transform="translate(344.323125 23.8) scale(0.1 -0.1)">
      <defs>
       <path id="DejaVuSans-64" d="M 2906 2969 
L 2906 4863 
L 3481 4863 
L 3481 0 
L 2906 0 
L 2906 525 
Q 2725 213 2448 61 
Q 2172 -91 1784 -91 
Q 1150 -91 751 415 
Q 353 922 353 1747 
Q 353 2572 751 3078 
Q 1150 3584 1784 3584 
Q 2172 3584 2448 3432 
Q 2725 3281 2906 2969 
z
M 947 1747 
Q 947 1113 1208 752 
Q 1469 391 1925 391 
Q 2381 391 2643 752 
Q 2906 1113 2906 1747 
Q 2906 2381 2643 2742 
Q 2381 3103 1925 3103 
Q 1469 3103 1208 2742 
Q 947 2381 947 1747 
z
" transform="scale(0.015625)"/>
       <path id="DejaVuSans-61" d="M 2194 1759 
Q 1497 1759 1228 1600 
Q 959 1441 959 1056 
Q 959 750 1161 570 
Q 1363 391 1709 391 
Q 2188 391 2477 730 
Q 2766 1069 2766 1631 
L 2766 1759 
L 2194 1759 
z
M 3341 1997 
L 3341 0 
L 2766 0 
L 2766 531 
Q 2569 213 2275 61 
Q 1981 -91 1556 -91 
Q 1019 -91 701 211 
Q 384 513 384 1019 
Q 384 1609 779 1909 
Q 1175 2209 1959 2209 
L 2766 2209 
L 2766 2266 
Q 2766 2663 2505 2880 
Q 2244 3097 1772 3097 
Q 1472 3097 1187 3025 
Q 903 2953 641 2809 
L 641 3341 
Q 956 3463 1253 3523 
Q 1550 3584 1831 3584 
Q 2591 3584 2966 3190 
Q 3341 2797 3341 1997 
z
" transform="scale(0.015625)"/>
       <path id="DejaVuSans-74" d="M 1172 4494 
L 1172 3500 
L 2356 3500 
L 2356 3053 
L 1172 3053 
L 1172 1153 
Q 1172 725 1289 603 
Q 1406 481 1766 481 
L 2356 481 
L 2356 0 
L 1766 0 
Q 1100 0 847 248 
Q 594 497 594 1153 
L 594 3053 
L 172 3053 
L 172 3500 
L 594 3500 
L 594 4494 
L 1172 4494 
z
" transform="scale(0.015625)"/>
       <path id="DejaVuSans-20" transform="scale(0.015625)"/>
       <path id="DejaVuSans-Oblique-79" d="M 1588 -325 
Q 1188 -997 936 -1164 
Q 684 -1331 294 -1331 
L -159 -1331 
L -63 -850 
L 269 -850 
Q 509 -850 678 -719 
Q 847 -588 1056 -206 
L 1234 128 
L 459 3500 
L 1069 3500 
L 1650 819 
L 3256 3500 
L 3859 3500 
L 1588 -325 
z
" transform="scale(0.015625)"/>
       <path id="DejaVuSans-Oblique-69" d="M 1172 4863 
L 1747 4863 
L 1606 4134 
L 1031 4134 
L 1172 4863 
z
M 909 3500 
L 1484 3500 
L 800 0 
L 225 0 
L 909 3500 
z
" transform="scale(0.015625)"/>
      </defs>
      <use xlink:href="#DejaVuSans-64" transform="translate(0 0.015625)"/>
      <use xlink:href="#DejaVuSans-61" transform="translate(63.476562 0.015625)"/>
      <use xlink:href="#DejaVuSans-74" transform="translate(124.755859 0.015625)"/>
      <use xlink:href="#DejaVuSans-61" transform="translate(163.964844 0.015625)"/>
      <use xlink:href="#DejaVuSans-20" transform="translate(225.244141 0.015625)"/>
      <use xlink:href="#DejaVuSans-Oblique-79" transform="translate(257.03125 0.015625)"/>
      <use xlink:href="#DejaVuSans-Oblique-69" transform="translate(316.210938 -16.390625) scale(0.7)"/>
     </g>
    </g>
    <g id="line2d_19">
     <path d="M 316.323125 34.998437 
L 326.323125 34.998437 
L 336.323125 34.998437 
" style="fill: none; stroke: #ff7f0e; stroke-width: 1.5; stroke-linecap: square"/>
    </g>
    <g id="text_18">
     <!-- fit $f(x_i)$ -->
     <g transform="translate(344.323125 38.498437) scale(0.1 -0.1)">
      <defs>
       <path id="DejaVuSans-66" d="M 2375 4863 
L 2375 4384 
L 1825 4384 
Q 1516 4384 1395 4259 
Q 1275 4134 1275 3809 
L 1275 3500 
L 2222 3500 
L 2222 3053 
L 1275 3053 
L 1275 0 
L 697 0 
L 697 3053 
L 147 3053 
L 147 3500 
L 697 3500 
L 697 3744 
Q 697 4328 969 4595 
Q 1241 4863 1831 4863 
L 2375 4863 
z
" transform="scale(0.015625)"/>
       <path id="DejaVuSans-69" d="M 603 3500 
L 1178 3500 
L 1178 0 
L 603 0 
L 603 3500 
z
M 603 4863 
L 1178 4863 
L 1178 4134 
L 603 4134 
L 603 4863 
z
" transform="scale(0.015625)"/>
       <path id="DejaVuSans-Oblique-66" d="M 3059 4863 
L 2969 4384 
L 2419 4384 
Q 2106 4384 1964 4261 
Q 1822 4138 1753 3809 
L 1691 3500 
L 2638 3500 
L 2553 3053 
L 1606 3053 
L 1013 0 
L 434 0 
L 1031 3053 
L 481 3053 
L 563 3500 
L 1113 3500 
L 1159 3744 
Q 1278 4363 1576 4613 
Q 1875 4863 2516 4863 
L 3059 4863 
z
" transform="scale(0.015625)"/>
       <path id="DejaVuSans-28" d="M 1984 4856 
Q 1566 4138 1362 3434 
Q 1159 2731 1159 2009 
Q 1159 1288 1364 580 
Q 1569 -128 1984 -844 
L 1484 -844 
Q 1016 -109 783 600 
Q 550 1309 550 2009 
Q 550 2706 781 3412 
Q 1013 4119 1484 4856 
L 1984 4856 
z
" transform="scale(0.015625)"/>
       <path id="DejaVuSans-Oblique-78" d="M 3841 3500 
L 2234 1784 
L 3219 0 
L 2559 0 
L 1819 1388 
L 531 0 
L -166 0 
L 1556 1844 
L 641 3500 
L 1300 3500 
L 1972 2234 
L 3144 3500 
L 3841 3500 
z
" transform="scale(0.015625)"/>
       <path id="DejaVuSans-29" d="M 513 4856 
L 1013 4856 
Q 1481 4119 1714 3412 
Q 1947 2706 1947 2009 
Q 1947 1309 1714 600 
Q 1481 -109 1013 -844 
L 513 -844 
Q 928 -128 1133 580 
Q 1338 1288 1338 2009 
Q 1338 2731 1133 3434 
Q 928 4138 513 4856 
z
" transform="scale(0.015625)"/>
      </defs>
      <use xlink:href="#DejaVuSans-66" transform="translate(0 0.015625)"/>
      <use xlink:href="#DejaVuSans-69" transform="translate(35.205078 0.015625)"/>
      <use xlink:href="#DejaVuSans-74" transform="translate(62.988281 0.015625)"/>
      <use xlink:href="#DejaVuSans-20" transform="translate(102.197266 0.015625)"/>
      <use xlink:href="#DejaVuSans-Oblique-66" transform="translate(133.984375 0.015625)"/>
      <use xlink:href="#DejaVuSans-28" transform="translate(169.189453 0.015625)"/>
      <use xlink:href="#DejaVuSans-Oblique-78" transform="translate(208.203125 0.015625)"/>
      <use xlink:href="#DejaVuSans-Oblique-69" transform="translate(267.382812 -16.390625) scale(0.7)"/>
      <use xlink:href="#DejaVuSans-29" transform="translate(289.56543 0.015625)"/>
     </g>
    </g>
   </g>
  </g>
 </g>
 <defs>
  <clipPath id="pd6c74aa307">
   <rect x="30.103125" y="7.2" width="357.12" height="266.112"/>
  </clipPath>
 </defs>
</svg>