<?xml version="1.0" encoding="utf-8" standalone="no"?>
<!DOCTYPE svg PUBLIC "-//W3C//DTD SVG 1.1//EN"
  "http://www.w3.org/Graphics/SVG/1.1/DTD/svg11.dtd">
<svg xmlns:xlink="http://www.w3.org/1999/xlink" width="400.523438pt" height="266.51625pt" viewBox="0 0 400.523438 266.51625" xmlns="http://www.w3.org/2000/svg" version="1.1">
 <metadata>
  <rdf:RDF xmlns:dc="http://purl.org/dc/elements/1.1/" xmlns:cc="http://creativecommons.org/ns#" xmlns:rdf="http://www.w3.org/1999/02/22-rdf-syntax-ns#">
   <cc:Work>
    <dc:type rdf:resource="http://purl.org/dc/dcmitype/StillImage"/>
    <dc:date>2024-01-29T11:46:49.213045</dc:date>
    <dc:format>image/svg+xml</dc:format>
    <dc:creator>
     <cc:Agent>
      <dc:title>Matplotlib v3.8.2, https://matplotlib.org/</dc:title>
     </cc:Agent>
    </dc:creator>
   </cc:Work>
  </rdf:RDF>
 </metadata>
 <defs>
  <style type="text/css">*{stroke-linejoin: round; stroke-linecap: butt}</style>
 </defs>
 <g id="figure_1">
  <g id="patch_1">
   <path d="M 0 266.51625 
L 400.523438 266.51625 
L 400.523438 0 
L 0 0 
z
" style="fill: #ffffff"/>
  </g>
  <g id="axes_1">
   <g id="patch_2">
    <path d="M 58.523438 228.96 
L 393.323438 228.96 
L 393.323438 7.2 
L 58.523438 7.2 
z
" style="fill: #ffffff"/>
   </g>
   <g id="matplotlib.axis_1">
    <g id="xtick_1">
     <g id="line2d_1">
      <path d="M 73.741619 228.96 
L 73.741619 7.2 
" clip-path="url(#pb1ea3b3844)" style="fill: none; stroke: #b0b0b0; stroke-width: 0.8; stroke-linecap: square"/>
     </g>
     <g id="line2d_2">
      <defs>
       <path id="me143e0c7a9" d="M 0 0 
L 0 3.5 
" style="stroke: #000000; stroke-width: 0.8"/>
      </defs>
      <g>
       <use xlink:href="#me143e0c7a9" x="73.741619" y="228.96" style="stroke: #000000; stroke-width: 0.8"/>
      </g>
     </g>
     <g id="text_1">
      <!-- 0 -->
      <g transform="translate(70.560369 243.558437) scale(0.1 -0.1)">
       <defs>
        <path id="DejaVuSans-30" d="M 2034 4250 
Q 1547 4250 1301 3770 
Q 1056 3291 1056 2328 
Q 1056 1369 1301 889 
Q 1547 409 2034 409 
Q 2525 409 2770 889 
Q 3016 1369 3016 2328 
Q 3016 3291 2770 3770 
Q 2525 4250 2034 4250 
z
M 2034 4750 
Q 2819 4750 3233 4129 
Q 3647 3509 3647 2328 
Q 3647 1150 3233 529 
Q 2819 -91 2034 -91 
Q 1250 -91 836 529 
Q 422 1150 422 2328 
Q 422 3509 836 4129 
Q 1250 4750 2034 4750 
z
" transform="scale(0.015625)"/>
       </defs>
       <use xlink:href="#DejaVuSans-30"/>
      </g>
     </g>
    </g>
    <g id="xtick_2">
     <g id="line2d_3">
      <path d="M 134.614347 228.96 
L 134.614347 7.2 
" clip-path="url(#pb1ea3b3844)" style="fill: none; stroke: #b0b0b0; stroke-width: 0.8; stroke-linecap: square"/>
     </g>
     <g id="line2d_4">
      <g>
       <use xlink:href="#me143e0c7a9" x="134.614347" y="228.96" style="stroke: #000000; stroke-width: 0.8"/>
      </g>
     </g>
     <g id="text_2">
      <!-- 2 -->
      <g transform="translate(131.433097 243.558437) scale(0.1 -0.1)">
       <defs>
        <path id="DejaVuSans-32" d="M 1228 531 
L 3431 531 
L 3431 0 
L 469 0 
L 469 531 
Q 828 903 1448 1529 
Q 2069 2156 2228 2338 
Q 2531 2678 2651 2914 
Q 2772 3150 2772 3378 
Q 2772 3750 2511 3984 
Q 2250 4219 1831 4219 
Q 1534 4219 1204 4116 
Q 875 4013 500 3803 
L 500 4441 
Q 881 4594 1212 4672 
Q 1544 4750 1819 4750 
Q 2544 4750 2975 4387 
Q 3406 4025 3406 3419 
Q 3406 3131 3298 2873 
Q 3191 2616 2906 2266 
Q 2828 2175 2409 1742 
Q 1991 1309 1228 531 
z
" transform="scale(0.015625)"/>
       </defs>
       <use xlink:href="#DejaVuSans-32"/>
      </g>
     </g>
    </g>
    <g id="xtick_3">
     <g id="line2d_5">
      <path d="M 195.487074 228.96 
L 195.487074 7.2 
" clip-path="url(#pb1ea3b3844)" style="fill: none; stroke: #b0b0b0; stroke-width: 0.8; stroke-linecap: square"/>
     </g>
     <g id="line2d_6">
      <g>
       <use xlink:href="#me143e0c7a9" x="195.487074" y="228.96" style="stroke: #000000; stroke-width: 0.8"/>
      </g>
     </g>
     <g id="text_3">
      <!-- 4 -->
      <g transform="translate(192.305824 243.558437) scale(0.1 -0.1)">
       <defs>
        <path id="DejaVuSans-34" d="M 2419 4116 
L 825 1625 
L 2419 1625 
L 2419 4116 
z
M 2253 4666 
L 3047 4666 
L 3047 1625 
L 3713 1625 
L 3713 1100 
L 3047 1100 
L 3047 0 
L 2419 0 
L 2419 1100 
L 313 1100 
L 313 1709 
L 2253 4666 
z
" transform="scale(0.015625)"/>
       </defs>
       <use xlink:href="#DejaVuSans-34"/>
      </g>
     </g>
    </g>
    <g id="xtick_4">
     <g id="line2d_7">
      <path d="M 256.359801 228.96 
L 256.359801 7.2 
" clip-path="url(#pb1ea3b3844)" style="fill: none; stroke: #b0b0b0; stroke-width: 0.8; stroke-linecap: square"/>
     </g>
     <g id="line2d_8">
      <g>
       <use xlink:href="#me143e0c7a9" x="256.359801" y="228.96" style="stroke: #000000; stroke-width: 0.8"/>
      </g>
     </g>
     <g id="text_4">
      <!-- 6 -->
      <g transform="translate(253.178551 243.558437) scale(0.1 -0.1)">
       <defs>
        <path id="DejaVuSans-36" d="M 2113 2584 
Q 1688 2584 1439 2293 
Q 1191 2003 1191 1497 
Q 1191 994 1439 701 
Q 1688 409 2113 409 
Q 2538 409 2786 701 
Q 3034 994 3034 1497 
Q 3034 2003 2786 2293 
Q 2538 2584 2113 2584 
z
M 3366 4563 
L 3366 3988 
Q 3128 4100 2886 4159 
Q 2644 4219 2406 4219 
Q 1781 4219 1451 3797 
Q 1122 3375 1075 2522 
Q 1259 2794 1537 2939 
Q 1816 3084 2150 3084 
Q 2853 3084 3261 2657 
Q 3669 2231 3669 1497 
Q 3669 778 3244 343 
Q 2819 -91 2113 -91 
Q 1303 -91 875 529 
Q 447 1150 447 2328 
Q 447 3434 972 4092 
Q 1497 4750 2381 4750 
Q 2619 4750 2861 4703 
Q 3103 4656 3366 4563 
z
" transform="scale(0.015625)"/>
       </defs>
       <use xlink:href="#DejaVuSans-36"/>
      </g>
     </g>
    </g>
    <g id="xtick_5">
     <g id="line2d_9">
      <path d="M 317.232528 228.96 
L 317.232528 7.2 
" clip-path="url(#pb1ea3b3844)" style="fill: none; stroke: #b0b0b0; stroke-width: 0.8; stroke-linecap: square"/>
     </g>
     <g id="line2d_10">
      <g>
       <use xlink:href="#me143e0c7a9" x="317.232528" y="228.96" style="stroke: #000000; stroke-width: 0.8"/>
      </g>
     </g>
     <g id="text_5">
      <!-- 8 -->
      <g transform="translate(314.051278 243.558437) scale(0.1 -0.1)">
       <defs>
        <path id="DejaVuSans-38" d="M 2034 2216 
Q 1584 2216 1326 1975 
Q 1069 1734 1069 1313 
Q 1069 891 1326 650 
Q 1584 409 2034 409 
Q 2484 409 2743 651 
Q 3003 894 3003 1313 
Q 3003 1734 2745 1975 
Q 2488 2216 2034 2216 
z
M 1403 2484 
Q 997 2584 770 2862 
Q 544 3141 544 3541 
Q 544 4100 942 4425 
Q 1341 4750 2034 4750 
Q 2731 4750 3128 4425 
Q 3525 4100 3525 3541 
Q 3525 3141 3298 2862 
Q 3072 2584 2669 2484 
Q 3125 2378 3379 2068 
Q 3634 1759 3634 1313 
Q 3634 634 3220 271 
Q 2806 -91 2034 -91 
Q 1263 -91 848 271 
Q 434 634 434 1313 
Q 434 1759 690 2068 
Q 947 2378 1403 2484 
z
M 1172 3481 
Q 1172 3119 1398 2916 
Q 1625 2713 2034 2713 
Q 2441 2713 2670 2916 
Q 2900 3119 2900 3481 
Q 2900 3844 2670 4047 
Q 2441 4250 2034 4250 
Q 1625 4250 1398 4047 
Q 1172 3844 1172 3481 
z
" transform="scale(0.015625)"/>
       </defs>
       <use xlink:href="#DejaVuSans-38"/>
      </g>
     </g>
    </g>
    <g id="xtick_6">
     <g id="line2d_11">
      <path d="M 378.105256 228.96 
L 378.105256 7.2 
" clip-path="url(#pb1ea3b3844)" style="fill: none; stroke: #b0b0b0; stroke-width: 0.8; stroke-linecap: square"/>
     </g>
     <g id="line2d_12">
      <g>
       <use xlink:href="#me143e0c7a9" x="378.105256" y="228.96" style="stroke: #000000; stroke-width: 0.8"/>
      </g>
     </g>
     <g id="text_6">
      <!-- 10 -->
      <g transform="translate(371.742756 243.558437) scale(0.1 -0.1)">
       <defs>
        <path id="DejaVuSans-31" d="M 794 531 
L 1825 531 
L 1825 4091 
L 703 3866 
L 703 4441 
L 1819 4666 
L 2450 4666 
L 2450 531 
L 3481 531 
L 3481 0 
L 794 0 
L 794 531 
z
" transform="scale(0.015625)"/>
       </defs>
       <use xlink:href="#DejaVuSans-31"/>
       <use xlink:href="#DejaVuSans-30" x="63.623047"/>
      </g>
     </g>
    </g>
    <g id="text_7">
     <!-- x -->
     <g transform="translate(222.964063 257.236562) scale(0.1 -0.1)">
      <defs>
       <path id="DejaVuSans-78" d="M 3513 3500 
L 2247 1797 
L 3578 0 
L 2900 0 
L 1881 1375 
L 863 0 
L 184 0 
L 1544 1831 
L 300 3500 
L 978 3500 
L 1906 2253 
L 2834 3500 
L 3513 3500 
z
" transform="scale(0.015625)"/>
      </defs>
      <use xlink:href="#DejaVuSans-78"/>
     </g>
    </g>
   </g>
   <g id="matplotlib.axis_2">
    <g id="ytick_1">
     <g id="line2d_13">
      <path d="M 58.523438 218.942065 
L 393.323438 218.942065 
" clip-path="url(#pb1ea3b3844)" style="fill: none; stroke: #b0b0b0; stroke-width: 0.8; stroke-linecap: square"/>
     </g>
     <g id="line2d_14">
      <defs>
       <path id="mfacb1a5363" d="M 0 0 
L -3.5 0 
" style="stroke: #000000; stroke-width: 0.8"/>
      </defs>
      <g>
       <use xlink:href="#mfacb1a5363" x="58.523438" y="218.942065" style="stroke: #000000; stroke-width: 0.8"/>
      </g>
     </g>
     <g id="text_8">
      <!-- −1.00 -->
      <g transform="translate(20.878125 222.741284) scale(0.1 -0.1)">
       <defs>
        <path id="DejaVuSans-2212" d="M 678 2272 
L 4684 2272 
L 4684 1741 
L 678 1741 
L 678 2272 
z
" transform="scale(0.015625)"/>
        <path id="DejaVuSans-2e" d="M 684 794 
L 1344 794 
L 1344 0 
L 684 0 
L 684 794 
z
" transform="scale(0.015625)"/>
       </defs>
       <use xlink:href="#DejaVuSans-2212"/>
       <use xlink:href="#DejaVuSans-31" x="83.789062"/>
       <use xlink:href="#DejaVuSans-2e" x="147.412109"/>
       <use xlink:href="#DejaVuSans-30" x="179.199219"/>
       <use xlink:href="#DejaVuSans-30" x="242.822266"/>
      </g>
     </g>
    </g>
    <g id="ytick_2">
     <g id="line2d_15">
      <path d="M 58.523438 193.730429 
L 393.323438 193.730429 
" clip-path="url(#pb1ea3b3844)" style="fill: none; stroke: #b0b0b0; stroke-width: 0.8; stroke-linecap: square"/>
     </g>
     <g id="line2d_16">
      <g>
       <use xlink:href="#mfacb1a5363" x="58.523438" y="193.730429" style="stroke: #000000; stroke-width: 0.8"/>
      </g>
     </g>
     <g id="text_9">
      <!-- −0.75 -->
      <g transform="translate(20.878125 197.529648) scale(0.1 -0.1)">
       <defs>
        <path id="DejaVuSans-37" d="M 525 4666 
L 3525 4666 
L 3525 4397 
L 1831 0 
L 1172 0 
L 2766 4134 
L 525 4134 
L 525 4666 
z
" transform="scale(0.015625)"/>
        <path id="DejaVuSans-35" d="M 691 4666 
L 3169 4666 
L 3169 4134 
L 1269 4134 
L 1269 2991 
Q 1406 3038 1543 3061 
Q 1681 3084 1819 3084 
Q 2600 3084 3056 2656 
Q 3513 2228 3513 1497 
Q 3513 744 3044 326 
Q 2575 -91 1722 -91 
Q 1428 -91 1123 -41 
Q 819 9 494 109 
L 494 744 
Q 775 591 1075 516 
Q 1375 441 1709 441 
Q 2250 441 2565 725 
Q 2881 1009 2881 1497 
Q 2881 1984 2565 2268 
Q 2250 2553 1709 2553 
Q 1456 2553 1204 2497 
Q 953 2441 691 2322 
L 691 4666 
z
" transform="scale(0.015625)"/>
       </defs>
       <use xlink:href="#DejaVuSans-2212"/>
       <use xlink:href="#DejaVuSans-30" x="83.789062"/>
       <use xlink:href="#DejaVuSans-2e" x="147.412109"/>
       <use xlink:href="#DejaVuSans-37" x="179.199219"/>
       <use xlink:href="#DejaVuSans-35" x="242.822266"/>
      </g>
     </g>
    </g>
    <g id="ytick_3">
     <g id="line2d_17">
      <path d="M 58.523438 168.518792 
L 393.323438 168.518792 
" clip-path="url(#pb1ea3b3844)" style="fill: none; stroke: #b0b0b0; stroke-width: 0.8; stroke-linecap: square"/>
     </g>
     <g id="line2d_18">
      <g>
       <use xlink:href="#mfacb1a5363" x="58.523438" y="168.518792" style="stroke: #000000; stroke-width: 0.8"/>
      </g>
     </g>
     <g id="text_10">
      <!-- −0.50 -->
      <g transform="translate(20.878125 172.318011) scale(0.1 -0.1)">
       <use xlink:href="#DejaVuSans-2212"/>
       <use xlink:href="#DejaVuSans-30" x="83.789062"/>
       <use xlink:href="#DejaVuSans-2e" x="147.412109"/>
       <use xlink:href="#DejaVuSans-35" x="179.199219"/>
       <use xlink:href="#DejaVuSans-30" x="242.822266"/>
      </g>
     </g>
    </g>
    <g id="ytick_4">
     <g id="line2d_19">
      <path d="M 58.523438 143.307156 
L 393.323438 143.307156 
" clip-path="url(#pb1ea3b3844)" style="fill: none; stroke: #b0b0b0; stroke-width: 0.8; stroke-linecap: square"/>
     </g>
     <g id="line2d_20">
      <g>
       <use xlink:href="#mfacb1a5363" x="58.523438" y="143.307156" style="stroke: #000000; stroke-width: 0.8"/>
      </g>
     </g>
     <g id="text_11">
      <!-- −0.25 -->
      <g transform="translate(20.878125 147.106375) scale(0.1 -0.1)">
       <use xlink:href="#DejaVuSans-2212"/>
       <use xlink:href="#DejaVuSans-30" x="83.789062"/>
       <use xlink:href="#DejaVuSans-2e" x="147.412109"/>
       <use xlink:href="#DejaVuSans-32" x="179.199219"/>
       <use xlink:href="#DejaVuSans-35" x="242.822266"/>
      </g>
     </g>
    </g>
    <g id="ytick_5">
     <g id="line2d_21">
      <path d="M 58.523438 118.095519 
L 393.323438 118.095519 
" clip-path="url(#pb1ea3b3844)" style="fill: none; stroke: #b0b0b0; stroke-width: 0.8; stroke-linecap: square"/>
     </g>
     <g id="line2d_22">
      <g>
       <use xlink:href="#mfacb1a5363" x="58.523438" y="118.095519" style="stroke: #000000; stroke-width: 0.8"/>
      </g>
     </g>
     <g id="text_12">
      <!-- 0.00 -->
      <g transform="translate(29.257813 121.894738) scale(0.1 -0.1)">
       <use xlink:href="#DejaVuSans-30"/>
       <use xlink:href="#DejaVuSans-2e" x="63.623047"/>
       <use xlink:href="#DejaVuSans-30" x="95.410156"/>
       <use xlink:href="#DejaVuSans-30" x="159.033203"/>
      </g>
     </g>
    </g>
    <g id="ytick_6">
     <g id="line2d_23">
      <path d="M 58.523438 92.883883 
L 393.323438 92.883883 
" clip-path="url(#pb1ea3b3844)" style="fill: none; stroke: #b0b0b0; stroke-width: 0.8; stroke-linecap: square"/>
     </g>
     <g id="line2d_24">
      <g>
       <use xlink:href="#mfacb1a5363" x="58.523438" y="92.883883" style="stroke: #000000; stroke-width: 0.8"/>
      </g>
     </g>
     <g id="text_13">
      <!-- 0.25 -->
      <g transform="translate(29.257813 96.683102) scale(0.1 -0.1)">
       <use xlink:href="#DejaVuSans-30"/>
       <use xlink:href="#DejaVuSans-2e" x="63.623047"/>
       <use xlink:href="#DejaVuSans-32" x="95.410156"/>
       <use xlink:href="#DejaVuSans-35" x="159.033203"/>
      </g>
     </g>
    </g>
    <g id="ytick_7">
     <g id="line2d_25">
      <path d="M 58.523438 67.672247 
L 393.323438 67.672247 
" clip-path="url(#pb1ea3b3844)" style="fill: none; stroke: #b0b0b0; stroke-width: 0.8; stroke-linecap: square"/>
     </g>
     <g id="line2d_26">
      <g>
       <use xlink:href="#mfacb1a5363" x="58.523438" y="67.672247" style="stroke: #000000; stroke-width: 0.8"/>
      </g>
     </g>
     <g id="text_14">
      <!-- 0.50 -->
      <g transform="translate(29.257813 71.471465) scale(0.1 -0.1)">
       <use xlink:href="#DejaVuSans-30"/>
       <use xlink:href="#DejaVuSans-2e" x="63.623047"/>
       <use xlink:href="#DejaVuSans-35" x="95.410156"/>
       <use xlink:href="#DejaVuSans-30" x="159.033203"/>
      </g>
     </g>
    </g>
    <g id="ytick_8">
     <g id="line2d_27">
      <path d="M 58.523438 42.46061 
L 393.323438 42.46061 
" clip-path="url(#pb1ea3b3844)" style="fill: none; stroke: #b0b0b0; stroke-width: 0.8; stroke-linecap: square"/>
     </g>
     <g id="line2d_28">
      <g>
       <use xlink:href="#mfacb1a5363" x="58.523438" y="42.46061" style="stroke: #000000; stroke-width: 0.8"/>
      </g>
     </g>
     <g id="text_15">
      <!-- 0.75 -->
      <g transform="translate(29.257813 46.259829) scale(0.1 -0.1)">
       <use xlink:href="#DejaVuSans-30"/>
       <use xlink:href="#DejaVuSans-2e" x="63.623047"/>
       <use xlink:href="#DejaVuSans-37" x="95.410156"/>
       <use xlink:href="#DejaVuSans-35" x="159.033203"/>
      </g>
     </g>
    </g>
    <g id="ytick_9">
     <g id="line2d_29">
      <path d="M 58.523438 17.248974 
L 393.323438 17.248974 
" clip-path="url(#pb1ea3b3844)" style="fill: none; stroke: #b0b0b0; stroke-width: 0.8; stroke-linecap: square"/>
     </g>
     <g id="line2d_30">
      <g>
       <use xlink:href="#mfacb1a5363" x="58.523438" y="17.248974" style="stroke: #000000; stroke-width: 0.8"/>
      </g>
     </g>
     <g id="text_16">
      <!-- 1.00 -->
      <g transform="translate(29.257813 21.048192) scale(0.1 -0.1)">
       <use xlink:href="#DejaVuSans-31"/>
       <use xlink:href="#DejaVuSans-2e" x="63.623047"/>
       <use xlink:href="#DejaVuSans-30" x="95.410156"/>
       <use xlink:href="#DejaVuSans-30" x="159.033203"/>
      </g>
     </g>
    </g>
    <g id="text_17">
     <!-- y=f(x) -->
     <g transform="translate(14.798438 133.850312) rotate(-90) scale(0.1 -0.1)">
      <defs>
       <path id="DejaVuSans-79" d="M 2059 -325 
Q 1816 -950 1584 -1140 
Q 1353 -1331 966 -1331 
L 506 -1331 
L 506 -850 
L 844 -850 
Q 1081 -850 1212 -737 
Q 1344 -625 1503 -206 
L 1606 56 
L 191 3500 
L 800 3500 
L 1894 763 
L 2988 3500 
L 3597 3500 
L 2059 -325 
z
" transform="scale(0.015625)"/>
       <path id="DejaVuSans-3d" d="M 678 2906 
L 4684 2906 
L 4684 2381 
L 678 2381 
L 678 2906 
z
M 678 1631 
L 4684 1631 
L 4684 1100 
L 678 1100 
L 678 1631 
z
" transform="scale(0.015625)"/>
       <path id="DejaVuSans-66" d="M 2375 4863 
L 2375 4384 
L 1825 4384 
Q 1516 4384 1395 4259 
Q 1275 4134 1275 3809 
L 1275 3500 
L 2222 3500 
L 2222 3053 
L 1275 3053 
L 1275 0 
L 697 0 
L 697 3053 
L 147 3053 
L 147 3500 
L 697 3500 
L 697 3744 
Q 697 4328 969 4595 
Q 1241 4863 1831 4863 
L 2375 4863 
z
" transform="scale(0.015625)"/>
       <path id="DejaVuSans-28" d="M 1984 4856 
Q 1566 4138 1362 3434 
Q 1159 2731 1159 2009 
Q 1159 1288 1364 580 
Q 1569 -128 1984 -844 
L 1484 -844 
Q 1016 -109 783 600 
Q 550 1309 550 2009 
Q 550 2706 781 3412 
Q 1013 4119 1484 4856 
L 1984 4856 
z
" transform="scale(0.015625)"/>
       <path id="DejaVuSans-29" d="M 513 4856 
L 1013 4856 
Q 1481 4119 1714 3412 
Q 1947 2706 1947 2009 
Q 1947 1309 1714 600 
Q 1481 -109 1013 -844 
L 513 -844 
Q 928 -128 1133 580 
Q 1338 1288 1338 2009 
Q 1338 2731 1133 3434 
Q 928 4138 513 4856 
z
" transform="scale(0.015625)"/>
      </defs>
      <use xlink:href="#DejaVuSans-79"/>
      <use xlink:href="#DejaVuSans-3d" x="59.179688"/>
      <use xlink:href="#DejaVuSans-66" x="142.96875"/>
      <use xlink:href="#DejaVuSans-28" x="178.173828"/>
      <use xlink:href="#DejaVuSans-78" x="217.1875"/>
      <use xlink:href="#DejaVuSans-29" x="276.367188"/>
     </g>
    </g>
   </g>
   <g id="line2d_31">
    <path d="M 73.741619 118.095519 
L 76.815999 107.926313 
L 79.89038 97.860775 
L 82.96476 88.001518 
L 86.03914 78.44905 
L 89.11352 69.300753 
L 92.1879 60.649887 
L 95.26228 52.584644 
L 98.336661 45.187242 
L 101.411041 38.533095 
L 104.485421 32.690036 
L 107.559801 27.717632 
L 110.634181 23.666573 
L 113.708561 20.578158 
L 116.782942 18.483871 
L 119.857322 17.405061 
L 122.931702 17.352727 
L 126.006082 18.327403 
L 129.080462 20.319151 
L 132.154842 23.307668 
L 135.229223 27.262486 
L 138.303603 32.143291 
L 141.377983 37.900324 
L 144.452363 44.474896 
L 147.526743 51.799984 
L 150.601123 59.800913 
L 153.675504 68.396119 
L 156.749884 77.497979 
L 159.824264 87.013705 
L 162.898644 96.84629 
L 165.973024 106.895498 
L 169.047404 117.058883 
L 172.121785 127.232836 
L 175.196165 137.31364 
L 178.270545 147.198527 
L 181.344925 156.786728 
L 184.419305 165.980496 
L 187.493685 174.686107 
L 190.568066 182.814813 
L 193.642446 190.283746 
L 196.716826 197.016766 
L 199.791206 202.945234 
L 202.865586 208.008712 
L 205.939966 212.155582 
L 209.014347 215.34357 
L 212.088727 217.540175 
L 215.163107 218.723004 
L 218.237487 218.88 
L 221.311867 218.009562 
L 224.386247 216.120563 
L 227.460628 213.232261 
L 230.535008 209.3741 
L 233.609388 204.585411 
L 236.683768 198.915012 
L 239.758148 192.42071 
L 242.832528 185.16871 
L 245.906909 177.232941 
L 248.981289 168.694303 
L 252.055669 159.639842 
L 255.130049 150.161863 
L 258.204429 140.356988 
L 261.278809 130.325172 
L 264.35319 120.168682 
L 267.42757 109.991057 
L 270.50195 99.896053 
L 273.57633 89.98658 
L 276.65071 80.36366 
L 279.72509 71.125393 
L 282.799471 62.365956 
L 285.873851 54.174648 
L 288.948231 46.634972 
L 292.022611 39.823791 
L 295.096991 33.810541 
L 298.171371 28.656523 
L 301.245752 24.414279 
L 304.320132 21.127056 
L 307.394512 18.828366 
L 310.468892 17.541641 
L 313.543272 17.28 
L 316.617652 18.046109 
L 319.692033 19.832159 
L 322.766413 22.619942 
L 325.840793 26.381037 
L 328.915173 31.077105 
L 331.989553 36.660269 
L 335.063933 43.073615 
L 338.138314 50.251762 
L 341.212694 58.121533 
L 344.287074 66.602701 
L 347.361454 75.608805 
L 350.435834 85.048035 
L 353.510214 94.824163 
L 356.584595 104.837528 
L 359.658975 114.986049 
L 362.733355 125.16627 
L 365.807735 135.274409 
L 368.882115 145.20742 
L 371.956495 154.864042 
L 375.030876 164.145833 
L 378.105256 172.958169 
" clip-path="url(#pb1ea3b3844)" style="fill: none; stroke: #ffa500; stroke-width: 2; stroke-linecap: square"/>
    <defs>
     <path id="m1d6b9c0c8b" d="M -3 3 
L 3 -3 
M -3 -3 
L 3 3 
" style="stroke: #ffa500"/>
    </defs>
    <g clip-path="url(#pb1ea3b3844)">
     <use xlink:href="#m1d6b9c0c8b" x="73.741619" y="118.095519" style="fill: #ffa500; stroke: #ffa500"/>
     <use xlink:href="#m1d6b9c0c8b" x="76.815999" y="107.926313" style="fill: #ffa500; stroke: #ffa500"/>
     <use xlink:href="#m1d6b9c0c8b" x="79.89038" y="97.860775" style="fill: #ffa500; stroke: #ffa500"/>
     <use xlink:href="#m1d6b9c0c8b" x="82.96476" y="88.001518" style="fill: #ffa500; stroke: #ffa500"/>
     <use xlink:href="#m1d6b9c0c8b" x="86.03914" y="78.44905" style="fill: #ffa500; stroke: #ffa500"/>
     <use xlink:href="#m1d6b9c0c8b" x="89.11352" y="69.300753" style="fill: #ffa500; stroke: #ffa500"/>
     <use xlink:href="#m1d6b9c0c8b" x="92.1879" y="60.649887" style="fill: #ffa500; stroke: #ffa500"/>
     <use xlink:href="#m1d6b9c0c8b" x="95.26228" y="52.584644" style="fill: #ffa500; stroke: #ffa500"/>
     <use xlink:href="#m1d6b9c0c8b" x="98.336661" y="45.187242" style="fill: #ffa500; stroke: #ffa500"/>
     <use xlink:href="#m1d6b9c0c8b" x="101.411041" y="38.533095" style="fill: #ffa500; stroke: #ffa500"/>
     <use xlink:href="#m1d6b9c0c8b" x="104.485421" y="32.690036" style="fill: #ffa500; stroke: #ffa500"/>
     <use xlink:href="#m1d6b9c0c8b" x="107.559801" y="27.717632" style="fill: #ffa500; stroke: #ffa500"/>
     <use xlink:href="#m1d6b9c0c8b" x="110.634181" y="23.666573" style="fill: #ffa500; stroke: #ffa500"/>
     <use xlink:href="#m1d6b9c0c8b" x="113.708561" y="20.578158" style="fill: #ffa500; stroke: #ffa500"/>
     <use xlink:href="#m1d6b9c0c8b" x="116.782942" y="18.483871" style="fill: #ffa500; stroke: #ffa500"/>
     <use xlink:href="#m1d6b9c0c8b" x="119.857322" y="17.405061" style="fill: #ffa500; stroke: #ffa500"/>
     <use xlink:href="#m1d6b9c0c8b" x="122.931702" y="17.352727" style="fill: #ffa500; stroke: #ffa500"/>
     <use xlink:href="#m1d6b9c0c8b" x="126.006082" y="18.327403" style="fill: #ffa500; stroke: #ffa500"/>
     <use xlink:href="#m1d6b9c0c8b" x="129.080462" y="20.319151" style="fill: #ffa500; stroke: #ffa500"/>
     <use xlink:href="#m1d6b9c0c8b" x="132.154842" y="23.307668" style="fill: #ffa500; stroke: #ffa500"/>
     <use xlink:href="#m1d6b9c0c8b" x="135.229223" y="27.262486" style="fill: #ffa500; stroke: #ffa500"/>
     <use xlink:href="#m1d6b9c0c8b" x="138.303603" y="32.143291" style="fill: #ffa500; stroke: #ffa500"/>
     <use xlink:href="#m1d6b9c0c8b" x="141.377983" y="37.900324" style="fill: #ffa500; stroke: #ffa500"/>
     <use xlink:href="#m1d6b9c0c8b" x="144.452363" y="44.474896" style="fill: #ffa500; stroke: #ffa500"/>
     <use xlink:href="#m1d6b9c0c8b" x="147.526743" y="51.799984" style="fill: #ffa500; stroke: #ffa500"/>
     <use xlink:href="#m1d6b9c0c8b" x="150.601123" y="59.800913" style="fill: #ffa500; stroke: #ffa500"/>
     <use xlink:href="#m1d6b9c0c8b" x="153.675504" y="68.396119" style="fill: #ffa500; stroke: #ffa500"/>
     <use xlink:href="#m1d6b9c0c8b" x="156.749884" y="77.497979" style="fill: #ffa500; stroke: #ffa500"/>
     <use xlink:href="#m1d6b9c0c8b" x="159.824264" y="87.013705" style="fill: #ffa500; stroke: #ffa500"/>
     <use xlink:href="#m1d6b9c0c8b" x="162.898644" y="96.84629" style="fill: #ffa500; stroke: #ffa500"/>
     <use xlink:href="#m1d6b9c0c8b" x="165.973024" y="106.895498" style="fill: #ffa500; stroke: #ffa500"/>
     <use xlink:href="#m1d6b9c0c8b" x="169.047404" y="117.058883" style="fill: #ffa500; stroke: #ffa500"/>
     <use xlink:href="#m1d6b9c0c8b" x="172.121785" y="127.232836" style="fill: #ffa500; stroke: #ffa500"/>
     <use xlink:href="#m1d6b9c0c8b" x="175.196165" y="137.31364" style="fill: #ffa500; stroke: #ffa500"/>
     <use xlink:href="#m1d6b9c0c8b" x="178.270545" y="147.198527" style="fill: #ffa500; stroke: #ffa500"/>
     <use xlink:href="#m1d6b9c0c8b" x="181.344925" y="156.786728" style="fill: #ffa500; stroke: #ffa500"/>
     <use xlink:href="#m1d6b9c0c8b" x="184.419305" y="165.980496" style="fill: #ffa500; stroke: #ffa500"/>
     <use xlink:href="#m1d6b9c0c8b" x="187.493685" y="174.686107" style="fill: #ffa500; stroke: #ffa500"/>
     <use xlink:href="#m1d6b9c0c8b" x="190.568066" y="182.814813" style="fill: #ffa500; stroke: #ffa500"/>
     <use xlink:href="#m1d6b9c0c8b" x="193.642446" y="190.283746" style="fill: #ffa500; stroke: #ffa500"/>
     <use xlink:href="#m1d6b9c0c8b" x="196.716826" y="197.016766" style="fill: #ffa500; stroke: #ffa500"/>
     <use xlink:href="#m1d6b9c0c8b" x="199.791206" y="202.945234" style="fill: #ffa500; stroke: #ffa500"/>
     <use xlink:href="#m1d6b9c0c8b" x="202.865586" y="208.008712" style="fill: #ffa500; stroke: #ffa500"/>
     <use xlink:href="#m1d6b9c0c8b" x="205.939966" y="212.155582" style="fill: #ffa500; stroke: #ffa500"/>
     <use xlink:href="#m1d6b9c0c8b" x="209.014347" y="215.34357" style="fill: #ffa500; stroke: #ffa500"/>
     <use xlink:href="#m1d6b9c0c8b" x="212.088727" y="217.540175" style="fill: #ffa500; stroke: #ffa500"/>
     <use xlink:href="#m1d6b9c0c8b" x="215.163107" y="218.723004" style="fill: #ffa500; stroke: #ffa500"/>
     <use xlink:href="#m1d6b9c0c8b" x="218.237487" y="218.88" style="fill: #ffa500; stroke: #ffa500"/>
     <use xlink:href="#m1d6b9c0c8b" x="221.311867" y="218.009562" style="fill: #ffa500; stroke: #ffa500"/>
     <use xlink:href="#m1d6b9c0c8b" x="224.386247" y="216.120563" style="fill: #ffa500; stroke: #ffa500"/>
     <use xlink:href="#m1d6b9c0c8b" x="227.460628" y="213.232261" style="fill: #ffa500; stroke: #ffa500"/>
     <use xlink:href="#m1d6b9c0c8b" x="230.535008" y="209.3741" style="fill: #ffa500; stroke: #ffa500"/>
     <use xlink:href="#m1d6b9c0c8b" x="233.609388" y="204.585411" style="fill: #ffa500; stroke: #ffa500"/>
     <use xlink:href="#m1d6b9c0c8b" x="236.683768" y="198.915012" style="fill: #ffa500; stroke: #ffa500"/>
     <use xlink:href="#m1d6b9c0c8b" x="239.758148" y="192.42071" style="fill: #ffa500; stroke: #ffa500"/>
     <use xlink:href="#m1d6b9c0c8b" x="242.832528" y="185.16871" style="fill: #ffa500; stroke: #ffa500"/>
     <use xlink:href="#m1d6b9c0c8b" x="245.906909" y="177.232941" style="fill: #ffa500; stroke: #ffa500"/>
     <use xlink:href="#m1d6b9c0c8b" x="248.981289" y="168.694303" style="fill: #ffa500; stroke: #ffa500"/>
     <use xlink:href="#m1d6b9c0c8b" x="252.055669" y="159.639842" style="fill: #ffa500; stroke: #ffa500"/>
     <use xlink:href="#m1d6b9c0c8b" x="255.130049" y="150.161863" style="fill: #ffa500; stroke: #ffa500"/>
     <use xlink:href="#m1d6b9c0c8b" x="258.204429" y="140.356988" style="fill: #ffa500; stroke: #ffa500"/>
     <use xlink:href="#m1d6b9c0c8b" x="261.278809" y="130.325172" style="fill: #ffa500; stroke: #ffa500"/>
     <use xlink:href="#m1d6b9c0c8b" x="264.35319" y="120.168682" style="fill: #ffa500; stroke: #ffa500"/>
     <use xlink:href="#m1d6b9c0c8b" x="267.42757" y="109.991057" style="fill: #ffa500; stroke: #ffa500"/>
     <use xlink:href="#m1d6b9c0c8b" x="270.50195" y="99.896053" style="fill: #ffa500; stroke: #ffa500"/>
     <use xlink:href="#m1d6b9c0c8b" x="273.57633" y="89.98658" style="fill: #ffa500; stroke: #ffa500"/>
     <use xlink:href="#m1d6b9c0c8b" x="276.65071" y="80.36366" style="fill: #ffa500; stroke: #ffa500"/>
     <use xlink:href="#m1d6b9c0c8b" x="279.72509" y="71.125393" style="fill: #ffa500; stroke: #ffa500"/>
     <use xlink:href="#m1d6b9c0c8b" x="282.799471" y="62.365956" style="fill: #ffa500; stroke: #ffa500"/>
     <use xlink:href="#m1d6b9c0c8b" x="285.873851" y="54.174648" style="fill: #ffa500; stroke: #ffa500"/>
     <use xlink:href="#m1d6b9c0c8b" x="288.948231" y="46.634972" style="fill: #ffa500; stroke: #ffa500"/>
     <use xlink:href="#m1d6b9c0c8b" x="292.022611" y="39.823791" style="fill: #ffa500; stroke: #ffa500"/>
     <use xlink:href="#m1d6b9c0c8b" x="295.096991" y="33.810541" style="fill: #ffa500; stroke: #ffa500"/>
     <use xlink:href="#m1d6b9c0c8b" x="298.171371" y="28.656523" style="fill: #ffa500; stroke: #ffa500"/>
     <use xlink:href="#m1d6b9c0c8b" x="301.245752" y="24.414279" style="fill: #ffa500; stroke: #ffa500"/>
     <use xlink:href="#m1d6b9c0c8b" x="304.320132" y="21.127056" style="fill: #ffa500; stroke: #ffa500"/>
     <use xlink:href="#m1d6b9c0c8b" x="307.394512" y="18.828366" style="fill: #ffa500; stroke: #ffa500"/>
     <use xlink:href="#m1d6b9c0c8b" x="310.468892" y="17.541641" style="fill: #ffa500; stroke: #ffa500"/>
     <use xlink:href="#m1d6b9c0c8b" x="313.543272" y="17.28" style="fill: #ffa500; stroke: #ffa500"/>
     <use xlink:href="#m1d6b9c0c8b" x="316.617652" y="18.046109" style="fill: #ffa500; stroke: #ffa500"/>
     <use xlink:href="#m1d6b9c0c8b" x="319.692033" y="19.832159" style="fill: #ffa500; stroke: #ffa500"/>
     <use xlink:href="#m1d6b9c0c8b" x="322.766413" y="22.619942" style="fill: #ffa500; stroke: #ffa500"/>
     <use xlink:href="#m1d6b9c0c8b" x="325.840793" y="26.381037" style="fill: #ffa500; stroke: #ffa500"/>
     <use xlink:href="#m1d6b9c0c8b" x="328.915173" y="31.077105" style="fill: #ffa500; stroke: #ffa500"/>
     <use xlink:href="#m1d6b9c0c8b" x="331.989553" y="36.660269" style="fill: #ffa500; stroke: #ffa500"/>
     <use xlink:href="#m1d6b9c0c8b" x="335.063933" y="43.073615" style="fill: #ffa500; stroke: #ffa500"/>
     <use xlink:href="#m1d6b9c0c8b" x="338.138314" y="50.251762" style="fill: #ffa500; stroke: #ffa500"/>
     <use xlink:href="#m1d6b9c0c8b" x="341.212694" y="58.121533" style="fill: #ffa500; stroke: #ffa500"/>
     <use xlink:href="#m1d6b9c0c8b" x="344.287074" y="66.602701" style="fill: #ffa500; stroke: #ffa500"/>
     <use xlink:href="#m1d6b9c0c8b" x="347.361454" y="75.608805" style="fill: #ffa500; stroke: #ffa500"/>
     <use xlink:href="#m1d6b9c0c8b" x="350.435834" y="85.048035" style="fill: #ffa500; stroke: #ffa500"/>
     <use xlink:href="#m1d6b9c0c8b" x="353.510214" y="94.824163" style="fill: #ffa500; stroke: #ffa500"/>
     <use xlink:href="#m1d6b9c0c8b" x="356.584595" y="104.837528" style="fill: #ffa500; stroke: #ffa500"/>
     <use xlink:href="#m1d6b9c0c8b" x="359.658975" y="114.986049" style="fill: #ffa500; stroke: #ffa500"/>
     <use xlink:href="#m1d6b9c0c8b" x="362.733355" y="125.16627" style="fill: #ffa500; stroke: #ffa500"/>
     <use xlink:href="#m1d6b9c0c8b" x="365.807735" y="135.274409" style="fill: #ffa500; stroke: #ffa500"/>
     <use xlink:href="#m1d6b9c0c8b" x="368.882115" y="145.20742" style="fill: #ffa500; stroke: #ffa500"/>
     <use xlink:href="#m1d6b9c0c8b" x="371.956495" y="154.864042" style="fill: #ffa500; stroke: #ffa500"/>
     <use xlink:href="#m1d6b9c0c8b" x="375.030876" y="164.145833" style="fill: #ffa500; stroke: #ffa500"/>
     <use xlink:href="#m1d6b9c0c8b" x="378.105256" y="172.958169" style="fill: #ffa500; stroke: #ffa500"/>
    </g>
   </g>
   <g id="patch_3">
    <path d="M 58.523438 228.96 
L 58.523438 7.2 
" style="fill: none; stroke: #000000; stroke-width: 0.8; stroke-linejoin: miter; stroke-linecap: square"/>
   </g>
   <g id="patch_4">
    <path d="M 393.323438 228.96 
L 393.323438 7.2 
" style="fill: none; stroke: #000000; stroke-width: 0.8; stroke-linejoin: miter; stroke-linecap: square"/>
   </g>
   <g id="patch_5">
    <path d="M 58.523438 228.96 
L 393.323438 228.96 
" style="fill: none; stroke: #000000; stroke-width: 0.8; stroke-linejoin: miter; stroke-linecap: square"/>
   </g>
   <g id="patch_6">
    <path d="M 58.523438 7.2 
L 393.323438 7.2 
" style="fill: none; stroke: #000000; stroke-width: 0.8; stroke-linejoin: miter; stroke-linecap: square"/>
   </g>
  </g>
 </g>
 <defs>
  <clipPath id="pb1ea3b3844">
   <rect x="58.523438" y="7.2" width="334.8" height="221.76"/>
  </clipPath>
 </defs>
</svg>