<?xml version="1.0" encoding="utf-8" standalone="no"?>
<!DOCTYPE svg PUBLIC "-//W3C//DTD SVG 1.1//EN"
  "http://www.w3.org/Graphics/SVG/1.1/DTD/svg11.dtd">
<svg xmlns:xlink="http://www.w3.org/1999/xlink" width="397.6075pt" height="310.86825pt" viewBox="0 0 397.6075 310.86825" xmlns="http://www.w3.org/2000/svg" version="1.1">
 <metadata>
  <rdf:RDF xmlns:dc="http://purl.org/dc/elements/1.1/" xmlns:cc="http://creativecommons.org/ns#" xmlns:rdf="http://www.w3.org/1999/02/22-rdf-syntax-ns#">
   <cc:Work>
    <dc:type rdf:resource="http://purl.org/dc/dcmitype/StillImage"/>
    <dc:date>2024-01-29T11:49:35.292516</dc:date>
    <dc:format>image/svg+xml</dc:format>
    <dc:creator>
     <cc:Agent>
      <dc:title>Matplotlib v3.8.2, https://matplotlib.org/</dc:title>
     </cc:Agent>
    </dc:creator>
   </cc:Work>
  </rdf:RDF>
 </metadata>
 <defs>
  <style type="text/css">*{stroke-linejoin: round; stroke-linecap: butt}</style>
 </defs>
 <g id="figure_1">
  <g id="patch_1">
   <path d="M 0 310.86825 
L 397.6075 310.86825 
L 397.6075 0 
L 0 0 
z
" style="fill: #ffffff"/>
  </g>
  <g id="axes_1">
   <g id="patch_2">
    <path d="M 33.2875 273.312 
L 390.4075 273.312 
L 390.4075 7.2 
L 33.2875 7.2 
z
" style="fill: #ffffff"/>
   </g>
   <g id="matplotlib.axis_1">
    <g id="xtick_1">
     <g id="line2d_1">
      <defs>
       <path id="m15cf6a9f5f" d="M 0 0 
L 0 3.5 
" style="stroke: #000000; stroke-width: 0.8"/>
      </defs>
      <g>
       <use xlink:href="#m15cf6a9f5f" x="49.520227" y="273.312" style="stroke: #000000; stroke-width: 0.8"/>
      </g>
     </g>
     <g id="text_1">
      <!-- 0 -->
      <g transform="translate(46.338977 287.910437) scale(0.1 -0.1)">
       <defs>
        <path id="DejaVuSans-30" d="M 2034 4250 
Q 1547 4250 1301 3770 
Q 1056 3291 1056 2328 
Q 1056 1369 1301 889 
Q 1547 409 2034 409 
Q 2525 409 2770 889 
Q 3016 1369 3016 2328 
Q 3016 3291 2770 3770 
Q 2525 4250 2034 4250 
z
M 2034 4750 
Q 2819 4750 3233 4129 
Q 3647 3509 3647 2328 
Q 3647 1150 3233 529 
Q 2819 -91 2034 -91 
Q 1250 -91 836 529 
Q 422 1150 422 2328 
Q 422 3509 836 4129 
Q 1250 4750 2034 4750 
z
" transform="scale(0.015625)"/>
       </defs>
       <use xlink:href="#DejaVuSans-30"/>
      </g>
     </g>
    </g>
    <g id="xtick_2">
     <g id="line2d_2">
      <g>
       <use xlink:href="#m15cf6a9f5f" x="103.629318" y="273.312" style="stroke: #000000; stroke-width: 0.8"/>
      </g>
     </g>
     <g id="text_2">
      <!-- 5 -->
      <g transform="translate(100.448068 287.910437) scale(0.1 -0.1)">
       <defs>
        <path id="DejaVuSans-35" d="M 691 4666 
L 3169 4666 
L 3169 4134 
L 1269 4134 
L 1269 2991 
Q 1406 3038 1543 3061 
Q 1681 3084 1819 3084 
Q 2600 3084 3056 2656 
Q 3513 2228 3513 1497 
Q 3513 744 3044 326 
Q 2575 -91 1722 -91 
Q 1428 -91 1123 -41 
Q 819 9 494 109 
L 494 744 
Q 775 591 1075 516 
Q 1375 441 1709 441 
Q 2250 441 2565 725 
Q 2881 1009 2881 1497 
Q 2881 1984 2565 2268 
Q 2250 2553 1709 2553 
Q 1456 2553 1204 2497 
Q 953 2441 691 2322 
L 691 4666 
z
" transform="scale(0.015625)"/>
       </defs>
       <use xlink:href="#DejaVuSans-35"/>
      </g>
     </g>
    </g>
    <g id="xtick_3">
     <g id="line2d_3">
      <g>
       <use xlink:href="#m15cf6a9f5f" x="157.738409" y="273.312" style="stroke: #000000; stroke-width: 0.8"/>
      </g>
     </g>
     <g id="text_3">
      <!-- 10 -->
      <g transform="translate(151.375909 287.910437) scale(0.1 -0.1)">
       <defs>
        <path id="DejaVuSans-31" d="M 794 531 
L 1825 531 
L 1825 4091 
L 703 3866 
L 703 4441 
L 1819 4666 
L 2450 4666 
L 2450 531 
L 3481 531 
L 3481 0 
L 794 0 
L 794 531 
z
" transform="scale(0.015625)"/>
       </defs>
       <use xlink:href="#DejaVuSans-31"/>
       <use xlink:href="#DejaVuSans-30" x="63.623047"/>
      </g>
     </g>
    </g>
    <g id="xtick_4">
     <g id="line2d_4">
      <g>
       <use xlink:href="#m15cf6a9f5f" x="211.8475" y="273.312" style="stroke: #000000; stroke-width: 0.8"/>
      </g>
     </g>
     <g id="text_4">
      <!-- 15 -->
      <g transform="translate(205.485 287.910437) scale(0.1 -0.1)">
       <use xlink:href="#DejaVuSans-31"/>
       <use xlink:href="#DejaVuSans-35" x="63.623047"/>
      </g>
     </g>
    </g>
    <g id="xtick_5">
     <g id="line2d_5">
      <g>
       <use xlink:href="#m15cf6a9f5f" x="265.956591" y="273.312" style="stroke: #000000; stroke-width: 0.8"/>
      </g>
     </g>
     <g id="text_5">
      <!-- 20 -->
      <g transform="translate(259.594091 287.910437) scale(0.1 -0.1)">
       <defs>
        <path id="DejaVuSans-32" d="M 1228 531 
L 3431 531 
L 3431 0 
L 469 0 
L 469 531 
Q 828 903 1448 1529 
Q 2069 2156 2228 2338 
Q 2531 2678 2651 2914 
Q 2772 3150 2772 3378 
Q 2772 3750 2511 3984 
Q 2250 4219 1831 4219 
Q 1534 4219 1204 4116 
Q 875 4013 500 3803 
L 500 4441 
Q 881 4594 1212 4672 
Q 1544 4750 1819 4750 
Q 2544 4750 2975 4387 
Q 3406 4025 3406 3419 
Q 3406 3131 3298 2873 
Q 3191 2616 2906 2266 
Q 2828 2175 2409 1742 
Q 1991 1309 1228 531 
z
" transform="scale(0.015625)"/>
       </defs>
       <use xlink:href="#DejaVuSans-32"/>
       <use xlink:href="#DejaVuSans-30" x="63.623047"/>
      </g>
     </g>
    </g>
    <g id="xtick_6">
     <g id="line2d_6">
      <g>
       <use xlink:href="#m15cf6a9f5f" x="320.065682" y="273.312" style="stroke: #000000; stroke-width: 0.8"/>
      </g>
     </g>
     <g id="text_6">
      <!-- 25 -->
      <g transform="translate(313.703182 287.910437) scale(0.1 -0.1)">
       <use xlink:href="#DejaVuSans-32"/>
       <use xlink:href="#DejaVuSans-35" x="63.623047"/>
      </g>
     </g>
    </g>
    <g id="xtick_7">
     <g id="line2d_7">
      <g>
       <use xlink:href="#m15cf6a9f5f" x="374.174773" y="273.312" style="stroke: #000000; stroke-width: 0.8"/>
      </g>
     </g>
     <g id="text_7">
      <!-- 30 -->
      <g transform="translate(367.812273 287.910437) scale(0.1 -0.1)">
       <defs>
        <path id="DejaVuSans-33" d="M 2597 2516 
Q 3050 2419 3304 2112 
Q 3559 1806 3559 1356 
Q 3559 666 3084 287 
Q 2609 -91 1734 -91 
Q 1441 -91 1130 -33 
Q 819 25 488 141 
L 488 750 
Q 750 597 1062 519 
Q 1375 441 1716 441 
Q 2309 441 2620 675 
Q 2931 909 2931 1356 
Q 2931 1769 2642 2001 
Q 2353 2234 1838 2234 
L 1294 2234 
L 1294 2753 
L 1863 2753 
Q 2328 2753 2575 2939 
Q 2822 3125 2822 3475 
Q 2822 3834 2567 4026 
Q 2313 4219 1838 4219 
Q 1578 4219 1281 4162 
Q 984 4106 628 3988 
L 628 4550 
Q 988 4650 1302 4700 
Q 1616 4750 1894 4750 
Q 2613 4750 3031 4423 
Q 3450 4097 3450 3541 
Q 3450 3153 3228 2886 
Q 3006 2619 2597 2516 
z
" transform="scale(0.015625)"/>
       </defs>
       <use xlink:href="#DejaVuSans-33"/>
       <use xlink:href="#DejaVuSans-30" x="63.623047"/>
      </g>
     </g>
    </g>
    <g id="text_8">
     <!-- t -->
     <g transform="translate(209.887344 301.588562) scale(0.1 -0.1)">
      <defs>
       <path id="DejaVuSans-74" d="M 1172 4494 
L 1172 3500 
L 2356 3500 
L 2356 3053 
L 1172 3053 
L 1172 1153 
Q 1172 725 1289 603 
Q 1406 481 1766 481 
L 2356 481 
L 2356 0 
L 1766 0 
Q 1100 0 847 248 
Q 594 497 594 1153 
L 594 3053 
L 172 3053 
L 172 3500 
L 594 3500 
L 594 4494 
L 1172 4494 
z
" transform="scale(0.015625)"/>
      </defs>
      <use xlink:href="#DejaVuSans-74"/>
     </g>
    </g>
   </g>
   <g id="matplotlib.axis_2">
    <g id="ytick_1">
     <g id="line2d_8">
      <defs>
       <path id="m326d1514ee" d="M 0 0 
L -3.5 0 
" style="stroke: #000000; stroke-width: 0.8"/>
      </defs>
      <g>
       <use xlink:href="#m326d1514ee" x="33.2875" y="243.240471" style="stroke: #000000; stroke-width: 0.8"/>
      </g>
     </g>
     <g id="text_9">
      <!-- 50 -->
      <g transform="translate(13.5625 247.03969) scale(0.1 -0.1)">
       <use xlink:href="#DejaVuSans-35"/>
       <use xlink:href="#DejaVuSans-30" x="63.623047"/>
      </g>
     </g>
    </g>
    <g id="ytick_2">
     <g id="line2d_9">
      <g>
       <use xlink:href="#m326d1514ee" x="33.2875" y="197.826337" style="stroke: #000000; stroke-width: 0.8"/>
      </g>
     </g>
     <g id="text_10">
      <!-- 100 -->
      <g transform="translate(7.2 201.625556) scale(0.1 -0.1)">
       <use xlink:href="#DejaVuSans-31"/>
       <use xlink:href="#DejaVuSans-30" x="63.623047"/>
       <use xlink:href="#DejaVuSans-30" x="127.246094"/>
      </g>
     </g>
    </g>
    <g id="ytick_3">
     <g id="line2d_10">
      <g>
       <use xlink:href="#m326d1514ee" x="33.2875" y="152.412203" style="stroke: #000000; stroke-width: 0.8"/>
      </g>
     </g>
     <g id="text_11">
      <!-- 150 -->
      <g transform="translate(7.2 156.211422) scale(0.1 -0.1)">
       <use xlink:href="#DejaVuSans-31"/>
       <use xlink:href="#DejaVuSans-35" x="63.623047"/>
       <use xlink:href="#DejaVuSans-30" x="127.246094"/>
      </g>
     </g>
    </g>
    <g id="ytick_4">
     <g id="line2d_11">
      <g>
       <use xlink:href="#m326d1514ee" x="33.2875" y="106.998069" style="stroke: #000000; stroke-width: 0.8"/>
      </g>
     </g>
     <g id="text_12">
      <!-- 200 -->
      <g transform="translate(7.2 110.797288) scale(0.1 -0.1)">
       <use xlink:href="#DejaVuSans-32"/>
       <use xlink:href="#DejaVuSans-30" x="63.623047"/>
       <use xlink:href="#DejaVuSans-30" x="127.246094"/>
      </g>
     </g>
    </g>
    <g id="ytick_5">
     <g id="line2d_12">
      <g>
       <use xlink:href="#m326d1514ee" x="33.2875" y="61.583936" style="stroke: #000000; stroke-width: 0.8"/>
      </g>
     </g>
     <g id="text_13">
      <!-- 250 -->
      <g transform="translate(7.2 65.383154) scale(0.1 -0.1)">
       <use xlink:href="#DejaVuSans-32"/>
       <use xlink:href="#DejaVuSans-35" x="63.623047"/>
       <use xlink:href="#DejaVuSans-30" x="127.246094"/>
      </g>
     </g>
    </g>
    <g id="ytick_6">
     <g id="line2d_13">
      <g>
       <use xlink:href="#m326d1514ee" x="33.2875" y="16.169802" style="stroke: #000000; stroke-width: 0.8"/>
      </g>
     </g>
     <g id="text_14">
      <!-- 300 -->
      <g transform="translate(7.2 19.96902) scale(0.1 -0.1)">
       <use xlink:href="#DejaVuSans-33"/>
       <use xlink:href="#DejaVuSans-30" x="63.623047"/>
       <use xlink:href="#DejaVuSans-30" x="127.246094"/>
      </g>
     </g>
    </g>
   </g>
   <g id="line2d_14">
    <path d="M 49.520227 225.074817 
L 51.151657 221.499677 
L 52.783087 217.471363 
L 54.414517 212.965919 
L 56.045947 207.957215 
L 57.677377 202.418394 
L 59.308807 196.321872 
L 60.940236 189.63934 
L 62.571666 182.341759 
L 64.203096 174.407722 
L 65.834526 165.860664 
L 67.465956 156.63369 
L 69.097386 146.678329 
L 72.360246 124.614814 
L 75.623105 100.187346 
L 82.148825 49.963915 
L 83.780255 39.066307 
L 85.411685 30.075808 
L 87.043114 23.782459 
L 88.674544 21.025645 
L 90.305974 22.655813 
L 91.937404 29.274984 
L 93.568834 41.027119 
L 95.200264 57.446411 
L 96.831694 77.448642 
L 101.725983 142.640946 
L 103.357413 162.307879 
L 104.988843 179.584706 
L 106.620273 193.756 
L 108.251703 204.950089 
L 109.883133 213.929777 
L 111.514563 221.057886 
L 113.145992 226.644845 
L 114.777422 230.948688 
L 116.408852 234.175284 
L 118.040282 236.505279 
L 119.671712 238.087581 
L 121.303142 239.033273 
L 122.934572 239.428071 
L 124.566002 239.332316 
L 126.197431 238.780982 
L 127.828861 237.789069 
L 129.460291 236.386537 
L 131.091721 234.580815 
L 132.723151 232.370809 
L 134.354581 229.751716 
L 135.986011 226.715022 
L 137.617441 223.248501 
L 139.24887 219.336217 
L 140.8803 214.963354 
L 142.51173 210.104467 
L 144.14316 204.718137 
L 145.77459 198.767484 
L 147.40602 192.220519 
L 149.03745 185.050149 
L 150.66888 177.234174 
L 152.30031 168.755284 
L 153.931739 159.601067 
L 155.563169 149.764001 
L 158.826029 128.035701 
L 162.088889 103.759807 
L 168.614608 52.295047 
L 170.246038 40.8147 
L 171.877468 30.989164 
L 173.508898 23.551627 
L 175.140328 19.339816 
L 176.771758 19.296 
L 178.403188 24.25125 
L 180.034617 34.492605 
L 181.666047 49.755786 
L 183.297477 69.109634 
L 189.823197 156.107982 
L 191.454627 173.770182 
L 193.086056 188.678537 
L 194.717486 200.77592 
L 196.348916 210.270517 
L 197.980346 217.635834 
L 199.611776 223.599492 
L 201.243206 228.390271 
L 202.874636 232.034764 
L 204.506066 234.741806 
L 206.137495 236.668995 
L 207.768925 237.922695 
L 209.400355 238.561217 
L 211.031785 238.664029 
L 212.663215 238.28841 
L 214.294645 237.466785 
L 215.926075 236.222809 
L 217.557505 234.571366 
L 219.188934 232.518572 
L 220.820364 230.063743 
L 222.451794 227.202843 
L 224.083224 223.916971 
L 225.714654 220.184786 
L 227.346084 215.983899 
L 228.977514 211.290878 
L 230.608944 206.081243 
L 232.240373 200.32947 
L 233.871803 194.008989 
L 235.503233 187.092184 
L 237.134663 179.550393 
L 238.766093 171.378307 
L 240.397523 162.571749 
L 242.028953 153.060639 
L 243.660383 142.814882 
L 246.923242 120.219535 
L 250.186102 95.426927 
L 255.080392 57.258172 
L 256.711822 45.467066 
L 258.343251 35.127092 
L 259.974681 27.009586 
L 261.606111 21.912756 
L 263.237541 20.661677 
L 264.868971 24.104546 
L 266.500401 32.736847 
L 268.131831 46.313719 
L 269.763261 64.125466 
L 271.39469 85.020353 
L 274.65755 129.421969 
L 276.28898 149.920196 
L 277.92041 168.216085 
L 279.55184 183.914981 
L 281.18327 196.913453 
L 282.8147 207.397962 
L 284.44613 215.759171 
L 286.077559 222.3737 
L 287.708989 227.551474 
L 289.340419 231.536004 
L 290.971849 234.504387 
L 292.603279 236.606268 
L 294.234709 237.994897 
L 295.866139 238.769273 
L 297.497569 239.006676 
L 299.128998 238.762954 
L 300.760428 238.07253 
L 302.391858 236.951303 
L 304.023288 235.422316 
L 305.654718 233.490214 
L 307.286148 231.151547 
L 308.917578 228.399524 
L 310.549008 225.224014 
L 312.180437 221.611542 
L 313.811867 217.545294 
L 315.443297 213.0099 
L 317.074727 208.000842 
L 318.706157 202.465569 
L 320.337587 196.352962 
L 321.969017 189.622149 
L 323.600447 182.242506 
L 325.231876 174.193652 
L 326.863306 165.465455 
L 328.494736 156.05803 
L 331.757596 135.257181 
L 335.020456 111.996945 
L 338.283315 86.354807 
L 341.546175 59.144794 
L 343.177605 46.798761 
L 344.809035 36.27206 
L 346.440465 28.200453 
L 348.071895 23.140301 
L 349.703325 21.568566 
L 351.334754 23.882808 
L 352.966184 30.401189 
L 354.597614 41.362468 
L 356.229044 56.926006 
L 357.860474 76.901314 
L 362.754764 142.809254 
L 364.386193 161.980708 
L 366.017623 178.539387 
L 367.649053 192.402793 
L 369.280483 203.74963 
L 370.911913 212.887136 
L 372.543343 220.133544 
L 374.174773 225.801627 
L 374.174773 225.801627 
" clip-path="url(#p27c778b100)" style="fill: none; stroke: #1f77b4; stroke-width: 1.5; stroke-linecap: square"/>
   </g>
   <g id="line2d_15">
    <path d="M 49.520227 243.240471 
L 51.151657 246.515589 
L 52.783087 249.380536 
L 54.414517 251.868637 
L 56.045947 254.008925 
L 57.677377 255.825222 
L 59.308807 257.336133 
L 60.940236 258.55505 
L 62.571666 259.490149 
L 64.203096 260.139932 
L 65.834526 260.473703 
L 67.465956 260.506246 
L 69.097386 260.241405 
L 70.728816 259.657825 
L 72.360246 258.708958 
L 73.991675 257.32306 
L 75.623105 255.403193 
L 77.254535 252.827223 
L 78.885965 249.447821 
L 80.517395 245.092462 
L 82.148825 239.569253 
L 83.780255 232.597974 
L 85.411685 223.844611 
L 87.043114 213.046942 
L 88.674544 200.018291 
L 90.305974 184.655298 
L 91.937404 167.200986 
L 96.831694 111.341955 
L 98.463124 96.263055 
L 100.094553 85.335775 
L 101.725983 78.759798 
L 103.357413 76.574518 
L 104.988843 78.715107 
L 106.620273 85.011706 
L 108.251703 94.424028 
L 109.883133 105.563666 
L 118.040282 165.836604 
L 119.671712 176.537962 
L 121.303142 186.46038 
L 122.934572 195.570441 
L 124.566002 203.868772 
L 126.197431 211.390044 
L 127.828861 218.194788 
L 129.460291 224.311705 
L 131.091721 229.789027 
L 132.723151 234.677938 
L 134.354581 239.025733 
L 135.986011 242.875821 
L 137.617441 246.26772 
L 139.24887 249.23706 
L 140.8803 251.813594 
L 142.51173 254.027926 
L 144.14316 255.91319 
L 145.77459 257.495042 
L 147.40602 258.791494 
L 149.03745 259.812913 
L 150.66888 260.562024 
L 152.30031 261.033907 
L 153.931739 261.216 
L 155.563169 261.088095 
L 157.194599 260.622342 
L 158.826029 259.783247 
L 160.457459 258.532416 
L 162.088889 256.800222 
L 163.720319 254.448049 
L 165.351749 251.315883 
L 166.983178 247.225036 
L 168.614608 241.978157 
L 170.246038 235.35922 
L 171.877468 227.133536 
L 173.508898 217.047744 
L 175.140328 204.829814 
L 176.771758 190.189049 
L 178.403188 173.116646 
L 183.297477 115.789464 
L 184.928907 99.182344 
L 186.560337 86.322916 
L 188.191767 78.133359 
L 189.823197 74.974434 
L 191.454627 76.474192 
L 193.086056 81.897576 
L 194.717486 90.452463 
L 196.348916 101.261891 
L 204.506066 161.476624 
L 206.137495 172.321641 
L 207.768925 182.416833 
L 209.400355 191.761234 
L 211.031785 200.332348 
L 212.663215 208.13457 
L 214.294645 215.200279 
L 215.926075 221.566814 
L 217.557505 227.276477 
L 219.188934 232.376534 
L 220.820364 236.91565 
L 222.451794 240.932653 
L 224.083224 244.476906 
L 225.714654 247.593445 
L 227.346084 250.320879 
L 228.977514 252.691386 
L 230.608944 254.730721 
L 232.240373 256.458209 
L 233.871803 257.886746 
L 235.503233 259.022804 
L 237.134663 259.866424 
L 238.766093 260.404032 
L 240.397523 260.629053 
L 242.028953 260.558004 
L 243.660383 260.184225 
L 245.291812 259.47632 
L 246.923242 258.378155 
L 248.554672 256.808858 
L 250.186102 254.662819 
L 251.817532 251.809693 
L 253.448962 248.094396 
L 255.080392 243.340682 
L 256.711822 237.34882 
L 258.343251 229.756326 
L 259.974681 220.244987 
L 261.606111 208.591863 
L 263.237541 194.669291 
L 264.868971 178.415496 
L 268.131831 141.010719 
L 269.763261 122.266664 
L 271.39469 105.249228 
L 273.02612 91.355056 
L 274.65755 81.92498 
L 276.28898 77.32554 
L 277.92041 77.28159 
L 279.55184 81.302842 
L 281.18327 88.686785 
L 282.8147 98.521585 
L 286.077559 121.968495 
L 290.971849 158.141596 
L 294.234709 179.668017 
L 295.866139 189.291724 
L 297.497569 198.116353 
L 299.128998 206.147132 
L 300.760428 213.417013 
L 302.391858 219.982164 
L 304.023288 225.877785 
L 305.654718 231.152201 
L 307.286148 235.856186 
L 308.917578 240.03622 
L 310.549008 243.734486 
L 312.180437 246.988871 
L 313.811867 249.832965 
L 315.443297 252.293875 
L 317.074727 254.389243 
L 318.706157 256.155421 
L 320.337587 257.623122 
L 321.969017 258.81323 
L 323.600447 259.736799 
L 325.231876 260.395054 
L 326.863306 260.779387 
L 328.494736 260.871363 
L 330.126166 260.642713 
L 331.757596 260.055342 
L 333.389026 259.061321 
L 335.020456 257.602893 
L 336.651886 255.61247 
L 338.283315 253.244776 
L 339.914745 250.359143 
L 341.546175 246.357742 
L 343.177605 240.776609 
L 344.809035 233.28834 
L 346.440465 223.702093 
L 348.071895 211.963588 
L 349.703325 198.155107 
L 351.334754 182.495494 
L 354.597614 147.181057 
L 357.860474 110.671606 
L 359.491904 95.362755 
L 361.123334 84.131387 
L 362.754764 77.710706 
L 364.386193 76.15979 
L 366.017623 78.998227 
L 367.649053 85.429633 
L 369.280483 94.524553 
L 370.911913 105.395357 
L 374.174773 129.605606 
L 374.174773 129.605606 
" clip-path="url(#p27c778b100)" style="fill: none; stroke: #008000; stroke-width: 1.5; stroke-linecap: square"/>
    <defs>
     <path id="m028583c14b" d="M 0 3 
C 0.795609 3 1.55874 2.683901 2.12132 2.12132 
C 2.683901 1.55874 3 0.795609 3 0 
C 3 -0.795609 2.683901 -1.55874 2.12132 -2.12132 
C 1.55874 -2.683901 0.795609 -3 0 -3 
C -0.795609 -3 -1.55874 -2.683901 -2.12132 -2.12132 
C -2.683901 -1.55874 -3 -0.795609 -3 0 
C -3 0.795609 -2.683901 1.55874 -2.12132 2.12132 
C -1.55874 2.683901 -0.795609 3 0 3 
z
" style="stroke: #008000"/>
    </defs>
    <g clip-path="url(#p27c778b100)">
     <use xlink:href="#m028583c14b" x="49.520227" y="243.240471" style="fill: #008000; stroke: #008000"/>
     <use xlink:href="#m028583c14b" x="51.151657" y="246.515589" style="fill: #008000; stroke: #008000"/>
     <use xlink:href="#m028583c14b" x="52.783087" y="249.380536" style="fill: #008000; stroke: #008000"/>
     <use xlink:href="#m028583c14b" x="54.414517" y="251.868637" style="fill: #008000; stroke: #008000"/>
     <use xlink:href="#m028583c14b" x="56.045947" y="254.008925" style="fill: #008000; stroke: #008000"/>
     <use xlink:href="#m028583c14b" x="57.677377" y="255.825222" style="fill: #008000; stroke: #008000"/>
     <use xlink:href="#m028583c14b" x="59.308807" y="257.336133" style="fill: #008000; stroke: #008000"/>
     <use xlink:href="#m028583c14b" x="60.940236" y="258.55505" style="fill: #008000; stroke: #008000"/>
     <use xlink:href="#m028583c14b" x="62.571666" y="259.490149" style="fill: #008000; stroke: #008000"/>
     <use xlink:href="#m028583c14b" x="64.203096" y="260.139932" style="fill: #008000; stroke: #008000"/>
     <use xlink:href="#m028583c14b" x="65.834526" y="260.473703" style="fill: #008000; stroke: #008000"/>
     <use xlink:href="#m028583c14b" x="67.465956" y="260.506246" style="fill: #008000; stroke: #008000"/>
     <use xlink:href="#m028583c14b" x="69.097386" y="260.241405" style="fill: #008000; stroke: #008000"/>
     <use xlink:href="#m028583c14b" x="70.728816" y="259.657825" style="fill: #008000; stroke: #008000"/>
     <use xlink:href="#m028583c14b" x="72.360246" y="258.708958" style="fill: #008000; stroke: #008000"/>
     <use xlink:href="#m028583c14b" x="73.991675" y="257.32306" style="fill: #008000; stroke: #008000"/>
     <use xlink:href="#m028583c14b" x="75.623105" y="255.403193" style="fill: #008000; stroke: #008000"/>
     <use xlink:href="#m028583c14b" x="77.254535" y="252.827223" style="fill: #008000; stroke: #008000"/>
     <use xlink:href="#m028583c14b" x="78.885965" y="249.447821" style="fill: #008000; stroke: #008000"/>
     <use xlink:href="#m028583c14b" x="80.517395" y="245.092462" style="fill: #008000; stroke: #008000"/>
     <use xlink:href="#m028583c14b" x="82.148825" y="239.569253" style="fill: #008000; stroke: #008000"/>
     <use xlink:href="#m028583c14b" x="83.780255" y="232.597974" style="fill: #008000; stroke: #008000"/>
     <use xlink:href="#m028583c14b" x="85.411685" y="223.844611" style="fill: #008000; stroke: #008000"/>
     <use xlink:href="#m028583c14b" x="87.043114" y="213.046942" style="fill: #008000; stroke: #008000"/>
     <use xlink:href="#m028583c14b" x="88.674544" y="200.018291" style="fill: #008000; stroke: #008000"/>
     <use xlink:href="#m028583c14b" x="90.305974" y="184.655298" style="fill: #008000; stroke: #008000"/>
     <use xlink:href="#m028583c14b" x="91.937404" y="167.200986" style="fill: #008000; stroke: #008000"/>
     <use xlink:href="#m028583c14b" x="93.568834" y="148.391544" style="fill: #008000; stroke: #008000"/>
     <use xlink:href="#m028583c14b" x="95.200264" y="129.30243" style="fill: #008000; stroke: #008000"/>
     <use xlink:href="#m028583c14b" x="96.831694" y="111.341955" style="fill: #008000; stroke: #008000"/>
     <use xlink:href="#m028583c14b" x="98.463124" y="96.263055" style="fill: #008000; stroke: #008000"/>
     <use xlink:href="#m028583c14b" x="100.094553" y="85.335775" style="fill: #008000; stroke: #008000"/>
     <use xlink:href="#m028583c14b" x="101.725983" y="78.759798" style="fill: #008000; stroke: #008000"/>
     <use xlink:href="#m028583c14b" x="103.357413" y="76.574518" style="fill: #008000; stroke: #008000"/>
     <use xlink:href="#m028583c14b" x="104.988843" y="78.715107" style="fill: #008000; stroke: #008000"/>
     <use xlink:href="#m028583c14b" x="106.620273" y="85.011706" style="fill: #008000; stroke: #008000"/>
     <use xlink:href="#m028583c14b" x="108.251703" y="94.424028" style="fill: #008000; stroke: #008000"/>
     <use xlink:href="#m028583c14b" x="109.883133" y="105.563666" style="fill: #008000; stroke: #008000"/>
     <use xlink:href="#m028583c14b" x="111.514563" y="117.656395" style="fill: #008000; stroke: #008000"/>
     <use xlink:href="#m028583c14b" x="113.145992" y="130.09557" style="fill: #008000; stroke: #008000"/>
     <use xlink:href="#m028583c14b" x="114.777422" y="142.44212" style="fill: #008000; stroke: #008000"/>
     <use xlink:href="#m028583c14b" x="116.408852" y="154.423761" style="fill: #008000; stroke: #008000"/>
     <use xlink:href="#m028583c14b" x="118.040282" y="165.836604" style="fill: #008000; stroke: #008000"/>
     <use xlink:href="#m028583c14b" x="119.671712" y="176.537962" style="fill: #008000; stroke: #008000"/>
     <use xlink:href="#m028583c14b" x="121.303142" y="186.46038" style="fill: #008000; stroke: #008000"/>
     <use xlink:href="#m028583c14b" x="122.934572" y="195.570441" style="fill: #008000; stroke: #008000"/>
     <use xlink:href="#m028583c14b" x="124.566002" y="203.868772" style="fill: #008000; stroke: #008000"/>
     <use xlink:href="#m028583c14b" x="126.197431" y="211.390044" style="fill: #008000; stroke: #008000"/>
     <use xlink:href="#m028583c14b" x="127.828861" y="218.194788" style="fill: #008000; stroke: #008000"/>
     <use xlink:href="#m028583c14b" x="129.460291" y="224.311705" style="fill: #008000; stroke: #008000"/>
     <use xlink:href="#m028583c14b" x="131.091721" y="229.789027" style="fill: #008000; stroke: #008000"/>
     <use xlink:href="#m028583c14b" x="132.723151" y="234.677938" style="fill: #008000; stroke: #008000"/>
     <use xlink:href="#m028583c14b" x="134.354581" y="239.025733" style="fill: #008000; stroke: #008000"/>
     <use xlink:href="#m028583c14b" x="135.986011" y="242.875821" style="fill: #008000; stroke: #008000"/>
     <use xlink:href="#m028583c14b" x="137.617441" y="246.26772" style="fill: #008000; stroke: #008000"/>
     <use xlink:href="#m028583c14b" x="139.24887" y="249.23706" style="fill: #008000; stroke: #008000"/>
     <use xlink:href="#m028583c14b" x="140.8803" y="251.813594" style="fill: #008000; stroke: #008000"/>
     <use xlink:href="#m028583c14b" x="142.51173" y="254.027926" style="fill: #008000; stroke: #008000"/>
     <use xlink:href="#m028583c14b" x="144.14316" y="255.91319" style="fill: #008000; stroke: #008000"/>
     <use xlink:href="#m028583c14b" x="145.77459" y="257.495042" style="fill: #008000; stroke: #008000"/>
     <use xlink:href="#m028583c14b" x="147.40602" y="258.791494" style="fill: #008000; stroke: #008000"/>
     <use xlink:href="#m028583c14b" x="149.03745" y="259.812913" style="fill: #008000; stroke: #008000"/>
     <use xlink:href="#m028583c14b" x="150.66888" y="260.562024" style="fill: #008000; stroke: #008000"/>
     <use xlink:href="#m028583c14b" x="152.30031" y="261.033907" style="fill: #008000; stroke: #008000"/>
     <use xlink:href="#m028583c14b" x="153.931739" y="261.216" style="fill: #008000; stroke: #008000"/>
     <use xlink:href="#m028583c14b" x="155.563169" y="261.088095" style="fill: #008000; stroke: #008000"/>
     <use xlink:href="#m028583c14b" x="157.194599" y="260.622342" style="fill: #008000; stroke: #008000"/>
     <use xlink:href="#m028583c14b" x="158.826029" y="259.783247" style="fill: #008000; stroke: #008000"/>
     <use xlink:href="#m028583c14b" x="160.457459" y="258.532416" style="fill: #008000; stroke: #008000"/>
     <use xlink:href="#m028583c14b" x="162.088889" y="256.800222" style="fill: #008000; stroke: #008000"/>
     <use xlink:href="#m028583c14b" x="163.720319" y="254.448049" style="fill: #008000; stroke: #008000"/>
     <use xlink:href="#m028583c14b" x="165.351749" y="251.315883" style="fill: #008000; stroke: #008000"/>
     <use xlink:href="#m028583c14b" x="166.983178" y="247.225036" style="fill: #008000; stroke: #008000"/>
     <use xlink:href="#m028583c14b" x="168.614608" y="241.978157" style="fill: #008000; stroke: #008000"/>
     <use xlink:href="#m028583c14b" x="170.246038" y="235.35922" style="fill: #008000; stroke: #008000"/>
     <use xlink:href="#m028583c14b" x="171.877468" y="227.133536" style="fill: #008000; stroke: #008000"/>
     <use xlink:href="#m028583c14b" x="173.508898" y="217.047744" style="fill: #008000; stroke: #008000"/>
     <use xlink:href="#m028583c14b" x="175.140328" y="204.829814" style="fill: #008000; stroke: #008000"/>
     <use xlink:href="#m028583c14b" x="176.771758" y="190.189049" style="fill: #008000; stroke: #008000"/>
     <use xlink:href="#m028583c14b" x="178.403188" y="173.116646" style="fill: #008000; stroke: #008000"/>
     <use xlink:href="#m028583c14b" x="180.034617" y="154.293019" style="fill: #008000; stroke: #008000"/>
     <use xlink:href="#m028583c14b" x="181.666047" y="134.714204" style="fill: #008000; stroke: #008000"/>
     <use xlink:href="#m028583c14b" x="183.297477" y="115.789464" style="fill: #008000; stroke: #008000"/>
     <use xlink:href="#m028583c14b" x="184.928907" y="99.182344" style="fill: #008000; stroke: #008000"/>
     <use xlink:href="#m028583c14b" x="186.560337" y="86.322916" style="fill: #008000; stroke: #008000"/>
     <use xlink:href="#m028583c14b" x="188.191767" y="78.133359" style="fill: #008000; stroke: #008000"/>
     <use xlink:href="#m028583c14b" x="189.823197" y="74.974434" style="fill: #008000; stroke: #008000"/>
     <use xlink:href="#m028583c14b" x="191.454627" y="76.474192" style="fill: #008000; stroke: #008000"/>
     <use xlink:href="#m028583c14b" x="193.086056" y="81.897576" style="fill: #008000; stroke: #008000"/>
     <use xlink:href="#m028583c14b" x="194.717486" y="90.452463" style="fill: #008000; stroke: #008000"/>
     <use xlink:href="#m028583c14b" x="196.348916" y="101.261891" style="fill: #008000; stroke: #008000"/>
     <use xlink:href="#m028583c14b" x="197.980346" y="113.36406" style="fill: #008000; stroke: #008000"/>
     <use xlink:href="#m028583c14b" x="199.611776" y="125.723494" style="fill: #008000; stroke: #008000"/>
     <use xlink:href="#m028583c14b" x="201.243206" y="137.961635" style="fill: #008000; stroke: #008000"/>
     <use xlink:href="#m028583c14b" x="202.874636" y="149.965955" style="fill: #008000; stroke: #008000"/>
     <use xlink:href="#m028583c14b" x="204.506066" y="161.476624" style="fill: #008000; stroke: #008000"/>
     <use xlink:href="#m028583c14b" x="206.137495" y="172.321641" style="fill: #008000; stroke: #008000"/>
     <use xlink:href="#m028583c14b" x="207.768925" y="182.416833" style="fill: #008000; stroke: #008000"/>
     <use xlink:href="#m028583c14b" x="209.400355" y="191.761234" style="fill: #008000; stroke: #008000"/>
     <use xlink:href="#m028583c14b" x="211.031785" y="200.332348" style="fill: #008000; stroke: #008000"/>
     <use xlink:href="#m028583c14b" x="212.663215" y="208.13457" style="fill: #008000; stroke: #008000"/>
     <use xlink:href="#m028583c14b" x="214.294645" y="215.200279" style="fill: #008000; stroke: #008000"/>
     <use xlink:href="#m028583c14b" x="215.926075" y="221.566814" style="fill: #008000; stroke: #008000"/>
     <use xlink:href="#m028583c14b" x="217.557505" y="227.276477" style="fill: #008000; stroke: #008000"/>
     <use xlink:href="#m028583c14b" x="219.188934" y="232.376534" style="fill: #008000; stroke: #008000"/>
     <use xlink:href="#m028583c14b" x="220.820364" y="236.91565" style="fill: #008000; stroke: #008000"/>
     <use xlink:href="#m028583c14b" x="222.451794" y="240.932653" style="fill: #008000; stroke: #008000"/>
     <use xlink:href="#m028583c14b" x="224.083224" y="244.476906" style="fill: #008000; stroke: #008000"/>
     <use xlink:href="#m028583c14b" x="225.714654" y="247.593445" style="fill: #008000; stroke: #008000"/>
     <use xlink:href="#m028583c14b" x="227.346084" y="250.320879" style="fill: #008000; stroke: #008000"/>
     <use xlink:href="#m028583c14b" x="228.977514" y="252.691386" style="fill: #008000; stroke: #008000"/>
     <use xlink:href="#m028583c14b" x="230.608944" y="254.730721" style="fill: #008000; stroke: #008000"/>
     <use xlink:href="#m028583c14b" x="232.240373" y="256.458209" style="fill: #008000; stroke: #008000"/>
     <use xlink:href="#m028583c14b" x="233.871803" y="257.886746" style="fill: #008000; stroke: #008000"/>
     <use xlink:href="#m028583c14b" x="235.503233" y="259.022804" style="fill: #008000; stroke: #008000"/>
     <use xlink:href="#m028583c14b" x="237.134663" y="259.866424" style="fill: #008000; stroke: #008000"/>
     <use xlink:href="#m028583c14b" x="238.766093" y="260.404032" style="fill: #008000; stroke: #008000"/>
     <use xlink:href="#m028583c14b" x="240.397523" y="260.629053" style="fill: #008000; stroke: #008000"/>
     <use xlink:href="#m028583c14b" x="242.028953" y="260.558004" style="fill: #008000; stroke: #008000"/>
     <use xlink:href="#m028583c14b" x="243.660383" y="260.184225" style="fill: #008000; stroke: #008000"/>
     <use xlink:href="#m028583c14b" x="245.291812" y="259.47632" style="fill: #008000; stroke: #008000"/>
     <use xlink:href="#m028583c14b" x="246.923242" y="258.378155" style="fill: #008000; stroke: #008000"/>
     <use xlink:href="#m028583c14b" x="248.554672" y="256.808858" style="fill: #008000; stroke: #008000"/>
     <use xlink:href="#m028583c14b" x="250.186102" y="254.662819" style="fill: #008000; stroke: #008000"/>
     <use xlink:href="#m028583c14b" x="251.817532" y="251.809693" style="fill: #008000; stroke: #008000"/>
     <use xlink:href="#m028583c14b" x="253.448962" y="248.094396" style="fill: #008000; stroke: #008000"/>
     <use xlink:href="#m028583c14b" x="255.080392" y="243.340682" style="fill: #008000; stroke: #008000"/>
     <use xlink:href="#m028583c14b" x="256.711822" y="237.34882" style="fill: #008000; stroke: #008000"/>
     <use xlink:href="#m028583c14b" x="258.343251" y="229.756326" style="fill: #008000; stroke: #008000"/>
     <use xlink:href="#m028583c14b" x="259.974681" y="220.244987" style="fill: #008000; stroke: #008000"/>
     <use xlink:href="#m028583c14b" x="261.606111" y="208.591863" style="fill: #008000; stroke: #008000"/>
     <use xlink:href="#m028583c14b" x="263.237541" y="194.669291" style="fill: #008000; stroke: #008000"/>
     <use xlink:href="#m028583c14b" x="264.868971" y="178.415496" style="fill: #008000; stroke: #008000"/>
     <use xlink:href="#m028583c14b" x="266.500401" y="160.149425" style="fill: #008000; stroke: #008000"/>
     <use xlink:href="#m028583c14b" x="268.131831" y="141.010719" style="fill: #008000; stroke: #008000"/>
     <use xlink:href="#m028583c14b" x="269.763261" y="122.266664" style="fill: #008000; stroke: #008000"/>
     <use xlink:href="#m028583c14b" x="271.39469" y="105.249228" style="fill: #008000; stroke: #008000"/>
     <use xlink:href="#m028583c14b" x="273.02612" y="91.355056" style="fill: #008000; stroke: #008000"/>
     <use xlink:href="#m028583c14b" x="274.65755" y="81.92498" style="fill: #008000; stroke: #008000"/>
     <use xlink:href="#m028583c14b" x="276.28898" y="77.32554" style="fill: #008000; stroke: #008000"/>
     <use xlink:href="#m028583c14b" x="277.92041" y="77.28159" style="fill: #008000; stroke: #008000"/>
     <use xlink:href="#m028583c14b" x="279.55184" y="81.302842" style="fill: #008000; stroke: #008000"/>
     <use xlink:href="#m028583c14b" x="281.18327" y="88.686785" style="fill: #008000; stroke: #008000"/>
     <use xlink:href="#m028583c14b" x="282.8147" y="98.521585" style="fill: #008000; stroke: #008000"/>
     <use xlink:href="#m028583c14b" x="284.44613" y="109.857911" style="fill: #008000; stroke: #008000"/>
     <use xlink:href="#m028583c14b" x="286.077559" y="121.968495" style="fill: #008000; stroke: #008000"/>
     <use xlink:href="#m028583c14b" x="287.708989" y="134.293463" style="fill: #008000; stroke: #008000"/>
     <use xlink:href="#m028583c14b" x="289.340419" y="146.431849" style="fill: #008000; stroke: #008000"/>
     <use xlink:href="#m028583c14b" x="290.971849" y="158.141596" style="fill: #008000; stroke: #008000"/>
     <use xlink:href="#m028583c14b" x="292.603279" y="169.267725" style="fill: #008000; stroke: #008000"/>
     <use xlink:href="#m028583c14b" x="294.234709" y="179.668017" style="fill: #008000; stroke: #008000"/>
     <use xlink:href="#m028583c14b" x="295.866139" y="189.291724" style="fill: #008000; stroke: #008000"/>
     <use xlink:href="#m028583c14b" x="297.497569" y="198.116353" style="fill: #008000; stroke: #008000"/>
     <use xlink:href="#m028583c14b" x="299.128998" y="206.147132" style="fill: #008000; stroke: #008000"/>
     <use xlink:href="#m028583c14b" x="300.760428" y="213.417013" style="fill: #008000; stroke: #008000"/>
     <use xlink:href="#m028583c14b" x="302.391858" y="219.982164" style="fill: #008000; stroke: #008000"/>
     <use xlink:href="#m028583c14b" x="304.023288" y="225.877785" style="fill: #008000; stroke: #008000"/>
     <use xlink:href="#m028583c14b" x="305.654718" y="231.152201" style="fill: #008000; stroke: #008000"/>
     <use xlink:href="#m028583c14b" x="307.286148" y="235.856186" style="fill: #008000; stroke: #008000"/>
     <use xlink:href="#m028583c14b" x="308.917578" y="240.03622" style="fill: #008000; stroke: #008000"/>
     <use xlink:href="#m028583c14b" x="310.549008" y="243.734486" style="fill: #008000; stroke: #008000"/>
     <use xlink:href="#m028583c14b" x="312.180437" y="246.988871" style="fill: #008000; stroke: #008000"/>
     <use xlink:href="#m028583c14b" x="313.811867" y="249.832965" style="fill: #008000; stroke: #008000"/>
     <use xlink:href="#m028583c14b" x="315.443297" y="252.293875" style="fill: #008000; stroke: #008000"/>
     <use xlink:href="#m028583c14b" x="317.074727" y="254.389243" style="fill: #008000; stroke: #008000"/>
     <use xlink:href="#m028583c14b" x="318.706157" y="256.155421" style="fill: #008000; stroke: #008000"/>
     <use xlink:href="#m028583c14b" x="320.337587" y="257.623122" style="fill: #008000; stroke: #008000"/>
     <use xlink:href="#m028583c14b" x="321.969017" y="258.81323" style="fill: #008000; stroke: #008000"/>
     <use xlink:href="#m028583c14b" x="323.600447" y="259.736799" style="fill: #008000; stroke: #008000"/>
     <use xlink:href="#m028583c14b" x="325.231876" y="260.395054" style="fill: #008000; stroke: #008000"/>
     <use xlink:href="#m028583c14b" x="326.863306" y="260.779387" style="fill: #008000; stroke: #008000"/>
     <use xlink:href="#m028583c14b" x="328.494736" y="260.871363" style="fill: #008000; stroke: #008000"/>
     <use xlink:href="#m028583c14b" x="330.126166" y="260.642713" style="fill: #008000; stroke: #008000"/>
     <use xlink:href="#m028583c14b" x="331.757596" y="260.055342" style="fill: #008000; stroke: #008000"/>
     <use xlink:href="#m028583c14b" x="333.389026" y="259.061321" style="fill: #008000; stroke: #008000"/>
     <use xlink:href="#m028583c14b" x="335.020456" y="257.602893" style="fill: #008000; stroke: #008000"/>
     <use xlink:href="#m028583c14b" x="336.651886" y="255.61247" style="fill: #008000; stroke: #008000"/>
     <use xlink:href="#m028583c14b" x="338.283315" y="253.244776" style="fill: #008000; stroke: #008000"/>
     <use xlink:href="#m028583c14b" x="339.914745" y="250.359143" style="fill: #008000; stroke: #008000"/>
     <use xlink:href="#m028583c14b" x="341.546175" y="246.357742" style="fill: #008000; stroke: #008000"/>
     <use xlink:href="#m028583c14b" x="343.177605" y="240.776609" style="fill: #008000; stroke: #008000"/>
     <use xlink:href="#m028583c14b" x="344.809035" y="233.28834" style="fill: #008000; stroke: #008000"/>
     <use xlink:href="#m028583c14b" x="346.440465" y="223.702093" style="fill: #008000; stroke: #008000"/>
     <use xlink:href="#m028583c14b" x="348.071895" y="211.963588" style="fill: #008000; stroke: #008000"/>
     <use xlink:href="#m028583c14b" x="349.703325" y="198.155107" style="fill: #008000; stroke: #008000"/>
     <use xlink:href="#m028583c14b" x="351.334754" y="182.495494" style="fill: #008000; stroke: #008000"/>
     <use xlink:href="#m028583c14b" x="352.966184" y="165.340155" style="fill: #008000; stroke: #008000"/>
     <use xlink:href="#m028583c14b" x="354.597614" y="147.181057" style="fill: #008000; stroke: #008000"/>
     <use xlink:href="#m028583c14b" x="356.229044" y="128.646729" style="fill: #008000; stroke: #008000"/>
     <use xlink:href="#m028583c14b" x="357.860474" y="110.671606" style="fill: #008000; stroke: #008000"/>
     <use xlink:href="#m028583c14b" x="359.491904" y="95.362755" style="fill: #008000; stroke: #008000"/>
     <use xlink:href="#m028583c14b" x="361.123334" y="84.131387" style="fill: #008000; stroke: #008000"/>
     <use xlink:href="#m028583c14b" x="362.754764" y="77.710706" style="fill: #008000; stroke: #008000"/>
     <use xlink:href="#m028583c14b" x="364.386193" y="76.15979" style="fill: #008000; stroke: #008000"/>
     <use xlink:href="#m028583c14b" x="366.017623" y="78.998227" style="fill: #008000; stroke: #008000"/>
     <use xlink:href="#m028583c14b" x="367.649053" y="85.429633" style="fill: #008000; stroke: #008000"/>
     <use xlink:href="#m028583c14b" x="369.280483" y="94.524553" style="fill: #008000; stroke: #008000"/>
     <use xlink:href="#m028583c14b" x="370.911913" y="105.395357" style="fill: #008000; stroke: #008000"/>
     <use xlink:href="#m028583c14b" x="372.543343" y="117.289931" style="fill: #008000; stroke: #008000"/>
     <use xlink:href="#m028583c14b" x="374.174773" y="129.605606" style="fill: #008000; stroke: #008000"/>
    </g>
   </g>
   <g id="patch_3">
    <path d="M 33.2875 273.312 
L 33.2875 7.2 
" style="fill: none; stroke: #000000; stroke-width: 0.8; stroke-linejoin: miter; stroke-linecap: square"/>
   </g>
   <g id="patch_4">
    <path d="M 390.4075 273.312 
L 390.4075 7.2 
" style="fill: none; stroke: #000000; stroke-width: 0.8; stroke-linejoin: miter; stroke-linecap: square"/>
   </g>
   <g id="patch_5">
    <path d="M 33.2875 273.312 
L 390.4075 273.312 
" style="fill: none; stroke: #000000; stroke-width: 0.8; stroke-linejoin: miter; stroke-linecap: square"/>
   </g>
   <g id="patch_6">
    <path d="M 33.2875 7.2 
L 390.4075 7.2 
" style="fill: none; stroke: #000000; stroke-width: 0.8; stroke-linejoin: miter; stroke-linecap: square"/>
   </g>
   <g id="legend_1">
    <g id="patch_7">
     <path d="M 178.425625 44.55625 
L 245.269375 44.55625 
Q 247.269375 44.55625 247.269375 42.55625 
L 247.269375 14.2 
Q 247.269375 12.2 245.269375 12.2 
L 178.425625 12.2 
Q 176.425625 12.2 176.425625 14.2 
L 176.425625 42.55625 
Q 176.425625 44.55625 178.425625 44.55625 
z
" style="fill: #ffffff; opacity: 0.8; stroke: #cccccc; stroke-linejoin: miter"/>
    </g>
    <g id="line2d_16">
     <path d="M 180.425625 20.298437 
L 190.425625 20.298437 
L 200.425625 20.298437 
" style="fill: none; stroke: #1f77b4; stroke-width: 1.5; stroke-linecap: square"/>
    </g>
    <g id="text_15">
     <!-- rabbits -->
     <g transform="translate(208.425625 23.798437) scale(0.1 -0.1)">
      <defs>
       <path id="DejaVuSans-72" d="M 2631 2963 
Q 2534 3019 2420 3045 
Q 2306 3072 2169 3072 
Q 1681 3072 1420 2755 
Q 1159 2438 1159 1844 
L 1159 0 
L 581 0 
L 581 3500 
L 1159 3500 
L 1159 2956 
Q 1341 3275 1631 3429 
Q 1922 3584 2338 3584 
Q 2397 3584 2469 3576 
Q 2541 3569 2628 3553 
L 2631 2963 
z
" transform="scale(0.015625)"/>
       <path id="DejaVuSans-61" d="M 2194 1759 
Q 1497 1759 1228 1600 
Q 959 1441 959 1056 
Q 959 750 1161 570 
Q 1363 391 1709 391 
Q 2188 391 2477 730 
Q 2766 1069 2766 1631 
L 2766 1759 
L 2194 1759 
z
M 3341 1997 
L 3341 0 
L 2766 0 
L 2766 531 
Q 2569 213 2275 61 
Q 1981 -91 1556 -91 
Q 1019 -91 701 211 
Q 384 513 384 1019 
Q 384 1609 779 1909 
Q 1175 2209 1959 2209 
L 2766 2209 
L 2766 2266 
Q 2766 2663 2505 2880 
Q 2244 3097 1772 3097 
Q 1472 3097 1187 3025 
Q 903 2953 641 2809 
L 641 3341 
Q 956 3463 1253 3523 
Q 1550 3584 1831 3584 
Q 2591 3584 2966 3190 
Q 3341 2797 3341 1997 
z
" transform="scale(0.015625)"/>
       <path id="DejaVuSans-62" d="M 3116 1747 
Q 3116 2381 2855 2742 
Q 2594 3103 2138 3103 
Q 1681 3103 1420 2742 
Q 1159 2381 1159 1747 
Q 1159 1113 1420 752 
Q 1681 391 2138 391 
Q 2594 391 2855 752 
Q 3116 1113 3116 1747 
z
M 1159 2969 
Q 1341 3281 1617 3432 
Q 1894 3584 2278 3584 
Q 2916 3584 3314 3078 
Q 3713 2572 3713 1747 
Q 3713 922 3314 415 
Q 2916 -91 2278 -91 
Q 1894 -91 1617 61 
Q 1341 213 1159 525 
L 1159 0 
L 581 0 
L 581 4863 
L 1159 4863 
L 1159 2969 
z
" transform="scale(0.015625)"/>
       <path id="DejaVuSans-69" d="M 603 3500 
L 1178 3500 
L 1178 0 
L 603 0 
L 603 3500 
z
M 603 4863 
L 1178 4863 
L 1178 4134 
L 603 4134 
L 603 4863 
z
" transform="scale(0.015625)"/>
       <path id="DejaVuSans-73" d="M 2834 3397 
L 2834 2853 
Q 2591 2978 2328 3040 
Q 2066 3103 1784 3103 
Q 1356 3103 1142 2972 
Q 928 2841 928 2578 
Q 928 2378 1081 2264 
Q 1234 2150 1697 2047 
L 1894 2003 
Q 2506 1872 2764 1633 
Q 3022 1394 3022 966 
Q 3022 478 2636 193 
Q 2250 -91 1575 -91 
Q 1294 -91 989 -36 
Q 684 19 347 128 
L 347 722 
Q 666 556 975 473 
Q 1284 391 1588 391 
Q 1994 391 2212 530 
Q 2431 669 2431 922 
Q 2431 1156 2273 1281 
Q 2116 1406 1581 1522 
L 1381 1569 
Q 847 1681 609 1914 
Q 372 2147 372 2553 
Q 372 3047 722 3315 
Q 1072 3584 1716 3584 
Q 2034 3584 2315 3537 
Q 2597 3491 2834 3397 
z
" transform="scale(0.015625)"/>
      </defs>
      <use xlink:href="#DejaVuSans-72"/>
      <use xlink:href="#DejaVuSans-61" x="41.113281"/>
      <use xlink:href="#DejaVuSans-62" x="102.392578"/>
      <use xlink:href="#DejaVuSans-62" x="165.869141"/>
      <use xlink:href="#DejaVuSans-69" x="229.345703"/>
      <use xlink:href="#DejaVuSans-74" x="257.128906"/>
      <use xlink:href="#DejaVuSans-73" x="296.337891"/>
     </g>
    </g>
    <g id="line2d_17">
     <path d="M 180.425625 34.976562 
L 190.425625 34.976562 
L 200.425625 34.976562 
" style="fill: none; stroke: #008000; stroke-width: 1.5; stroke-linecap: square"/>
     <g>
      <use xlink:href="#m028583c14b" x="190.425625" y="34.976562" style="fill: #008000; stroke: #008000"/>
     </g>
    </g>
    <g id="text_16">
     <!-- foxes -->
     <g transform="translate(208.425625 38.476562) scale(0.1 -0.1)">
      <defs>
       <path id="DejaVuSans-66" d="M 2375 4863 
L 2375 4384 
L 1825 4384 
Q 1516 4384 1395 4259 
Q 1275 4134 1275 3809 
L 1275 3500 
L 2222 3500 
L 2222 3053 
L 1275 3053 
L 1275 0 
L 697 0 
L 697 3053 
L 147 3053 
L 147 3500 
L 697 3500 
L 697 3744 
Q 697 4328 969 4595 
Q 1241 4863 1831 4863 
L 2375 4863 
z
" transform="scale(0.015625)"/>
       <path id="DejaVuSans-6f" d="M 1959 3097 
Q 1497 3097 1228 2736 
Q 959 2375 959 1747 
Q 959 1119 1226 758 
Q 1494 397 1959 397 
Q 2419 397 2687 759 
Q 2956 1122 2956 1747 
Q 2956 2369 2687 2733 
Q 2419 3097 1959 3097 
z
M 1959 3584 
Q 2709 3584 3137 3096 
Q 3566 2609 3566 1747 
Q 3566 888 3137 398 
Q 2709 -91 1959 -91 
Q 1206 -91 779 398 
Q 353 888 353 1747 
Q 353 2609 779 3096 
Q 1206 3584 1959 3584 
z
" transform="scale(0.015625)"/>
       <path id="DejaVuSans-78" d="M 3513 3500 
L 2247 1797 
L 3578 0 
L 2900 0 
L 1881 1375 
L 863 0 
L 184 0 
L 1544 1831 
L 300 3500 
L 978 3500 
L 1906 2253 
L 2834 3500 
L 3513 3500 
z
" transform="scale(0.015625)"/>
       <path id="DejaVuSans-65" d="M 3597 1894 
L 3597 1613 
L 953 1613 
Q 991 1019 1311 708 
Q 1631 397 2203 397 
Q 2534 397 2845 478 
Q 3156 559 3463 722 
L 3463 178 
Q 3153 47 2828 -22 
Q 2503 -91 2169 -91 
Q 1331 -91 842 396 
Q 353 884 353 1716 
Q 353 2575 817 3079 
Q 1281 3584 2069 3584 
Q 2775 3584 3186 3129 
Q 3597 2675 3597 1894 
z
M 3022 2063 
Q 3016 2534 2758 2815 
Q 2500 3097 2075 3097 
Q 1594 3097 1305 2825 
Q 1016 2553 972 2059 
L 3022 2063 
z
" transform="scale(0.015625)"/>
      </defs>
      <use xlink:href="#DejaVuSans-66"/>
      <use xlink:href="#DejaVuSans-6f" x="35.205078"/>
      <use xlink:href="#DejaVuSans-78" x="93.261719"/>
      <use xlink:href="#DejaVuSans-65" x="149.316406"/>
      <use xlink:href="#DejaVuSans-73" x="210.839844"/>
     </g>
    </g>
   </g>
  </g>
 </g>
 <defs>
  <clipPath id="p27c778b100">
   <rect x="33.2875" y="7.2" width="357.12" height="266.112"/>
  </clipPath>
 </defs>
</svg>