<?xml version="1.0" encoding="utf-8" standalone="no"?>
<!DOCTYPE svg PUBLIC "-//W3C//DTD SVG 1.1//EN"
  "http://www.w3.org/Graphics/SVG/1.1/DTD/svg11.dtd">
<svg xmlns:xlink="http://www.w3.org/1999/xlink" width="397.6075pt" height="297.190125pt" viewBox="0 0 397.6075 297.190125" xmlns="http://www.w3.org/2000/svg" version="1.1">
 <metadata>
  <rdf:RDF xmlns:dc="http://purl.org/dc/elements/1.1/" xmlns:cc="http://creativecommons.org/ns#" xmlns:rdf="http://www.w3.org/1999/02/22-rdf-syntax-ns#">
   <cc:Work>
    <dc:type rdf:resource="http://purl.org/dc/dcmitype/StillImage"/>
    <dc:date>2024-04-14T09:59:29.998531</dc:date>
    <dc:format>image/svg+xml</dc:format>
    <dc:creator>
     <cc:Agent>
      <dc:title>Matplotlib v3.8.4, https://matplotlib.org/</dc:title>
     </cc:Agent>
    </dc:creator>
   </cc:Work>
  </rdf:RDF>
 </metadata>
 <defs>
  <style type="text/css">*{stroke-linejoin: round; stroke-linecap: butt}</style>
 </defs>
 <g id="figure_1">
  <g id="patch_1">
   <path d="M 0 297.190125 
L 397.6075 297.190125 
L 397.6075 0 
L 0 0 
z
" style="fill: #ffffff"/>
  </g>
  <g id="axes_1">
   <g id="patch_2">
    <path d="M 33.2875 273.312 
L 390.4075 273.312 
L 390.4075 7.2 
L 33.2875 7.2 
z
" style="fill: #ffffff"/>
   </g>
   <g id="matplotlib.axis_1">
    <g id="xtick_1">
     <g id="line2d_1">
      <defs>
       <path id="m013f946281" d="M 0 0 
L 0 3.5 
" style="stroke: #000000; stroke-width: 0.8"/>
      </defs>
      <g>
       <use xlink:href="#m013f946281" x="49.520227" y="273.312" style="stroke: #000000; stroke-width: 0.8"/>
      </g>
     </g>
     <g id="text_1">
      <!-- 0 -->
      <g transform="translate(46.338977 287.910437) scale(0.1 -0.1)">
       <defs>
        <path id="DejaVuSans-30" d="M 2034 4250 
Q 1547 4250 1301 3770 
Q 1056 3291 1056 2328 
Q 1056 1369 1301 889 
Q 1547 409 2034 409 
Q 2525 409 2770 889 
Q 3016 1369 3016 2328 
Q 3016 3291 2770 3770 
Q 2525 4250 2034 4250 
z
M 2034 4750 
Q 2819 4750 3233 4129 
Q 3647 3509 3647 2328 
Q 3647 1150 3233 529 
Q 2819 -91 2034 -91 
Q 1250 -91 836 529 
Q 422 1150 422 2328 
Q 422 3509 836 4129 
Q 1250 4750 2034 4750 
z
" transform="scale(0.015625)"/>
       </defs>
       <use xlink:href="#DejaVuSans-30"/>
      </g>
     </g>
    </g>
    <g id="xtick_2">
     <g id="line2d_2">
      <g>
       <use xlink:href="#m013f946281" x="115.107004" y="273.312" style="stroke: #000000; stroke-width: 0.8"/>
      </g>
     </g>
     <g id="text_2">
      <!-- 20 -->
      <g transform="translate(108.744504 287.910437) scale(0.1 -0.1)">
       <defs>
        <path id="DejaVuSans-32" d="M 1228 531 
L 3431 531 
L 3431 0 
L 469 0 
L 469 531 
Q 828 903 1448 1529 
Q 2069 2156 2228 2338 
Q 2531 2678 2651 2914 
Q 2772 3150 2772 3378 
Q 2772 3750 2511 3984 
Q 2250 4219 1831 4219 
Q 1534 4219 1204 4116 
Q 875 4013 500 3803 
L 500 4441 
Q 881 4594 1212 4672 
Q 1544 4750 1819 4750 
Q 2544 4750 2975 4387 
Q 3406 4025 3406 3419 
Q 3406 3131 3298 2873 
Q 3191 2616 2906 2266 
Q 2828 2175 2409 1742 
Q 1991 1309 1228 531 
z
" transform="scale(0.015625)"/>
       </defs>
       <use xlink:href="#DejaVuSans-32"/>
       <use xlink:href="#DejaVuSans-30" x="63.623047"/>
      </g>
     </g>
    </g>
    <g id="xtick_3">
     <g id="line2d_3">
      <g>
       <use xlink:href="#m013f946281" x="180.693781" y="273.312" style="stroke: #000000; stroke-width: 0.8"/>
      </g>
     </g>
     <g id="text_3">
      <!-- 40 -->
      <g transform="translate(174.331281 287.910437) scale(0.1 -0.1)">
       <defs>
        <path id="DejaVuSans-34" d="M 2419 4116 
L 825 1625 
L 2419 1625 
L 2419 4116 
z
M 2253 4666 
L 3047 4666 
L 3047 1625 
L 3713 1625 
L 3713 1100 
L 3047 1100 
L 3047 0 
L 2419 0 
L 2419 1100 
L 313 1100 
L 313 1709 
L 2253 4666 
z
" transform="scale(0.015625)"/>
       </defs>
       <use xlink:href="#DejaVuSans-34"/>
       <use xlink:href="#DejaVuSans-30" x="63.623047"/>
      </g>
     </g>
    </g>
    <g id="xtick_4">
     <g id="line2d_4">
      <g>
       <use xlink:href="#m013f946281" x="246.280558" y="273.312" style="stroke: #000000; stroke-width: 0.8"/>
      </g>
     </g>
     <g id="text_4">
      <!-- 60 -->
      <g transform="translate(239.918058 287.910437) scale(0.1 -0.1)">
       <defs>
        <path id="DejaVuSans-36" d="M 2113 2584 
Q 1688 2584 1439 2293 
Q 1191 2003 1191 1497 
Q 1191 994 1439 701 
Q 1688 409 2113 409 
Q 2538 409 2786 701 
Q 3034 994 3034 1497 
Q 3034 2003 2786 2293 
Q 2538 2584 2113 2584 
z
M 3366 4563 
L 3366 3988 
Q 3128 4100 2886 4159 
Q 2644 4219 2406 4219 
Q 1781 4219 1451 3797 
Q 1122 3375 1075 2522 
Q 1259 2794 1537 2939 
Q 1816 3084 2150 3084 
Q 2853 3084 3261 2657 
Q 3669 2231 3669 1497 
Q 3669 778 3244 343 
Q 2819 -91 2113 -91 
Q 1303 -91 875 529 
Q 447 1150 447 2328 
Q 447 3434 972 4092 
Q 1497 4750 2381 4750 
Q 2619 4750 2861 4703 
Q 3103 4656 3366 4563 
z
" transform="scale(0.015625)"/>
       </defs>
       <use xlink:href="#DejaVuSans-36"/>
       <use xlink:href="#DejaVuSans-30" x="63.623047"/>
      </g>
     </g>
    </g>
    <g id="xtick_5">
     <g id="line2d_5">
      <g>
       <use xlink:href="#m013f946281" x="311.867335" y="273.312" style="stroke: #000000; stroke-width: 0.8"/>
      </g>
     </g>
     <g id="text_5">
      <!-- 80 -->
      <g transform="translate(305.504835 287.910437) scale(0.1 -0.1)">
       <defs>
        <path id="DejaVuSans-38" d="M 2034 2216 
Q 1584 2216 1326 1975 
Q 1069 1734 1069 1313 
Q 1069 891 1326 650 
Q 1584 409 2034 409 
Q 2484 409 2743 651 
Q 3003 894 3003 1313 
Q 3003 1734 2745 1975 
Q 2488 2216 2034 2216 
z
M 1403 2484 
Q 997 2584 770 2862 
Q 544 3141 544 3541 
Q 544 4100 942 4425 
Q 1341 4750 2034 4750 
Q 2731 4750 3128 4425 
Q 3525 4100 3525 3541 
Q 3525 3141 3298 2862 
Q 3072 2584 2669 2484 
Q 3125 2378 3379 2068 
Q 3634 1759 3634 1313 
Q 3634 634 3220 271 
Q 2806 -91 2034 -91 
Q 1263 -91 848 271 
Q 434 634 434 1313 
Q 434 1759 690 2068 
Q 947 2378 1403 2484 
z
M 1172 3481 
Q 1172 3119 1398 2916 
Q 1625 2713 2034 2713 
Q 2441 2713 2670 2916 
Q 2900 3119 2900 3481 
Q 2900 3844 2670 4047 
Q 2441 4250 2034 4250 
Q 1625 4250 1398 4047 
Q 1172 3844 1172 3481 
z
" transform="scale(0.015625)"/>
       </defs>
       <use xlink:href="#DejaVuSans-38"/>
       <use xlink:href="#DejaVuSans-30" x="63.623047"/>
      </g>
     </g>
    </g>
    <g id="xtick_6">
     <g id="line2d_6">
      <g>
       <use xlink:href="#m013f946281" x="377.454112" y="273.312" style="stroke: #000000; stroke-width: 0.8"/>
      </g>
     </g>
     <g id="text_6">
      <!-- 100 -->
      <g transform="translate(367.910362 287.910437) scale(0.1 -0.1)">
       <defs>
        <path id="DejaVuSans-31" d="M 794 531 
L 1825 531 
L 1825 4091 
L 703 3866 
L 703 4441 
L 1819 4666 
L 2450 4666 
L 2450 531 
L 3481 531 
L 3481 0 
L 794 0 
L 794 531 
z
" transform="scale(0.015625)"/>
       </defs>
       <use xlink:href="#DejaVuSans-31"/>
       <use xlink:href="#DejaVuSans-30" x="63.623047"/>
       <use xlink:href="#DejaVuSans-30" x="127.246094"/>
      </g>
     </g>
    </g>
   </g>
   <g id="matplotlib.axis_2">
    <g id="ytick_1">
     <g id="line2d_7">
      <defs>
       <path id="mecdb4b6fd8" d="M 0 0 
L -3.5 0 
" style="stroke: #000000; stroke-width: 0.8"/>
      </defs>
      <g>
       <use xlink:href="#mecdb4b6fd8" x="33.2875" y="261.216" style="stroke: #000000; stroke-width: 0.8"/>
      </g>
     </g>
     <g id="text_7">
      <!-- 0 -->
      <g transform="translate(19.925 265.015219) scale(0.1 -0.1)">
       <use xlink:href="#DejaVuSans-30"/>
      </g>
     </g>
    </g>
    <g id="ytick_2">
     <g id="line2d_8">
      <g>
       <use xlink:href="#mecdb4b6fd8" x="33.2875" y="212.343273" style="stroke: #000000; stroke-width: 0.8"/>
      </g>
     </g>
     <g id="text_8">
      <!-- 20 -->
      <g transform="translate(13.5625 216.142491) scale(0.1 -0.1)">
       <use xlink:href="#DejaVuSans-32"/>
       <use xlink:href="#DejaVuSans-30" x="63.623047"/>
      </g>
     </g>
    </g>
    <g id="ytick_3">
     <g id="line2d_9">
      <g>
       <use xlink:href="#mecdb4b6fd8" x="33.2875" y="163.470545" style="stroke: #000000; stroke-width: 0.8"/>
      </g>
     </g>
     <g id="text_9">
      <!-- 40 -->
      <g transform="translate(13.5625 167.269764) scale(0.1 -0.1)">
       <use xlink:href="#DejaVuSans-34"/>
       <use xlink:href="#DejaVuSans-30" x="63.623047"/>
      </g>
     </g>
    </g>
    <g id="ytick_4">
     <g id="line2d_10">
      <g>
       <use xlink:href="#mecdb4b6fd8" x="33.2875" y="114.597818" style="stroke: #000000; stroke-width: 0.8"/>
      </g>
     </g>
     <g id="text_10">
      <!-- 60 -->
      <g transform="translate(13.5625 118.397037) scale(0.1 -0.1)">
       <use xlink:href="#DejaVuSans-36"/>
       <use xlink:href="#DejaVuSans-30" x="63.623047"/>
      </g>
     </g>
    </g>
    <g id="ytick_5">
     <g id="line2d_11">
      <g>
       <use xlink:href="#mecdb4b6fd8" x="33.2875" y="65.725091" style="stroke: #000000; stroke-width: 0.8"/>
      </g>
     </g>
     <g id="text_11">
      <!-- 80 -->
      <g transform="translate(13.5625 69.52431) scale(0.1 -0.1)">
       <use xlink:href="#DejaVuSans-38"/>
       <use xlink:href="#DejaVuSans-30" x="63.623047"/>
      </g>
     </g>
    </g>
    <g id="ytick_6">
     <g id="line2d_12">
      <g>
       <use xlink:href="#mecdb4b6fd8" x="33.2875" y="16.852364" style="stroke: #000000; stroke-width: 0.8"/>
      </g>
     </g>
     <g id="text_12">
      <!-- 100 -->
      <g transform="translate(7.2 20.651582) scale(0.1 -0.1)">
       <use xlink:href="#DejaVuSans-31"/>
       <use xlink:href="#DejaVuSans-30" x="63.623047"/>
       <use xlink:href="#DejaVuSans-30" x="127.246094"/>
      </g>
     </g>
    </g>
   </g>
   <g id="line2d_13">
    <defs>
     <path id="m9de03d65cb" d="M -3 3 
L 3 -3 
M -3 -3 
L 3 3 
" style="stroke: #1f77b4"/>
    </defs>
    <g clip-path="url(#p237cfd1443)">
     <use xlink:href="#m9de03d65cb" x="49.520227" y="261.216" style="fill: #1f77b4; stroke: #1f77b4"/>
     <use xlink:href="#m9de03d65cb" x="52.799566" y="258.772364" style="fill: #1f77b4; stroke: #1f77b4"/>
     <use xlink:href="#m9de03d65cb" x="56.078905" y="256.328727" style="fill: #1f77b4; stroke: #1f77b4"/>
     <use xlink:href="#m9de03d65cb" x="59.358244" y="253.885091" style="fill: #1f77b4; stroke: #1f77b4"/>
     <use xlink:href="#m9de03d65cb" x="62.637583" y="251.441455" style="fill: #1f77b4; stroke: #1f77b4"/>
     <use xlink:href="#m9de03d65cb" x="65.916921" y="248.997818" style="fill: #1f77b4; stroke: #1f77b4"/>
     <use xlink:href="#m9de03d65cb" x="69.19626" y="246.554182" style="fill: #1f77b4; stroke: #1f77b4"/>
     <use xlink:href="#m9de03d65cb" x="72.475599" y="244.110545" style="fill: #1f77b4; stroke: #1f77b4"/>
     <use xlink:href="#m9de03d65cb" x="75.754938" y="241.666909" style="fill: #1f77b4; stroke: #1f77b4"/>
     <use xlink:href="#m9de03d65cb" x="79.034277" y="239.223273" style="fill: #1f77b4; stroke: #1f77b4"/>
     <use xlink:href="#m9de03d65cb" x="82.313616" y="236.779636" style="fill: #1f77b4; stroke: #1f77b4"/>
     <use xlink:href="#m9de03d65cb" x="85.592955" y="234.336" style="fill: #1f77b4; stroke: #1f77b4"/>
     <use xlink:href="#m9de03d65cb" x="88.872293" y="231.892364" style="fill: #1f77b4; stroke: #1f77b4"/>
     <use xlink:href="#m9de03d65cb" x="92.151632" y="229.448727" style="fill: #1f77b4; stroke: #1f77b4"/>
     <use xlink:href="#m9de03d65cb" x="95.430971" y="227.005091" style="fill: #1f77b4; stroke: #1f77b4"/>
     <use xlink:href="#m9de03d65cb" x="98.71031" y="224.561455" style="fill: #1f77b4; stroke: #1f77b4"/>
     <use xlink:href="#m9de03d65cb" x="101.989649" y="222.117818" style="fill: #1f77b4; stroke: #1f77b4"/>
     <use xlink:href="#m9de03d65cb" x="105.268988" y="219.674182" style="fill: #1f77b4; stroke: #1f77b4"/>
     <use xlink:href="#m9de03d65cb" x="108.548326" y="217.230545" style="fill: #1f77b4; stroke: #1f77b4"/>
     <use xlink:href="#m9de03d65cb" x="111.827665" y="214.786909" style="fill: #1f77b4; stroke: #1f77b4"/>
     <use xlink:href="#m9de03d65cb" x="115.107004" y="212.343273" style="fill: #1f77b4; stroke: #1f77b4"/>
     <use xlink:href="#m9de03d65cb" x="118.386343" y="209.899636" style="fill: #1f77b4; stroke: #1f77b4"/>
     <use xlink:href="#m9de03d65cb" x="121.665682" y="207.456" style="fill: #1f77b4; stroke: #1f77b4"/>
     <use xlink:href="#m9de03d65cb" x="124.945021" y="205.012364" style="fill: #1f77b4; stroke: #1f77b4"/>
     <use xlink:href="#m9de03d65cb" x="128.22436" y="202.568727" style="fill: #1f77b4; stroke: #1f77b4"/>
     <use xlink:href="#m9de03d65cb" x="131.503698" y="200.125091" style="fill: #1f77b4; stroke: #1f77b4"/>
     <use xlink:href="#m9de03d65cb" x="134.783037" y="197.681455" style="fill: #1f77b4; stroke: #1f77b4"/>
     <use xlink:href="#m9de03d65cb" x="138.062376" y="195.237818" style="fill: #1f77b4; stroke: #1f77b4"/>
     <use xlink:href="#m9de03d65cb" x="141.341715" y="192.794182" style="fill: #1f77b4; stroke: #1f77b4"/>
     <use xlink:href="#m9de03d65cb" x="144.621054" y="190.350545" style="fill: #1f77b4; stroke: #1f77b4"/>
     <use xlink:href="#m9de03d65cb" x="147.900393" y="187.906909" style="fill: #1f77b4; stroke: #1f77b4"/>
     <use xlink:href="#m9de03d65cb" x="151.179731" y="185.463273" style="fill: #1f77b4; stroke: #1f77b4"/>
     <use xlink:href="#m9de03d65cb" x="154.45907" y="183.019636" style="fill: #1f77b4; stroke: #1f77b4"/>
     <use xlink:href="#m9de03d65cb" x="157.738409" y="180.576" style="fill: #1f77b4; stroke: #1f77b4"/>
     <use xlink:href="#m9de03d65cb" x="161.017748" y="178.132364" style="fill: #1f77b4; stroke: #1f77b4"/>
     <use xlink:href="#m9de03d65cb" x="164.297087" y="175.688727" style="fill: #1f77b4; stroke: #1f77b4"/>
     <use xlink:href="#m9de03d65cb" x="167.576426" y="173.245091" style="fill: #1f77b4; stroke: #1f77b4"/>
     <use xlink:href="#m9de03d65cb" x="170.855764" y="170.801455" style="fill: #1f77b4; stroke: #1f77b4"/>
     <use xlink:href="#m9de03d65cb" x="174.135103" y="168.357818" style="fill: #1f77b4; stroke: #1f77b4"/>
     <use xlink:href="#m9de03d65cb" x="177.414442" y="165.914182" style="fill: #1f77b4; stroke: #1f77b4"/>
     <use xlink:href="#m9de03d65cb" x="180.693781" y="163.470545" style="fill: #1f77b4; stroke: #1f77b4"/>
     <use xlink:href="#m9de03d65cb" x="183.97312" y="161.026909" style="fill: #1f77b4; stroke: #1f77b4"/>
     <use xlink:href="#m9de03d65cb" x="187.252459" y="158.583273" style="fill: #1f77b4; stroke: #1f77b4"/>
     <use xlink:href="#m9de03d65cb" x="190.531798" y="156.139636" style="fill: #1f77b4; stroke: #1f77b4"/>
     <use xlink:href="#m9de03d65cb" x="193.811136" y="153.696" style="fill: #1f77b4; stroke: #1f77b4"/>
     <use xlink:href="#m9de03d65cb" x="197.090475" y="151.252364" style="fill: #1f77b4; stroke: #1f77b4"/>
     <use xlink:href="#m9de03d65cb" x="200.369814" y="148.808727" style="fill: #1f77b4; stroke: #1f77b4"/>
     <use xlink:href="#m9de03d65cb" x="203.649153" y="146.365091" style="fill: #1f77b4; stroke: #1f77b4"/>
     <use xlink:href="#m9de03d65cb" x="206.928492" y="143.921455" style="fill: #1f77b4; stroke: #1f77b4"/>
     <use xlink:href="#m9de03d65cb" x="210.207831" y="141.477818" style="fill: #1f77b4; stroke: #1f77b4"/>
     <use xlink:href="#m9de03d65cb" x="213.487169" y="139.034182" style="fill: #1f77b4; stroke: #1f77b4"/>
     <use xlink:href="#m9de03d65cb" x="216.766508" y="136.590545" style="fill: #1f77b4; stroke: #1f77b4"/>
     <use xlink:href="#m9de03d65cb" x="220.045847" y="134.146909" style="fill: #1f77b4; stroke: #1f77b4"/>
     <use xlink:href="#m9de03d65cb" x="223.325186" y="131.703273" style="fill: #1f77b4; stroke: #1f77b4"/>
     <use xlink:href="#m9de03d65cb" x="226.604525" y="129.259636" style="fill: #1f77b4; stroke: #1f77b4"/>
     <use xlink:href="#m9de03d65cb" x="229.883864" y="126.816" style="fill: #1f77b4; stroke: #1f77b4"/>
     <use xlink:href="#m9de03d65cb" x="233.163202" y="124.372364" style="fill: #1f77b4; stroke: #1f77b4"/>
     <use xlink:href="#m9de03d65cb" x="236.442541" y="121.928727" style="fill: #1f77b4; stroke: #1f77b4"/>
     <use xlink:href="#m9de03d65cb" x="239.72188" y="119.485091" style="fill: #1f77b4; stroke: #1f77b4"/>
     <use xlink:href="#m9de03d65cb" x="243.001219" y="117.041455" style="fill: #1f77b4; stroke: #1f77b4"/>
     <use xlink:href="#m9de03d65cb" x="246.280558" y="114.597818" style="fill: #1f77b4; stroke: #1f77b4"/>
     <use xlink:href="#m9de03d65cb" x="249.559897" y="112.154182" style="fill: #1f77b4; stroke: #1f77b4"/>
     <use xlink:href="#m9de03d65cb" x="252.839236" y="109.710545" style="fill: #1f77b4; stroke: #1f77b4"/>
     <use xlink:href="#m9de03d65cb" x="256.118574" y="107.266909" style="fill: #1f77b4; stroke: #1f77b4"/>
     <use xlink:href="#m9de03d65cb" x="259.397913" y="104.823273" style="fill: #1f77b4; stroke: #1f77b4"/>
     <use xlink:href="#m9de03d65cb" x="262.677252" y="102.379636" style="fill: #1f77b4; stroke: #1f77b4"/>
     <use xlink:href="#m9de03d65cb" x="265.956591" y="99.936" style="fill: #1f77b4; stroke: #1f77b4"/>
     <use xlink:href="#m9de03d65cb" x="269.23593" y="97.492364" style="fill: #1f77b4; stroke: #1f77b4"/>
     <use xlink:href="#m9de03d65cb" x="272.515269" y="95.048727" style="fill: #1f77b4; stroke: #1f77b4"/>
     <use xlink:href="#m9de03d65cb" x="275.794607" y="92.605091" style="fill: #1f77b4; stroke: #1f77b4"/>
     <use xlink:href="#m9de03d65cb" x="279.073946" y="90.161455" style="fill: #1f77b4; stroke: #1f77b4"/>
     <use xlink:href="#m9de03d65cb" x="282.353285" y="87.717818" style="fill: #1f77b4; stroke: #1f77b4"/>
     <use xlink:href="#m9de03d65cb" x="285.632624" y="85.274182" style="fill: #1f77b4; stroke: #1f77b4"/>
     <use xlink:href="#m9de03d65cb" x="288.911963" y="82.830545" style="fill: #1f77b4; stroke: #1f77b4"/>
     <use xlink:href="#m9de03d65cb" x="292.191302" y="80.386909" style="fill: #1f77b4; stroke: #1f77b4"/>
     <use xlink:href="#m9de03d65cb" x="295.47064" y="77.943273" style="fill: #1f77b4; stroke: #1f77b4"/>
     <use xlink:href="#m9de03d65cb" x="298.749979" y="75.499636" style="fill: #1f77b4; stroke: #1f77b4"/>
     <use xlink:href="#m9de03d65cb" x="302.029318" y="73.056" style="fill: #1f77b4; stroke: #1f77b4"/>
     <use xlink:href="#m9de03d65cb" x="305.308657" y="70.612364" style="fill: #1f77b4; stroke: #1f77b4"/>
     <use xlink:href="#m9de03d65cb" x="308.587996" y="68.168727" style="fill: #1f77b4; stroke: #1f77b4"/>
     <use xlink:href="#m9de03d65cb" x="311.867335" y="65.725091" style="fill: #1f77b4; stroke: #1f77b4"/>
     <use xlink:href="#m9de03d65cb" x="315.146674" y="63.281455" style="fill: #1f77b4; stroke: #1f77b4"/>
     <use xlink:href="#m9de03d65cb" x="318.426012" y="60.837818" style="fill: #1f77b4; stroke: #1f77b4"/>
     <use xlink:href="#m9de03d65cb" x="321.705351" y="58.394182" style="fill: #1f77b4; stroke: #1f77b4"/>
     <use xlink:href="#m9de03d65cb" x="324.98469" y="55.950545" style="fill: #1f77b4; stroke: #1f77b4"/>
     <use xlink:href="#m9de03d65cb" x="328.264029" y="53.506909" style="fill: #1f77b4; stroke: #1f77b4"/>
     <use xlink:href="#m9de03d65cb" x="331.543368" y="51.063273" style="fill: #1f77b4; stroke: #1f77b4"/>
     <use xlink:href="#m9de03d65cb" x="334.822707" y="48.619636" style="fill: #1f77b4; stroke: #1f77b4"/>
     <use xlink:href="#m9de03d65cb" x="338.102045" y="46.176" style="fill: #1f77b4; stroke: #1f77b4"/>
     <use xlink:href="#m9de03d65cb" x="341.381384" y="43.732364" style="fill: #1f77b4; stroke: #1f77b4"/>
     <use xlink:href="#m9de03d65cb" x="344.660723" y="41.288727" style="fill: #1f77b4; stroke: #1f77b4"/>
     <use xlink:href="#m9de03d65cb" x="347.940062" y="38.845091" style="fill: #1f77b4; stroke: #1f77b4"/>
     <use xlink:href="#m9de03d65cb" x="351.219401" y="36.401455" style="fill: #1f77b4; stroke: #1f77b4"/>
     <use xlink:href="#m9de03d65cb" x="354.49874" y="33.957818" style="fill: #1f77b4; stroke: #1f77b4"/>
     <use xlink:href="#m9de03d65cb" x="357.778079" y="31.514182" style="fill: #1f77b4; stroke: #1f77b4"/>
     <use xlink:href="#m9de03d65cb" x="361.057417" y="29.070545" style="fill: #1f77b4; stroke: #1f77b4"/>
     <use xlink:href="#m9de03d65cb" x="364.336756" y="26.626909" style="fill: #1f77b4; stroke: #1f77b4"/>
     <use xlink:href="#m9de03d65cb" x="367.616095" y="24.183273" style="fill: #1f77b4; stroke: #1f77b4"/>
     <use xlink:href="#m9de03d65cb" x="370.895434" y="21.739636" style="fill: #1f77b4; stroke: #1f77b4"/>
     <use xlink:href="#m9de03d65cb" x="374.174773" y="19.296" style="fill: #1f77b4; stroke: #1f77b4"/>
    </g>
   </g>
   <g id="patch_3">
    <path d="M 33.2875 273.312 
L 33.2875 7.2 
" style="fill: none; stroke: #000000; stroke-width: 0.8; stroke-linejoin: miter; stroke-linecap: square"/>
   </g>
   <g id="patch_4">
    <path d="M 390.4075 273.312 
L 390.4075 7.2 
" style="fill: none; stroke: #000000; stroke-width: 0.8; stroke-linejoin: miter; stroke-linecap: square"/>
   </g>
   <g id="patch_5">
    <path d="M 33.2875 273.312 
L 390.4075 273.312 
" style="fill: none; stroke: #000000; stroke-width: 0.8; stroke-linejoin: miter; stroke-linecap: square"/>
   </g>
   <g id="patch_6">
    <path d="M 33.2875 7.2 
L 390.4075 7.2 
" style="fill: none; stroke: #000000; stroke-width: 0.8; stroke-linejoin: miter; stroke-linecap: square"/>
   </g>
  </g>
 </g>
 <defs>
  <clipPath id="p237cfd1443">
   <rect x="33.2875" y="7.2" width="357.12" height="266.112"/>
  </clipPath>
 </defs>
</svg>